<?xml version="1.0" encoding="iso-8859-1"?>
<!-- Generator: Adobe Illustrator 19.0.0, SVG Export Plug-In . SVG Version: 6.00 Build 0)  -->
<svg version="1.1" id="Capa_1" xmlns="http://www.w3.org/2000/svg" xmlns:xlink="http://www.w3.org/1999/xlink" x="0px" y="0px"
	 viewBox="0 0 511.989 511.989" style="enable-background:new 0 0 511.989 511.989;" xml:space="preserve">
<g>
	<g transform="translate(1 1)">
		<path style="fill:#E3E7F2;" d="M485.242,198.913c0.014,5.52-2.206,10.81-6.155,14.667l-14.755,14.667l-73.859,73.421
			L250.175,441.135c-55.846,56.506-146.236,59.163-205.305,6.035C0.387,389.151,5.309,307.258,56.421,254.984l0.084-0.084v-0.084
			l113.234-112.561L290.56,22.15c5.209-5.197,12.769-7.267,19.899-5.448c3.673,0.886,7.028,2.772,9.695,5.448
			c8.095,8.103,8.095,21.232,0,29.335l-125.796,125.05c-4.78,4.687-6.955,11.423-5.817,18.02c1.282,7.71,6.767,14.056,14.21,16.44
			s15.595,0.406,21.117-5.125l44.349-44.002l19.646-19.612l4.889-4.861l9.866-9.806c5.18-5.185,12.71-7.255,19.813-5.448
			c3.704,0.869,7.092,2.756,9.781,5.448c8.095,8.103,8.095,21.232,0,29.335l-34.484,34.279l-24.619,24.474
			c-4.78,4.687-6.955,11.422-5.818,18.02c1.282,7.71,6.767,14.055,14.211,16.439s15.595,0.406,21.117-5.124l29.594-29.335
			l9.781-9.807l39.374-39.141c5.181-5.185,12.711-7.255,19.814-5.448c3.69,0.904,7.069,2.786,9.78,5.448
			c8.094,8.103,8.094,21.231,0,29.335l-73.859,73.421c-4.779,4.688-6.953,11.423-5.817,18.02c0.647,4.331,2.69,8.333,5.817,11.399
			c8.191,8.046,21.319,8.046,29.51,0l9.865-9.807l73.859-73.42l14.755-14.667c5.181-5.185,12.71-7.255,19.814-5.448
			C485.142,196.662,485.256,197.786,485.242,198.913L485.242,198.913z"/>
		<path style="fill:#A4C2F7;" d="M273.018,350.306c0.026,51.844-35.51,96.94-85.924,109.036
			c-50.414,12.096-102.543-11.965-126.044-58.177c-8.137-15.714-12.353-33.163-12.288-50.859
			c0-61.927,50.201-112.128,112.128-112.128S273.018,288.38,273.018,350.306L273.018,350.306z"/>
		<path style="fill:#E3E7F2;" d="M254.842,324.45c0.033,45.992-28.043,87.334-70.807,104.262s-91.529,6.005-122.985-27.547
			c-8.137-15.714-12.353-33.163-12.288-50.859c-0.008-46.001,28.086-87.339,70.861-104.264s91.547-6.003,123.017,27.55
			C250.71,289.327,254.894,306.766,254.842,324.45z"/>
		<g>
			<circle style="fill:#A4C2F7;" cx="148.176" cy="293.389" r="21.333"/>
			<circle style="fill:#A4C2F7;" cx="122.576" cy="378.722" r="29.867"/>
			<circle style="fill:#A4C2F7;" cx="216.442" cy="361.656" r="21.333"/>
		</g>
		<path style="fill:#FFFFFF;" d="M301.486,9.982c-5.613-0.017-10.996,2.229-14.933,6.23l-14.933,14.933l-74.752,74.752
			L54.873,247.893c-59.04,57.824-60.147,152.523-2.475,211.712c4.218,4.199,8.692,8.132,13.397,11.776
			c-54.095-59.67-51.382-151.418,6.144-207.787l141.995-141.995l74.752-74.752l14.933-14.933c3.937-4.001,9.32-6.246,14.933-6.229
			c1.147-0.013,2.292,0.101,3.413,0.341C319.613,16.622,311.179,10.015,301.486,9.982L301.486,9.982z"/>
		<path style="fill:#A4C2F7;" d="M500.945,210.786c0.017,5.613-2.229,10.996-6.23,14.933l-14.933,14.933l-74.752,74.752
			L263.034,457.4c-57.824,59.041-152.523,60.148-211.712,2.475c-4.199-4.218-8.132-8.692-11.776-13.397
			c59.67,54.095,151.418,51.382,207.787-6.144l141.995-141.995l74.752-74.752l14.933-14.933c4.001-3.937,6.246-9.32,6.229-14.933
			c0.013-1.147-0.101-2.292-0.341-3.413C494.304,192.659,500.911,201.093,500.945,210.786L500.945,210.786z"/>
	</g>
	<g>
		<circle style="fill:#428DFF;" cx="243.896" cy="60.576" r="8.533"/>
		<path style="fill:#428DFF;" d="M161.926,471.96c-66.641-0.001-120.663-54.025-120.662-120.665
			c0-66.641,54.023-120.663,120.664-120.664c66.641,0,120.664,54.022,120.665,120.663
			C282.517,417.904,228.537,471.884,161.926,471.96L161.926,471.96z M161.926,247.697c-57.216,0.001-103.597,46.384-103.596,103.6
			c0.001,57.216,46.384,103.597,103.6,103.596s103.597-46.384,103.596-103.6C265.459,294.105,219.114,247.762,161.926,247.697z"/>
		<path style="fill:#428DFF;" d="M155.901,511.981c-41.082,0.185-80.54-16.028-109.625-45.042
			c-59.57-61.6-59.674-159.307-0.233-221.033l2.708-2.771c3.325-3.341,8.73-3.355,12.071-0.029c3.341,3.325,3.354,8.73,0.029,12.071
			l-2.467,2.525C5.293,312.697,5.275,399.855,58.343,454.873c55.875,54.345,145.19,53.231,199.692-2.492
			c2.155-2.156,5.297-2.997,8.242-2.208s5.244,3.089,6.033,6.033c0.789,2.944-0.053,6.086-2.208,8.242
			C239.861,494.835,198.771,511.938,155.901,511.981L155.901,511.981z"/>
		<path style="fill:#428DFF;" d="M52.326,260.214c-2.259,0.01-4.429-0.88-6.03-2.474c-1.601-1.593-2.502-3.759-2.503-6.018v-0.083
			c0.001-2.263,0.9-4.433,2.5-6.033l167.25-167.175c2.153-2.176,5.306-3.033,8.264-2.245c2.958,0.788,5.268,3.099,6.053,6.057
			s-0.073,6.111-2.25,8.262L58.684,257.347C57.073,259.169,54.758,260.213,52.326,260.214z"/>
		<path style="fill:#428DFF;" d="M267.792,44.789c-3.449,0.001-6.559-2.073-7.883-5.258c-1.324-3.184-0.601-6.853,1.833-9.296
			l21.417-21.504c2.151-2.162,5.292-3.011,8.239-2.229c2.947,0.782,5.254,3.077,6.05,6.021c0.796,2.944-0.038,6.088-2.189,8.25
			l-21.417,21.504C272.241,43.887,270.063,44.791,267.792,44.789L267.792,44.789z"/>
		<path style="fill:#428DFF;" d="M261.576,469.439c-3.455-0.004-6.568-2.086-7.893-5.277c-1.325-3.191-0.601-6.865,1.835-9.315
			c0.184-0.187,0.379-0.364,0.583-0.529l218.667-218.671c3.332-3.332,8.735-3.332,12.067,0c3.332,3.332,3.332,8.735,0,12.067
			L267.609,466.939C266.011,468.542,263.839,469.442,261.576,469.439z"/>
		<path style="fill:#428DFF;" d="M166.926,145.568c-3.453,0.001-6.566-2.079-7.887-5.269c-1.321-3.19-0.589-6.862,1.854-9.302
			l52.65-52.567c2.153-2.176,5.306-3.033,8.264-2.245c2.958,0.788,5.268,3.099,6.053,6.057s-0.073,6.111-2.25,8.262l-52.65,52.567
			C171.359,144.672,169.189,145.571,166.926,145.568L166.926,145.568z"/>
		<path style="fill:#428DFF;" d="M191.842,180.468c-3.451-0.001-6.562-2.08-7.882-5.268c-1.32-3.188-0.591-6.858,1.849-9.298
			L313.126,38.585c4.856-4.938,4.856-12.858,0-17.796c-4.999-4.789-12.882-4.79-17.883-0.004l-21.4,21.491
			c-3.325,3.341-8.73,3.354-12.071,0.029s-3.354-8.73-0.029-12.071l21.417-21.504c11.751-11.25,30.276-11.255,42.034-0.012
			c11.522,11.605,11.522,30.333,0,41.937L197.875,177.968C196.277,179.571,194.106,180.471,191.842,180.468z"/>
		<path style="fill:#428DFF;" d="M296.451,195.41c-3.451-0.001-6.562-2.08-7.882-5.268c-1.321-3.188-0.591-6.858,1.849-9.298
			l14.75-14.758l0.192-0.192l19.933-19.929c4.9-4.931,4.9-12.894,0-17.825c-4.982-4.775-12.843-4.775-17.825,0l-14.95,14.946
			l-0.075,0.071l-19.858,19.858c-3.332,3.332-8.735,3.332-12.067,0c-3.332-3.332-3.332-8.735,0-12.067l24.917-24.913l0.092-0.092
			l9.875-9.871c11.734-11.222,30.222-11.224,41.958-0.004c11.567,11.596,11.567,30.366,0,41.962l-9.858,9.854l-0.108,0.113
			l-24.909,24.912C300.885,194.513,298.714,195.413,296.451,195.41z"/>
		<path style="fill:#428DFF;" d="M361.217,250.214c-3.451-0.001-6.562-2.08-7.882-5.268c-1.321-3.188-0.591-6.858,1.849-9.298
			l49.825-49.825c4.911-4.927,4.911-12.898,0-17.825c-4.981-4.779-12.844-4.779-17.825,0l-49.825,49.825
			c-3.332,3.332-8.735,3.332-12.067,0c-3.332-3.332-3.332-8.735,0-12.067l49.825-49.825c11.734-11.225,30.225-11.225,41.958,0
			c11.578,11.59,11.578,30.368,0,41.958l-49.825,49.825C365.653,249.317,363.481,250.217,361.217,250.214L361.217,250.214z"/>
		<path style="fill:#428DFF;" d="M406.059,324.952c-3.451-0.001-6.562-2.08-7.882-5.268c-1.321-3.188-0.591-6.858,1.849-9.298
			l89.683-89.684c4.911-4.93,4.911-12.903,0-17.833c-4.983-4.774-12.844-4.772-17.825,0.004l-89.683,89.683
			c-2.154,2.162-5.299,3.008-8.247,2.22c-2.948-0.788-5.251-3.091-6.039-6.039c-0.788-2.948,0.058-6.093,2.22-8.247l89.683-89.683
			c11.734-11.225,30.225-11.225,41.958,0c11.578,11.59,11.578,30.368,0,41.958l-89.683,89.687
			C410.494,324.055,408.323,324.954,406.059,324.952z"/>
		<path style="fill:#428DFF;" d="M206.767,216.535c-12.002,0.008-22.826-7.219-27.42-18.307
			c-4.594-11.088-2.054-23.852,6.436-32.335L313.092,38.585c2.15-2.18,5.304-3.041,8.264-2.255c2.96,0.786,5.271,3.097,6.057,6.057
			c0.786,2.96-0.075,6.113-2.255,8.264L197.851,177.96c-4.908,4.93-4.908,12.9,0,17.829c4.996,4.742,12.829,4.742,17.825,0
			l69.758-69.754c3.332-3.332,8.735-3.332,12.067,0c3.332,3.332,3.332,8.735,0,12.067l-4.983,4.983l-0.075,0.071l-64.7,64.7
			C222.191,213.435,214.638,216.561,206.767,216.535L206.767,216.535z"/>
		<path style="fill:#428DFF;" d="M286.484,256.393c-12.002,0.01-22.827-7.215-27.422-18.303
			c-4.595-11.088-2.053-23.852,6.438-32.334l39.858-39.863c2.156-2.156,5.297-2.997,8.242-2.208
			c2.945,0.789,5.245,3.089,6.033,6.034c0.789,2.945-0.053,6.086-2.208,8.242l-39.858,39.862c-4.908,4.928-4.908,12.897,0,17.825
			c4.998,4.745,12.837,4.743,17.833-0.004l39.858-39.854c3.332-3.332,8.735-3.332,12.067,0c3.332,3.332,3.332,8.735,0,12.067
			l-39.858,39.858C301.913,253.294,294.357,256.419,286.484,256.393z"/>
		<path style="fill:#428DFF;" d="M351.259,311.197c-12.006,0.016-22.837-7.209-27.433-18.301
			c-4.596-11.092-2.049-23.861,6.45-32.341l24.908-24.909c3.332-3.332,8.735-3.332,12.067,0c3.332,3.332,3.332,8.735,0,12.067
			l-24.908,24.913c-2.374,2.359-3.708,5.566-3.708,8.912s1.335,6.554,3.708,8.912c4.995,4.743,12.828,4.745,17.825,0.004l84.7-84.7
			c2.156-2.156,5.297-2.997,8.242-2.208c2.944,0.789,5.244,3.089,6.033,6.033c0.789,2.944-0.053,6.086-2.208,8.242l-84.7,84.7
			C366.682,308.1,359.129,311.225,351.259,311.197z"/>
		<path style="fill:#428DFF;" d="M51.042,187.722c-3.509-0.001-6.659-2.149-7.942-5.415c-1.283-3.266-0.436-6.984,2.134-9.373
			L164.701,62.002c3.456-3.195,8.846-2.99,12.049,0.459c3.203,3.449,3.01,8.839-0.432,12.05L56.851,185.443
			C55.273,186.912,53.197,187.726,51.042,187.722z"/>
		<path style="fill:#428DFF;" d="M25.442,213.322c-2.259-0.033-4.422-0.917-6.059-2.475c-0.753-0.83-1.359-1.783-1.792-2.817
			c-0.48-1.012-0.714-2.123-0.683-3.242c0.03-2.26,0.914-4.424,2.475-6.059c2.491-2.348,6.114-3.047,9.3-1.796
			c0.543,0.188,1.059,0.447,1.533,0.771c0.425,0.341,0.858,0.683,1.283,1.025c0.341,0.425,0.683,0.85,1.025,1.279
			c0.32,0.476,0.578,0.991,0.767,1.533c0.247,0.483,0.419,1.002,0.508,1.537c0.104,0.564,0.163,1.135,0.175,1.709
			c0.027,1.119-0.207,2.229-0.683,3.242c-0.433,1.034-1.039,1.987-1.792,2.817c-0.425,0.341-0.858,0.683-1.283,1.021
			c-0.475,0.324-0.99,0.583-1.533,0.771C27.658,213.077,26.557,213.309,25.442,213.322z"/>
		<path style="fill:#428DFF;" d="M59.576,127.989c-3.509-0.001-6.659-2.149-7.942-5.415c-1.283-3.266-0.436-6.984,2.134-9.373
			L173.234,2.268c3.456-3.195,8.846-2.99,12.049,0.459c3.203,3.449,3.01,8.839-0.432,12.05L65.384,125.71
			C63.807,127.178,61.731,127.993,59.576,127.989z"/>
		<path style="fill:#428DFF;" d="M33.976,153.589c-3.873,0-7.262-2.603-8.263-6.345c-1-3.742,0.639-7.688,3.995-9.621
			c3.356-1.933,7.592-1.369,10.326,1.374c2.462,2.441,3.201,6.129,1.872,9.331C40.577,151.53,37.442,153.609,33.976,153.589z"/>
		<path style="fill:#428DFF;" d="M358.242,486.389c-3.509-0.001-6.659-2.149-7.942-5.415c-1.283-3.266-0.436-6.984,2.134-9.373
			l119.467-110.933c3.456-3.195,8.846-2.99,12.049,0.459c3.203,3.449,3.01,8.839-0.432,12.05L364.051,484.11
			C362.473,485.578,360.397,486.393,358.242,486.389z"/>
		<path style="fill:#428DFF;" d="M332.642,511.989c-0.573-0.016-1.144-0.073-1.708-0.171c-0.533-0.095-1.05-0.268-1.533-0.513
			c-0.546-0.187-1.064-0.447-1.542-0.771c-0.425-0.338-0.85-0.679-1.275-1.021c-0.366-0.407-0.708-0.834-1.025-1.279
			c-0.324-0.475-0.582-0.992-0.767-1.538c-0.246-0.485-0.42-1.003-0.517-1.537c-0.093-0.564-0.148-1.133-0.166-1.705
			c0.03-2.26,0.914-4.424,2.475-6.059l1.275-1.025c0.477-0.324,0.996-0.583,1.542-0.771c0.483-0.245,1-0.417,1.534-0.508
			c1.093-0.258,2.232-0.258,3.325,0c0.566,0.079,1.115,0.25,1.625,0.508c0.543,0.188,1.059,0.447,1.533,0.771
			c0.425,0.341,0.858,0.683,1.283,1.025c1.558,1.636,2.441,3.8,2.475,6.059c-0.017,0.572-0.076,1.141-0.175,1.704
			c-0.089,0.536-0.261,1.054-0.508,1.537c-0.188,0.544-0.445,1.061-0.767,1.538c-0.341,0.425-0.683,0.85-1.025,1.279
			c-0.425,0.341-0.858,0.683-1.283,1.021c-0.475,0.324-0.99,0.583-1.533,0.771c-0.51,0.258-1.059,0.431-1.625,0.512
			C333.725,511.916,333.185,511.973,332.642,511.989L332.642,511.989z"/>
		<path style="fill:#428DFF;" d="M366.776,426.656c-3.509-0.001-6.659-2.149-7.942-5.415c-1.283-3.266-0.436-6.984,2.134-9.373
			l119.467-110.933c3.456-3.195,8.846-2.99,12.049,0.459c3.203,3.449,3.01,8.839-0.432,12.05L372.584,424.377
			C371.007,425.845,368.931,426.66,366.776,426.656L366.776,426.656z"/>
		<path style="fill:#428DFF;" d="M341.176,452.256c-1.115-0.014-2.216-0.246-3.242-0.683c-1.044-0.413-2-1.021-2.817-1.792
			c-0.769-0.836-1.404-1.786-1.883-2.817c-0.789-2.091-0.789-4.397,0-6.487c0.478-1.03,1.113-1.978,1.883-2.813
			c0.815-0.773,1.772-1.383,2.817-1.796c1.526-0.674,3.226-0.852,4.858-0.508c0.566,0.079,1.115,0.25,1.625,0.508
			c0.543,0.188,1.059,0.447,1.533,0.771c0.425,0.341,0.858,0.683,1.283,1.025c0.772,0.814,1.38,1.769,1.792,2.813
			c0.911,2.066,0.911,4.421,0,6.487c-0.413,1.044-1.021,2-1.792,2.817c-0.406,0.367-0.835,0.708-1.283,1.021
			c-0.474,0.324-0.99,0.583-1.533,0.771c-0.51,0.258-1.059,0.431-1.625,0.513C342.258,452.183,341.718,452.24,341.176,452.256
			L341.176,452.256z"/>
		<path style="fill:#428DFF;" d="M341.176,93.856c-3.451-0.001-6.562-2.08-7.882-5.268c-1.32-3.188-0.591-6.858,1.849-9.298
			l68.267-68.267c3.341-3.281,8.701-3.256,12.012,0.054s3.335,8.671,0.054,12.012l-68.267,68.267
			C345.611,92.958,343.439,93.858,341.176,93.856z"/>
		<path style="fill:#428DFF;" d="M383.842,127.989c-3.451-0.001-6.562-2.08-7.882-5.268c-1.32-3.188-0.591-6.858,1.849-9.298
			l102.4-102.4c3.341-3.281,8.701-3.256,12.012,0.054c3.311,3.311,3.335,8.671,0.054,12.012l-102.4,102.4
			C388.277,127.092,386.106,127.992,383.842,127.989z"/>
		<path style="fill:#428DFF;" d="M149.176,324.256c-16.495,0-29.867-13.372-29.867-29.867s13.372-29.867,29.867-29.867
			s29.867,13.372,29.867,29.867C179.022,310.876,165.662,324.236,149.176,324.256z M149.176,281.589c-7.069,0-12.8,5.731-12.8,12.8
			s5.731,12.8,12.8,12.8c7.069,0,12.8-5.731,12.8-12.8C161.968,287.323,156.242,281.597,149.176,281.589L149.176,281.589z"/>
		<path style="fill:#428DFF;" d="M123.576,418.122c-21.208,0-38.4-17.192-38.4-38.4c0-21.208,17.192-38.4,38.4-38.4
			s38.4,17.192,38.4,38.4C161.953,400.921,144.774,418.099,123.576,418.122L123.576,418.122z M123.576,358.389
			c-11.782,0-21.333,9.551-21.333,21.333c0,11.782,9.551,21.333,21.333,21.333s21.333-9.551,21.333-21.333
			C144.897,367.945,135.353,358.401,123.576,358.389z"/>
		<path style="fill:#428DFF;" d="M217.442,392.522c-12.08,0-22.97-7.277-27.593-18.437c-4.623-11.16-2.068-24.007,6.474-32.548
			c8.542-8.542,21.388-11.097,32.548-6.474c11.16,4.623,18.437,15.513,18.437,27.593
			C247.289,379.142,233.929,392.503,217.442,392.522z M217.442,349.856c-7.069,0-12.8,5.731-12.8,12.8s5.731,12.8,12.8,12.8
			c7.069,0,12.8-5.731,12.8-12.8C230.235,355.59,224.508,349.863,217.442,349.856z"/>
	</g>
</g>
<g>
</g>
<g>
</g>
<g>
</g>
<g>
</g>
<g>
</g>
<g>
</g>
<g>
</g>
<g>
</g>
<g>
</g>
<g>
</g>
<g>
</g>
<g>
</g>
<g>
</g>
<g>
</g>
<g>
</g>
</svg>
