<?xml version="1.0" encoding="iso-8859-1"?>
<!-- Generator: Adobe Illustrator 19.0.0, SVG Export Plug-In . SVG Version: 6.00 Build 0)  -->
<svg version="1.1" id="Capa_1" xmlns="http://www.w3.org/2000/svg" xmlns:xlink="http://www.w3.org/1999/xlink" x="0px" y="0px"
	 viewBox="0 0 512.02 512.02" style="enable-background:new 0 0 512.02 512.02;" xml:space="preserve">
<g transform="translate(-1 -1)">
	<g transform="translate(2 2)">
		
			<rect x="367.493" y="96.178" transform="matrix(-0.7071 0.7071 -0.7071 -0.7071 753.5436 -90.4256)" style="fill:#E3E7F2;" width="56.013" height="29.346"/>
		<path style="fill:#A4C2F7;" d="M383.327,28.947c-13.498,13.498-2.556,46.324,24.44,73.32c26.996,26.996,59.822,37.938,73.32,24.44
			L383.327,28.947z"/>
		<path style="fill:#E3E7F2;" d="M369.791,113.171l27.071,27.071c1.693,1.891,1.979,4.657,0.709,6.855l-17.4,31.831l-48.88-48.88
			l31.644-17.586C365.134,111.192,367.9,111.478,369.791,113.171L369.791,113.171z"/>
		
			<linearGradient id="SVGID_1_" gradientUnits="userSpaceOnUse" x1="-49.7969" y1="650.9879" x2="-48.7969" y2="650.9879" gradientTransform="matrix(262.7567 0 0 -262.7577 13324.207 171423.2031)">
			<stop  offset="0" style="stop-color:#D4E1F4"/>
			<stop  offset="0.1717" style="stop-color:#D4E1F4"/>
			<stop  offset="0.2" style="stop-color:#D4E1F4"/>
			<stop  offset="0.2001" style="stop-color:#DAE4F4"/>
			<stop  offset="0.2007" style="stop-color:#EBEBF4"/>
			<stop  offset="0.2014" style="stop-color:#F6F1F4"/>
			<stop  offset="0.2023" style="stop-color:#FDF4F4"/>
			<stop  offset="0.205" style="stop-color:#FFF5F4"/>
			<stop  offset="0.2522" style="stop-color:#FFF5F4"/>
			<stop  offset="0.26" style="stop-color:#FFF5F4"/>
			<stop  offset="0.26" style="stop-color:#D4E1F4"/>
			<stop  offset="0.3974" style="stop-color:#D4E1F4"/>
			<stop  offset="0.42" style="stop-color:#D4E1F4"/>
			<stop  offset="0.4201" style="stop-color:#DAE4F4"/>
			<stop  offset="0.4207" style="stop-color:#EBEBF4"/>
			<stop  offset="0.4214" style="stop-color:#F6F1F4"/>
			<stop  offset="0.4223" style="stop-color:#FDF4F4"/>
			<stop  offset="0.425" style="stop-color:#FFF5F4"/>
			<stop  offset="0.4894" style="stop-color:#FFF5F4"/>
			<stop  offset="0.5" style="stop-color:#FFF5F4"/>
			<stop  offset="0.5" style="stop-color:#F9F2F4"/>
			<stop  offset="0.5001" style="stop-color:#E8EBF4"/>
			<stop  offset="0.5003" style="stop-color:#DDE5F4"/>
			<stop  offset="0.5005" style="stop-color:#D6E2F4"/>
			<stop  offset="0.501" style="stop-color:#D4E1F4"/>
			<stop  offset="0.7062" style="stop-color:#D4E1F4"/>
			<stop  offset="0.74" style="stop-color:#D4E1F4"/>
			<stop  offset="0.741" style="stop-color:#FFF5F4"/>
			<stop  offset="0.8346" style="stop-color:#FFF5F4"/>
			<stop  offset="0.85" style="stop-color:#FFF5F4"/>
			<stop  offset="0.851" style="stop-color:#D4E1F4"/>
		</linearGradient>
		<path style="fill:url(#SVGID_1_);" d="M500.009,353.321l-17.067-17.067l-94.037-94.037c-2.737-3.032-7.39-3.334-10.496-0.683
			l-62.379,62.464h-0.085l-11.947,11.947v0.085l-62.464,62.379c-2.651,3.107-2.349,7.759,0.683,10.496l94.037,94.037l17.067,17.067
			c2.738,3.053,7.429,3.32,10.496,0.597l62.379-62.379l5.973-6.059l6.059-5.973l62.379-62.379
			C503.328,360.75,503.061,356.06,500.009,353.321L500.009,353.321z"/>
		<path style="fill:#FFFFFF;" d="M252.969,108.073l-79.189-79.189c-2.738-3.053-7.429-3.32-10.496-0.597l-74.411,74.411
			l-62.379,62.379c-1.656,1.719-2.273,4.189-1.621,6.485l-14.849-14.848c-3.053-2.738-3.32-7.429-0.597-10.496l62.379-62.379
			l12.032-12.032l62.379-62.379c3.067-2.723,7.758-2.456,10.496,0.597l94.037,94.037
			C251.842,105.171,252.609,106.559,252.969,108.073z"/>
		
			<linearGradient id="SVGID_2_" gradientUnits="userSpaceOnUse" x1="-49.7874" y1="650.9608" x2="-48.7874" y2="650.9608" gradientTransform="matrix(249.946 0 0 -249.9459 12464.5156 162850.3281)">
			<stop  offset="0" style="stop-color:#D4E1F4"/>
			<stop  offset="0.1717" style="stop-color:#D4E1F4"/>
			<stop  offset="0.2" style="stop-color:#D4E1F4"/>
			<stop  offset="0.2001" style="stop-color:#DAE4F4"/>
			<stop  offset="0.2007" style="stop-color:#EBEBF4"/>
			<stop  offset="0.2014" style="stop-color:#F6F1F4"/>
			<stop  offset="0.2023" style="stop-color:#FDF4F4"/>
			<stop  offset="0.205" style="stop-color:#FFF5F4"/>
			<stop  offset="0.2522" style="stop-color:#FFF5F4"/>
			<stop  offset="0.26" style="stop-color:#FFF5F4"/>
			<stop  offset="0.26" style="stop-color:#D4E1F4"/>
			<stop  offset="0.3974" style="stop-color:#D4E1F4"/>
			<stop  offset="0.42" style="stop-color:#D4E1F4"/>
			<stop  offset="0.4201" style="stop-color:#DAE4F4"/>
			<stop  offset="0.4207" style="stop-color:#EBEBF4"/>
			<stop  offset="0.4214" style="stop-color:#F6F1F4"/>
			<stop  offset="0.4223" style="stop-color:#FDF4F4"/>
			<stop  offset="0.425" style="stop-color:#FFF5F4"/>
			<stop  offset="0.4894" style="stop-color:#FFF5F4"/>
			<stop  offset="0.5" style="stop-color:#FFF5F4"/>
			<stop  offset="0.5" style="stop-color:#F9F2F4"/>
			<stop  offset="0.5001" style="stop-color:#E8EBF4"/>
			<stop  offset="0.5003" style="stop-color:#DDE5F4"/>
			<stop  offset="0.5005" style="stop-color:#D6E2F4"/>
			<stop  offset="0.501" style="stop-color:#D4E1F4"/>
			<stop  offset="0.7062" style="stop-color:#D4E1F4"/>
			<stop  offset="0.74" style="stop-color:#D4E1F4"/>
			<stop  offset="0.741" style="stop-color:#FFF5F4"/>
			<stop  offset="0.8346" style="stop-color:#FFF5F4"/>
			<stop  offset="0.85" style="stop-color:#FFF5F4"/>
			<stop  offset="0.851" style="stop-color:#D4E1F4"/>
		</linearGradient>
		<path style="fill:url(#SVGID_2_);" d="M267.817,121.129l-98.292-98.292c-2.738-3.053-7.429-3.32-10.496-0.597L96.65,84.618
			L84.618,96.65l-62.379,62.379c-2.723,3.067-2.456,7.758,0.597,10.496l98.293,98.292c2.737,3.032,7.39,3.335,10.496,0.683
			l62.464-62.464l74.411-74.411C271.151,128.518,270.848,123.866,267.817,121.129z"/>
		<path style="fill:#A4C2F7;" d="M377.214,193.918l-24.405,24.405l-48.896,48.896l-55.04,55.04l-48.811,48.811l-49.493,49.493
			l-17.835-17.835L89.47,359.465l49.493-49.493l48.811-48.811L316.115,132.82c6.585-6.58,17.209-6.732,23.979-0.341
			c0.162,0.086,0.307,0.202,0.427,0.341v0.085l18.773,18.773l17.92,17.835c3.237,3.236,5.056,7.626,5.056,12.203
			S380.451,190.682,377.214,193.918z"/>
		<path style="fill:#FFFFFF;" d="M361.939,155.177l-4.864-4.864c-6.77-6.39-17.394-6.239-23.979,0.341L106.878,376.873
			L89.47,359.465l49.493-49.493l48.811-48.811L316.115,132.82c6.585-6.58,17.209-6.732,23.979-0.341l0.427,0.427l18.773,18.773
			C360.367,152.687,361.261,153.87,361.939,155.177z"/>
		<path style="fill:#E3E7F2;" d="M359.294,176.084L230.953,304.425l-48.811,48.811l-49.408,49.493l-25.856-25.856l226.219-226.219
			c6.585-6.58,17.209-6.731,23.979-0.341l4.864,4.864C365.928,161.934,364.84,170.533,359.294,176.084L359.294,176.084z"/>
		<path style="fill:#A4C2F7;" d="M175.571,456.66l-24.405,24.405c-6.772,6.741-17.719,6.741-24.491,0l-97.707-97.707
			c-6.742-6.772-6.742-17.719,0-24.491l24.405-24.405l54.016,5.973l1.024,0.085l61.099,61.099L175.571,456.66z"/>
		<path style="fill:#FFFFFF;" d="M124.457,358.27l-54.016-5.973l-24.405,24.405c-5.603,5.634-6.658,14.355-2.56,21.163
			l-14.507-14.507c-6.742-6.772-6.742-17.719,0-24.491l24.405-24.405l54.016,5.973L124.457,358.27z"/>
		<path style="fill:#E3E7F2;" d="M152.617,434.644l-24.405,24.405c-5.518,5.527-14.065,6.648-20.821,2.731l-63.915-63.915
			c-4.098-6.807-3.043-15.529,2.56-21.163l24.405-24.405l54.016,5.973l22.187,22.187L152.617,434.644z"/>
	</g>
	<g>
		<circle style="fill:#428DFF;" cx="42.992" cy="116.942" r="8.533"/>
		<path style="fill:#428DFF;" d="M361.15,513.017c-0.333,0-0.667-0.013-1-0.033c-4.105-0.282-7.965-2.054-10.854-4.983
			L238.208,396.917l-0.004-0.004c-6.378-6.042-6.674-16.102-0.663-22.508l136.863-136.863c6.409-6.005,16.464-5.709,22.508,0.663
			L508.004,349.3c2.927,2.889,4.698,6.747,4.979,10.85c0.303,4.325-1.268,8.572-4.312,11.658L371.808,508.671
			C368.972,511.476,365.138,513.039,361.15,513.017L361.15,513.017z M250.754,385.325l110.133,110.133L495.45,360.892
			L385.325,250.754L250.754,385.325z M250.225,384.784l-5.983,6.1l6.008-6.008L250.225,384.784z"/>
		<path style="fill:#428DFF;" d="M434.208,442.742c-2.264,0.003-4.435-0.897-6.033-2.5l-122.2-122.2
			c-2.162-2.154-3.008-5.299-2.22-8.247c0.788-2.948,3.091-5.251,6.039-6.039c2.948-0.788,6.093,0.058,8.247,2.22l122.2,122.2
			c2.44,2.44,3.169,6.11,1.849,9.298C440.77,440.662,437.659,442.741,434.208,442.742L434.208,442.742z"/>
		<path style="fill:#428DFF;" d="M458.658,369.4c-1.11,0.017-2.212-0.187-3.242-0.6c-1.044-0.45-1.998-1.086-2.817-1.875
			c-3.3-3.365-3.3-8.752,0-12.117c0.8-0.792,1.76-1.403,2.817-1.792c3.182-1.29,6.825-0.588,9.3,1.792
			c0.753,0.83,1.359,1.783,1.792,2.817c0.438,1.025,0.67,2.127,0.683,3.242c-0.016,2.262-0.902,4.432-2.475,6.059
			C463.081,368.484,460.918,369.368,458.658,369.4z"/>
		<path style="fill:#428DFF;" d="M434.254,344.996c-1.144-0.005-2.276-0.237-3.329-0.683c-1.039-0.414-1.972-1.056-2.729-1.879
			c-1.628-1.561-2.553-3.716-2.562-5.971c0.009-2.282,0.932-4.466,2.562-6.063c0.803-0.768,1.725-1.401,2.729-1.875
			c3.198-1.266,6.842-0.532,9.3,1.875c1.605,1.607,2.497,3.792,2.475,6.063c0.021,2.244-0.872,4.4-2.475,5.971
			C438.653,344.046,436.505,344.968,434.254,344.996z"/>
		<path style="fill:#428DFF;" d="M409.762,320.504c-1.11,0.017-2.212-0.187-3.242-0.6c-1.037-0.463-1.989-1.097-2.817-1.875
			c-0.772-0.784-1.381-1.713-1.792-2.733c-0.431-1.027-0.663-2.128-0.683-3.242c0.003-1.143,0.235-2.274,0.683-3.325
			c0.411-1.02,1.02-1.949,1.792-2.733c0.827-0.778,1.779-1.412,2.816-1.875c2.077-0.854,4.407-0.854,6.483,0
			c1.048,0.442,2.004,1.078,2.817,1.875c1.586,1.618,2.475,3.793,2.475,6.059c-0.032,2.234-0.918,4.372-2.475,5.975
			c-0.813,0.796-1.768,1.433-2.817,1.875C411.974,320.317,410.872,320.521,409.762,320.504L409.762,320.504z"/>
		<path style="fill:#428DFF;" d="M385.358,296.096c-2.271,0.026-4.457-0.865-6.063-2.471c-1.606-1.606-2.497-3.792-2.471-6.063
			c-0.016-1.109,0.186-2.211,0.596-3.242c0.463-1.037,1.097-1.989,1.875-2.817c2.49-2.354,6.118-3.053,9.304-1.792
			c1.017,0.414,1.944,1.023,2.729,1.792c1.6,1.616,2.518,3.785,2.562,6.059c-0.027,2.279-0.947,4.456-2.562,6.063
			C389.722,295.174,387.589,296.056,385.358,296.096L385.358,296.096z"/>
		<path style="fill:#428DFF;" d="M434.254,393.892c-1.144-0.005-2.276-0.237-3.329-0.683c-2.05-0.917-3.691-2.558-4.608-4.608
			c-0.41-1.031-0.612-2.133-0.596-3.242c-0.041-2.275,0.854-4.466,2.475-6.063c0.78-0.795,1.707-1.432,2.729-1.875
			c3.198-1.266,6.842-0.532,9.3,1.875c2.388,2.469,3.122,6.102,1.879,9.304c-0.444,1.023-1.082,1.949-1.879,2.729
			C438.663,392.956,436.509,393.881,434.254,393.892L434.254,393.892z"/>
		<path style="fill:#428DFF;" d="M409.762,369.4c-0.546,0.028-1.093-0.03-1.621-0.171c-0.552-0.092-1.095-0.236-1.621-0.429
			c-0.531-0.25-1.044-0.534-1.538-0.85c-0.446-0.316-0.873-0.658-1.279-1.025c-1.573-1.627-2.459-3.796-2.475-6.059
			c0.011-1.115,0.243-2.217,0.683-3.242c0.431-1.035,1.037-1.988,1.792-2.817l1.279-1.025c0.476-0.323,0.993-0.58,1.537-0.766
			c0.507-0.262,1.055-0.436,1.621-0.513c1.102-0.171,2.223-0.171,3.325,0c0.536,0.091,1.054,0.264,1.538,0.513
			c0.544,0.186,1.061,0.444,1.537,0.767l1.279,1.025c0.753,0.83,1.359,1.783,1.792,2.817c0.438,1.025,0.67,2.127,0.683,3.242
			c-0.016,2.262-0.902,4.432-2.475,6.059c-0.406,0.367-0.833,0.709-1.279,1.025c-0.493,0.316-1.007,0.6-1.537,0.85
			c-0.501,0.182-1.015,0.325-1.538,0.429C410.91,369.371,410.336,369.428,409.762,369.4z"/>
		<path style="fill:#428DFF;" d="M385.358,344.996c-0.573-0.015-1.144-0.072-1.708-0.171c-0.551-0.133-1.093-0.304-1.62-0.513
			c-0.501-0.223-0.985-0.48-1.45-0.771c-0.467-0.322-0.897-0.693-1.283-1.108c-1.601-1.572-2.493-3.727-2.471-5.971
			c-0.028-2.556,1.103-4.987,3.076-6.612c1.973-1.625,4.575-2.27,7.079-1.754c0.552,0.093,1.095,0.237,1.621,0.429
			c0.512,0.232,0.998,0.519,1.45,0.854c0.477,0.271,0.909,0.616,1.279,1.021c1.629,1.598,2.552,3.781,2.562,6.063
			c-0.012,2.255-0.936,4.409-2.562,5.971c-0.365,0.434-0.797,0.809-1.279,1.108c-0.454,0.308-0.94,0.567-1.45,0.771
			c-0.523,0.22-1.066,0.392-1.621,0.512C386.444,344.923,385.902,344.98,385.358,344.996L385.358,344.996z"/>
		<path style="fill:#428DFF;" d="M385.358,442.7c-2.255,0.024-4.426-0.855-6.029-2.442c-1.603-1.587-2.505-3.748-2.504-6.004
			c-0.086-2.281,0.814-4.488,2.471-6.059c3.389-3.158,8.644-3.158,12.033,0c0.823,0.757,1.465,1.69,1.879,2.729
			c0.446,1.053,0.679,2.185,0.683,3.329c-0.011,2.255-0.935,4.409-2.562,5.971C389.758,441.828,387.602,442.722,385.358,442.7
			L385.358,442.7z"/>
		<path style="fill:#428DFF;" d="M360.867,418.296c-2.238-0.017-4.381-0.904-5.975-2.475c-0.393-0.405-0.763-0.832-1.108-1.279
			c-0.289-0.495-0.545-1.009-0.767-1.537c-0.249-0.483-0.421-1.002-0.513-1.538c-0.096-0.563-0.153-1.133-0.171-1.704
			c0.024-2.277,0.943-4.453,2.558-6.059c3.389-3.158,8.644-3.158,12.033,0c3.3,3.365,3.3,8.752,0,12.117
			c-0.406,0.366-0.834,0.708-1.279,1.025c-0.446,0.32-0.934,0.578-1.45,0.767c-0.52,0.234-1.065,0.406-1.625,0.513
			C362.008,418.224,361.438,418.281,360.867,418.296L360.867,418.296z"/>
		<path style="fill:#428DFF;" d="M336.462,393.892c-1.116-0.013-2.219-0.245-3.246-0.683c-1.076-0.392-2.041-1.037-2.817-1.879
			c-0.768-0.803-1.401-1.725-1.875-2.729c-0.412-1.03-0.614-2.132-0.596-3.242c-0.023-2.271,0.867-4.455,2.471-6.063
			c0.798-0.814,1.757-1.453,2.817-1.875c2.64-1.089,5.649-0.785,8.018,0.811c2.368,1.596,3.78,4.271,3.762,7.127
			c-0.044,2.231-0.928,4.363-2.475,5.971C340.915,392.944,338.74,393.864,336.462,393.892L336.462,393.892z"/>
		<path style="fill:#428DFF;" d="M311.971,369.4c-4.699-0.033-8.501-3.834-8.533-8.533c0.011-1.115,0.243-2.217,0.683-3.242
			c0.431-1.055,1.068-2.013,1.875-2.817c2.031-1.974,4.897-2.834,7.679-2.304c0.563,0.09,1.109,0.262,1.621,0.513
			c0.525,0.17,1.018,0.429,1.454,0.767c0.459,0.299,0.887,0.642,1.279,1.025c0.807,0.804,1.444,1.762,1.875,2.817
			c0.44,1.025,0.672,2.127,0.683,3.242c-0.008,2.28-0.93,4.463-2.558,6.059c-0.37,0.407-0.802,0.752-1.279,1.025
			c-0.454,0.333-0.941,0.618-1.454,0.85c-0.529,0.182-1.071,0.326-1.621,0.429C313.119,369.375,312.544,369.432,311.971,369.4z"/>
		<path style="fill:#428DFF;" d="M360.867,467.192c-4.699-0.033-8.501-3.834-8.533-8.533c0.014-0.573,0.071-1.144,0.171-1.708
			c0.091-0.534,0.264-1.052,0.513-1.533c0.186-0.544,0.444-1.061,0.767-1.538c0.345-0.447,0.715-0.874,1.108-1.279
			c3.389-3.158,8.644-3.158,12.033,0c0.391,0.384,0.735,0.814,1.025,1.279c0.317,0.493,0.6,1.007,0.85,1.538
			c0.182,0.5,0.325,1.012,0.429,1.533c0.141,0.558,0.198,1.134,0.171,1.708c0.006,2.267-0.883,4.444-2.475,6.059
			C365.299,466.29,363.129,467.176,360.867,467.192z"/>
		<path style="fill:#428DFF;" d="M336.462,442.7c-2.271,0.022-4.456-0.87-6.063-2.475c-1.568-1.594-2.454-3.735-2.471-5.971
			c-0.04-1.148,0.193-2.289,0.679-3.329c0.414-1.017,1.023-1.944,1.792-2.729c2.458-2.409,6.104-3.146,9.304-1.879
			c2.635,1.083,4.556,3.41,5.121,6.202c0.565,2.792-0.299,5.683-2.305,7.706c-0.827,0.78-1.779,1.415-2.817,1.879
			C338.673,442.514,337.572,442.717,336.462,442.7L336.462,442.7z"/>
		<path style="fill:#428DFF;" d="M311.971,418.296c-0.544-0.016-1.086-0.073-1.621-0.171c-0.562-0.094-1.107-0.266-1.621-0.513
			c-0.525-0.17-1.017-0.429-1.454-0.767c-0.478-0.272-0.909-0.618-1.279-1.025c-1.629-1.596-2.55-3.778-2.558-6.059
			c0.011-1.115,0.243-2.217,0.683-3.242c0.431-1.055,1.068-2.013,1.875-2.817c3.389-3.158,8.644-3.158,12.033,0
			c3.3,3.365,3.3,8.752,0,12.117C316.403,417.394,314.233,418.28,311.971,418.296z"/>
		<path style="fill:#428DFF;" d="M287.562,393.892c-2.277-0.027-4.453-0.948-6.059-2.562c-1.547-1.608-2.431-3.74-2.475-5.971
			c0.018-2.263,0.904-4.433,2.475-6.063c2.05-2.002,4.957-2.863,7.767-2.3c0.523,0.101,1.037,0.243,1.537,0.425
			c0.529,0.251,1.041,0.536,1.533,0.854c0.468,0.287,0.899,0.629,1.283,1.021c0.768,0.787,1.377,1.715,1.792,2.733
			c0.437,1.056,0.667,2.186,0.679,3.329c-0.04,2.231-0.923,4.364-2.471,5.971c-0.406,0.394-0.834,0.764-1.283,1.108
			c-0.493,0.292-1.005,0.55-1.533,0.771c-0.499,0.208-1.013,0.379-1.537,0.513C288.706,393.82,288.135,393.876,287.562,393.892z"/>
		<path style="fill:#428DFF;" d="M360.867,320.504c-1.11,0.017-2.212-0.187-3.242-0.6c-1.023-0.444-1.951-1.08-2.733-1.875
			c-1.612-1.573-2.533-3.723-2.558-5.975c-0.008-2.284,0.916-4.472,2.558-6.059c3.389-3.158,8.644-3.158,12.033,0
			c1.619,1.596,2.513,3.786,2.475,6.059c0.006,2.242-0.885,4.394-2.475,5.975C365.329,319.648,363.14,320.543,360.867,320.504
			L360.867,320.504z"/>
		<path style="fill:#428DFF;" d="M128.946,280.813c-4.452-0.017-8.715-1.802-11.85-4.963L5.992,164.746
			c-2.943-2.908-4.71-6.799-4.963-10.929c-0.267-4.325,1.323-8.558,4.371-11.637l7.367-7.283c3.351-3.314,8.753-3.284,12.067,0.067
			s3.284,8.753-0.067,12.067l-6.208,6.142l110.163,110.167l134.612-134.617L153.167,18.546L73.012,98.7
			c-3.338,3.3-8.714,3.284-12.032-0.035c-3.319-3.319-3.334-8.695-0.034-12.032l81.237-81.237c3.086-3.034,7.313-4.62,11.633-4.367
			c4.13,0.253,8.021,2.02,10.929,4.962L275.85,117.096c6.311,6.04,6.655,16.01,0.775,22.471L139.658,276.534
			C136.784,279.305,132.939,280.841,128.946,280.813z"/>
		<path style="fill:#428DFF;" d="M202.025,210.559c-2.264,0.003-4.435-0.897-6.033-2.5l-122.2-122.2
			c-3.332-3.332-3.332-8.735,0-12.067c3.332-3.332,8.735-3.332,12.067,0l122.2,122.2c2.44,2.44,3.169,6.11,1.849,9.298
			C208.587,208.479,205.476,210.558,202.025,210.559L202.025,210.559z"/>
		<path style="fill:#428DFF;" d="M226.467,137.209c-2.27,0.022-4.453-0.87-6.058-2.475c-1.605-1.605-2.497-3.788-2.475-6.058
			c0.011-1.117,0.243-2.22,0.683-3.246c0.412-1.019,1.021-1.946,1.792-2.729c0.416-0.414,0.872-0.785,1.363-1.108
			c0.429-0.258,0.942-0.513,1.454-0.767l1.533-0.513c2.824-0.529,5.727,0.364,7.767,2.388c0.769,0.784,1.378,1.711,1.792,2.729
			c0.479,1.013,0.713,2.125,0.683,3.246c-0.016,2.262-0.902,4.432-2.475,6.059C230.912,136.326,228.734,137.215,226.467,137.209
			L226.467,137.209z"/>
		<path style="fill:#428DFF;" d="M202.062,112.8c-3.45-0.015-6.554-2.097-7.878-5.282s-0.608-6.855,1.815-9.31
			c3.391-3.154,8.642-3.154,12.033,0c2.452,2.429,3.199,6.097,1.892,9.292C208.618,110.695,205.514,112.787,202.062,112.8
			L202.062,112.8z"/>
		<path style="fill:#428DFF;" d="M177.571,88.396c-3.45-0.014-6.556-2.096-7.879-5.282c-1.323-3.187-0.606-6.856,1.82-9.31
			c3.421-3.158,8.695-3.158,12.117,0c3.3,3.332,3.3,8.701,0,12.033C182.023,87.452,179.848,88.371,177.571,88.396L177.571,88.396z"
			/>
		<path style="fill:#428DFF;" d="M153.162,63.904c-2.267,0.007-4.445-0.882-6.059-2.475c-1.606-1.605-2.497-3.789-2.475-6.059
			c-0.022-2.244,0.872-4.4,2.475-5.971c0.775-0.842,1.741-1.487,2.817-1.879c3.202-1.25,6.838-0.515,9.304,1.879
			c1.568,1.594,2.454,3.735,2.471,5.971c-0.016,2.262-0.901,4.431-2.471,6.059C157.61,63.023,155.431,63.913,153.162,63.904z"/>
		<path style="fill:#428DFF;" d="M202.062,161.696c-1.143-0.012-2.273-0.242-3.329-0.679c-1.04-0.415-1.974-1.057-2.733-1.879
			c-1.602-1.573-2.494-3.73-2.471-5.975c-0.023-2.269,0.868-4.452,2.471-6.059c0.805-0.767,1.728-1.4,2.733-1.875
			c2.107-0.854,4.464-0.854,6.571,0c1.005,0.474,1.926,1.107,2.729,1.875c1.629,1.597,2.551,3.778,2.562,6.059
			c-0.011,2.256-0.935,4.412-2.562,5.975c-0.757,0.823-1.69,1.465-2.729,1.879C204.278,161.453,203.177,161.684,202.062,161.696z"/>
		<path style="fill:#428DFF;" d="M177.571,137.209c-2.267,0.007-4.445-0.882-6.059-2.475c-1.573-1.627-2.459-3.796-2.475-6.059
			c0.011-1.116,0.244-2.22,0.683-3.246c0.412-1.019,1.021-1.946,1.792-2.729c3.405-3.2,8.712-3.2,12.117,0
			c0.768,0.803,1.401,1.724,1.875,2.729c1.089,2.639,0.785,5.648-0.81,8.016C183.1,135.814,180.426,137.226,177.571,137.209
			L177.571,137.209z"/>
		<path style="fill:#428DFF;" d="M153.162,112.8c-2.261-0.018-4.43-0.902-6.059-2.471c-3.3-3.366-3.3-8.754,0-12.121
			c2.734-2.769,6.99-3.349,10.365-1.413c3.375,1.936,5.022,5.904,4.011,9.661C160.469,110.214,157.054,112.819,153.162,112.8
			L153.162,112.8z"/>
		<path style="fill:#428DFF;" d="M153.162,210.596c-2.281-0.011-4.462-0.934-6.059-2.562c-0.43-0.346-0.778-0.783-1.021-1.279
			c-0.336-0.452-0.622-0.938-0.854-1.45c-0.182-0.529-0.325-1.071-0.429-1.621c-0.141-0.528-0.198-1.075-0.171-1.621
			c-0.017-1.138,0.186-2.269,0.6-3.329c0.475-1.005,1.108-1.928,1.875-2.733c2.027-1.987,4.887-2.876,7.683-2.388
			c0.596,0.171,1.108,0.341,1.621,0.513c0.513,0.254,1.021,0.512,1.45,0.767c0.491,0.323,0.949,0.694,1.367,1.108
			c0.768,0.787,1.377,1.715,1.792,2.733c0.437,1.056,0.667,2.186,0.679,3.329c-0.014,0.544-0.07,1.086-0.167,1.621
			c-0.133,0.552-0.304,1.093-0.513,1.621c-0.204,0.51-0.462,0.996-0.771,1.45c-0.614,0.959-1.429,1.774-2.388,2.388
			c-0.429,0.258-0.937,0.513-1.45,0.771c-0.513,0.171-1.025,0.341-1.621,0.513C154.251,210.523,153.708,210.58,153.162,210.596
			L153.162,210.596z"/>
		<path style="fill:#428DFF;" d="M128.675,186.104c-2.245,0.022-4.403-0.872-5.975-2.475c-1.629-1.596-2.55-3.778-2.558-6.059
			c0.024-2.277,0.943-4.453,2.558-6.059c3.389-3.158,8.644-3.158,12.033,0c1.592,1.614,2.482,3.792,2.475,6.059
			c0.023,2.27-0.869,4.454-2.475,6.059C133.138,185.249,130.948,186.143,128.675,186.104z"/>
		<path style="fill:#428DFF;" d="M104.267,161.696c-1.115-0.012-2.216-0.243-3.242-0.679c-1.065-0.413-2.026-1.055-2.817-1.879
			c-1.569-1.595-2.456-3.738-2.475-5.975c0.019-2.262,0.905-4.43,2.475-6.059c0.836-0.768,1.786-1.401,2.817-1.875
			c2.078-0.854,4.409-0.854,6.487,0c1.019,0.496,1.966,1.126,2.817,1.875c1.569,1.629,2.453,3.797,2.471,6.059
			c-0.007,3.448-2.096,6.55-5.287,7.854C106.485,161.453,105.383,161.684,104.267,161.696L104.267,161.696z"/>
		<path style="fill:#428DFF;" d="M79.862,137.209c-1.138,0.017-2.269-0.187-3.329-0.6c-1.022-0.444-1.948-1.08-2.729-1.875
			c-2.391-2.468-3.123-6.103-1.875-9.304c0.444-1.022,1.08-1.948,1.875-2.729c0.757-0.822,1.69-1.464,2.729-1.876
			c2.107-0.854,4.464-0.854,6.571,0c2.053,0.911,3.696,2.551,4.608,4.604c1.379,3.189,0.631,6.899-1.875,9.304
			c-0.782,0.795-1.71,1.431-2.733,1.875C82.074,137.022,80.972,137.226,79.862,137.209z"/>
		<path style="fill:#428DFF;" d="M128.675,235c-2.238-0.017-4.381-0.904-5.975-2.475c-0.392-0.406-0.762-0.833-1.108-1.279
			c-0.291-0.495-0.547-1.008-0.767-1.538l-0.512-1.537c-0.1-0.563-0.157-1.133-0.171-1.704c0.011-1.115,0.243-2.217,0.683-3.242
			c0.431-1.055,1.068-2.013,1.875-2.817c3.389-3.158,8.644-3.158,12.033,0c0.778,0.827,1.412,1.779,1.875,2.817
			c0.413,1.03,0.617,2.132,0.6,3.242c0.028,0.573-0.03,1.148-0.171,1.704c-0.104,0.523-0.248,1.036-0.429,1.537
			c-0.254,0.512-0.512,1.025-0.767,1.538c-0.346,0.446-0.716,0.873-1.108,1.279c-0.341,0.341-0.854,0.683-1.279,1.025
			c-0.437,0.338-0.929,0.597-1.454,0.767c-0.513,0.246-1.059,0.419-1.621,0.513C129.817,234.931,129.247,234.989,128.675,235
			L128.675,235z"/>
		<path style="fill:#428DFF;" d="M104.267,210.596c-2.277-0.027-4.453-0.947-6.059-2.562c-0.381-0.392-0.723-0.82-1.021-1.279
			c-0.34-0.435-0.601-0.925-0.771-1.45c-0.246-0.514-0.418-1.059-0.513-1.621c-0.098-0.535-0.155-1.077-0.171-1.621
			c0.013-1.143,0.245-2.273,0.683-3.329c0.415-1.018,1.024-1.946,1.792-2.733c2.053-2,4.944-2.889,7.767-2.388l1.538,0.513
			c0.513,0.254,1.021,0.512,1.533,0.767c0.448,0.345,0.877,0.715,1.283,1.108c0.768,0.787,1.377,1.715,1.792,2.733
			c0.437,1.056,0.667,2.186,0.679,3.329c-0.014,0.544-0.071,1.086-0.171,1.621c-0.091,0.562-0.262,1.108-0.508,1.621
			c-0.17,0.525-0.431,1.015-0.771,1.45c-0.299,0.458-0.641,0.886-1.021,1.279c-0.406,0.394-0.834,0.764-1.283,1.108l-1.534,0.771
			l-1.538,0.512C105.41,210.523,104.839,210.581,104.267,210.596L104.267,210.596z"/>
		<path style="fill:#428DFF;" d="M79.862,186.104c-1.138,0.017-2.269-0.187-3.329-0.6c-1.005-0.474-1.926-1.107-2.729-1.875
			c-1.629-1.596-2.55-3.778-2.558-6.059c0.024-2.277,0.943-4.453,2.558-6.059c0.783-0.771,1.711-1.38,2.729-1.792
			c2.107-0.854,4.464-0.854,6.571,0c1.02,0.412,1.949,1.021,2.733,1.792c1.615,1.605,2.534,3.782,2.558,6.059
			c-0.008,2.28-0.93,4.463-2.558,6.059c-0.804,0.768-1.727,1.401-2.733,1.875C82.074,185.918,80.972,186.122,79.862,186.104z"/>
		<path style="fill:#428DFF;" d="M55.371,161.696c-2.274-0.04-4.444-0.957-6.059-2.558c-1.569-1.595-2.456-3.738-2.475-5.975
			c0.019-2.262,0.905-4.43,2.475-6.059c0.85-0.75,1.797-1.38,2.817-1.875c2.078-0.854,4.409-0.854,6.487,0
			c1.041,0.453,1.994,1.088,2.813,1.875c1.606,1.605,2.498,3.789,2.475,6.059c0.024,2.246-0.87,4.404-2.475,5.975
			c-0.773,0.843-1.737,1.488-2.812,1.879C57.589,161.453,56.487,161.684,55.371,161.696L55.371,161.696z"/>
		<path style="fill:#428DFF;" d="M128.675,88.396c-0.544-0.013-1.086-0.07-1.621-0.171c-0.6-0.171-1.112-0.341-1.625-0.513
			c-0.508-0.254-1.021-0.513-1.45-0.767c-0.481-0.301-0.913-0.675-1.279-1.108c-1.635-1.575-2.558-3.747-2.558-6.017
			s0.924-4.442,2.558-6.017c3.389-3.158,8.644-3.158,12.033,0c0.41,0.366,0.757,0.799,1.025,1.279c0.331,0.454,0.616,0.94,0.85,1.45
			c0.182,0.531,0.325,1.074,0.429,1.625c0.146,0.556,0.203,1.131,0.171,1.704c0.028,0.546-0.03,1.093-0.171,1.621
			c-0.103,0.55-0.247,1.092-0.429,1.621c-0.234,0.512-0.519,0.999-0.851,1.454c-0.246,0.495-0.596,0.931-1.025,1.279
			c-0.406,0.392-0.833,0.762-1.279,1.108c-0.429,0.254-0.942,0.513-1.454,0.767c-0.508,0.171-1.108,0.341-1.621,0.513
			C129.816,88.325,129.247,88.382,128.675,88.396L128.675,88.396z"/>
		<path style="fill:#428DFF;" d="M171.475,412.192c-2.264,0.003-4.435-0.897-6.033-2.5l-61.1-61.1c-1.601-1.6-2.5-3.77-2.5-6.033
			c0-2.263,0.899-4.434,2.5-6.033l207.742-207.742c10.217-9.75,26.292-9.75,36.508,0l36.658,36.658
			c4.842,4.841,7.563,11.407,7.563,18.254s-2.72,13.413-7.563,18.254L177.508,409.692
			C175.91,411.295,173.739,412.195,171.475,412.192L171.475,412.192z M122.442,342.559l49.033,49.033l201.708-201.708
			c3.412-3.419,3.412-8.956,0-12.375l-36.658-36.658c-3.421-3.408-8.954-3.408-12.375,0L122.442,342.559z"/>
		<path style="fill:#428DFF;" d="M275.354,357.2c-0.565,0-1.129-0.056-1.683-0.167c-4.621-0.925-7.617-5.421-6.692-10.042
			l12.221-61.1c0.728-3.643,3.732-6.396,7.425-6.804l54.992-6.108c3.031-0.34,6.014,0.964,7.822,3.42s2.168,5.692,0.942,8.485
			c-1.225,2.793-3.849,4.72-6.881,5.053l-48.788,5.421l-11,54.983C282.915,354.326,279.418,357.196,275.354,357.2z"/>
		<path style="fill:#428DFF;" d="M165.358,247.221c-4.384-0.006-8.05-3.333-8.481-7.696c-0.43-4.363,2.516-8.342,6.814-9.204
			l54.983-11l5.421-48.788c0.333-3.032,2.26-5.656,5.053-6.881s6.029-0.866,8.485,0.942c2.457,1.809,3.76,4.791,3.42,7.822
			l-6.108,54.992c-0.408,3.693-3.161,6.697-6.804,7.425l-61.1,12.221C166.487,247.165,165.923,247.221,165.358,247.221z"/>
		<path style="fill:#428DFF;" d="M385.325,186.121c-2.263,0-4.433-0.9-6.033-2.5l-48.879-48.879
			c-1.941-1.939-2.831-4.693-2.392-7.401c0.439-2.708,2.154-5.04,4.608-6.266l28.492-14.246c5.484-2.907,12.214-1.977,16.704,2.308
			l27.071,27.071c4.286,4.49,5.216,11.22,2.308,16.704l-14.246,28.492c-1.228,2.453-3.559,4.167-6.267,4.608
			C386.24,186.084,385.783,186.12,385.325,186.121z M350.85,131.046l32.138,32.138l8.25-16.5l-23.888-23.887L350.85,131.046z"/>
		<path style="fill:#428DFF;" d="M397.546,149.459c-2.264,0.003-4.435-0.897-6.033-2.5l-24.438-24.438
			c-1.601-1.6-2.5-3.77-2.5-6.033c0-2.263,0.899-4.433,2.5-6.033l25.233-25.233c3.332-3.332,8.735-3.332,12.067,0
			c3.332,3.332,3.332,8.735,0,12.067l-19.2,19.2l12.371,12.371l19.2-19.2c2.155-2.156,5.297-2.997,8.242-2.208
			c2.944,0.789,5.244,3.089,6.033,6.033c0.789,2.944-0.053,6.086-2.208,8.242l-25.233,25.233
			C401.981,148.561,399.81,149.461,397.546,149.459L397.546,149.459z"/>
		<path style="fill:#428DFF;" d="M466.908,143.088c-18.45,0-42.042-11.654-63.175-32.788
			c-31.304-31.304-41.812-68.012-24.442-85.388c3.386-3.2,8.681-3.2,12.067,0l97.763,97.763c1.601,1.6,2.5,3.77,2.5,6.033
			c0,2.263-0.899,4.433-2.5,6.033C483.153,140.418,475.137,143.43,466.908,143.088L466.908,143.088z M388.092,45.784
			c-0.613,12.612,8.833,33.575,27.708,52.45c18.875,18.871,39.917,28.162,52.45,27.708L388.092,45.784z"/>
		<path style="fill:#428DFF;" d="M177.575,467.179c-4.344-0.006-7.989-3.275-8.467-7.592l-6.113-54.988
			c-0.336-3.029,0.969-6.008,3.424-7.814s5.688-2.165,8.479-0.942c2.792,1.223,4.719,3.843,5.055,6.872l6.113,54.988
			c0.251,2.249-0.403,4.505-1.817,6.272c-1.414,1.767-3.472,2.9-5.721,3.149C178.212,467.162,177.894,467.18,177.575,467.179
			L177.575,467.179z"/>
		<path style="fill:#428DFF;" d="M110.387,351.092c-0.319,0.001-0.637-0.018-0.954-0.054l-54.988-6.112
			c-4.683-0.52-8.058-4.738-7.538-9.421c0.52-4.683,4.738-8.058,9.421-7.538l54.988,6.113c4.498,0.5,7.823,4.426,7.576,8.945
			C118.646,347.544,114.913,351.084,110.387,351.092L110.387,351.092z"/>
		<path style="fill:#428DFF;" d="M140.925,496.684c-6.85,0.018-13.424-2.705-18.254-7.563l-97.758-97.763v0.004
			c-4.842-4.841-7.563-11.407-7.563-18.254c0-6.847,2.72-13.413,7.563-18.254l24.442-24.442c1.6-1.601,3.77-2.5,6.033-2.5
			s4.433,0.899,6.033,2.5l122.2,122.2c1.601,1.6,2.5,3.77,2.5,6.033c0,2.263-0.899,4.433-2.5,6.033l-24.442,24.442
			C154.348,493.979,147.775,496.702,140.925,496.684L140.925,496.684z M55.387,348.513l-18.408,18.408
			c-1.641,1.639-2.563,3.864-2.563,6.183s0.922,4.544,2.563,6.183v0.004l97.762,97.762c3.46,3.308,8.911,3.308,12.371,0
			l18.408-18.408L55.387,348.513z"/>
		<path style="fill:#428DFF;" d="M305.896,277.771c-2.264,0.003-4.435-0.897-6.033-2.5l-61.1-61.1c-1.601-1.6-2.5-3.77-2.5-6.033
			c0-2.263,0.899-4.434,2.5-6.033l48.879-48.879c1.6-1.601,3.77-2.5,6.033-2.5c2.263,0,4.433,0.899,6.033,2.5l61.1,61.1
			c1.601,1.6,2.5,3.77,2.5,6.033s-0.899,4.433-2.5,6.033l-48.879,48.879C310.331,276.874,308.159,277.774,305.896,277.771z
			 M256.862,208.138l49.033,49.033l36.813-36.813l-49.034-49.033L256.862,208.138z"/>
		<path style="fill:#428DFF;" d="M202.025,381.642c-2.264,0.003-4.435-0.897-6.033-2.5l-61.1-61.1c-1.601-1.6-2.5-3.77-2.5-6.033
			s0.899-4.434,2.5-6.033l48.883-48.883c1.6-1.601,3.77-2.5,6.033-2.5c2.263,0,4.434,0.899,6.033,2.5l61.1,61.1
			c1.601,1.6,2.5,3.77,2.5,6.033s-0.899,4.434-2.5,6.033l-48.883,48.883C206.46,380.745,204.289,381.645,202.025,381.642
			L202.025,381.642z M152.992,312.009l49.033,49.033l36.817-36.816l-49.033-49.033L152.992,312.009z"/>
	</g>
</g>
<g>
</g>
<g>
</g>
<g>
</g>
<g>
</g>
<g>
</g>
<g>
</g>
<g>
</g>
<g>
</g>
<g>
</g>
<g>
</g>
<g>
</g>
<g>
</g>
<g>
</g>
<g>
</g>
<g>
</g>
</svg>
