<?xml version="1.0" encoding="iso-8859-1"?>
<!-- Generator: Adobe Illustrator 19.0.0, SVG Export Plug-In . SVG Version: 6.00 Build 0)  -->
<svg version="1.1" id="Capa_1" xmlns="http://www.w3.org/2000/svg" xmlns:xlink="http://www.w3.org/1999/xlink" x="0px" y="0px"
	 viewBox="0 0 512.027 512.027" style="enable-background:new 0 0 512.027 512.027;" xml:space="preserve">
<g transform="translate(0 -1)">
	<g transform="translate(1 2)">
		
			<linearGradient id="SVGID_1_" gradientUnits="userSpaceOnUse" x1="-49.7611" y1="651.0059" x2="-48.7946" y2="649.9941" gradientTransform="matrix(158.0373 0 0 -150.9672 8195.1484 98473.4453)">
			<stop  offset="0" style="stop-color:#D4E1F4"/>
			<stop  offset="0.1717" style="stop-color:#D4E1F4"/>
			<stop  offset="0.2" style="stop-color:#D4E1F4"/>
			<stop  offset="0.2001" style="stop-color:#DAE4F4"/>
			<stop  offset="0.2007" style="stop-color:#EBEBF4"/>
			<stop  offset="0.2014" style="stop-color:#F6F1F4"/>
			<stop  offset="0.2023" style="stop-color:#FDF4F4"/>
			<stop  offset="0.205" style="stop-color:#FFF5F4"/>
			<stop  offset="0.2522" style="stop-color:#FFF5F4"/>
			<stop  offset="0.26" style="stop-color:#FFF5F4"/>
			<stop  offset="0.26" style="stop-color:#D4E1F4"/>
			<stop  offset="0.3974" style="stop-color:#D4E1F4"/>
			<stop  offset="0.42" style="stop-color:#D4E1F4"/>
			<stop  offset="0.4201" style="stop-color:#DAE4F4"/>
			<stop  offset="0.4207" style="stop-color:#EBEBF4"/>
			<stop  offset="0.4214" style="stop-color:#F6F1F4"/>
			<stop  offset="0.4223" style="stop-color:#FDF4F4"/>
			<stop  offset="0.425" style="stop-color:#FFF5F4"/>
			<stop  offset="0.4894" style="stop-color:#FFF5F4"/>
			<stop  offset="0.5" style="stop-color:#FFF5F4"/>
			<stop  offset="0.5" style="stop-color:#F9F2F4"/>
			<stop  offset="0.5001" style="stop-color:#E8EBF4"/>
			<stop  offset="0.5003" style="stop-color:#DDE5F4"/>
			<stop  offset="0.5005" style="stop-color:#D6E2F4"/>
			<stop  offset="0.501" style="stop-color:#D4E1F4"/>
			<stop  offset="0.7062" style="stop-color:#D4E1F4"/>
			<stop  offset="0.74" style="stop-color:#D4E1F4"/>
			<stop  offset="0.741" style="stop-color:#FFF5F4"/>
			<stop  offset="0.8346" style="stop-color:#FFF5F4"/>
			<stop  offset="0.85" style="stop-color:#FFF5F4"/>
			<stop  offset="0.851" style="stop-color:#D4E1F4"/>
		</linearGradient>
		<path style="fill:url(#SVGID_1_);" d="M348.88,178.227h-0.085l-4.352,1.28l1.28,132.181c0.102,8.508,6.418,15.658,14.848,16.811
			c0.788,0.145,1.589,0.202,2.389,0.171l138.752-0.939l0.768-4.437C502.48,161.161,348.88,178.227,348.88,178.227z"/>
		<g>
			<polygon style="fill:#A4C2F7;" points="391.547,434.227 417.147,434.227 16.08,435.422 16.08,435.337 			"/>
			<path style="fill:#A4C2F7;" d="M502.48,323.294v76.8c0.002,9.053-3.593,17.737-9.995,24.139s-15.085,9.997-24.139,9.995h-25.6
				c9.053,0.002,17.737-3.593,24.139-9.995s9.997-15.085,9.995-24.139v-76.8H502.48z"/>
		</g>
		<path style="fill:#FFFFFF;" d="M101.414,144.094c-15.846-0.012-31.046,6.278-42.251,17.483
			c-11.205,11.205-17.494,26.405-17.483,42.251v231.424l-25.6,0.085V203.827c-0.012-15.846,6.278-31.046,17.483-42.251
			c11.205-11.205,26.405-17.494,42.251-17.483H101.414z"/>
		<path style="fill:#E3E7F2;" d="M476.88,323.294v76.8c0.002,9.053-3.593,17.737-9.995,24.139s-15.085,9.997-24.139,9.995h-51.2
			L41.68,435.251V203.827c-0.012-15.846,6.278-31.046,17.483-42.251c11.205-11.205,26.405-17.494,42.251-17.483h213.333
			c9.053-0.003,17.737,3.593,24.139,9.995c6.402,6.402,9.997,15.085,9.995,24.139v119.467c-0.009,6.792,2.685,13.309,7.488,18.112
			c4.803,4.803,11.32,7.497,18.112,7.488H476.88z"/>
		<ellipse style="fill:#A4C2F7;" cx="92.88" cy="434.227" rx="51.2" ry="68.267"/>
		<ellipse style="fill:#FFFFFF;" cx="58.747" cy="434.227" rx="51.2" ry="68.267"/>
		<g>
			<circle style="fill:#A4C2F7;" cx="212.347" cy="434.227" r="68.267"/>
			<circle style="fill:#A4C2F7;" cx="348.88" cy="434.227" r="68.267"/>
		</g>
		<g>
			<ellipse style="fill:#E3E7F2;" cx="75.814" cy="434.227" rx="42.667" ry="68.267"/>
			<ellipse style="fill:#E3E7F2;" cx="199.547" cy="434.227" rx="55.467" ry="68.267"/>
			<ellipse style="fill:#E3E7F2;" cx="336.08" cy="434.227" rx="55.467" ry="68.267"/>
		</g>
		<path style="fill:#7FACFA;" d="M115.961,263.39v0.085c-14.336,22.613-18.944,42.837-9.899,51.883s29.269,4.437,51.883-9.899h0.085
			l58.795-58.795v-0.085c14.336-22.613,18.944-42.837,9.899-51.883c-9.045-9.045-29.269-4.437-51.883,9.899h-0.085L115.961,263.39z"
			/>
		<g>
			<path style="fill:#A4C2F7;" d="M186.747,86.002c-21.681,23.284-58.115,24.634-81.459,3.017
				c-21.617-23.344-20.267-59.778,3.017-81.459L186.747,86.002z"/>
			<circle style="fill:#A4C2F7;" cx="166.395" cy="255.027" r="51.2"/>
		</g>
	</g>
	<g>
		<path style="fill:#428DFF;" d="M76.814,513.027c-42.415,0-76.8-34.385-76.8-76.8s34.385-76.8,76.8-76.8s76.8,34.385,76.8,76.8
			C153.564,478.622,119.209,512.978,76.814,513.027L76.814,513.027z M76.814,376.494c-32.99,0-59.733,26.744-59.733,59.733
			s26.744,59.733,59.733,59.733s59.733-26.744,59.733-59.733C136.51,403.253,109.788,376.531,76.814,376.494L76.814,376.494z"/>
		<path style="fill:#428DFF;" d="M76.814,470.361c-18.851,0-34.133-15.282-34.133-34.133c0-18.851,15.282-34.133,34.133-34.133
			c4.713,0,8.533,3.82,8.533,8.533s-3.82,8.533-8.533,8.533c-9.426,0-17.067,7.641-17.067,17.067s7.641,17.067,17.067,17.067
			s17.067-7.641,17.067-17.067c0-4.713,3.821-8.533,8.533-8.533c4.713,0,8.533,3.82,8.533,8.533
			C110.925,455.07,95.656,470.339,76.814,470.361z"/>
		<path style="fill:#428DFF;" d="M213.347,513.027c-34.761,0.001-65.189-23.345-74.186-56.921
			c-8.997-33.576,5.679-69.009,35.783-86.39s68.128-12.374,92.707,12.207l0,0c21.963,21.965,28.533,54.996,16.647,83.694
			S244.409,513.026,213.347,513.027L213.347,513.027z M213.347,376.494c-28.498-0.001-53.028,20.13-58.588,48.08
			c-5.56,27.95,9.398,55.936,35.727,66.842s56.694,1.695,72.527-22c15.833-23.695,12.722-55.275-7.429-75.426l0,0
			C244.407,382.751,229.198,376.451,213.347,376.494L213.347,376.494z"/>
		<path style="fill:#428DFF;" d="M213.347,470.348c-13.8-0.004-26.24-8.318-31.522-21.067c-5.282-12.75-2.366-27.425,7.389-37.187
			c3.332-3.332,8.735-3.332,12.067,0c3.332,3.332,3.332,8.735,0,12.067c-6.65,6.67-6.65,17.463,0,24.133
			c6.758,6.433,17.375,6.433,24.133,0c6.65-6.67,6.65-17.463,0-24.133c-2.156-2.155-2.997-5.297-2.208-8.242
			c0.789-2.944,3.089-5.244,6.033-6.033c2.944-0.789,6.086,0.053,8.242,2.208c9.764,9.759,12.685,24.439,7.402,37.192
			C239.599,462.04,227.151,470.353,213.347,470.348L213.347,470.348z"/>
		<path style="fill:#428DFF;" d="M349.88,513.027c-42.415,0-76.8-34.385-76.8-76.8s34.385-76.8,76.8-76.8s76.8,34.385,76.8,76.8
			C426.631,478.622,392.275,512.978,349.88,513.027L349.88,513.027z M349.88,376.494c-32.99,0-59.733,26.744-59.733,59.733
			s26.744,59.733,59.733,59.733s59.733-26.744,59.733-59.733C409.577,403.253,382.855,376.531,349.88,376.494L349.88,376.494z"/>
		<path style="fill:#428DFF;" d="M349.88,470.361c-18.851,0-34.133-15.282-34.133-34.133c0-18.851,15.282-34.133,34.133-34.133
			c4.713,0,8.533,3.82,8.533,8.533s-3.82,8.533-8.533,8.533c-9.426,0-17.067,7.641-17.067,17.067s7.641,17.067,17.067,17.067
			s17.067-7.641,17.067-17.067c0-4.713,3.821-8.533,8.533-8.533s8.533,3.82,8.533,8.533
			C383.992,455.07,368.723,470.339,349.88,470.361z"/>
		<path style="fill:#428DFF;" d="M282.126,453.294h-1.108c-4.713,0-8.533-3.82-8.533-8.533s3.82-8.533,8.533-8.533h1.108
			c4.713,0,8.533,3.82,8.533,8.533S286.839,453.294,282.126,453.294z"/>
		<path style="fill:#428DFF;" d="M145.676,453.294h-1.108c-4.713,0-8.533-3.82-8.533-8.533s3.82-8.533,8.533-8.533h1.108
			c4.713,0,8.533,3.82,8.533,8.533S150.389,453.294,145.676,453.294z"/>
		<path style="fill:#428DFF;" d="M17.08,411.823c-4.713,0-8.533-3.821-8.533-8.533V300.035c0-4.713,3.821-8.533,8.533-8.533
			s8.533,3.821,8.533,8.533V403.29C25.614,408.002,21.793,411.823,17.08,411.823z"/>
		<path style="fill:#428DFF;" d="M469.347,444.761h-51.2c-4.713,0-8.533-3.82-8.533-8.533s3.82-8.533,8.533-8.533h51.2
			c14.132-0.015,25.585-11.468,25.6-25.6v-68.267H375.48c-18.842-0.022-34.112-15.291-34.133-34.133V180.227
			c-0.015-14.132-11.468-25.585-25.6-25.6H76.814c-28.264,0.031-51.169,22.936-51.2,51.2v25.941c0,4.713-3.821,8.533-8.533,8.533
			s-8.533-3.821-8.533-8.533v-25.941c0.043-37.685,30.582-68.224,68.267-68.267h238.933c23.553,0.028,42.639,19.114,42.667,42.667
			v119.467c0.009,9.422,7.645,17.057,17.067,17.067h128c4.713,0,8.533,3.82,8.533,8.533v76.8
			C511.986,425.647,492.9,444.733,469.347,444.761L469.347,444.761z"/>
		<path style="fill:#428DFF;" d="M503.48,333.827c-4.713,0-8.533-3.821-8.533-8.533c0-46.625-13.188-82.071-39.196-105.35
			c-42.138-37.717-104.292-31.288-104.929-31.238c-4.678,0.512-8.888-2.861-9.407-7.539c-0.519-4.678,2.847-8.892,7.524-9.419
			c2.833-0.333,70.417-7.283,118.196,35.479c29.779,26.658,44.879,66.379,44.879,118.067
			C512.014,330.007,508.193,333.827,503.48,333.827z"/>
		<path style="fill:#428DFF;" d="M461.643,282.89c-3.612-0.002-6.832-2.276-8.042-5.679c-4.074-12.178-11.166-23.127-20.612-31.825
			c-10.9-9.353-23.921-15.9-37.929-19.071c-4.572-1.146-7.35-5.782-6.204-10.354s5.782-7.35,10.354-6.204
			c16.697,3.837,32.201,11.701,45.158,22.908c11.582,10.598,20.292,23.956,25.317,38.829c0.926,2.613,0.527,5.514-1.072,7.779
			C467.014,281.538,464.416,282.887,461.643,282.89L461.643,282.89z"/>
		<path style="fill:#428DFF;" d="M298.68,308.227c-4.713,0-8.533-3.821-8.533-8.533v-153.6c0-4.713,3.82-8.533,8.533-8.533
			s8.533,3.821,8.533,8.533v153.6C307.214,304.407,303.393,308.227,298.68,308.227z"/>
		<path style="fill:#428DFF;" d="M298.68,350.894c-4.713,0-8.533-3.82-8.533-8.533v-8.533c0-4.713,3.82-8.533,8.533-8.533
			s8.533,3.821,8.533,8.533v8.533C307.214,347.074,303.393,350.894,298.68,350.894z"/>
		<path style="fill:#428DFF;" d="M167.393,316.761c-32.99,0-59.733-26.744-59.733-59.733s26.744-59.733,59.733-59.733
			s59.733,26.744,59.733,59.733C227.089,290.002,200.367,316.724,167.393,316.761L167.393,316.761z M167.393,214.361
			c-23.564,0-42.667,19.103-42.667,42.667s19.103,42.667,42.667,42.667s42.667-19.103,42.667-42.667
			C210.032,233.475,190.946,214.388,167.393,214.361L167.393,214.361z"/>
		<path style="fill:#428DFF;" d="M217.826,257.152c-2.258,0.01-4.428-0.879-6.029-2.472c-1.601-1.593-2.502-3.757-2.504-6.016
			c-0.001-1.645,0.458-3.257,1.325-4.654c13.333-21.033,15.662-36.688,11.071-41.279c-4.6-4.596-20.25-2.263-41.283,11.071
			c-2.661,1.693-6.039,1.783-8.787,0.235c-2.748-1.548-4.421-4.483-4.352-7.637c0.069-3.153,1.868-6.013,4.681-7.44
			c27.392-17.183,49.896-20.212,61.808-8.296c11.971,11.967,8.854,34.621-8.533,62.183
			C223.707,255.505,220.885,257.147,217.826,257.152z"/>
		<path style="fill:#428DFF;" d="M120.214,330.565c-7.105,0.323-14.034-2.268-19.183-7.175
			c-11.971-11.967-8.854-34.621,8.533-62.183c1.911-3.354,5.837-5.005,9.571-4.025c3.734,0.98,6.342,4.348,6.358,8.208
			c0.001,1.645-0.458,3.257-1.325,4.654c-13.333,21.033-15.663,36.688-11.071,41.279c4.571,4.588,20.238,2.263,41.279-11.071
			c2.664-1.695,6.046-1.785,8.796-0.233c2.75,1.552,4.421,4.493,4.347,7.65c-0.074,3.157-1.882,6.016-4.701,7.437
			C150.27,324.006,135.549,329.347,120.214,330.565L120.214,330.565z"/>
		<path style="fill:#428DFF;" d="M144.243,114.919c-16.459,0.152-32.296-6.28-43.988-17.867
			c-24.913-26.689-23.565-68.496,3.017-93.525c1.6-1.601,3.77-2.5,6.033-2.5c2.263,0,4.433,0.899,6.033,2.5l78.441,78.441
			c1.601,1.6,2.5,3.77,2.5,6.033c0,2.263-0.899,4.433-2.5,6.033C180.688,107.287,162.87,114.798,144.243,114.919z M109.768,22.09
			c-14.752,18.734-13.669,45.42,2.554,62.896c17.476,16.223,44.162,17.307,62.896,2.554L109.768,22.09z"/>
		<path style="fill:#428DFF;" d="M110.947,154.627c-4.713,0-8.533-3.821-8.533-8.533v-51.2c0-4.713,3.821-8.533,8.533-8.533
			c4.713,0,8.533,3.821,8.533,8.533v51.2C119.48,150.807,115.66,154.627,110.947,154.627z"/>
		<path style="fill:#428DFF;" d="M148.58,57.348c-3.451,0.001-6.562-2.076-7.885-5.263c-1.322-3.187-0.595-6.857,1.843-9.299
			l39.167-39.254c2.151-2.173,5.3-3.03,8.256-2.246s5.266,3.09,6.056,6.044s-0.06,6.105-2.229,8.26l-39.167,39.254
			C153.021,56.449,150.847,57.35,148.58,57.348L148.58,57.348z"/>
		<circle style="fill:#428DFF;" cx="17.08" cy="265.902" r="8.533"/>
	</g>
</g>
<g>
</g>
<g>
</g>
<g>
</g>
<g>
</g>
<g>
</g>
<g>
</g>
<g>
</g>
<g>
</g>
<g>
</g>
<g>
</g>
<g>
</g>
<g>
</g>
<g>
</g>
<g>
</g>
<g>
</g>
</svg>
