<?xml version="1.0" encoding="iso-8859-1"?>
<!-- Generator: Adobe Illustrator 19.0.0, SVG Export Plug-In . SVG Version: 6.00 Build 0)  -->
<svg version="1.1" id="Capa_1" xmlns="http://www.w3.org/2000/svg" xmlns:xlink="http://www.w3.org/1999/xlink" x="0px" y="0px"
	 viewBox="0 0 512.037 512.037" style="enable-background:new 0 0 512.037 512.037;" xml:space="preserve">
<g transform="translate(0 -1)">
	<g transform="translate(1 9)">
		<path style="fill:#A4C2F7;" d="M428.721,431.702c0,0-54.054,64.98-130.946,63.717l-92.88-35.015
			c-9.173-6.933-17.85-14.499-25.969-22.641L69.212,328.593c-8.178-8.073-15.782-16.707-22.755-25.84l-35.189-92.419
			C9.998,133.822,75.303,80.038,75.303,80.038l33.752,33.5l243.704,242.495l54.814,54.627L428.721,431.702z"/>
		<path style="fill:#E3E7F2;" d="M408.582,412.56c0,0-54.528,65.877-132.096,64.597l-93.696-35.499
			c-9.256-7.032-18.01-14.702-26.197-22.955L67.249,329.36c-8.252-8.187-15.923-16.941-22.955-26.197L8.796,209.467
			C7.516,131.899,73.394,77.371,73.394,77.371l34.048,33.963l245.845,245.845L408.582,412.56z"/>
		<path style="fill:#A4C2F7;" d="M414.299,91.365l-45.909,70.997c6.155,7.001,11.937,14.322,17.323,21.931l-79.957,123.563
			l-30.72,30.72l-55.296,55.296l-43.007,43.093c-6.806,6.741-17.771,6.741-24.577,0l-86.101-86.101
			c-0.559-0.532-1.046-1.135-1.451-1.792c-5.257-6.897-4.638-16.61,1.451-22.784l43.093-43.008l86.017-86.016l123.563-79.957
			l73.558-47.616c6.812-4.473,15.829-3.546,21.589,2.219c0.085,0,0.085,0,0.171,0.085C418.048,77.803,418.148,85.454,414.299,91.365
			z"/>
		<path style="fill:#E3E7F2;" d="M414.299,91.365l-45.909,70.997l-81.664,126.123l-30.72,30.72l-55.296,55.296l-43.008,43.093
			c-6.805,6.741-17.771,6.741-24.576,0l-68.523-68.523c-5.257-6.897-4.638-16.61,1.451-22.784l43.093-43.008l86.017-86.016
			l123.563-79.957l73.558-47.616c6.812-4.473,15.829-3.546,21.589,2.219c0.085,0,0.085,0,0.171,0.085
			C418.048,77.803,418.148,85.454,414.299,91.365z"/>
		<g>
			<path style="fill:#A4C2F7;" d="M164.444,227.984v49.152l-49.152,49.152l-36.863,36.949l-12.374-12.373
				c-6.741-6.805-6.741-17.771,0-24.576l43.093-43.008L164.444,227.984z"/>
			<path style="fill:#A4C2F7;" d="M275.036,338.576l-55.296,55.296l-43.007,43.093c-6.806,6.741-17.771,6.741-24.577,0
				l-12.288-12.288l36.865-36.949l49.152-49.152H275.036z"/>
			<path style="fill:#A4C2F7;" d="M176.732,387.728l-36.865,36.949l-43.093,43.008l-61.44-61.44l43.094-43.008l36.863-36.949
				c10.19-10.155,26.674-10.155,36.864,0l24.577,24.576C186.887,361.054,186.887,377.538,176.732,387.728z"/>
		</g>
		<path style="fill:#E3E7F2;" d="M159.666,370.661l-36.865,36.949l-43.093,43.008l-44.373-44.373l43.094-43.008l36.863-36.949
			c10.19-10.155,26.674-10.155,36.864,0l7.51,7.509C169.82,343.988,169.82,360.471,159.666,370.661L159.666,370.661z"/>
		<g>
			<path style="fill:#A4C2F7;" d="M287.341,436.933L287.341,436.933c3.26,3.26,7.682,5.092,12.292,5.092s9.032-1.831,12.292-5.092
				l92.189-92.189L379.53,320.16l-92.189,92.189c-3.26,3.26-5.091,7.682-5.091,12.292S284.081,433.673,287.341,436.933z"/>
			<path style="fill:#A4C2F7;" d="M66.087,215.679L66.087,215.679c3.26,3.26,7.682,5.091,12.292,5.091
				c4.61,0,9.032-1.831,12.292-5.091l92.189-92.189l-24.584-24.584l-92.189,92.189c-3.26,3.26-5.092,7.682-5.092,12.292
				S62.827,212.419,66.087,215.679z"/>
			<path style="fill:#A4C2F7;" d="M296.625,495.419c-34.28-1.235-67.204-13.708-93.696-35.499l16.811-16.811
				c3.249-3.277,7.673-5.12,12.288-5.12c4.615,0,9.039,1.843,12.288,5.12L296.625,495.419z"/>
			<path style="fill:#A4C2F7;" d="M219.721,283.27l0.029,0.029c6.201,6.201,14.776,9.424,23.526,8.843
				c8.75-0.581,16.824-4.909,22.15-11.875l48.251-63.098c6.033-7.89,5.294-19.027-1.729-26.051l-0.047-0.047
				c-7.023-7.023-18.161-7.762-26.051-1.729l-63.098,48.251c-6.966,5.327-11.294,13.4-11.875,22.15
				C210.297,268.494,213.52,277.069,219.721,283.27L219.721,283.27z"/>
			<path style="fill:#A4C2F7;" d="M433.329,110.736l-47.616,73.557c-5.386-7.609-11.168-14.929-17.323-21.931l45.908-70.997
				c3.849-5.912,3.749-13.563-0.255-19.371l8.533,8.448l8.448,8.533C436.859,94.764,437.822,103.855,433.329,110.736
				L433.329,110.736z"/>
		</g>
		<g>
			<path style="fill:#E3E7F2;" d="M414.299,91.365l-45.909,70.997c-4.181-4.779-8.704-9.557-13.483-14.251
				c-11.145-11.297-23.251-21.604-36.181-30.805l73.559-47.616c6.812-4.473,15.829-3.546,21.589,2.219c0.085,0,0.085,0,0.171,0.085
				C418.048,77.803,418.148,85.454,414.299,91.365z"/>
			<polygon style="fill:#E3E7F2;" points="121.436,443.109 96.774,467.685 35.334,406.245 59.996,381.669 			"/>
		</g>
		<path style="fill:#FFFFFF;" d="M93.465,96.315L72.132,74.981c0,0-65.877,54.528-64.597,132.096l35.499,93.696
			c7.032,9.257,14.702,18.01,22.954,26.197l0.427,0.427c-1.792-2.133-3.499-4.352-5.12-6.485l-35.499-93.696
			C24.516,149.648,90.393,95.12,90.393,95.12L93.465,96.315z"/>
		<path style="fill:#A4C2F7;" d="M59.91,283.28l-16.811,16.811c-21.79-26.493-34.263-59.416-35.498-93.696l52.309,52.309
			c3.277,3.25,5.12,7.673,5.12,12.288S63.187,280.03,59.91,283.28L59.91,283.28z"/>
	</g>
	<g>
		<circle style="fill:#428DFF;" cx="38.067" cy="123.619" r="8.533"/>
		<path style="fill:#428DFF;" d="M165.424,459.537c-6.875,0.028-13.475-2.698-18.325-7.571l-12.292-12.292
			c-3.332-3.332-3.332-8.735,0-12.067c3.332-3.332,8.735-3.332,12.067,0l12.292,12.292c3.513,3.32,9.006,3.318,12.517-0.004
			l128.425-128.425l127.092-196.4c2.279-3.512,1.778-8.141-1.2-11.083l-16.958-16.967c-2.951-2.982-7.592-3.48-11.108-1.192
			L201.541,212.916L73.124,341.337c-3.433,3.466-3.433,9.051,0,12.517l12.292,12.296c2.156,2.155,2.997,5.297,2.208,8.242
			c-0.789,2.944-3.089,5.244-6.033,6.033c-2.944,0.789-6.086-0.053-8.242-2.208l-12.292-12.292c-10.1-10.132-10.1-26.526,0-36.658
			l129.058-129.058c0.424-0.426,0.894-0.805,1.4-1.129L388.682,71.487c10.261-6.687,23.808-5.24,32.425,3.462l16.958,16.967
			c8.699,8.609,10.154,22.143,3.483,32.404l-127.6,197.183c-0.327,0.504-0.707,0.972-1.133,1.396L183.749,451.966
			C178.897,456.836,172.298,459.562,165.424,459.537z"/>
		<path style="fill:#428DFF;" d="M97.816,485.196c-2.264,0.003-4.435-0.897-6.033-2.5l-61.459-61.458c-1.601-1.6-2.5-3.77-2.5-6.033
			s0.899-4.434,2.5-6.033l79.901-79.9c13.524-13.492,35.417-13.492,48.942,0l24.583,24.588c6.493,6.488,10.141,15.291,10.141,24.471
			s-3.648,17.982-10.141,24.471l-79.9,79.896C102.251,484.299,100.079,485.198,97.816,485.196L97.816,485.196z M48.424,415.204
			l49.392,49.392l73.867-73.862c3.292-3.289,5.142-7.751,5.142-12.404c0-4.653-1.85-9.116-5.142-12.404l-24.583-24.587
			c-6.859-6.829-17.949-6.829-24.808,0L48.424,415.204z"/>
		<path style="fill:#428DFF;" d="M122.399,460.612c-2.264,0.003-4.435-0.897-6.033-2.5l-61.459-61.458
			c-3.332-3.332-3.332-8.735,0-12.067c3.332-3.332,8.735-3.332,12.067,0l61.458,61.458c2.44,2.44,3.169,6.11,1.849,9.298
			S125.85,460.611,122.399,460.612L122.399,460.612z"/>
		<path style="fill:#428DFF;" d="M299.774,513.008c-44.508,0.004-87.558-20.508-128.092-61.042
			c-2.155-2.156-2.997-5.297-2.208-8.242c0.789-2.944,3.089-5.244,6.033-6.033s6.086,0.053,8.242,2.208
			c39.083,39.083,80.217,57.854,122.125,55.896c55.467-2.633,97.75-41.008,112.025-55.742l-49.55-49.546
			c-2.178-2.151-3.037-5.304-2.251-8.262c0.786-2.958,3.097-5.269,6.055-6.055s6.111,0.073,8.262,2.251l55.317,55.313
			c3.112,3.11,3.347,8.077,0.542,11.467c-2.15,2.613-53.717,64.021-129.592,67.625C304.382,512.954,302.074,513.008,299.774,513.008
			z"/>
		<path style="fill:#428DFF;" d="M349.799,368.425c-2.264,0.003-4.435-0.897-6.033-2.5l-43.017-43.025
			c-2.155-2.155-2.997-5.297-2.208-8.242c0.789-2.944,3.089-5.244,6.033-6.033c2.944-0.789,6.086,0.053,8.242,2.208l43.017,43.025
			c2.44,2.44,3.169,6.11,1.849,9.298C356.361,366.344,353.25,368.423,349.799,368.425L349.799,368.425z"/>
		<path style="fill:#428DFF;" d="M128.582,147.129c-2.263,0.002-4.433-0.896-6.033-2.496L72.932,95.092
			c-2.058,1.992-4.567,4.529-7.367,7.562c-3.196,3.466-8.597,3.684-12.063,0.488c-3.466-3.196-3.684-8.597-0.488-12.063
			c4.617-5.09,9.546-9.888,14.758-14.367c3.393-2.79,8.348-2.552,11.458,0.55l55.383,55.296c2.443,2.44,3.175,6.112,1.854,9.302
			C135.149,145.051,132.035,147.13,128.582,147.129L128.582,147.129z"/>
		<path style="fill:#428DFF;" d="M67.057,343.821c-2.264,0.003-4.435-0.897-6.033-2.5c-75.217-75.213-67.275-145.354-47.358-190.954
			c1.209-2.81,3.831-4.757,6.871-5.104c3.04-0.346,6.032,0.962,7.842,3.428s2.162,5.713,0.92,8.509
			C3.432,216.441,18.166,274.329,73.091,329.254c2.44,2.44,3.169,6.11,1.849,9.298C73.619,341.741,70.508,343.82,67.057,343.821
			L67.057,343.821z"/>
		<path style="fill:#428DFF;" d="M196.149,214.775c-2.264,0.003-4.435-0.897-6.033-2.5l-43.017-43.021
			c-3.332-3.332-3.332-8.735,0-12.067c3.332-3.332,8.735-3.332,12.067,0l43.017,43.021c2.44,2.44,3.169,6.11,1.849,9.298
			C202.711,212.694,199.6,214.773,196.149,214.775L196.149,214.775z"/>
		<path style="fill:#428DFF;" d="M300.632,459.542c-10.481,0.004-19.932-6.308-23.944-15.991
			c-4.012-9.683-1.794-20.829,5.619-28.239l92.191-92.188c1.6-1.601,3.77-2.5,6.033-2.5l0,0c2.263,0,4.434,0.899,6.033,2.5
			l24.584,24.588c1.601,1.6,2.5,3.77,2.5,6.033c0,2.263-0.899,4.433-2.5,6.033l-92.192,92.187
			C314.099,456.828,307.505,459.554,300.632,459.542z M380.532,341.225l-86.159,86.158c-3.455,3.456-3.454,9.059,0.002,12.515
			c3.456,3.455,9.059,3.454,12.515-0.002l86.159-86.15L380.532,341.225z"/>
		<path style="fill:#428DFF;" d="M392.824,349.987c-3.451-0.001-6.562-2.08-7.882-5.268c-1.321-3.188-0.591-6.858,1.849-9.298
			l110.625-110.629c2.151-2.178,5.304-3.037,8.262-2.251s5.269,3.097,6.055,6.055c0.786,2.958-0.073,6.111-2.251,8.262
			L398.857,347.487C397.259,349.09,395.088,349.99,392.824,349.987L392.824,349.987z"/>
		<path style="fill:#428DFF;" d="M485.007,294.671c-2.263,0.001-4.434-0.898-6.035-2.499c-1.6-1.6-2.499-3.771-2.499-6.035v-36.875
			c0-4.713,3.82-8.533,8.533-8.533s8.533,3.821,8.533,8.533v36.875c0.001,2.263-0.898,4.434-2.499,6.035
			C489.442,293.772,487.271,294.671,485.007,294.671L485.007,294.671z"/>
		<path style="fill:#428DFF;" d="M485.007,257.796h-36.875c-4.713,0-8.533-3.82-8.533-8.533c0-4.713,3.82-8.533,8.533-8.533h36.875
			c4.713,0,8.533,3.821,8.533,8.533C493.541,253.975,489.72,257.796,485.007,257.796z"/>
		<path style="fill:#428DFF;" d="M79.382,238.304c-6.877,0.02-13.475-2.713-18.325-7.587l0,0v-0.005l0,0
			c-4.861-4.861-7.592-11.453-7.592-18.327c0-6.874,2.731-13.467,7.592-18.327l92.184-92.187c1.6-1.601,3.77-2.5,6.033-2.5l0,0
			c2.263,0,4.434,0.899,6.033,2.5l24.583,24.587c1.601,1.6,2.5,3.77,2.5,6.033c0,2.263-0.899,4.433-2.5,6.033l-92.183,92.187
			C92.857,235.587,86.259,238.321,79.382,238.304L79.382,238.304z M159.274,119.971l-86.15,86.158
			c-1.659,1.659-2.592,3.91-2.592,6.256c0,2.347,0.932,4.597,2.592,6.256v0.004c3.503,3.345,9.016,3.343,12.517-0.004l86.15-86.15
			L159.274,119.971z"/>
		<path style="fill:#428DFF;" d="M171.566,128.733c-3.451-0.001-6.562-2.08-7.882-5.268c-1.32-3.188-0.591-6.858,1.849-9.298
			L276.157,3.537c2.151-2.178,5.304-3.037,8.262-2.251c2.958,0.786,5.269,3.097,6.055,6.055s-0.073,6.111-2.251,8.262
			L177.599,126.233C176.001,127.836,173.829,128.736,171.566,128.733z"/>
		<path style="fill:#428DFF;" d="M263.757,73.416c-2.263,0.001-4.434-0.898-6.035-2.499c-1.6-1.6-2.499-3.771-2.499-6.035V28.008
			c0-4.713,3.821-8.533,8.533-8.533s8.533,3.821,8.533,8.533v36.875c0.001,2.263-0.898,4.434-2.499,6.035
			C268.192,72.518,266.021,73.417,263.757,73.416z"/>
		<path style="fill:#428DFF;" d="M263.757,36.541h-36.875c-4.713,0-8.533-3.821-8.533-8.533s3.821-8.533,8.533-8.533h36.875
			c4.713,0,8.533,3.821,8.533,8.533S268.47,36.541,263.757,36.541z"/>
		<path style="fill:#428DFF;" d="M386.749,201.808c-2.771,0.003-5.372-1.339-6.975-3.6c-18.019-25.006-39.953-46.942-64.958-64.963
			c-2.513-1.753-3.893-4.718-3.616-7.769c0.277-3.051,2.168-5.72,4.954-6.992c2.787-1.272,6.042-0.953,8.529,0.836
			c26.576,19.139,49.885,42.446,69.025,69.021c1.842,2.603,2.079,6.016,0.616,8.849
			C392.859,200.024,389.938,201.804,386.749,201.808L386.749,201.808z"/>
		<path style="fill:#428DFF;" d="M297.741,513.037c-2.264,0.003-4.435-0.897-6.033-2.5l-52.425-52.425
			c-3.513-3.32-9.006-3.318-12.517,0.004l-16.9,16.896c-2.156,2.155-5.297,2.997-8.242,2.208s-5.244-3.089-6.033-6.033
			c-0.789-2.944,0.053-6.086,2.208-8.242l16.9-16.9c10.266-9.763,26.384-9.763,36.65,0l52.425,52.425
			c2.44,2.44,3.169,6.11,1.849,9.298C304.303,510.957,301.192,513.036,297.741,513.037L297.741,513.037z"/>
		<path style="fill:#428DFF;" d="M44.041,317.721c-3.451-0.001-6.562-2.08-7.882-5.268c-1.32-3.188-0.591-6.858,1.849-9.298
			l16.9-16.905c3.45-3.459,3.45-9.058,0-12.517L2.483,221.308c-3.3-3.337-3.285-8.713,0.034-12.032
			c3.319-3.319,8.694-3.334,12.032-0.035l52.425,52.425c10.1,10.129,10.1,26.521,0,36.65l-16.9,16.905
			C48.475,316.824,46.304,317.723,44.041,317.721z"/>
		<path style="fill:#428DFF;" d="M242.257,309.741c-10.33,0-20.237-4.104-27.542-11.408l6.008-6.063l-6.033,6.038
			c-7.939-7.941-12.067-18.92-11.325-30.124c0.742-11.204,6.282-21.543,15.2-28.367l63.1-48.254
			c11.303-8.624,27.242-7.556,37.293,2.498c10.052,10.054,11.116,25.993,2.49,37.294l-48.25,63.095
			c-6.818,8.921-17.155,14.465-28.358,15.208C243.974,309.712,243.116,309.741,242.257,309.741z M298.857,202.816
			c-2.466-0.003-4.865,0.807-6.825,2.304l-63.1,48.254c-5.011,3.832-8.125,9.641-8.541,15.936
			c-0.417,6.295,1.904,12.463,6.366,16.923c0.15,0.158,0.3,0.317,0.442,0.483l0.025,0.029c4.415,4.205,10.404,6.343,16.483,5.883
			c6.297-0.419,12.107-3.533,15.942-8.546l48.25-63.095c2.605-3.428,3.04-8.038,1.122-11.893S303.163,202.806,298.857,202.816
			L298.857,202.816z"/>
		<path style="fill:#428DFF;" d="M177.716,405.3c-3.451-0.001-6.562-2.08-7.882-5.268c-1.32-3.188-0.591-6.858,1.849-9.298
			l49.167-49.167c1.6-1.601,3.77-2.5,6.033-2.5h49.167c4.713,0,8.533,3.821,8.533,8.533c0,4.713-3.82,8.533-8.533,8.533h-45.633
			L183.749,402.8C182.151,404.403,179.979,405.302,177.716,405.3L177.716,405.3z"/>
		<path style="fill:#428DFF;" d="M116.258,343.837c-3.451-0.001-6.562-2.08-7.882-5.268c-1.32-3.188-0.591-6.858,1.849-9.298
			l46.667-46.667v-45.634c0-4.713,3.82-8.533,8.533-8.533s8.533,3.821,8.533,8.533v49.167c-0.001,2.263-0.9,4.433-2.5,6.033
			l-49.167,49.167C120.692,342.94,118.521,343.84,116.258,343.837L116.258,343.837z"/>
	</g>
</g>
<g>
</g>
<g>
</g>
<g>
</g>
<g>
</g>
<g>
</g>
<g>
</g>
<g>
</g>
<g>
</g>
<g>
</g>
<g>
</g>
<g>
</g>
<g>
</g>
<g>
</g>
<g>
</g>
<g>
</g>
</svg>
