<?xml version="1.0" encoding="iso-8859-1"?>
<!-- Generator: Adobe Illustrator 19.0.0, SVG Export Plug-In . SVG Version: 6.00 Build 0)  -->
<svg version="1.1" id="Capa_1" xmlns="http://www.w3.org/2000/svg" xmlns:xlink="http://www.w3.org/1999/xlink" x="0px" y="0px"
	 viewBox="0 0 512 512" style="enable-background:new 0 0 512 512;" xml:space="preserve">
<g>
	<g transform="translate(1 1)">
		<polygon style="fill:#FFFFFF;" points="189.72,325.656 84.333,489.667 58.733,489.667 165.485,323.523 		"/>
		<polygon style="fill:#A4C2F7;" points="220.867,328.387 144.067,489.667 84.333,489.667 189.72,325.656 		"/>
		<polygon style="fill:#7FACFA;" points="451.267,489.667 365.933,489.667 289.133,328.387 320.28,325.656 344.515,323.523 		"/>
		<g>
			<polygon style="fill:#A4C2F7;" points="425.667,489.667 365.933,489.667 289.133,328.387 320.28,325.656 			"/>
			<path style="fill:#A4C2F7;" d="M408.6,241.176l-18.37,52.821c-2.055,6.225-5.887,11.712-11.022,15.787
				c-4.583,3.477-9.507,6.479-14.696,8.96c-7.103,3.417-14.477,6.243-22.044,8.448c-4.629,1.365-9.552,2.645-14.696,3.669
				c-7.279,1.585-14.638,2.781-22.044,3.584c-4.776,0.512-9.7,0.939-14.696,1.195c-4.776,0.256-9.7,0.427-14.696,0.427
				c-3.748,0-7.422-0.085-11.022-0.256c-1.249-0.085-2.499-0.085-3.674-0.171c-4.997-0.256-9.92-0.683-14.696-1.195
				c-7.406-0.803-14.765-1.999-22.044-3.584c-5.144-1.024-10.067-2.304-14.696-3.669c-7.568-2.205-14.941-5.031-22.044-8.448
				c-5.19-2.481-10.114-5.483-14.696-8.96c-5.135-4.074-8.967-9.562-11.022-15.787l-18.37-52.821H408.6z"/>
		</g>
		<path style="fill:#FFFFFF;" d="M365.933,241.176l-18.37,52.821c-2.055,6.225-5.887,11.712-11.022,15.787
			c-4.583,3.477-9.507,6.479-14.696,8.96c-7.103,3.417-14.477,6.243-22.044,8.448c-4.629,1.365-9.552,2.645-14.696,3.669
			c-7.279,1.585-14.638,2.781-22.044,3.584c-4.776,0.512-9.7,0.939-14.696,1.195c-4.776,0.256-9.7,0.427-14.696,0.427
			c-3.748,0-7.422-0.085-11.022-0.256c-1.249-0.085-2.499-0.085-3.674-0.171c-4.997-0.256-9.92-0.683-14.696-1.195
			c-7.406-0.803-14.765-1.999-22.044-3.584c-5.144-1.024-10.067-2.304-14.696-3.669c-7.568-2.205-14.941-5.031-22.044-8.448
			c-5.19-2.481-10.114-5.483-14.696-8.96c-5.135-4.074-8.967-9.562-11.022-15.787l-18.37-52.821H365.933z"/>
		<path style="fill:#E3E7F2;" d="M383,241.176l-19.394,52.821c-2.226,6.3-6.277,11.796-11.636,15.787
			c-4.863,3.491-10.06,6.493-15.515,8.96c-7.522,3.426-15.304,6.25-23.273,8.448c-4.887,1.365-10.085,2.645-15.515,3.669
			c-7.692,1.586-15.46,2.782-23.273,3.584c-5.043,0.512-10.24,0.939-15.515,1.195c-1.241,0.085-2.56,0.085-3.879,0.171
			c-1.319-0.085-2.638-0.085-3.879-0.171c-5.275-0.256-10.473-0.683-15.515-1.195c-7.813-0.802-15.58-1.998-23.273-3.584
			c-5.43-1.024-10.628-2.304-15.515-3.669c-7.968-2.198-15.75-5.022-23.273-8.448c-5.455-2.467-10.652-5.469-15.515-8.96
			c-5.359-3.991-9.41-9.486-11.636-15.787L127,241.176H383z"/>
		<path style="fill:#A4C2F7;" d="M502.467,173.933c0,47.104-103.124,85.333-230.4,85.333c-3.972,0-7.945,0-11.838-0.085h-0.159
			c-121.715-2.304-218.403-39.595-218.403-85.248c0-30.379,42.902-57.088,107.573-72.192l213.875-1.792l22.96-0.171
			C455.592,114.456,502.467,142.189,502.467,173.933z"/>
		<path style="fill:#FFFFFF;" d="M468.333,173.933c0,47.104-103.124,85.333-230.4,85.333c-3.972,0-7.945,0-11.838-0.085h-0.159
			C104.222,256.877,7.533,219.587,7.533,173.933c0-30.379,42.902-57.088,107.573-72.192l213.875-1.792l22.96-0.171
			C421.459,114.456,468.333,142.189,468.333,173.933z"/>
		<path style="fill:#E3E7F2;" d="M476.867,173.933c0,45.653-98.186,82.944-221.786,85.248h-0.161
			c-123.6-2.304-221.786-39.595-221.786-85.248c0-30.379,43.567-57.088,109.239-72.192l217.188-1.792
			C429.67,114.712,476.867,142.36,476.867,173.933z"/>
		
			<linearGradient id="SVGID_1_" gradientUnits="userSpaceOnUse" x1="-49.6337" y1="651.0197" x2="-49.0184" y2="650.0045" gradientTransform="matrix(281.6 0 0 -170.6678 14140.9336 111156.7422)">
			<stop  offset="0" style="stop-color:#D4E1F4"/>
			<stop  offset="0.1717" style="stop-color:#D4E1F4"/>
			<stop  offset="0.2" style="stop-color:#D4E1F4"/>
			<stop  offset="0.2001" style="stop-color:#DAE4F4"/>
			<stop  offset="0.2007" style="stop-color:#EBEBF4"/>
			<stop  offset="0.2014" style="stop-color:#F6F1F4"/>
			<stop  offset="0.2023" style="stop-color:#FDF4F4"/>
			<stop  offset="0.205" style="stop-color:#FFF5F4"/>
			<stop  offset="0.2522" style="stop-color:#FFF5F4"/>
			<stop  offset="0.26" style="stop-color:#FFF5F4"/>
			<stop  offset="0.26" style="stop-color:#D4E1F4"/>
			<stop  offset="0.3974" style="stop-color:#D4E1F4"/>
			<stop  offset="0.42" style="stop-color:#D4E1F4"/>
			<stop  offset="0.4201" style="stop-color:#DAE4F4"/>
			<stop  offset="0.4207" style="stop-color:#EBEBF4"/>
			<stop  offset="0.4214" style="stop-color:#F6F1F4"/>
			<stop  offset="0.4223" style="stop-color:#FDF4F4"/>
			<stop  offset="0.425" style="stop-color:#FFF5F4"/>
			<stop  offset="0.4894" style="stop-color:#FFF5F4"/>
			<stop  offset="0.5" style="stop-color:#FFF5F4"/>
			<stop  offset="0.5" style="stop-color:#F9F2F4"/>
			<stop  offset="0.5001" style="stop-color:#E8EBF4"/>
			<stop  offset="0.5003" style="stop-color:#DDE5F4"/>
			<stop  offset="0.5005" style="stop-color:#D6E2F4"/>
			<stop  offset="0.501" style="stop-color:#D4E1F4"/>
			<stop  offset="0.7062" style="stop-color:#D4E1F4"/>
			<stop  offset="0.74" style="stop-color:#D4E1F4"/>
			<stop  offset="0.741" style="stop-color:#FFF5F4"/>
			<stop  offset="0.8346" style="stop-color:#FFF5F4"/>
			<stop  offset="0.85" style="stop-color:#FFF5F4"/>
			<stop  offset="0.851" style="stop-color:#D4E1F4"/>
		</linearGradient>
		<path style="fill:url(#SVGID_1_);" d="M391.533,161.133c-0.016-77.755-63.045-140.784-140.8-140.8
			c-4.274-0.018-8.546,0.181-12.8,0.597c-72.512,6.584-128.028,67.393-128,140.203l1.621,0.341
			c-0.978,1.082-1.551,2.469-1.621,3.925c0,13.312,55.467,24.149,126.379,25.429c1.079,0.085,2.163,0.085,3.243,0
			C243.224,191,246.979,191,250.733,191c77.739,0,140.8-11.435,140.8-25.6c-0.07-1.457-0.643-2.844-1.621-3.925L391.533,161.133z"/>
	</g>
	<g>
		<path style="fill:#428DFF;" d="M256,268.8c-125.842,0-256-35.113-256-93.867C0,140.65,44.567,111.3,122.258,94.404
			c2.988-0.674,6.108,0.306,8.175,2.567c2.067,2.261,2.763,5.456,1.824,8.372c-0.939,2.916-3.368,5.105-6.366,5.736
			c-66.108,14.375-108.825,39.442-108.825,63.854c0,45.258,125.925,76.8,238.933,76.8s238.933-31.542,238.933-76.8
			c0-25.858-46.367-51.679-118.125-65.779c-4.625-0.907-7.64-5.391-6.733-10.017c0.907-4.625,5.391-7.64,10.017-6.733
			C462.692,108.638,512,139.492,512,174.933C512,233.687,381.842,268.8,256,268.8z"/>
		<path style="fill:#428DFF;" d="M392.533,170.667c-2.263,0.001-4.434-0.898-6.035-2.499c-1.6-1.6-2.499-3.771-2.499-6.035
			c0-73.049-59.218-132.267-132.267-132.267S119.467,89.084,119.467,162.133c0,4.713-3.821,8.533-8.533,8.533
			c-4.713,0-8.533-3.821-8.533-8.533C102.4,79.659,169.259,12.8,251.733,12.8s149.333,66.859,149.333,149.333
			c0.001,2.263-0.898,4.434-2.499,6.035C396.968,169.768,394.797,170.667,392.533,170.667L392.533,170.667z"/>
		<path style="fill:#428DFF;" d="M256,345.6c-51.583,0-98.008-10.371-124.183-27.746c-7.208-4.778-12.791-11.636-16.009-19.663
			l-21.325-52.821c-1.75-4.369,0.365-9.33,4.729-11.091c4.364-1.762,9.331,0.341,11.104,4.7l21.325,52.825
			c1.927,4.829,5.278,8.956,9.609,11.833c23.142,15.354,67.108,24.896,114.75,24.896s91.608-9.542,114.75-24.896
			c4.329-2.877,7.68-7.002,9.609-11.829l21.325-52.829c1.773-4.359,6.74-6.462,11.104-4.7c4.364,1.762,6.479,6.723,4.729,11.091
			l-21.325,52.825c-3.219,8.025-8.802,14.881-16.009,19.658C354.008,335.229,307.583,345.6,256,345.6z"/>
		<path style="fill:#428DFF;" d="M251.733,200.533c-24.933,0-149.333-1.646-149.333-34.133s124.4-34.133,149.333-34.133
			c24.933,0,149.333,1.646,149.333,34.133S276.667,200.533,251.733,200.533z M120.942,166.4
			c10.158,6.596,54.308,17.067,130.792,17.067s120.633-10.47,130.792-17.067c-10.158-6.596-54.308-17.067-130.792-17.067
			S131.1,159.804,120.942,166.4z"/>
		<path style="fill:#428DFF;" d="M76.8,183.467H59.733c-4.713,0-8.533-3.821-8.533-8.533c0-4.713,3.821-8.533,8.533-8.533H76.8
			c4.713,0,8.533,3.821,8.533,8.533C85.333,179.646,81.513,183.467,76.8,183.467z"/>
		<path style="fill:#428DFF;" d="M452.267,183.467H435.2c-4.713,0-8.533-3.821-8.533-8.533c0-4.713,3.82-8.533,8.533-8.533h17.067
			c4.713,0,8.533,3.821,8.533,8.533C460.8,179.646,456.98,183.467,452.267,183.467z"/>
		<path style="fill:#428DFF;" d="M145.067,226.133c-3.451-0.001-6.562-2.08-7.882-5.268c-1.32-3.188-0.591-6.858,1.849-9.298
			l8.533-8.533c3.341-3.281,8.701-3.256,12.012,0.054c3.311,3.311,3.335,8.671,0.054,12.012l-8.533,8.533
			C149.502,225.236,147.33,226.136,145.067,226.133L145.067,226.133z"/>
		<path style="fill:#428DFF;" d="M366.933,226.133c-2.264,0.003-4.435-0.897-6.033-2.5l-8.533-8.533
			c-3.281-3.341-3.256-8.701,0.054-12.012c3.311-3.311,8.671-3.335,12.012-0.054l8.533,8.533c2.44,2.44,3.169,6.11,1.849,9.298
			C373.495,224.054,370.384,226.133,366.933,226.133z"/>
		<path style="fill:#428DFF;" d="M264.533,243.2c-2.263,0.001-4.434-0.898-6.035-2.499s-2.499-3.771-2.499-6.035v-8.533
			c0-4.713,3.821-8.533,8.533-8.533s8.533,3.821,8.533,8.533v8.533c0.001,2.263-0.898,4.434-2.499,6.035
			C268.968,242.302,266.797,243.201,264.533,243.2L264.533,243.2z"/>
		<path style="fill:#428DFF;" d="M452.267,499.2H59.733c-3.122,0.001-5.995-1.702-7.492-4.442c-1.497-2.739-1.379-6.078,0.308-8.704
			L159.3,319.908c2.557-3.943,7.82-5.077,11.774-2.538c3.954,2.539,5.113,7.797,2.592,11.763l-98.309,153h361.284l-98.309-153
			c-2.521-3.966-1.362-9.224,2.592-11.763c3.954-2.539,9.217-1.405,11.774,2.538l106.75,166.145
			c1.687,2.627,1.805,5.965,0.308,8.704C458.262,497.498,455.388,499.201,452.267,499.2z"/>
		<path style="fill:#428DFF;" d="M366.933,499.2H145.067c-2.928,0-5.651-1.501-7.215-3.977c-1.564-2.475-1.75-5.579-0.493-8.223
			l74.067-155.563c2.025-4.257,7.118-6.067,11.375-4.042c4.257,2.025,6.067,7.118,4.042,11.375l-68.258,143.363h194.833
			l-68.258-143.362c-1.31-2.754-1.051-5.998,0.679-8.509c1.73-2.511,4.668-3.909,7.708-3.667c3.04,0.242,5.72,2.088,7.03,4.842
			L374.642,487c1.257,2.644,1.07,5.748-0.493,8.223C372.584,497.699,369.861,499.2,366.933,499.2z"/>
		<path style="fill:#428DFF;" d="M145.067,324.267c-2.263,0.001-4.434-0.898-6.035-2.499s-2.499-3.771-2.499-6.035v-64.596
			c0-4.713,3.821-8.533,8.533-8.533c4.713,0,8.533,3.82,8.533,8.533v64.596c0.001,2.263-0.898,4.434-2.499,6.035
			S147.33,324.267,145.067,324.267L145.067,324.267z"/>
		<path style="fill:#428DFF;" d="M187.733,338.688c-2.263,0.001-4.434-0.898-6.035-2.499c-1.6-1.6-2.499-3.771-2.499-6.035v-73.217
			c0-4.713,3.821-8.533,8.533-8.533c4.713,0,8.533,3.821,8.533,8.533v73.217c0.001,2.263-0.898,4.434-2.499,6.035
			C192.168,337.789,189.997,338.688,187.733,338.688L187.733,338.688z"/>
		<path style="fill:#428DFF;" d="M230.4,344.663c-2.263,0.001-4.434-0.898-6.035-2.499c-1.6-1.6-2.499-3.771-2.499-6.035v-76.288
			c0-4.713,3.82-8.533,8.533-8.533s8.533,3.821,8.533,8.533v76.288c0.001,2.263-0.898,4.434-2.499,6.035
			C234.834,343.764,232.663,344.663,230.4,344.663L230.4,344.663z"/>
		<path style="fill:#428DFF;" d="M281.6,344.663c-2.263,0.001-4.434-0.898-6.035-2.499c-1.6-1.6-2.499-3.771-2.499-6.035v-76.288
			c0-4.713,3.82-8.533,8.533-8.533s8.533,3.821,8.533,8.533v76.288c0.001,2.263-0.898,4.434-2.499,6.035
			C286.034,343.764,283.863,344.663,281.6,344.663L281.6,344.663z"/>
		<path style="fill:#428DFF;" d="M324.267,338.688c-2.263,0.001-4.434-0.898-6.035-2.499c-1.6-1.6-2.499-3.771-2.499-6.035v-73.217
			c0-4.713,3.821-8.533,8.533-8.533s8.533,3.821,8.533,8.533v73.217c0.001,2.263-0.898,4.434-2.499,6.035
			C328.701,337.789,326.53,338.688,324.267,338.688L324.267,338.688z"/>
		<path style="fill:#428DFF;" d="M366.933,324.267c-2.263,0.001-4.434-0.898-6.035-2.499c-1.6-1.6-2.499-3.771-2.499-6.035v-64.596
			c0-4.713,3.82-8.533,8.533-8.533s8.533,3.82,8.533,8.533v64.596c0.001,2.263-0.898,4.434-2.499,6.035
			C371.368,323.368,369.197,324.267,366.933,324.267L366.933,324.267z"/>
	</g>
</g>
<g>
</g>
<g>
</g>
<g>
</g>
<g>
</g>
<g>
</g>
<g>
</g>
<g>
</g>
<g>
</g>
<g>
</g>
<g>
</g>
<g>
</g>
<g>
</g>
<g>
</g>
<g>
</g>
<g>
</g>
</svg>
