<?xml version="1.0" encoding="iso-8859-1"?>
<!-- Generator: Adobe Illustrator 19.0.0, SVG Export Plug-In . SVG Version: 6.00 Build 0)  -->
<svg version="1.1" id="Capa_1" xmlns="http://www.w3.org/2000/svg" xmlns:xlink="http://www.w3.org/1999/xlink" x="0px" y="0px"
	 viewBox="0 0 512 512" style="enable-background:new 0 0 512 512;" xml:space="preserve">
<g>
	<g transform="translate(11 1)">
		<g>
			<path style="fill:#A4C2F7;" d="M253.533,7.533H270.6c9.426,0,17.067,7.641,17.067,17.067v29.867h-51.2V24.6
				C236.467,15.174,244.108,7.533,253.533,7.533z"/>
			<path style="fill:#A4C2F7;" d="M304.733,50.2v51.2H219.4V50.2c0-4.693,2.743-8.533,6.095-8.533h73.143
				C301.99,41.667,304.733,45.507,304.733,50.2z"/>
		</g>
		<g>
			<path style="fill:#FFFFFF;" d="M219.4,7.533h17.067c9.426,0,17.067,7.641,17.067,17.067v29.867h-51.2V24.6
				C202.333,15.174,209.974,7.533,219.4,7.533z"/>
			<path style="fill:#FFFFFF;" d="M270.6,50.2v51.2h-85.333V50.2c0-4.693,2.743-8.533,6.095-8.533h73.143
				C267.857,41.667,270.6,45.507,270.6,50.2z"/>
		</g>
		<g>
			<path style="fill:#E3E7F2;" d="M245,7.533L245,7.533c9.426,0,17.067,7.641,17.067,17.067v29.867h-34.133V24.6
				C227.933,15.174,235.574,7.533,245,7.533z"/>
			<path style="fill:#E3E7F2;" d="M279.133,50.2v51.2h-68.267V50.2c0-4.693,2.194-8.533,4.876-8.533h58.514
				C276.939,41.667,279.133,45.507,279.133,50.2z"/>
			<rect x="134.067" y="438.467" style="fill:#E3E7F2;" width="34.133" height="64"/>
			<rect x="321.8" y="434.2" style="fill:#E3E7F2;" width="34.133" height="68.267"/>
		</g>
		<g>
			<path style="fill:#A4C2F7;" d="M176.733,408.6v42.667c-0.014,4.707-3.826,8.519-8.533,8.533h-34.133
				c-4.707-0.014-8.519-3.826-8.533-8.533V408.6H176.733z"/>
			<path style="fill:#A4C2F7;" d="M364.467,408.6v42.667c-0.014,4.707-3.826,8.519-8.533,8.533H321.8
				c-4.707-0.014-8.519-3.826-8.533-8.533V408.6H364.467z"/>
		</g>
		<g>
			<path style="fill:#E3E7F2;" d="M151.133,408.6v42.667c-0.014,4.707-3.826,8.519-8.533,8.533h-8.533
				c-4.707-0.014-8.519-3.826-8.533-8.533V408.6H151.133z"/>
			<path style="fill:#E3E7F2;" d="M338.867,408.6v42.667c-0.014,4.707-3.826,8.519-8.533,8.533H321.8
				c-4.707-0.014-8.519-3.826-8.533-8.533V408.6H338.867z"/>
		</g>
		<path style="fill:#A4C2F7;" d="M407.133,348.867l-8.803,25.6l-5.895,17.067l-5.03,14.507c-2.058,6.469-7.99,10.922-14.776,11.093
			H142.971c-6.786-0.171-12.718-4.624-14.776-11.093l-19.728-57.173l7.859-25.6h282.948L407.133,348.867z"/>
		<path style="fill:#E3E7F2;" d="M381.533,348.867l-9.557,25.6l-6.4,17.067l-5.461,14.507c-2.527,6.669-8.911,11.083-16.043,11.093
			H145.928c-7.132-0.01-13.515-4.425-16.043-11.093l-21.419-57.173l8.533-25.6h256L381.533,348.867z"/>
		<path style="fill:#A4C2F7;" d="M407.133,348.867H108.467l76.789-250.197c0.969-3.347,3.984-5.69,7.467-5.803h130.156
			c3.483,0.113,6.497,2.455,7.467,5.803L394.008,306.2l5.266,17.067L407.133,348.867z"/>
		<path style="fill:#E3E7F2;" d="M381.533,348.867H108.467l8.533-25.6l74.837-224.597c1.203-3.454,4.449-5.777,8.107-5.803h90.112
			c3.657,0.025,6.904,2.349,8.107,5.803l69.12,207.531L373,323.267L381.533,348.867z"/>
		
			<linearGradient id="SVGID_1_" gradientUnits="userSpaceOnUse" x1="-59.3878" y1="650.6906" x2="-57.9715" y2="649.9824" gradientTransform="matrix(59.7333 0 0 -119.4667 3711.7336 77948.5391)">
			<stop  offset="0" style="stop-color:#D4E1F4"/>
			<stop  offset="0.1717" style="stop-color:#D4E1F4"/>
			<stop  offset="0.2" style="stop-color:#D4E1F4"/>
			<stop  offset="0.2001" style="stop-color:#DAE4F4"/>
			<stop  offset="0.2007" style="stop-color:#EBEBF4"/>
			<stop  offset="0.2014" style="stop-color:#F6F1F4"/>
			<stop  offset="0.2023" style="stop-color:#FDF4F4"/>
			<stop  offset="0.205" style="stop-color:#FFF5F4"/>
			<stop  offset="0.2522" style="stop-color:#FFF5F4"/>
			<stop  offset="0.26" style="stop-color:#FFF5F4"/>
			<stop  offset="0.26" style="stop-color:#D4E1F4"/>
			<stop  offset="0.3974" style="stop-color:#D4E1F4"/>
			<stop  offset="0.42" style="stop-color:#D4E1F4"/>
			<stop  offset="0.4201" style="stop-color:#DAE4F4"/>
			<stop  offset="0.4207" style="stop-color:#EBEBF4"/>
			<stop  offset="0.4214" style="stop-color:#F6F1F4"/>
			<stop  offset="0.4223" style="stop-color:#FDF4F4"/>
			<stop  offset="0.425" style="stop-color:#FFF5F4"/>
			<stop  offset="0.4894" style="stop-color:#FFF5F4"/>
			<stop  offset="0.5" style="stop-color:#FFF5F4"/>
			<stop  offset="0.5" style="stop-color:#F9F2F4"/>
			<stop  offset="0.5001" style="stop-color:#E8EBF4"/>
			<stop  offset="0.5003" style="stop-color:#DDE5F4"/>
			<stop  offset="0.5005" style="stop-color:#D6E2F4"/>
			<stop  offset="0.501" style="stop-color:#D4E1F4"/>
			<stop  offset="0.7062" style="stop-color:#D4E1F4"/>
			<stop  offset="0.74" style="stop-color:#D4E1F4"/>
			<stop  offset="0.741" style="stop-color:#FFF5F4"/>
			<stop  offset="0.8346" style="stop-color:#FFF5F4"/>
			<stop  offset="0.85" style="stop-color:#FFF5F4"/>
			<stop  offset="0.851" style="stop-color:#D4E1F4"/>
		</linearGradient>
		<path style="fill:url(#SVGID_1_);" d="M185.267,195.267h42.667c4.713,0,8.533,3.821,8.533,8.533v102.4
			c0,4.713-3.821,8.533-8.533,8.533h-42.667c-4.713,0-8.533-3.82-8.533-8.533V203.8
			C176.733,199.087,180.554,195.267,185.267,195.267z"/>
		<circle style="fill:#A4C2F7;" cx="296.2" cy="220.867" r="25.6"/>
		<path style="fill:#FFFFFF;" d="M199.944,92.867c-3.657,0.025-6.904,2.349-8.107,5.803L117,323.267l-8.533,25.6l21.419,57.173
			c2.527,6.669,8.911,11.083,16.043,11.093h-25.6c-7.132-0.01-13.515-4.425-16.043-11.093l-21.419-57.173l8.533-25.6l74.837-224.597
			c1.203-3.454,4.449-5.777,8.107-5.803H199.944z"/>
	</g>
	<g>
		<path style="fill:#428DFF;" d="M418.133,358.4H93.867c-2.742,0-5.318-1.318-6.921-3.543c-1.604-2.225-2.041-5.084-1.174-7.686
			l31.829-95.659c0.958-2.899,3.392-5.066,6.382-5.682c2.991-0.616,6.083,0.414,8.107,2.7c2.025,2.286,2.674,5.479,1.702,8.374
			L105.7,341.333h300.596l-79.629-238.967L185.346,102.4l-29.967,89.742c-1.491,4.471-6.325,6.887-10.796,5.396
			s-6.887-6.325-5.396-10.796l29.954-89.771c2.374-6.933,8.876-11.603,16.204-11.638h141.308
			c7.285,0.022,13.763,4.638,16.162,11.517l83.412,250.321c0.866,2.602,0.429,5.462-1.174,7.686
			C423.451,357.082,420.876,358.4,418.133,358.4L418.133,358.4z"/>
		<path style="fill:#428DFF;" d="M315.733,102.4H196.267c-4.713,0-8.533-3.821-8.533-8.533V51.2
			c0.009-9.422,7.645-17.057,17.067-17.067h102.4c9.422,0.009,17.057,7.645,17.067,17.067v42.667
			C324.267,98.579,320.446,102.4,315.733,102.4z M204.8,85.333h102.4V51.2H204.8V85.333z"/>
		<path style="fill:#428DFF;" d="M298.667,51.2h-85.333c-4.713,0-8.533-3.821-8.533-8.533V25.6
			c0.015-14.132,11.468-25.585,25.6-25.6h51.2c14.132,0.015,25.585,11.468,25.6,25.6v17.067C307.2,47.379,303.38,51.2,298.667,51.2z
			 M221.867,34.133h68.267V25.6c-0.006-4.71-3.823-8.527-8.533-8.533h-51.2c-4.71,0.006-8.527,3.823-8.533,8.533V34.133z"/>
		<path style="fill:#428DFF;" d="M380.704,426.667H131.296c-10.661-0.033-20.197-6.642-23.971-16.613l-21.45-57.192
			c-0.982-2.621-0.617-5.556,0.978-7.857c1.594-2.3,4.215-3.672,7.014-3.673h324.267c2.799,0,5.419,1.372,7.014,3.673
			c1.594,2.3,1.96,5.236,0.978,7.857l-21.446,57.192C400.902,420.025,391.366,426.632,380.704,426.667L380.704,426.667z
			 M106.179,358.4l17.125,45.662c1.259,3.324,4.438,5.526,7.992,5.538h249.408c3.556-0.012,6.736-2.216,7.996-5.542l17.121-45.658
			H106.179z"/>
		<path style="fill:#428DFF;" d="M179.2,469.333h-34.133c-9.422-0.009-17.057-7.645-17.067-17.067v-34.133
			c0-4.713,3.821-8.533,8.533-8.533h51.2c4.713,0,8.533,3.82,8.533,8.533v34.133C196.257,461.688,188.622,469.324,179.2,469.333
			L179.2,469.333z M145.067,426.667v25.6h34.146l-0.009-25.6H145.067z"/>
		<path style="fill:#428DFF;" d="M179.2,512h-34.133c-4.713,0-8.533-3.82-8.533-8.533V460.8c0-4.713,3.821-8.533,8.533-8.533H179.2
			c4.713,0,8.533,3.82,8.533,8.533v42.667C187.733,508.18,183.913,512,179.2,512z M153.6,494.933h17.067v-25.6H153.6V494.933z"/>
		<path style="fill:#428DFF;" d="M196.267,512H128c-4.713,0-8.533-3.82-8.533-8.533c0-4.713,3.821-8.533,8.533-8.533h68.267
			c4.713,0,8.533,3.821,8.533,8.533C204.8,508.18,200.979,512,196.267,512z"/>
		<path style="fill:#428DFF;" d="M366.933,469.333H332.8c-9.422-0.009-17.057-7.645-17.067-17.067v-34.133
			c0-4.713,3.821-8.533,8.533-8.533h51.2c4.713,0,8.533,3.82,8.533,8.533v34.133C383.991,461.688,376.355,469.324,366.933,469.333z
			 M332.8,426.667v25.6h34.146l-0.009-25.6H332.8z"/>
		<path style="fill:#428DFF;" d="M366.933,512H332.8c-4.713,0-8.533-3.82-8.533-8.533V460.8c0-4.713,3.82-8.533,8.533-8.533h34.133
			c4.713,0,8.533,3.82,8.533,8.533v42.667C375.467,508.18,371.646,512,366.933,512z M341.333,494.933H358.4v-25.6h-17.067V494.933z"
			/>
		<path style="fill:#428DFF;" d="M384,512h-68.267c-4.713,0-8.533-3.82-8.533-8.533c0-4.713,3.82-8.533,8.533-8.533H384
			c4.713,0,8.533,3.821,8.533,8.533C392.533,508.18,388.713,512,384,512z"/>
		<path style="fill:#428DFF;" d="M401.067,324.267h-59.733c-4.713,0-8.533-3.821-8.533-8.533c0-4.713,3.82-8.533,8.533-8.533h59.733
			c4.713,0,8.533,3.821,8.533,8.533C409.6,320.446,405.78,324.267,401.067,324.267z"/>
		<path style="fill:#428DFF;" d="M307.2,324.267h-25.6c-4.713,0-8.533-3.821-8.533-8.533c0-4.713,3.82-8.533,8.533-8.533h25.6
			c4.713,0,8.533,3.821,8.533,8.533C315.733,320.446,311.913,324.267,307.2,324.267z"/>
		<path style="fill:#428DFF;" d="M401.067,392.533h-59.733c-4.713,0-8.533-3.82-8.533-8.533s3.82-8.533,8.533-8.533h59.733
			c4.713,0,8.533,3.821,8.533,8.533S405.78,392.533,401.067,392.533z"/>
		<path style="fill:#428DFF;" d="M315.733,392.533h-42.667c-4.713,0-8.533-3.82-8.533-8.533s3.82-8.533,8.533-8.533h42.667
			c4.713,0,8.533,3.821,8.533,8.533S320.446,392.533,315.733,392.533z"/>
		<path style="fill:#428DFF;" d="M196.267,102.4c-3.451-0.001-6.562-2.08-7.882-5.268c-1.32-3.188-0.591-6.858,1.849-9.298
			l51.2-51.2c3.341-3.281,8.701-3.256,12.012,0.054c3.311,3.311,3.335,8.671,0.054,12.012l-51.2,51.2
			C200.702,101.503,198.53,102.403,196.267,102.4z"/>
		<path style="fill:#428DFF;" d="M238.933,102.4c-3.451-0.001-6.562-2.08-7.882-5.268c-1.32-3.188-0.591-6.858,1.849-9.298
			l51.2-51.2c2.149-2.188,5.307-3.055,8.271-2.27c2.965,0.785,5.28,3.1,6.065,6.065c0.785,2.965-0.082,6.122-2.27,8.271l-51.2,51.2
			C243.368,101.503,241.197,102.403,238.933,102.4L238.933,102.4z"/>
		<path style="fill:#428DFF;" d="M238.933,324.267h-42.667c-9.422-0.009-17.057-7.645-17.067-17.067V204.8
			c0.009-9.422,7.645-17.057,17.067-17.067h42.667c9.422,0.009,17.057,7.645,17.067,17.067v102.4
			C255.991,316.622,248.355,324.257,238.933,324.267L238.933,324.267z M196.267,204.8v102.4h42.679l-0.012-102.4H196.267z"/>
		<path style="fill:#428DFF;" d="M307.2,256c-18.851,0-34.133-15.282-34.133-34.133s15.282-34.133,34.133-34.133
			s34.133,15.282,34.133,34.133C341.312,240.709,326.042,255.978,307.2,256L307.2,256z M307.2,204.8
			c-9.426,0-17.067,7.641-17.067,17.067c0,9.426,7.641,17.067,17.067,17.067s17.067-7.641,17.067-17.067
			C324.257,212.445,316.622,204.809,307.2,204.8L307.2,204.8z"/>
		<path style="fill:#428DFF;" d="M17.067,435.2c-3.451-0.001-6.562-2.08-7.882-5.268s-0.591-6.858,1.849-9.298l51.2-51.2
			c3.341-3.281,8.701-3.256,12.012,0.054c3.311,3.311,3.335,8.671,0.054,12.012l-51.2,51.2
			C21.502,434.303,19.33,435.203,17.067,435.2z"/>
		<path style="fill:#428DFF;" d="M42.667,494.933c-3.451-0.001-6.562-2.08-7.882-5.268c-1.32-3.188-0.591-6.858,1.849-9.298
			l51.2-51.2c3.341-3.281,8.701-3.256,12.012,0.054c3.311,3.311,3.335,8.671,0.054,12.012l-51.2,51.2
			C47.102,494.036,44.93,494.936,42.667,494.933L42.667,494.933z"/>
		<path style="fill:#428DFF;" d="M8.533,486.4c-3.451-0.001-6.562-2.08-7.882-5.268s-0.591-6.858,1.849-9.298l76.8-76.8
			c3.341-3.281,8.701-3.256,12.012,0.054s3.335,8.671,0.054,12.012l-76.8,76.8C12.968,485.503,10.797,486.403,8.533,486.4z"/>
		<path style="fill:#428DFF;" d="M494.933,435.2c-2.264,0.003-4.435-0.897-6.033-2.5l-51.2-51.2
			c-3.281-3.341-3.256-8.701,0.054-12.012c3.311-3.311,8.671-3.335,12.012-0.054l51.2,51.2c2.44,2.44,3.169,6.11,1.849,9.298
			C501.495,433.12,498.384,435.199,494.933,435.2z"/>
		<path style="fill:#428DFF;" d="M469.333,494.933c-2.264,0.003-4.435-0.897-6.033-2.5l-51.2-51.2
			c-3.281-3.341-3.256-8.701,0.054-12.012c3.311-3.311,8.671-3.335,12.012-0.054l51.2,51.2c2.44,2.44,3.169,6.11,1.849,9.298
			C475.895,492.854,472.784,494.933,469.333,494.933z"/>
		<path style="fill:#428DFF;" d="M503.467,486.4c-2.264,0.003-4.435-0.897-6.033-2.5l-76.8-76.8
			c-3.281-3.341-3.256-8.701,0.054-12.012s8.671-3.335,12.012-0.054l76.8,76.8c2.44,2.44,3.169,6.11,1.849,9.298
			S506.918,486.399,503.467,486.4z"/>
		<circle style="fill:#428DFF;" cx="136.533" cy="221.867" r="8.533"/>
	</g>
</g>
<g>
</g>
<g>
</g>
<g>
</g>
<g>
</g>
<g>
</g>
<g>
</g>
<g>
</g>
<g>
</g>
<g>
</g>
<g>
</g>
<g>
</g>
<g>
</g>
<g>
</g>
<g>
</g>
<g>
</g>
</svg>
