<svg xmlns="http://www.w3.org/2000/svg" xmlns:xlink="http://www.w3.org/1999/xlink" viewBox="0 0 500 500"><defs><style>.cls-1,.cls-25,.cls-33{fill:none;}.cls-1{clip-rule:evenodd;}.cls-15,.cls-19,.cls-2{fill:#fff;}.cls-3{fill:#f4f7f6;}.cls-10,.cls-11,.cls-12,.cls-13,.cls-14,.cls-15,.cls-17,.cls-18,.cls-19,.cls-20,.cls-21,.cls-22,.cls-24,.cls-29,.cls-3,.cls-30,.cls-31,.cls-36,.cls-4,.cls-40,.cls-41,.cls-42,.cls-5,.cls-6,.cls-8,.cls-9{fill-rule:evenodd;}.cls-4{fill:#dce9e5;}.cls-5{fill:#aab4c2;}.cls-6{fill:#e9e7e8;}.cls-7{clip-path:url(#clip-path);}.cls-8{fill:#8193b6;}.cls-9{fill:#fcf8f2;}.cls-10{fill:#403943;}.cls-11{fill:#ead9c7;}.cls-12{fill:#edbbba;}.cls-13{fill:#e79c9b;}.cls-14{fill:#ebe8ea;}.cls-15{stroke:#000;stroke-width:3.94px;}.cls-15,.cls-25,.cls-33{stroke-linecap:round;stroke-linejoin:round;}.cls-16{clip-path:url(#clip-path-2);}.cls-17{fill:#caa882;}.cls-18{fill:#927163;}.cls-20{fill:#9c5251;}.cls-21{fill:#6a5e67;}.cls-22{fill:#edbcba;}.cls-23{clip-path:url(#clip-path-3);}.cls-24{fill:#f3f3f3;}.cls-25{stroke:#c3bdc1;stroke-width:3.01px;}.cls-26{clip-path:url(#clip-path-4);}.cls-27{clip-path:url(#clip-path-5);}.cls-28{clip-path:url(#clip-path-6);}.cls-29{fill:#e79c9a;}.cls-30{fill:#bcc4cf;}.cls-31{fill:#d5984b;}.cls-32{clip-path:url(#clip-path-7);}.cls-33{stroke:#e79c9a;stroke-width:2.96px;}.cls-34{clip-path:url(#clip-path-8);}.cls-35{clip-path:url(#clip-path-9);}.cls-36{fill:#c3bdc1;}.cls-37{clip-path:url(#clip-path-10);}.cls-38{clip-path:url(#clip-path-11);}.cls-39{clip-path:url(#clip-path-12);}.cls-40{fill:#23395b;}.cls-41{fill:#dfae44;}.cls-42{fill:#293141;}</style><clipPath id="clip-path"><path class="cls-1" d="M413.91,343.51a6.6,6.6,0,0,0,4.26-1c3.79-2.67,4.22-12.52,4.85-17.9,1.09-9.31,3.55-35.87,3.37-39.43-.31-5.92-5-7.19-7.46-7.48-6.08-.73-29.57-1.22-34.17-.39-5.35,1-19,37.85-19.92,41-2-.32-3.71-.59-5-.78-12.22-1.83-26.63-3.89-32.56-1.53-2.37.93-4.19,10-1.56,11.16,3.32,1.47,38.44,7.46,50,9.27,12.5,2,25,4.91,38.23,7.12Z"/></clipPath><clipPath id="clip-path-2"><path class="cls-1" d="M363.21,292.26c-.54.11-6.31,16.06-5.23,21.6,1.72,8.79,9.92,12,18.32,14.06,10.82,2.61,18.66.76,22.43-8.43,2.55-6.21.74-18.68.74-18.68s-12.11-.45-20.52-2.37c-10-2.28-15.74-6.18-15.74-6.18Z"/></clipPath><clipPath id="clip-path-3"><path class="cls-1" d="M396.43,235c1.61,1.53,1.3,8.69,1.45,11.79a19.37,19.37,0,0,1-.5,6.81c-.61,2-6.36,3.07-6.36,3.07s-4.42-.56-5-2.5a23.64,23.64,0,0,1-.76-5.63c-.19-2.3-.56-8.9.34-11.08A6.76,6.76,0,0,1,396.43,235Z"/></clipPath><clipPath id="clip-path-4"><path class="cls-1" d="M398.68,230.82c0-.33.07-.65.1-.95a14,14,0,0,0-3.16-9.86c-3.2-3.57-8.83-3.6-12.52-.68-4.52,3.58-5.64,10.87-6.14,16.36-.45,4.89,1.65,9.23,6.12,11.26,1,.46,4.84,2.34,9.91-1.7,2.31-1.84,3.73-4.89,4.56-8a2.78,2.78,0,0,0,3-.4,4.65,4.65,0,0,0,1.47-3.89c-.14-1.56-1.16-2.71-2.73-2.31a3.48,3.48,0,0,0-.62.21Z"/></clipPath><clipPath id="clip-path-5"><path class="cls-1" d="M398.44,231c-.71.6-1.51,3.67-1.81,3.41-1.59-1.37-.36-8.5-2.63-9.2-1.68-.52-3.47.14-5.15-.4s-2.7-2.24-4.65-2.39c-1.67-.14-3.44,1-5,.65-1.11-.26-1.36-1.32-2.2-1.84s-1.89-.43-2.76-.76c-3.36-1.26-3.49-5.9-.54-7.72,3.43-2.12,6.24,2.13,9.66,1.52,2.9-.51,5.27-3.34,8.38-2.83,2.77.47,3.5,3,5.63,4.29,1.91,1.19,4.24.34,5.3,2.86,1.31,3.14,1.36,7.61.34,12.07a16.36,16.36,0,0,1-.93,2.38s-.45-1.8-1.2-2.24a2.29,2.29,0,0,0-2.42.2Z"/></clipPath><clipPath id="clip-path-6"><path class="cls-1" d="M377.46,295l.14,0c3.79-.75,5.33-5.29,1.83-7.72-.4-.27-1.53-.84-1.95-1.08a4.23,4.23,0,0,0-.42-.22c-.3-.11-.61-.21-.91-.3-.74-.23-1.74-.53-2.54-.74a13.86,13.86,0,0,0-1.36-.3.57.57,0,0,0-.29,0,.43.43,0,0,0-.16.35,1.17,1.17,0,0,0,.26.84,3,3,0,0,0,.7.63,14.18,14.18,0,0,0-4.12.77,12.19,12.19,0,0,0-2.7,1.34.34.34,0,0,0-.06.33c0,.14.1.26.28.28a6,6,0,0,0,.87-.06c.49-.05,1.62-.26,1.51-.22-.3.09-.59.17-.88.28a9.64,9.64,0,0,0-2,1,4.35,4.35,0,0,0-.74.62.82.82,0,0,0-.21.27.55.55,0,0,0,.1.4.29.29,0,0,0,.3.17,2.91,2.91,0,0,0,.63-.21,10.82,10.82,0,0,1,1.27-.35l1.74-.37c.12,0-.94.25-1,.29a11.15,11.15,0,0,0-1.06.46,4.88,4.88,0,0,0-1,.66,2.77,2.77,0,0,0-.5.47.63.63,0,0,0-.06.65.43.43,0,0,0,.11.12.92.92,0,0,0,.61.07,12,12,0,0,0,1.87-.51,6.45,6.45,0,0,1,1.45-.32c-.09.11-1.67.74-2,.93a4.84,4.84,0,0,0-.46.33,2.32,2.32,0,0,0-.85.91,1,1,0,0,0,.07.76.51.51,0,0,0,.63.31,30.65,30.65,0,0,1,2.88-1.15c.57-.17,2.35.34,4.1.5a12.42,12.42,0,0,0,3.87-.14Z"/></clipPath><clipPath id="clip-path-7"><path class="cls-1" d="M285.26,154.28v-.08a7.21,7.21,0,0,0-.19-2.36,1.29,1.29,0,0,0-.67-.76.53.53,0,0,0-.46-.05.77.77,0,0,0-.18.29c-.24.55-.37.94-.57,1.53-.3.91-.64,2.09-.88,3-.1.36-.2.72-.27,1.08a3.43,3.43,0,0,0-.06.56c0,.56-.18,2-.16,2.58.2,4.92,5.73,6.1,8.9,2.78a3.29,3.29,0,0,0,.48-.63,9.44,9.44,0,0,0,.89-1.34c.92-1.75,1-2.35,1.72-3.26.58-.68,2.45-2.62,2.86-3.3s.07-1.1,0-1.11c-.48-.09-.57.05-1.15.34-1,.53-2.16,1.43-2.34,1.47s1-1.08,1.21-1.26a14.39,14.39,0,0,0,1.83-1.42,1,1,0,0,0,.32-.65.61.61,0,0,0-.05-.18.74.74,0,0,0-.69-.33,3.27,3.27,0,0,0-.79.21,16.12,16.12,0,0,0-2.32,1.42c-.09.07-.94.9-1,.79S293,152,293,152c.41-.35.85-.63,1.27-1a3.61,3.61,0,0,0,.61-.5.36.36,0,0,0,0-.41.65.65,0,0,0-.33-.33,1.05,1.05,0,0,0-.41.05,5.08,5.08,0,0,0-1.1.37,12,12,0,0,0-2.24,1.4c-.28.23-.56.46-.83.7a12.34,12.34,0,0,1,1.28-1.48,18.51,18.51,0,0,0,2-1.94.36.36,0,0,0-.1-.44.4.4,0,0,0-.37-.13,8.68,8.68,0,0,0-2.17,1,18.86,18.86,0,0,0-2.94,2.4,21.39,21.39,0,0,0-2.47,2.61Z"/></clipPath><clipPath id="clip-path-8"><path class="cls-1" d="M201.5,237.61c-2.39-3.86.37-8.65,5.32-7.46.56.14,2,.69,2.52.87a4.81,4.81,0,0,1,.53.2c.35.17.67.37,1,.56.8.46,1.87,1.11,2.69,1.64.53.34.88.58,1.36,1,0,0,.22.17.24.25a.51.51,0,0,1-.18.41,1.4,1.4,0,0,1-.95.41,7.66,7.66,0,0,1-2.41-.49c-.18,0-.36-.09-.55-.12s-.53-.05-.58.21a.87.87,0,0,0,.09.36,8.63,8.63,0,0,0,.75,1.27,24.26,24.26,0,0,0,2.54,3.22,36.65,36.65,0,0,0,2.77,2.41.58.58,0,0,1,0,.81,1.18,1.18,0,0,1-.76.47,2.86,2.86,0,0,1-1.43-.42l-.6-.31c-.35-.2-1.88-1.52-2-1.55a8.17,8.17,0,0,0,1.12,1.34,13.66,13.66,0,0,1,1.55,1.68,1,1,0,0,1,.26.67.49.49,0,0,1-.06.17.74.74,0,0,1-.73.27,3.25,3.25,0,0,1-.76-.26,6.87,6.87,0,0,1-1.22-.67c-.34-.23-.68-.55-1.07-.87-.09-.08-.93-1-.85-.92s1.32,1.59,1.33,1.61a12.78,12.78,0,0,0,1.06,1.15,3.16,3.16,0,0,1,.56.54.36.36,0,0,1,0,.41.61.61,0,0,1-.36.3,1,1,0,0,1-.4-.08,5,5,0,0,1-1.06-.45,11.57,11.57,0,0,1-2.11-1.57c-.26-.24-.51-.5-.77-.76-.1-.1.73,1,1.05,1.46a5.81,5.81,0,0,1,.54.87.34.34,0,0,1-.14.43.4.4,0,0,1-.38.1,14,14,0,0,1-2.88-2.11c-1.39-1.18-2.55-3-5-7Z"/></clipPath><clipPath id="clip-path-9"><path class="cls-1" d="M212.51,157.89c-1.37,1.81.38,8.75.83,11.81a18.31,18.31,0,0,0,1.87,6.56,5.57,5.57,0,0,0,6.25,3.2c3.65-.47,5.44-2.91,5.68-4.92a21.51,21.51,0,0,0-.33-5.66c-.26-2.28-1.17-8.81-2.54-10.76a7.39,7.39,0,0,0-11.76-.23Z"/></clipPath><clipPath id="clip-path-10"><path class="cls-1" d="M211.06,150.47a13.67,13.67,0,0,1,4.56-9.38c3.8-3.16,9.73-2.51,13.23.81,4.31,4.09,4.57,11.43,4.41,16.93a10.7,10.7,0,0,1-7.83,10.41,9,9,0,0,1-3.52.49,12.66,12.66,0,0,1-6.69-3.35c-4.17-3.78-4.22-11.69-4.16-15.91Z"/></clipPath><clipPath id="clip-path-11"><path class="cls-1" d="M213.16,154.05a6.65,6.65,0,0,0-1.34-2.06,3.76,3.76,0,0,0-1.39-.85c-1.6-.58-2.82.43-3.16,2a4.45,4.45,0,0,0,1.06,4,2.89,2.89,0,0,0,4.1.09l.73-3.17Z"/></clipPath><clipPath id="clip-path-12"><path class="cls-1" d="M229.11,141.92c-3.14-.54-5.07.34-8.26.42-1.35,0-3.22.23-4.1,1.38-1.27,1.66-1.83,5.64-2.44,8a21.78,21.78,0,0,0-.51,2.4c-.05.31-.09.63-.13.95,0,.12.09.38,0,.37s-.45-.83-.49-.9a22.41,22.41,0,0,0-1.57-2.62c-1-1.32-2.41-.63-3.67-1.61-1.73-1.35-1.47-2.67-1.37-4.74.34-6.84,7.1-12.18,13.83-11.39,1.57.19,6.18-1.54,8.76.8,4.57,4.16,0,6.95,0,6.95Z"/></clipPath></defs><title>Asset 3</title><g id="Layer_2" data-name="Layer 2"><g id="Layer_3" data-name="Layer 3"><rect class="cls-2" width="500" height="500"/><path class="cls-3" d="M16.57,380.78c-1.37-1,59.54-127.17,101.75-159.94,28.64-22.24,56.12-9.13,88.27-5.06a143.37,143.37,0,0,0,58.28-4.11c50.87-14.77,139.6-109.07,190.43-57.3a92.24,92.24,0,0,1,24,44.3c12.64,54.64-16.48,134.29-39.22,182.11Z"/><path class="cls-4" d="M16.8,380.85C23,358.61,58.32,265.5,65.85,253.93c12.66-19.45,27.67-38.18,46.66-51.48,28.44-19.93,55.66-19.25,83.32-13.83s55.93,15.65,86.23,14.74c25.24-.76,48.89-10.94,72.26-20.31s46.34-17.89,70.42-15.4c18.23,1.88,33.45,12.12,43.29,27.8,14,22.3,17.2,48.32,14,74.74-4.74,39.67-23.83,80.22-42.27,110.44a.28.28,0,0,0,.08.38.26.26,0,0,0,.37-.09c18.47-30.28,37.59-70.92,42.35-110.67,3.17-26.54-.06-52.68-14.13-75.1-9.92-15.81-25.28-26.14-43.68-28-24.16-2.49-47.28,6.06-70.66,15.44s-46.91,19.51-72.08,20.27c-30.26.9-58.41-9.3-86.12-14.73S140.79,182,112.21,202c-19,13.34-34.11,32.13-46.8,51.63-7.54,11.59-42.93,104.8-49.12,127.07a.28.28,0,0,0,.19.34.26.26,0,0,0,.32-.19Z"/><path class="cls-5" d="M347.22,296.28c-8.58-1.9-19.13-4.47-20.94-5.15-.62-.23-.36-1.8.17-2,1.28-.58,30.55,6.66,32.4,7.08.78.17.58,1.91-.19,2.21a17.26,17.26,0,0,1-3.85-.52c2,4.8,8.79,20.75,12.42,29.42,5.06,12.11,12.43,30.44,14.82,35.78.38.86-1.55.57-2.24.63s-9-15.92-18.26-35.8c-2.78-6-5.4-11.74-7.64-16.7-4.67,7.62-37.93,59.89-38.67,59.83s-2.63.22-2.25-.64c2.24-5,33.49-62.44,36.64-68.73-1.17-2.62-2-4.5-2.41-5.37Z"/><path class="cls-6" d="M413.91,343.51a6.6,6.6,0,0,0,4.26-1c3.79-2.67,4.22-12.52,4.85-17.9,1.09-9.31,3.55-35.87,3.37-39.43-.31-5.92-5-7.19-7.46-7.48-6.08-.73-29.57-1.22-34.17-.39-5.35,1-19,37.85-19.92,41-2-.32-3.71-.59-5-.78-12.22-1.83-26.63-3.89-32.56-1.53-2.37.93-4.19,10-1.56,11.16,3.32,1.47,38.44,7.46,50,9.27,12.5,2,25,4.91,38.23,7.12Z"/><g class="cls-7"><path class="cls-8" d="M411.61,335.08c0-.08,0-.2,0-.24a9.27,9.27,0,0,0-.41-1.26,12.11,12.11,0,0,0-1.84-3.22c-2.43-3-6-4.62-9.64-5.69a179.72,179.72,0,0,0-34.89-6.38.27.27,0,0,1-.25-.29.28.28,0,0,1,.29-.25,180.24,180.24,0,0,1,35,6.4c3.71,1.1,7.41,2.74,9.9,5.87a12.66,12.66,0,0,1,1.93,3.37,8.57,8.57,0,0,1,.42,1.33,1.94,1.94,0,0,1,.07.42.66.66,0,0,1,0,.18.26.26,0,0,1-.25.16.27.27,0,0,1-.23-.12.26.26,0,0,1,0-.28Z"/><path class="cls-8" d="M409.37,327.64s.07-.19.15-.44c.89-2.78,5.38-17.23,8.33-29.49,1.53-6.34,2.64-12.08,2.62-15.32a5.84,5.84,0,0,0-.23-1.88,1,1,0,0,0-.35-.53,12.13,12.13,0,0,0-4.15-1.18,104.87,104.87,0,0,0-12.66-.88c-2.45,0-9.67-.19-14.42.07a13.87,13.87,0,0,0-4.1.58,2,2,0,0,0-.46.45,18.14,18.14,0,0,0-1.3,1.83,133.07,133.07,0,0,0-8.75,16.86c-4.65,10.49-7.39,18.74-8,20.32a.26.26,0,0,1-.35.15.27.27,0,0,1-.15-.35c.62-1.59,3.37-9.84,8-20.34a133.6,133.6,0,0,1,8.79-16.94,16.37,16.37,0,0,1,1.51-2.08,1.66,1.66,0,0,1,.45-.38,13.83,13.83,0,0,1,4.31-.64c4.77-.26,12-.11,14.46-.07a104.43,104.43,0,0,1,12.73.89,12.47,12.47,0,0,1,4.35,1.25,1.52,1.52,0,0,1,.57.8,6.6,6.6,0,0,1,.26,2.07c0,3.26-1.09,9.06-2.63,15.45-2.95,12.28-7.45,26.75-8.34,29.53-.1.28-.15.45-.16.48a.26.26,0,0,1-.19.17.28.28,0,0,1-.32-.2.37.37,0,0,1,0-.18Z"/></g><path class="cls-9" d="M311.19,373.76c1.4-2.29,2.58-5.86,4.69-8.12s6.07-1.29,7.18,1.41c.76,1.88.08,3.94-.6,5.72-.38,1-.89,2.72-2,3.15-1.73.69-9.29-2.16-9.29-2.16Z"/><path class="cls-10" d="M323.25,371.67s-2.13.27-2.68.3c-1.47.08-2.93.08-4.4,0-1.22,0-2.87-.75-4.1-.67s-2.13,1.9-5.83,3.39c-1.72.69-9,.4-9.38,4.65-.07.78,25.33,1.24,26.19.31,1.12-1.22,1.1-3.46,1-5a14,14,0,0,0-.8-3.05"/><path class="cls-9" d="M345.68,374.5c1.4-2.29,2.58-5.85,4.7-8.12s6.06-1.29,7.17,1.42c.77,1.87.09,3.93-.59,5.72-.38,1-.89,2.71-2,3.15-1.73.69-9.29-2.17-9.29-2.17Z"/><path class="cls-10" d="M357.75,372.41s-2.14.27-2.69.3c-1.46.08-2.93.08-4.39,0-1.22,0-2.87-.75-4.1-.67s-2.14,1.91-5.83,3.39c-1.72.69-9,.41-9.38,4.65-.07.78,25.32,1.24,26.18.31,1.13-1.22,1.11-3.46,1-5a14.2,14.2,0,0,0-.8-3"/><path class="cls-11" d="M332.14,319.79c-.57,2.83-1.49,7.66-2,11.77C328,347.68,326,369.37,325,373.5l-13.64-3.1c.87-4.58,1.76-31,3.37-46.71.82-8,2.55-13.87,3.66-15.54,1.67-2.5,4.79-4.6,9.39-5.61,5.26-1.15,14-.71,22.82-.66,6.13,0,12.33,0,16.31-2l8.17,18c-4.61,2.06-10.83,3-17.57,3-7.81,0-16.42-1.12-22.86-1.15-.76,0-1.69.05-2.48.1Z"/><path class="cls-10" d="M374.18,253.32c6,.62,5.14,6.53,3.33,12.25a131,131,0,0,1-7.36,19.12c-1.92,3.95-4.52,11.64-10.11,9.25-4.83-2.07-.83-10.27.42-14.56,1.44-5,4-10.75,7-18.34,1.91-4.86,4.73-7.93,6.76-7.72Z"/><path class="cls-12" d="M344.7,264.17v-.08a6.83,6.83,0,0,1,.18-2.21,1.24,1.24,0,0,1,.63-.72.47.47,0,0,1,.43,0,.72.72,0,0,1,.17.27,15.09,15.09,0,0,1,.53,1.43c.28.86.6,2,.83,2.78.09.34.19.67.25,1a3,3,0,0,1,0,.52c0,.52.18,1.89.16,2.42-.19,4.61-5.38,5.72-8.36,2.61a3,3,0,0,1-.44-.6,7.54,7.54,0,0,1-.83-1.25,16.9,16.9,0,0,0-1.62-3.05c-.54-.65-2.3-2.46-2.68-3.11s-.07-1,0-1c.45-.09.53,0,1.08.32,1,.49,2,1.34,2.19,1.37s-.93-1-1.13-1.18a13.34,13.34,0,0,1-1.72-1.33,1,1,0,0,1-.3-.61.47.47,0,0,1,0-.17.71.71,0,0,1,.65-.31,3,3,0,0,1,.74.2,15.28,15.28,0,0,1,2.18,1.33c.09.07.88.84,1,.74s-1.26-1.47-1.28-1.48c-.39-.33-.8-.6-1.19-.92a3.62,3.62,0,0,1-.58-.47.33.33,0,0,1,0-.38.6.6,0,0,1,.31-.32,1.09,1.09,0,0,1,.38.05,5,5,0,0,1,1,.35,11,11,0,0,1,2.1,1.31c.27.21.53.44.79.66A11.59,11.59,0,0,0,339,260.9a17.83,17.83,0,0,1-1.88-1.82.35.35,0,0,1,.09-.42.41.41,0,0,1,.35-.12,9,9,0,0,1,2,.93,17.28,17.28,0,0,1,2.75,2.25,18.87,18.87,0,0,1,2.32,2.45Z"/><path class="cls-13" d="M344.59,265l-.16.8a5.21,5.21,0,0,0,.23,2.9.28.28,0,0,1-.14.35.27.27,0,0,1-.35-.14,5.69,5.69,0,0,1-.26-3.19c0-.05.13-.77.18-.9a.27.27,0,1,1,.52.13s0,0,0,.05Zm-3.24-.72a12.36,12.36,0,0,0-1.13-1.46.28.28,0,0,1,0-.38.25.25,0,0,1,.37,0,14,14,0,0,1,1.23,1.58l.64-.29a.26.26,0,0,1,.34.14.27.27,0,0,1-.14.36,8.33,8.33,0,0,0-2.45,1.57,9.12,9.12,0,0,0-1.54,1.64.25.25,0,0,1-.36.07.27.27,0,0,1-.08-.37,5,5,0,0,1,.42-.55c-.35-.37-.83-.88-1.24-1.27a.28.28,0,0,1,0-.38.27.27,0,0,1,.38,0c.42.39.9.9,1.25,1.27.32-.32.64-.61.87-.8h0l0,0a9.08,9.08,0,0,0-1.22-1.43.28.28,0,0,1,0-.38.25.25,0,0,1,.37,0A9.9,9.9,0,0,1,340.3,265a8,8,0,0,1,1.05-.75Zm3.14.83-.1,0h-.1a.21.21,0,0,0,.2,0Z"/><polygon class="cls-14" points="349.75 270.49 344.02 276.03 342.56 274.44 348.29 268.9 349.75 270.49 349.75 270.49"/><path class="cls-10" d="M343.19,276.27c.14,0,1.48-2,3.21-3.68a21.07,21.07,0,0,1,3.65-2.83S366.32,287,366.94,288a5,5,0,0,1,.91,3,4.77,4.77,0,0,1-1.93,3.22c-4.75,3.75-8.31-2-11.78-5.35-2.78-2.7-10.95-12.62-10.95-12.62Z"/><path class="cls-15" d="M374.14,254c1.35-1.18,11.65-6.92,20.29-5,9.77,2.14,16.88,8.76,17.79,10.5a10.64,10.64,0,0,1,1,8.24c-4,12.73-7.28,17.52-11.58,31.2-3.71,11.84-6.69,19.14-8.24,19.41-2,.33-11.9.21-16.89-1.11-5.19-1.37-13-3.81-14.73-5.32-.92-.82.79-10.74,2.62-21.58,2-12.24,4-26,5.19-30,1.2-4.27,1.9-4,4.54-6.31Z"/><path class="cls-11" d="M363.21,292.26c-.54.11-6.31,16.06-5.23,21.6,1.72,8.79,9.92,12,18.32,14.06,10.82,2.61,18.66.76,22.43-8.43,2.55-6.21.74-18.68.74-18.68s-12.11-.45-20.52-2.37c-10-2.28-15.74-6.18-15.74-6.18Z"/><g class="cls-16"><path class="cls-17" d="M369.11,316.29a13.57,13.57,0,0,0-.05,1.43,16.28,16.28,0,0,0,.15,1.85c.05.33.11.66.17,1a1.43,1.43,0,0,1,0,.22l0,.05s0,.06,0,.09a.23.23,0,0,1,0,.14l-.05.08-.07.05a.28.28,0,0,1-.32-.07.31.31,0,0,1-.05-.1s0-.05,0-.07l0-.12-.12-.59a17.65,17.65,0,0,1-.23-1.92,12.67,12.67,0,0,1,0-1.63c0-.51.09-1,.17-1.53s.26-1.31.42-2,.29-1.14.44-1.71.28-1.08.41-1.62c.09-.37.17-.74.27-1.12s.24-1,.37-1.44c.21-.82.43-1.64.66-2.47.19-.67.37-1.34.57-2,.06-.19.11-.39.17-.58l.09-.26,0-.07s0,0,0-.06l.06-.08a.27.27,0,0,1,.31,0l.06.05a.22.22,0,0,1,0,.08.3.3,0,0,1,0,.1V302l0,.09a1.42,1.42,0,0,0-.07.22c-.08.25-.16.5-.23.75s-.21.73-.31,1.09c-.18.63-.35,1.27-.53,1.91l-.45,1.72c-.11.4-.21.81-.31,1.22l-.12.51c-.24,1-.49,1.94-.75,2.92a27.89,27.89,0,0,0-.68,3.17v0a6.65,6.65,0,0,0,2.5-1.72,6.22,6.22,0,0,0,.54-1.42c1-3.06,2.47-9.56,2.47-9.56a.25.25,0,0,1,.31-.2.26.26,0,0,1,.2.32s-1.51,6.53-2.47,9.61a7.42,7.42,0,0,1-.63,1.59,7.77,7.77,0,0,1-3,2v0Z"/><path class="cls-18" d="M361.89,293.67a50.89,50.89,0,0,0,16.63,6.63A133.12,133.12,0,0,0,400,302.61l.15,3.58a111.52,111.52,0,0,1-22.54-2.46,61.36,61.36,0,0,1-16.89-6.61l1.14-3.45Z"/><path class="cls-19" d="M372.15,297.93a.45.45,0,0,0-.55.29l-1.12,3.57a.45.45,0,0,0,.28.56l5.38,1.78a.44.44,0,0,0,.55-.29l1.12-3.57a.45.45,0,0,0-.28-.56l-5.38-1.78Zm-.7,3.7,4.54,1.5.85-2.71-4.54-1.49-.85,2.7Z"/></g><path class="cls-20" d="M391.45,259.37l-3,3.54s-2.17,4.75-4.91,16.26c-3.36,14.1-6.09,22.1-6.09,22.1l-4.64,3.16-1.77-5.67a89,89,0,0,0,9.08-20.33,87.92,87.92,0,0,1,6.37-16l.48-3.82,2.21-2.1,2.23,2.89Z"/><path class="cls-11" d="M378.25,328.19,359,375.57l-13.12-4.9L363,317.85c1.11-2.74,3.76-5.31,7.73-7.06,6.16-2.71,17.9-3,17.9-3l-.31,19.83-10.05.59Z"/><path class="cls-17" d="M380.72,308.77a54.92,54.92,0,0,0-7.16.94c-6.22,1.17-9.81,5.06-11.76,11a.28.28,0,0,0,.17.35.26.26,0,0,0,.34-.17c1.88-5.78,5.34-9.56,11.35-10.68a55.9,55.9,0,0,1,7.1-.94.27.27,0,0,0,0-.54Z"/><path class="cls-10" d="M412.61,258.54c-2-2.74-13.15-10.28-13.21-9.88-1.48,9.38-13.87,44.93-15.15,51.2-3.39,16.58,15.23,27.08,15.94,24,.36-1.52,1.38-15,3.15-22.66,1.53-6.56,7.81-20.19,10-30.38,1.3-6,.47-10.57-.76-12.29Z"/><path class="cls-10" d="M373.18,253.24A108.53,108.53,0,0,1,385,248.16c-3,2.62-11.29,43-11.83,45.53-3,14.41-17.51,9.66-16.27,8.16,4.13-5,6.09-9.52,6.83-13.7,1.86-10.45,3.46-31.58,9.41-34.91Z"/><path class="cls-21" d="M400.38,250.1c0,5.1.61,12,.28,13.53a23.57,23.57,0,0,1-1.16,2.51c-2.75,5.63-9.44,18.47-10.23,20a.27.27,0,0,0,.11.37.27.27,0,0,0,.37-.12c.79-1.57,7.47-14.41,10.23-20a23,23,0,0,0,1.2-2.65c.33-1.57-.28-8.5-.27-13.64a.27.27,0,1,0-.53,0Z"/><path class="cls-21" d="M373.41,253a7.76,7.76,0,0,0-3,3.06,24,24,0,0,0-2,5.15c-3.53,11.71-3.35,19.94-5.78,31.92a.27.27,0,0,0,.21.32.27.27,0,0,0,.32-.21c2.42-11.95,2.24-20.18,5.77-31.87a23.05,23.05,0,0,1,1.92-5,7.16,7.16,0,0,1,2.74-2.85.28.28,0,0,0-.25-.49Z"/><path class="cls-21" d="M382.91,249.17c-1.8,3.06-4.4,6.39-6,8.63a11.46,11.46,0,0,0-1.36,2.25c-.05.16-.16,1.3-.28,3-.46,6.71-1.26,22.42-1.26,22.42a.28.28,0,0,0,.26.29.27.27,0,0,0,.28-.26s.8-15.71,1.26-22.41c.11-1.64.2-2.73.25-2.89a10.72,10.72,0,0,1,1.28-2.1c1.58-2.25,4.19-5.59,6-8.67a.27.27,0,1,0-.46-.28Z"/><path class="cls-22" d="M396.43,235c1.61,1.53,1.3,8.69,1.45,11.79a19.37,19.37,0,0,1-.5,6.81c-.61,2-6.36,3.07-6.36,3.07s-4.42-.56-5-2.5a23.64,23.64,0,0,1-.76-5.63c-.19-2.3-.56-8.9.34-11.08A6.76,6.76,0,0,1,396.43,235Z"/><g class="cls-23"><path class="cls-13" d="M383.17,248.34c.15,1.07,2.36,2.36,5.76,1.79,3.95-.66,6-3.18,7.68-6.91.6-1.34,1.26-6.79.56-7.75s-3.25-.17-4.8,2c-.93,1.3-2.2,3.91-3.15,5.2-.75,1-6.53,2.21-6.05,5.66Z"/></g><path class="cls-24" d="M385.14,247.51a18.54,18.54,0,0,0,.94,3.81,57.12,57.12,0,0,0,3.29,5.15l-3.44,3.41s-.93-3.18-1.24-4.67a18.3,18.3,0,0,1-.63-4.26,14,14,0,0,1,1.08-3.44Z"/><path class="cls-24" d="M400.3,249.23a40.85,40.85,0,0,0-2.27-3.81,40.33,40.33,0,0,1-3.77,6.15,30.64,30.64,0,0,1-4.92,4.74l2.85,4.54a34.18,34.18,0,0,0,5.19-5.62,26,26,0,0,0,2.92-6Z"/><path class="cls-25" d="M384.74,248.68c-1.62,4.21,1.16,11.19,1.22,11.2s2.64-2.51,3.33-3.4m10.77-7.06c-1.05,4.39-7.71,11.38-7.77,11.38a35.63,35.63,0,0,1-2.84-4.44"/><path class="cls-22" d="M398.68,230.82c0-.33.07-.65.1-.95a14,14,0,0,0-3.16-9.86c-3.2-3.57-8.83-3.6-12.52-.68-4.52,3.58-5.64,10.87-6.14,16.36-.45,4.89,1.65,9.23,6.12,11.26,1,.46,4.84,2.34,9.91-1.7,2.31-1.84,3.73-4.89,4.56-8a2.78,2.78,0,0,0,3-.4,4.65,4.65,0,0,0,1.47-3.89c-.14-1.56-1.16-2.71-2.73-2.31a3.48,3.48,0,0,0-.62.21Z"/><g class="cls-26"><path class="cls-19" d="M388.59,238.24c-.95.15-2,.94-3.94.86-1,0-2.46-.53-3.12.49s.2,2.38,1,3a5,5,0,0,0,5.7.29,4.3,4.3,0,0,0,2.35-3.18c.14-1.3-.87-1.65-2-1.48Z"/><path class="cls-10" d="M380.78,229.25a1,1,0,0,1,.9,1.14,1,1,0,0,1-1.1.92,1,1,0,0,1,.2-2.06Z"/><path class="cls-10" d="M389.2,230.12a1,1,0,1,1-1.1.93,1,1,0,0,1,1.1-.93Z"/><path class="cls-10" d="M379.16,227.2A9.14,9.14,0,0,1,381,227a3.49,3.49,0,0,1,1.31.31,1.91,1.91,0,0,1,.93,1.49,11.75,11.75,0,0,1-.17,3.35c-.05.44-.14.88-.23,1.31a4.92,4.92,0,0,0-.11,2.19,2.09,2.09,0,0,0,.88,1.26,1.72,1.72,0,0,0,1.53.12.44.44,0,0,0,.25-.56.42.42,0,0,0-.54-.26.89.89,0,0,1-.8,0,1.29,1.29,0,0,1-.51-.76,4,4,0,0,1,.14-1.78c.08-.46.17-.91.23-1.37a12.83,12.83,0,0,0,.17-3.61,2.78,2.78,0,0,0-1.39-2.12,4.44,4.44,0,0,0-1.64-.4,10.15,10.15,0,0,0-2,.18.43.43,0,0,0,.12.86Z"/><path class="cls-10" d="M387.64,227.68a6.94,6.94,0,0,1,3.77.4.42.42,0,0,0,.54-.27.44.44,0,0,0-.27-.55,7.66,7.66,0,0,0-4.21-.43.45.45,0,0,0-.33.51.42.42,0,0,0,.5.34Z"/></g><path class="cls-10" d="M398.44,231c-.71.6-1.51,3.67-1.81,3.41-1.59-1.37-.36-8.5-2.63-9.2-1.68-.52-3.47.14-5.15-.4s-2.7-2.24-4.65-2.39c-1.67-.14-3.44,1-5,.65-1.11-.26-1.36-1.32-2.2-1.84s-1.89-.43-2.76-.76c-3.36-1.26-3.49-5.9-.54-7.72,3.43-2.12,6.24,2.13,9.66,1.52,2.9-.51,5.27-3.34,8.38-2.83,2.77.47,3.5,3,5.63,4.29,1.91,1.19,4.24.34,5.3,2.86,1.31,3.14,1.36,7.61.34,12.07a16.36,16.36,0,0,1-.93,2.38s-.45-1.8-1.2-2.24a2.29,2.29,0,0,0-2.42.2Z"/><g class="cls-27"><path class="cls-21" d="M373.67,217c1.14-.38,1.84.31,2.5,1.12a16.37,16.37,0,0,0,1.12,1.33,2.74,2.74,0,0,0,1.47.87,5.57,5.57,0,0,0,2.69-.34,9.4,9.4,0,0,1,2.46-.59,5.65,5.65,0,0,1,3.25.7,10.05,10.05,0,0,1,1.37,1.15,5,5,0,0,0,1.6,1.07,8.12,8.12,0,0,0,3,.17,2.43,2.43,0,0,1,2.3.95.27.27,0,0,0,.38.07.28.28,0,0,0,.07-.39,2.92,2.92,0,0,0-2.76-1.19,7.7,7.7,0,0,1-2.8-.13,4.7,4.7,0,0,1-1.43-1,10.57,10.57,0,0,0-1.45-1.21,6.17,6.17,0,0,0-3.55-.78,9.67,9.67,0,0,0-2.6.62,5.05,5.05,0,0,1-2.44.32,2.25,2.25,0,0,1-1.18-.71c-.38-.39-.72-.87-1.08-1.31-.81-1-1.69-1.75-3.09-1.28a.28.28,0,0,0,.17.53Z"/><path class="cls-21" d="M375.69,214.31a3.83,3.83,0,0,1,2.27,1,6.2,6.2,0,0,0,2.41,1.41,5.1,5.1,0,0,0,2.58-.25,9,9,0,0,1,2.39-.51,3.61,3.61,0,0,1,2.11.79,12.6,12.6,0,0,0,2.11,1.34,7.6,7.6,0,0,0,3.26.23,3,3,0,0,1,2.71.95,6.53,6.53,0,0,1,.85,1.35.27.27,0,0,0,.37.12.29.29,0,0,0,.11-.38,7.25,7.25,0,0,0-.92-1.47,3.54,3.54,0,0,0-3.14-1.13,7,7,0,0,1-3-.19,11.5,11.5,0,0,1-2-1.29,4.21,4.21,0,0,0-2.42-.88,9.76,9.76,0,0,0-2.54.53,4.47,4.47,0,0,1-2.3.24,5.71,5.71,0,0,1-2.21-1.3,4.34,4.34,0,0,0-2.57-1.16.28.28,0,0,0,0,.56Z"/><path class="cls-21" d="M388.33,214.34a4.54,4.54,0,0,1,1.32-.52,3.08,3.08,0,0,1,3.13,1,8.17,8.17,0,0,0,2,1.57,14.86,14.86,0,0,0,1.66.65,3.11,3.11,0,0,1,1.82,1.46.28.28,0,0,0,.38.11.29.29,0,0,0,.1-.38,3.37,3.37,0,0,0-1.72-1.55c-.61-.27-1.29-.44-2-.79a8,8,0,0,1-1.85-1.48,3.54,3.54,0,0,0-3.61-1.12,5.36,5.36,0,0,0-1.48.58.28.28,0,0,0,.27.49Z"/><path class="cls-21" d="M395.27,225a18.84,18.84,0,0,0,5.37-6.39.27.27,0,0,0-.11-.38.28.28,0,0,0-.37.11,18.5,18.5,0,0,1-5.23,6.22.27.27,0,0,0,0,.39.25.25,0,0,0,.38.05Z"/><path class="cls-21" d="M396.24,225.32a1.85,1.85,0,0,1,.68,1.72,7.37,7.37,0,0,0,0,2.3,4.25,4.25,0,0,0,.68,1.14.28.28,0,0,0,.45-.33,3.52,3.52,0,0,1-.61-1,6.85,6.85,0,0,1,0-2.12,2.36,2.36,0,0,0-.91-2.19.27.27,0,0,0-.38.06.28.28,0,0,0,.06.39Z"/><path class="cls-21" d="M398,223.55c.85.15,1.06.78,1.13,1.5a17,17,0,0,0,.18,2.58,4.21,4.21,0,0,0,.65,1.22,4.06,4.06,0,0,1,.58,1.06.27.27,0,0,0,.34.19.28.28,0,0,0,.18-.35,4.34,4.34,0,0,0-.65-1.22,3.69,3.69,0,0,1-.58-1.07,15.62,15.62,0,0,1-.15-2.46c-.1-1-.44-1.8-1.59-2a.27.27,0,0,0-.31.23.27.27,0,0,0,.22.32Z"/><path class="cls-21" d="M400.72,220.8a2,2,0,0,1,.82,1.61,21.36,21.36,0,0,1-.09,2.14,16.82,16.82,0,0,0,.61,3.36,9,9,0,0,1-.13,3.1.27.27,0,0,0,.22.32.26.26,0,0,0,.31-.22,9.34,9.34,0,0,0,.14-3.29,16.59,16.59,0,0,1-.6-3.25c0-.69.14-1.47.09-2.2a2.52,2.52,0,0,0-1.07-2,.28.28,0,0,0-.38.08.29.29,0,0,0,.08.39Z"/></g><path class="cls-5" d="M389,300.49c-9.71-2.14-21.65-5.05-23.71-5.82-.69-.26-.4-2,.21-2.32,1.44-.65,34.57,7.55,36.67,8,.88.2.66,2.17-.21,2.5a19,19,0,0,1-4.36-.58c2.3,5.43,9.95,23.48,14.05,33.3,5.73,13.71,14.74,37.23,17.44,43.28.43,1-1.76.65-2.54.72s-10.87-20.81-21.32-43.3c-3.15-6.78-6.12-13.3-8.65-18.92-5.29,8.63-38.77,64.3-39.61,64.23s-3,.26-2.54-.71c2.53-5.67,33.73-67.19,37.3-74.32-1.33-3-2.28-5.09-2.73-6.08Z"/><path class="cls-10" d="M407.44,257.4c6-1,6.6,5,6.27,11a133.34,133.34,0,0,1-2.37,20.41c-.87,4.32-1.48,12.44-7.48,11.58-5.18-.74-3.36-9.71-3.21-14.19.16-5.18,1.19-11.43,2.18-19.55.64-5.2,2.61-8.91,4.61-9.23Z"/><path class="cls-21" d="M406.21,258.38l-.17.18-.42.48-.2.25a10.32,10.32,0,0,0-1.17,2.35,35.43,35.43,0,0,0-1.54,7.73c-.61,4.37-1,9.06-1.47,13.46a91.37,91.37,0,0,0-.77,11.33.28.28,0,0,1-.26.28.26.26,0,0,1-.27-.26,90.46,90.46,0,0,1,.78-11.4c.42-4.41.85-9.1,1.47-13.49a36.06,36.06,0,0,1,1.57-7.85A10.79,10.79,0,0,1,405,259a3,3,0,0,1,.22-.28c.14-.17.29-.34.44-.5s.22-.25.25-.27a.25.25,0,0,1,.32,0,.28.28,0,0,1,0,.39l-.07.07Zm-.37-.37h0Z"/><path class="cls-12" d="M377.46,295l.14,0c3.79-.75,5.33-5.29,1.83-7.72-.4-.27-1.53-.84-1.95-1.08a4.23,4.23,0,0,0-.42-.22c-.3-.11-.61-.21-.91-.3-.74-.23-1.74-.53-2.54-.74a13.86,13.86,0,0,0-1.36-.3.57.57,0,0,0-.29,0,.43.43,0,0,0-.16.35,1.17,1.17,0,0,0,.26.84,3,3,0,0,0,.7.63,14.18,14.18,0,0,0-4.12.77,12.19,12.19,0,0,0-2.7,1.34.34.34,0,0,0-.06.33c0,.14.1.26.28.28a6,6,0,0,0,.87-.06c.49-.05,1.62-.26,1.51-.22-.3.09-.59.17-.88.28a9.64,9.64,0,0,0-2,1,4.35,4.35,0,0,0-.74.62.82.82,0,0,0-.21.27.55.55,0,0,0,.1.4.29.29,0,0,0,.3.17,2.91,2.91,0,0,0,.63-.21,10.82,10.82,0,0,1,1.27-.35l1.74-.37c.12,0-.94.25-1,.29a11.15,11.15,0,0,0-1.06.46,4.88,4.88,0,0,0-1,.66,2.77,2.77,0,0,0-.5.47.63.63,0,0,0-.06.65.43.43,0,0,0,.11.12.92.92,0,0,0,.61.07,12,12,0,0,0,1.87-.51,6.45,6.45,0,0,1,1.45-.32c-.09.11-1.67.74-2,.93a4.84,4.84,0,0,0-.46.33,2.32,2.32,0,0,0-.85.91,1,1,0,0,0,.07.76.51.51,0,0,0,.63.31,30.65,30.65,0,0,1,2.88-1.15c.57-.17,2.35.34,4.1.5a12.42,12.42,0,0,0,3.87-.14Z"/><g class="cls-28"><path class="cls-29" d="M375.71,286.36a10.69,10.69,0,0,0-2.83-.08.22.22,0,0,0-.19.24.21.21,0,0,0,.24.19,10.15,10.15,0,0,1,2.7.08.22.22,0,0,0,.08-.43Z"/><path class="cls-29" d="M373.06,288a15.41,15.41,0,0,0-4.48.65.23.23,0,0,0-.15.28.22.22,0,0,0,.27.14,15.22,15.22,0,0,1,4.34-.64.22.22,0,1,0,0-.43Z"/><path class="cls-29" d="M373.09,289.83a16.88,16.88,0,0,0-4.23.62.22.22,0,0,0-.16.27.21.21,0,0,0,.25.16,16.13,16.13,0,0,1,4.12-.61.21.21,0,0,0,.22-.21.21.21,0,0,0-.2-.23Z"/><path class="cls-29" d="M373.3,292.08a9.7,9.7,0,0,0-4,.24.21.21,0,1,0,.09.42,9.59,9.59,0,0,1,3.84-.23.21.21,0,0,0,.25-.17.22.22,0,0,0-.17-.26Z"/></g><polygon class="cls-14" points="382.02 287.46 380.54 295.38 378.44 294.97 379.92 287.05 382.02 287.46 382.02 287.46"/><path class="cls-10" d="M380.09,296.06c.13-.07,0-2.55.47-4.91a21.34,21.34,0,0,1,1.31-4.49s23,3.87,24.1,4.31a4.9,4.9,0,0,1,2.5,1.91,4.84,4.84,0,0,1,.3,3.77c-1.67,5.9-7.85,3.43-12.59,2.81-3.8-.5-16.09-3.4-16.09-3.4Z"/><path class="cls-21" d="M404.54,290.31c-3.73-.84-16.76-3.4-22.52-3.71a.25.25,0,0,0-.27.25.27.27,0,0,0,.25.29c5.73.3,18.71,2.86,22.42,3.7a.28.28,0,0,0,.32-.21.27.27,0,0,0-.2-.32Z"/><polygon class="cls-5" points="45.73 324.83 38.96 324.83 61.15 189.88 155.55 189.88 133.36 324.83 127.65 324.83 118.5 380.44 111.57 380.44 120.72 324.83 52.66 324.83 43.51 380.44 36.58 380.44 45.73 324.83 45.73 324.83"/><polygon class="cls-5" points="174.37 320.22 167.43 320.22 177.39 380.78 184.32 380.78 174.37 320.22 174.37 320.22"/><polygon class="cls-5" points="92.55 320.22 85.62 320.22 95.58 380.78 102.51 380.78 92.55 320.22 92.55 320.22"/><polygon class="cls-6" points="155.56 189.82 61.16 189.82 83.36 324.76 177.76 324.76 155.56 189.82 155.56 189.82"/><polygon class="cls-5" points="157.63 188.12 60.11 188.12 60.11 194.1 157.63 194.1 157.63 188.12 157.63 188.12"/><polygon class="cls-30" points="152 217.8 149.25 217.8 150.88 225.09 153.63 225.09 152 217.8 152 217.8"/><polygon class="cls-30" points="146.5 211.3 143.76 211.3 146.86 225.09 149.59 225.09 146.5 211.3 146.5 211.3"/><polygon class="cls-30" points="143.09 213.97 140.34 213.97 142.83 225.07 145.58 225.07 143.09 213.97 143.09 213.97"/><polygon class="cls-30" points="138.01 209.28 135.28 209.28 138.82 225.09 141.56 225.09 138.01 209.28 138.01 209.28"/><polygon class="cls-30" points="136.53 220.63 133.8 220.63 134.79 225.07 137.52 225.07 136.53 220.63 136.53 220.63"/><polygon class="cls-30" points="131.03 213.97 128.3 213.97 130.79 225.09 133.52 225.09 131.03 213.97 131.03 213.97"/><polygon class="cls-30" points="126.13 210.02 123.38 210.02 126.76 225.09 129.51 225.09 126.13 210.02 126.13 210.02"/><polygon class="cls-30" points="124.13 219.02 121.37 219.02 122.74 225.09 125.49 225.09 124.13 219.02 124.13 219.02"/><polygon class="cls-30" points="120.77 221.94 118.02 221.94 118.72 225.07 121.48 225.07 120.77 221.94 120.77 221.94"/><polygon class="cls-30" points="115.22 215.21 112.49 215.21 114.7 225.07 117.43 225.07 115.22 215.21 115.22 215.21"/><polygon class="cls-30" points="110.47 212.02 107.74 212.02 110.67 225.07 113.4 225.07 110.47 212.02 110.47 212.02"/><polygon class="cls-30" points="105.71 208.53 102.95 208.53 106.67 225.07 109.42 225.07 105.71 208.53 105.71 208.53"/><polygon class="cls-30" points="102.21 210.9 99.46 210.9 102.64 225.09 105.39 225.09 102.21 210.9 102.21 210.9"/><polygon class="cls-30" points="97.21 206.55 94.48 206.55 98.63 225.07 101.36 225.07 97.21 206.55 97.21 206.55"/><polygon class="cls-30" points="94.81 213.72 92.06 213.72 94.61 225.09 97.36 225.09 94.81 213.72 94.81 213.72"/><polygon class="cls-30" points="91.18 215.57 88.45 215.57 90.58 225.07 93.31 225.07 91.18 215.57 91.18 215.57"/><polygon class="cls-30" points="84.89 205.31 82.14 205.31 86.57 225.07 89.32 225.07 84.89 205.31 84.89 205.31"/><polygon class="cls-30" points="79.96 201.38 77.23 201.38 82.55 225.09 85.28 225.09 79.96 201.38 79.96 201.38"/><path class="cls-19" d="M82.47,244.4l38.46,20a.49.49,0,0,1,.21.66.47.47,0,0,1-.64.21L81.35,244.91a.51.51,0,0,1-.26-.4.48.48,0,0,1,.2-.43l13.08-9.84a.47.47,0,0,1,.67.11.49.49,0,0,1-.11.68L82.47,244.4Z"/><path class="cls-31" d="M80.31,244.2A2.46,2.46,0,0,1,79,242.63a1.51,1.51,0,0,1,1.59-1.87A2.56,2.56,0,0,1,83,242.63a1.45,1.45,0,0,1-.57,1.57,4.75,4.75,0,0,1,3.42,3.35h-7.5a2.73,2.73,0,0,1,1.92-3.35Z"/><path class="cls-31" d="M94,234.88a2.46,2.46,0,0,1-1.28-1.57,1.51,1.51,0,0,1,1.59-1.87,2.57,2.57,0,0,1,2.42,1.87,1.45,1.45,0,0,1-.57,1.57,4.77,4.77,0,0,1,3.42,3.35H92A2.73,2.73,0,0,1,94,234.88Z"/><path class="cls-31" d="M97.72,252.86a2.46,2.46,0,0,1-1.28-1.57A1.5,1.5,0,0,1,98,249.42a2.55,2.55,0,0,1,2.42,1.87,1.45,1.45,0,0,1-.57,1.57,4.75,4.75,0,0,1,3.42,3.35H95.8a2.72,2.72,0,0,1,1.92-3.35Z"/><path class="cls-31" d="M115.59,261.93a2.42,2.42,0,0,1-1.27-1.57,1.5,1.5,0,0,1,1.58-1.87,2.56,2.56,0,0,1,2.42,1.87,1.45,1.45,0,0,1-.57,1.57,4.74,4.74,0,0,1,3.42,3.35h-7.5a2.73,2.73,0,0,1,1.92-3.35Z"/><polygon class="cls-8" points="157.61 194.1 60.11 194.1 60.11 195 157.61 195 157.61 194.1 157.61 194.1"/><path class="cls-10" d="M243,372.81s2.27.26,2.85.29c1.56.07,3.11.06,4.66,0,1.29,0,3-.76,4.34-.69s2.27,1.89,6.19,3.35c1.83.68,9.3-.28,9.7,4,.08.77-7.74.89-11.61,1.08s-9,.15-11.62.07c-1.46,0-3.43.38-4.34-.55-1.2-1.21-1.11-3-1-4.46a13.44,13.44,0,0,1,.84-3.05"/><path class="cls-10" d="M207.66,372.69s2.25.38,2.83.43c1.55.15,3.09.23,4.65.26,1.29,0,3.08-.61,4.37-.46s2.16,2,6,3.67c1.78.78,9.3.23,9.45,4.48,0,.78-7.78.47-11.66.46s-8.95-.34-11.6-.56c-1.45-.12-3.44.19-4.3-.78-1.12-1.27-.93-3-.74-4.51a13.13,13.13,0,0,1,1-3"/><path class="cls-11" d="M205.68,248.66c-.18-.78-.34-1.62-.47-2.53a13.18,13.18,0,0,1,3.49-10.85l36.92-2.05c.45.18,1.69,7.86,1.59,13,1,7.13,3.17,21.92,4.92,35.75,1.42,11.33,2.6,22,2.76,27.57l1.63,63.53-13.9.74-5-63.28c-.42-5.18-2.08-15.09-4-25.6-1.68-9.31-3.55-19.07-5-26.52l-1.72.09-1,.05-2.47,55.19-3.14,60.14-13.92-.32-.11-60.44-.6-64.48Z"/><path class="cls-24" d="M227.43,172.44l-14,0s-.63,0-5.31,1.57c-2.34.8-6.5,1.76-8.19,3.57-2.14,2.31-3.08,8.65-1.54,13,1.46,4.1,4.59,15.87,6.53,24.33,1.43,6.2.88,12,1.69,15.39a5.38,5.38,0,0,0,3.14,3.9c2,.57,11.47.54,16.88-.17,5.63-.75,15.87-1.61,17.83-2.9A6.15,6.15,0,0,0,247.2,227c.93-6.44-.43-10.69-1.21-17.19-.53-4.43.12-15-.86-19.41-.67-3,.31-9.26-1.46-11.82-2.53-3.64-4.76-4.08-7.47-5.1s-8.77-1.05-8.77-1.05Z"/><path class="cls-20" d="M220.15,181.13l1.93,4.22s.86,5.17.51,17c-.43,14.5.13,23,.13,23l3.65,4.31,3.18-5a90.31,90.31,0,0,1-3.47-22.07,89.51,89.51,0,0,0-2-17.19l1.42-4.21-3.12-1.79-2.26,1.73Z"/><path class="cls-10" d="M230.17,180.06c-.61-6.25,4.39-6.64,9.42-6.06a171.91,171.91,0,0,1,23.17,5.11c3.59,1.09,10.38,2.06,9.47,8.26-.79,5.36-8.26,3.09-12,2.75-4.34-.39-15.68-3.51-22.45-4.88-4.34-.87-7.39-3.08-7.6-5.18Z"/><path class="cls-12" d="M285.26,154.28v-.08a7.21,7.21,0,0,0-.19-2.36,1.29,1.29,0,0,0-.67-.76.53.53,0,0,0-.46-.05.77.77,0,0,0-.18.29c-.24.55-.37.94-.57,1.53-.3.91-.64,2.09-.88,3-.1.36-.2.72-.27,1.08a3.43,3.43,0,0,0-.06.56c0,.56-.18,2-.16,2.58.2,4.92,5.73,6.1,8.9,2.78a3.29,3.29,0,0,0,.48-.63,9.44,9.44,0,0,0,.89-1.34c.92-1.75,1-2.35,1.72-3.26.58-.68,2.45-2.62,2.86-3.3s.07-1.1,0-1.11c-.48-.09-.57.05-1.15.34-1,.53-2.16,1.43-2.34,1.47s1-1.08,1.21-1.26a14.39,14.39,0,0,0,1.83-1.42,1,1,0,0,0,.32-.65.61.61,0,0,0-.05-.18.74.74,0,0,0-.69-.33,3.27,3.27,0,0,0-.79.21,16.12,16.12,0,0,0-2.32,1.42c-.09.07-.94.9-1,.79S293,152,293,152c.41-.35.85-.63,1.27-1a3.61,3.61,0,0,0,.61-.5.36.36,0,0,0,0-.41.65.65,0,0,0-.33-.33,1.05,1.05,0,0,0-.41.05,5.08,5.08,0,0,0-1.1.37,12,12,0,0,0-2.24,1.4c-.28.23-.56.46-.83.7a12.34,12.34,0,0,1,1.28-1.48,18.51,18.51,0,0,0,2-1.94.36.36,0,0,0-.1-.44.4.4,0,0,0-.37-.13,8.68,8.68,0,0,0-2.17,1,18.86,18.86,0,0,0-2.94,2.4,21.39,21.39,0,0,0-2.47,2.61Z"/><g class="cls-32"><path class="cls-33" d="M287.34,154.09l.35.13c.35.18.68.39,1,.6a18.71,18.71,0,0,1,3.14,2.67m-3.71-3.05s0-.06.06-.08l.13-.19.39-.49a8,8,0,0,1,1-1.22m.11,3.11a.58.58,0,0,1,.1-.12l.27-.34a10.05,10.05,0,0,1,1.19-1.25m-.07,3s.07-.09.09-.12l.32-.39a8.62,8.62,0,0,1,1.14-1.2M285.5,155s.06.08.08.13.1.16.14.24a5.42,5.42,0,0,1,.46,1.15,5.49,5.49,0,0,1-.15,3.16"/></g><polygon class="cls-14" points="289.13 165.01 280.77 159.57 279.38 161.81 287.74 167.25 289.13 165.01 289.13 165.01"/><path class="cls-10" d="M266.51,189.15c-1.31-1.11-1.95-4.13-1.83-5.73.34-4.43,14.86-23,15.36-22.89s8.42,5.74,8.41,5.8c-.31,1-12.19,17.93-14.33,20.93-1.6,2.25-4.85,4.23-7.61,1.89Z"/><path class="cls-10" d="M198.17,178.36c2.65-2.67,13.69-5.85,13.7-5.4A49.63,49.63,0,0,0,214,184.22c4,14.84,11.68,25.79,12.2,32.95,1.47,20.26,2.92,37.6,2.44,37.75-.08,0-24.78-.61-25-4.12-.13-1.76,1.26-16.64.62-25.38-.56-7.52-4.23-22.65-4.93-34.32-.41-6.83-2.73-11.06-1.08-12.74Z"/><path class="cls-10" d="M241.82,175.58c-2.95-2.33-13.27-4-13-3.67,2.83,3.43-4.78,45.14-4.63,48.08.87,16.49,2.58,24.21,3.12,34.53.11,2.25,22.14-3.49,22-5.68-.39-5.41-2.81-16.25-3.48-21-1.34-9.46,2-47.54-4-52.3Z"/><path class="cls-21" d="M210.57,174.73c.3,5.74,0,13.51.46,15.25a27.06,27.06,0,0,0,1.48,2.88c3.39,6.13,11.58,20.1,12.55,21.81a.27.27,0,0,0,.37.1.29.29,0,0,0,.09-.38c-1-1.71-9.15-15.67-12.54-21.8a30.13,30.13,0,0,1-1.44-2.75c-.45-1.73-.14-9.45-.43-15.14a.28.28,0,0,0-.28-.26.28.28,0,0,0-.26.29Z"/><path class="cls-21" d="M225.52,214.54c.06,1.22,1.2,24.42,2.17,39.1a.27.27,0,0,1-.25.29.26.26,0,0,1-.28-.25c-1-15.08-2.18-39.16-2.18-39.16a.28.28,0,0,1,0-.09s5.2-16.78,7.3-24c.51-1.76.84-2.94.85-3.13,0-1.78-2-9.22-3-14.83a.27.27,0,1,1,.53-.1c1,5.66,3.07,13.15,3,15a33.35,33.35,0,0,1-.87,3.27c-2,7-7,23-7.28,23.94Z"/><path class="cls-10" d="M202.71,176.54c6.39,1.23,5.29,6,3.22,10.43A159,159,0,0,1,194,206.88c-2.15,3-5.12,9-11,6.37-5.08-2.27-.62-8.51.82-11.87,1.67-3.89,8.12-13.46,11.48-19.32,2.15-3.75,5.23-5.93,7.38-5.52Z"/><path class="cls-12" d="M201.5,237.61c-2.39-3.86.37-8.65,5.32-7.46.56.14,2,.69,2.52.87a4.81,4.81,0,0,1,.53.2c.35.17.67.37,1,.56.8.46,1.87,1.11,2.69,1.64.53.34.88.58,1.36,1,0,0,.22.17.24.25a.51.51,0,0,1-.18.41,1.4,1.4,0,0,1-.95.41,7.66,7.66,0,0,1-2.41-.49c-.18,0-.36-.09-.55-.12s-.53-.05-.58.21a.87.87,0,0,0,.09.36,8.63,8.63,0,0,0,.75,1.27,24.26,24.26,0,0,0,2.54,3.22,36.65,36.65,0,0,0,2.77,2.41.58.58,0,0,1,0,.81,1.18,1.18,0,0,1-.76.47,2.86,2.86,0,0,1-1.43-.42l-.6-.31c-.35-.2-1.88-1.52-2-1.55a8.17,8.17,0,0,0,1.12,1.34,13.66,13.66,0,0,1,1.55,1.68,1,1,0,0,1,.26.67.49.49,0,0,1-.06.17.74.74,0,0,1-.73.27,3.25,3.25,0,0,1-.76-.26,6.87,6.87,0,0,1-1.22-.67c-.34-.23-.68-.55-1.07-.87-.09-.08-.93-1-.85-.92s1.32,1.59,1.33,1.61a12.78,12.78,0,0,0,1.06,1.15,3.16,3.16,0,0,1,.56.54.36.36,0,0,1,0,.41.61.61,0,0,1-.36.3,1,1,0,0,1-.4-.08,5,5,0,0,1-1.06-.45,11.57,11.57,0,0,1-2.11-1.57c-.26-.24-.51-.5-.77-.76-.1-.1.73,1,1.05,1.46a5.81,5.81,0,0,1,.54.87.34.34,0,0,1-.14.43.4.4,0,0,1-.38.1,14,14,0,0,1-2.88-2.11c-1.39-1.18-2.55-3-5-7Z"/><g class="cls-34"><path class="cls-29" d="M209.53,239a.29.29,0,0,1,0-.36.25.25,0,0,1,.22-.1.23.23,0,0,1,.18.09l.1.12.12.15.45.6a10.42,10.42,0,0,0,1.2,1.37.28.28,0,0,1,0,.39.27.27,0,0,1-.38,0,10.83,10.83,0,0,1-1.26-1.44l-.45-.6-.12-.15-.06-.08Z"/><path class="cls-29" d="M208,240.44l-.08-.12a.26.26,0,0,1,0-.11.3.3,0,0,1,.1-.22.28.28,0,0,1,.21-.06.27.27,0,0,1,.21.17l0,0,.1.15.42.57c.4.53.69.93,1.14,1.43a.28.28,0,0,1,0,.39.26.26,0,0,1-.37,0c-.46-.52-.76-.92-1.17-1.47-.15-.19-.29-.39-.43-.58l-.11-.17Zm.18,0h0Zm0,0h0Zm.05,0h0Z"/><path class="cls-29" d="M206.29,241.55l.43.65a11.21,11.21,0,0,0,1.2,1.63.26.26,0,0,0,.37,0,.28.28,0,0,0,0-.38,11.1,11.1,0,0,1-1.15-1.57c-.13-.19-.29-.46-.43-.65a.27.27,0,0,0-.37-.07.28.28,0,0,0-.06.38Z"/></g><polygon class="cls-14" points="204.55 227.39 196.93 233.87 198.59 235.91 206.21 229.44 204.55 227.39 204.55 227.39"/><path class="cls-10" d="M183,207.46c1.49-.89,4.68-.61,6.22,0,4.3,1.59,16.62,19.82,16.33,20.24s-8.78,7.5-8.84,7.47c-.94-.58-11.74-17.26-14.08-20.11-1.76-2.12-2.76-5.69.37-7.56Z"/><path class="cls-12" d="M212.51,157.89c-1.37,1.81.38,8.75.83,11.81a18.31,18.31,0,0,0,1.87,6.56,5.57,5.57,0,0,0,6.25,3.2c3.65-.47,5.44-2.91,5.68-4.92a21.51,21.51,0,0,0-.33-5.66c-.26-2.28-1.17-8.81-2.54-10.76a7.39,7.39,0,0,0-11.76-.23Z"/><g class="cls-35"><path class="cls-29" d="M229,168.79c.06,1.07-2,2.77-5.63,2.9-4.23.14-6.89-1.9-9.34-5.21-.88-1.2-2.66-6.39-2.11-7.47s3.33-.82,5.38,1c1.22,1.09,3.05,3.39,4.3,4.45,1,.84,7.22.86,7.4,4.33Z"/></g><path class="cls-24" d="M227.17,170.74c-.79,1.33-1.42,3.1-2.36,4.52-.59.9-1.76,3-2.39,3.87-.14.19,1.88,1.06,2.43,1.61a31.94,31.94,0,0,1,2.83,3.66,63.38,63.38,0,0,0,1.08-7.12c.13-1.66.21-4.66-.11-5l-1.48-1.55Z"/><path class="cls-36" d="M227.58,183.66c.19-1.76.7-6.49.92-11a.26.26,0,1,1,.52,0c-.24,5.22-.88,10.69-1,11.63a.41.41,0,0,0,0,.1.34.34,0,0,1,0,.1.25.25,0,0,1-.14.16.24.24,0,0,1-.27,0,.37.37,0,0,1-.09-.11,23.69,23.69,0,0,0-3.31-3.92,3.21,3.21,0,0,0-1.9-1,.27.27,0,0,1-.28-.26.28.28,0,0,1,.26-.28,3.74,3.74,0,0,1,2.26,1.13,22.31,22.31,0,0,1,3,3.48Z"/><path class="cls-24" d="M213.43,170.81c1,1.15,3.85,3.65,5.07,4.86.76.75,3,2.76,3.82,3.49.18.16-1.93,2-2.17,2.7l-1.57,3.83c-.82-.06-2.56-5-3.6-7.17-.94-2-2.93-5.5-2.68-5.89l1.13-1.82Z"/><path class="cls-36" d="M218.49,185.09l0-.05c.54-1.34,1.9-4.7,3.74-6a.25.25,0,0,1,.37.07.27.27,0,0,1-.07.37c-1.77,1.23-3,4.47-3.55,5.75a4.11,4.11,0,0,1-.24.54.35.35,0,0,1-.12.14.25.25,0,0,1-.32-.06,2.91,2.91,0,0,1-.22-.38c-1-1.88-5.52-11.5-6-12.23a.27.27,0,0,1,.08-.37.26.26,0,0,1,.36.08c.44.72,4.8,9.91,5.91,12.12Z"/><path class="cls-10" d="M233,154.64a20.7,20.7,0,0,0-.32-9.52c-.74-2.52-2-5-4.46-6.24a10.38,10.38,0,0,0-4.93-.88c-4.27,0-11.72,1.05-14.59,4.46-3.41,4-1.87,8.87-.28,13.31a18.59,18.59,0,0,0,2.44,4.7c1.71,2.35,2.61,2.6,5.92,1.92a32.55,32.55,0,0,0,3.47-1c3.47-1.13,12.75-6.77,12.75-6.77Z"/><path class="cls-12" d="M211.06,150.47a13.67,13.67,0,0,1,4.56-9.38c3.8-3.16,9.73-2.51,13.23.81,4.31,4.09,4.57,11.43,4.41,16.93a10.7,10.7,0,0,1-7.83,10.41,9,9,0,0,1-3.52.49,12.66,12.66,0,0,1-6.69-3.35c-4.17-3.78-4.22-11.69-4.16-15.91Z"/><g class="cls-37"><path class="cls-10" d="M230.33,151.68a1,1,0,0,0-1,1.11,1.07,1.07,0,0,0,1.16,1,1,1,0,1,0-.18-2.06Z"/><path class="cls-10" d="M221.4,151.86a1,1,0,1,0,1.15.94,1.05,1.05,0,0,0-1.15-.94Z"/><path class="cls-10" d="M231.61,148.59a12,12,0,0,0-2.16-.17,4.81,4.81,0,0,0-1.72.4,2.77,2.77,0,0,0-1.47,2.12,12.12,12.12,0,0,0,.17,3.61c.07.46.16.91.25,1.36a3.65,3.65,0,0,1,.14,1.76,1.25,1.25,0,0,1-.54.76,1.06,1.06,0,0,1-.88,0,.42.42,0,0,0-.54.28.43.43,0,0,0,.27.55,1.83,1.83,0,0,0,1.58-.12,2.12,2.12,0,0,0,.93-1.26,4.69,4.69,0,0,0-.12-2.2c-.09-.43-.18-.86-.24-1.3a15.43,15.43,0,0,1-.24-2.79,2.19,2.19,0,0,1,1.06-2,3.76,3.76,0,0,1,1.4-.32,10.32,10.32,0,0,1,2,.16.44.44,0,0,0,.11-.87Z"/><path class="cls-10" d="M222.68,149.11a8.47,8.47,0,0,0-4.43.44.43.43,0,0,0-.27.55.42.42,0,0,0,.54.28,7.82,7.82,0,0,1,4-.41.43.43,0,0,0,.5-.35.44.44,0,0,0-.35-.51Z"/><path class="cls-19" d="M220.72,160c1,.26,2,1.17,4,1.32,1,.08,2.64-.23,3.21.85s-.5,2.34-1.43,2.88a5.47,5.47,0,0,1-6-.4,4.2,4.2,0,0,1-2.07-3.43c0-1.3,1.12-1.52,2.27-1.22Z"/></g><path class="cls-12" d="M213.16,154.05a6.65,6.65,0,0,0-1.34-2.06,3.76,3.76,0,0,0-1.39-.85c-1.6-.58-2.82.43-3.16,2a4.45,4.45,0,0,0,1.06,4,2.89,2.89,0,0,0,4.1.09l.73-3.17Z"/><g class="cls-38"><path class="cls-29" d="M210.55,153.76l-.24-.1a1.13,1.13,0,0,0-.77,0l-.15.08,0,.06a.26.26,0,0,1-.37,0,.3.3,0,0,1-.08-.22.28.28,0,0,1,.08-.19,1.52,1.52,0,0,1,.39-.24,1.63,1.63,0,0,1,1.13,0,3.16,3.16,0,0,1,.75.4.2.2,0,0,1,.09.06,4.4,4.4,0,0,1,1.17,1.4.27.27,0,0,1-.09.36.26.26,0,0,1-.36-.09,4,4,0,0,0-1-1.19H211a1.11,1.11,0,0,0-.32.25,1.48,1.48,0,0,0,.08,1.83.28.28,0,0,1,0,.38.26.26,0,0,1-.37,0,2,2,0,0,1-.06-2.51,3.07,3.07,0,0,1,.26-.25Zm-1.2-.38a51759636671.68,51759636671.68,0,0,1,0,.08.3.3,0,0,0,0-.08Z"/></g><path class="cls-10" d="M229.11,141.92c-3.14-.54-5.07.34-8.26.42-1.35,0-3.22.23-4.1,1.38-1.27,1.66-1.83,5.64-2.44,8a21.78,21.78,0,0,0-.51,2.4c-.05.31-.09.63-.13.95,0,.12.09.38,0,.37s-.45-.83-.49-.9a22.41,22.41,0,0,0-1.57-2.62c-1-1.32-2.41-.63-3.67-1.61-1.73-1.35-1.47-2.67-1.37-4.74.34-6.84,7.1-12.18,13.83-11.39,1.57.19,6.18-1.54,8.76.8,4.57,4.16,0,6.95,0,6.95Z"/><g class="cls-39"><path class="cls-21" d="M228,141.33a4.57,4.57,0,0,0,.77-1.22c1.17-2.66-.66-5-3.16-6a.28.28,0,0,0-.35.16.27.27,0,0,0,.16.35c2.21.87,3.9,2.88,2.87,5.24a4.13,4.13,0,0,1-.69,1.08.28.28,0,0,0,0,.38.27.27,0,0,0,.38,0Z"/><path class="cls-21" d="M225.57,141.47a5.17,5.17,0,0,0-3.11-6.92.27.27,0,0,0-.34.17.28.28,0,0,0,.16.35,4.64,4.64,0,0,1,2.79,6.21.27.27,0,0,0,.16.35.26.26,0,0,0,.34-.16Z"/><path class="cls-21" d="M222.22,142a6.09,6.09,0,0,0-4.16-6.92.25.25,0,0,0-.32.18.27.27,0,0,0,.18.34,5.55,5.55,0,0,1,3.78,6.3.26.26,0,1,0,.52.1Z"/><path class="cls-21" d="M218,142.23c.51-2.39-1.12-5.27-3.32-6.4a.26.26,0,0,0-.36.12.28.28,0,0,0,.12.36,5.78,5.78,0,0,1,3,5.8.27.27,0,1,0,.52.12Z"/><path class="cls-21" d="M215.75,142.29A4.35,4.35,0,0,0,215,140c-1.62-2.13-4.72-1.82-6.44,0a.27.27,0,0,0,0,.38.26.26,0,0,0,.37,0c1.51-1.61,4.22-1.92,5.64-.05a3.75,3.75,0,0,1,.67,2,.27.27,0,0,0,.29.25.29.29,0,0,0,.24-.3Z"/></g><path class="cls-40" d="M279.18,232.84,313,181.16a.69.69,0,0,1,1-.2.73.73,0,0,1,.19,1l-34,52a.7.7,0,0,1-.59.32l-43.94-.19-53.8,53.7a.7.7,0,0,1-.92.06L139.3,256.09l-32.77,35a.69.69,0,0,1-1,0,.73.73,0,0,1,0-1l33.2-35.49a.69.69,0,0,1,.93-.08l41.61,31.78,53.58-53.47a.72.72,0,0,1,.5-.2l43.85.18Z"/><polygon class="cls-31" points="314.41 180.36 312.34 189.25 307.28 185.78 314.41 180.36 314.41 180.36"/><path class="cls-41" d="M139.05,253.34a2.62,2.62,0,1,1-2.54,2.61,2.57,2.57,0,0,1,2.54-2.61Z"/><path class="cls-41" d="M181.1,284.13a2.62,2.62,0,1,1-2.54,2.62,2.57,2.57,0,0,1,2.54-2.62Z"/><path class="cls-41" d="M235.45,230.92a2.61,2.61,0,1,1-2.53,2.61,2.58,2.58,0,0,1,2.53-2.61Z"/><path class="cls-41" d="M279.5,231.16a2.62,2.62,0,1,1-2.54,2.61,2.57,2.57,0,0,1,2.54-2.61Z"/><path class="cls-31" d="M184.62,167s-1.9.23-3,.23h-25a11.59,11.59,0,0,1-3.55-.55,11.45,11.45,0,0,1-3-1.51,10.86,10.86,0,0,1-2.53-2.44,11.11,11.11,0,0,1-1.57-2.94,10.78,10.78,0,0,1-.59-3.51v-15a10.77,10.77,0,0,1,2.4-6.76,11.18,11.18,0,0,1,3.5-2.87,11.5,11.5,0,0,1,5.37-1.32h25a11.5,11.5,0,0,1,5.31,1.29,11.25,11.25,0,0,1,3.56,2.9,10.78,10.78,0,0,1,1.87,3.44,10.44,10.44,0,0,1,.53,3.32v15a10.67,10.67,0,0,1-.57,3.45c-.21.63-.47,1.58-.47,1.58l3.72,9.29L184.62,167Z"/><path class="cls-31" d="M419.77,212.32s1.45.18,2.3.18h19.08a8.62,8.62,0,0,0,7-3.44,8,8,0,0,0,1.19-2.24,8.16,8.16,0,0,0,.46-2.68V192.7a8.12,8.12,0,0,0-.41-2.53,8.42,8.42,0,0,0-1.43-2.63,8.56,8.56,0,0,0-2.67-2.18,8.69,8.69,0,0,0-4.09-1H422.07a8.65,8.65,0,0,0-6.77,3.19,8.42,8.42,0,0,0-1.43,2.63,8.11,8.11,0,0,0-.4,2.53v11.44a8.14,8.14,0,0,0,.43,2.63c.17.48.36,1.21.36,1.21l-2.83,7.08,8.34-2.74Z"/><path class="cls-42" d="M339.6,209.47h10.74a9.5,9.5,0,0,1,4.38,1.06,9.31,9.31,0,0,1,2.93,2.39,9.17,9.17,0,0,1,1.56,2.86,9,9,0,0,1,.44,2.77V230a9,9,0,0,1-.47,2.87c-.1.3-.22.68-.28.92l2.74,6.86a.73.73,0,0,1-.14.76.67.67,0,0,1-.73.2l-8.2-2.69c-.41,0-1.52.16-2.23.16H331.26a9.62,9.62,0,0,1-2.92-.45,9.24,9.24,0,0,1-2.49-1.25,9,9,0,0,1-2.1-2A8.89,8.89,0,0,1,322,230V218.56a9,9,0,0,1,.44-2.77,9.36,9.36,0,0,1,1.55-2.86,9.35,9.35,0,0,1,7.31-3.45Zm1.2,1.45h-9.54a8.09,8.09,0,0,0-3.77.93,8,8,0,0,0-2.45,2,7.42,7.42,0,0,0-1.3,2.39,7.21,7.21,0,0,0-.37,2.31V230a7.53,7.53,0,0,0,.41,2.44,7.3,7.3,0,0,0,1.09,2,7.57,7.57,0,0,0,1.77,1.71,8.32,8.32,0,0,0,2.13,1.06,8.1,8.1,0,0,0,2.49.39h19.08c.82,0,2.22-.18,2.22-.18a.77.77,0,0,1,.3,0l6.9,2.27-2.26-5.65a.73.73,0,0,1,0-.46s.2-.75.37-1.26a7.22,7.22,0,0,0,.4-2.39V218.56a7.21,7.21,0,0,0-.37-2.31,7.62,7.62,0,0,0-1.3-2.39,7.89,7.89,0,0,0-2.49-2,8.1,8.1,0,0,0-3.74-.91Z"/></g></g></svg>