<svg xmlns="http://www.w3.org/2000/svg" xmlns:xlink="http://www.w3.org/1999/xlink" viewBox="0 0 500 500"><defs><style>.cls-1{filter:url(#luminosity-noclip-4);}.cls-2{mask:url(#mask);}.cls-101,.cls-102,.cls-103,.cls-116,.cls-118,.cls-123,.cls-3,.cls-6,.cls-9,.cls-99{mix-blend-mode:multiply;}.cls-3{fill:url(#Безымянный_градиент_4);}.cls-4{filter:url(#luminosity-noclip-5);}.cls-5{mask:url(#mask-2);}.cls-6{fill:url(#Безымянный_градиент_4-2);}.cls-7{filter:url(#luminosity-noclip-6);}.cls-8{mask:url(#mask-3);}.cls-9{fill:url(#Безымянный_градиент_4-3);}.cls-10{fill:none;}.cls-11{isolation:isolate;}.cls-12{fill:#fff;}.cls-13{clip-path:url(#clip-path);}.cls-14{fill:#87b5d7;}.cls-15{fill:#40627c;}.cls-16{fill:#bac6c7;}.cls-17{fill:#e5f0f1;}.cls-18{fill:#e7a079;}.cls-19{fill:#576357;}.cls-20{fill:#7ca7d8;}.cls-21{fill:#81b87b;}.cls-22{fill:#7eb8a3;}.cls-23{fill:#81b8a4;}.cls-24{fill:#74a794;}.cls-25{fill:#47838b;}.cls-26{fill:#51414e;}.cls-27{fill:#533f35;}.cls-28{fill:#7d6151;}.cls-29{fill:#66abbb;}.cls-30{fill:#565b63;}.cls-31{fill:#303339;}.cls-32{fill:#60646f;}.cls-33{fill:#6e747e;}.cls-34{fill:#80756f;}.cls-35{fill:#677998;}.cls-36{fill:#3a4d70;}.cls-37{fill:#3e794f;}.cls-38{fill:#8697ac;}.cls-39{fill:#888497;}.cls-40{fill:#7d9690;}.cls-41{fill:#dbc876;}.cls-42{fill:#95b3d7;}.cls-43{fill:#69c1d7;}.cls-44{fill:#808787;}.cls-45{fill:#8a8064;}.cls-46{fill:#528256;}.cls-47{fill:#5dadc0;}.cls-48{fill:#486666;}.cls-49{fill:#56a16c;}.cls-50{fill:#dcb395;}.cls-51{fill:#7c97a7;}.cls-52{fill:#5c737e;}.cls-53{fill:#88687e;}.cls-54{fill:#80ac8a;}.cls-55{fill:#424e59;}.cls-56{fill:#7ed675;}.cls-57{fill:#626181;}.cls-58{fill:#d8d27d;}.cls-59{fill:#538040;}.cls-60{fill:#32403d;}.cls-61{fill:#543200;}.cls-62{fill:#1f4e4d;}.cls-63{fill:#4f474e;}.cls-64{fill:#f1eb8b;}.cls-65{fill:#ededed;}.cls-66{fill:#d6e0e8;}.cls-67{fill:#f6f6f6;}.cls-68{fill:#d9d9d9;}.cls-69{fill:#e7afaf;}.cls-70{fill:#e1b57e;}.cls-71{fill:#40a629;}.cls-72{fill:#ebf3ff;}.cls-73{fill:#c7d1d9;}.cls-74{fill:#ceeb80;}.cls-75{fill:#f1d47e;}.cls-76{fill:#e47452;}.cls-77{fill:#e7eb74;}.cls-78{fill:#a1eb85;}.cls-79{fill:#57c46e;}.cls-80{fill:#89a4b6;}.cls-81{fill:#a4c0d7;}.cls-82{fill:#b4d4ed;}.cls-83{fill:#768a9d;}.cls-84{fill:#637480;}.cls-85{fill:#709e43;}.cls-86{fill:#a8eb6e;}.cls-87{fill:#cce03d;}.cls-88{fill:#e4f171;}.cls-89{fill:#b2c428;}.cls-90{fill:#628a3a;}.cls-91{fill:#ff7878;}.cls-92{fill:#ffe470;}.cls-93{fill:#00f669;}.cls-94{fill:#eef2f6;}.cls-95{fill:#e73c6f;}.cls-96{fill:#e73d70;}.cls-97{fill:url(#Безымянный_градиент_325);}.cls-98{mask:url(#mask-4);}.cls-101,.cls-116,.cls-118,.cls-123,.cls-99{opacity:0.74;}.cls-99{fill:url(#Безымянный_градиент_23);}.cls-100{fill:#f4b882;}.cls-101{fill:url(#Безымянный_градиент_66);}.cls-102,.cls-103{fill:#3b67ae;}.cls-102{opacity:0.2;}.cls-103{opacity:0.1;}.cls-104{fill:#63300f;}.cls-105{fill:#a0642f;}.cls-106{fill:#1a1a1a;}.cls-107{fill:#f2f2f2;}.cls-108{fill:#333;}.cls-109{fill:#254472;}.cls-110{fill:#193c66;}.cls-111{fill:#894925;}.cls-112{fill:url(#Безымянный_градиент_46);}.cls-113{fill:url(#Безымянный_градиент_46-2);}.cls-114{fill:url(#Безымянный_градиент_325-2);}.cls-115{mask:url(#mask-5);}.cls-116{fill:url(#Безымянный_градиент_23-2);}.cls-117{fill:#fbcd9d;}.cls-118{fill:url(#Безымянный_градиент_66-2);}.cls-119{fill:url(#Безымянный_градиент_28);}.cls-120{fill:#a30010;}.cls-121{fill:#8c0317;}.cls-122{mask:url(#mask-6);}.cls-123{fill:url(#Безымянный_градиент_2);}.cls-124{filter:url(#luminosity-noclip-3);}.cls-125{filter:url(#luminosity-noclip-2);}.cls-126{filter:url(#luminosity-noclip);}</style><filter id="luminosity-noclip" x="276.35" y="-14022" width="105.19" height="32766" filterUnits="userSpaceOnUse" color-interpolation-filters="sRGB"><feFlood flood-color="#fff" result="bg"/><feBlend in="SourceGraphic" in2="bg"/></filter><mask id="mask" x="276.35" y="-14022" width="105.19" height="32766" maskUnits="userSpaceOnUse"><g class="cls-126"/></mask><linearGradient id="Безымянный_градиент_4" x1="276.35" y1="302.5" x2="381.54" y2="302.5" gradientUnits="userSpaceOnUse"><stop offset="0" stop-color="#4d4d4d"/><stop offset="0.07" stop-color="#5e5e5e"/><stop offset="0.31" stop-color="#979797"/><stop offset="0.53" stop-color="#c4c4c4"/><stop offset="0.72" stop-color="#e4e4e4"/><stop offset="0.89" stop-color="#f8f8f8"/><stop offset="1" stop-color="#fff"/></linearGradient><filter id="luminosity-noclip-2" x="149.42" y="-14022" width="108.27" height="32766" filterUnits="userSpaceOnUse" color-interpolation-filters="sRGB"><feFlood flood-color="#fff" result="bg"/><feBlend in="SourceGraphic" in2="bg"/></filter><mask id="mask-2" x="149.42" y="-14022" width="108.27" height="32766" maskUnits="userSpaceOnUse"><g class="cls-125"/></mask><linearGradient id="Безымянный_градиент_4-2" x1="13802.74" y1="303.2" x2="13911.01" y2="303.2" gradientTransform="matrix(-1, 0, 0, 1, 14060.43, 0)" xlink:href="#Безымянный_градиент_4"/><filter id="luminosity-noclip-3" x="149.95" y="-14022" width="107.73" height="32766" filterUnits="userSpaceOnUse" color-interpolation-filters="sRGB"><feFlood flood-color="#fff" result="bg"/><feBlend in="SourceGraphic" in2="bg"/></filter><mask id="mask-3" x="149.95" y="-14022" width="107.73" height="32766" maskUnits="userSpaceOnUse"><g class="cls-124"/></mask><linearGradient id="Безымянный_градиент_4-3" x1="15734.26" y1="302.95" x2="15841.99" y2="302.95" gradientTransform="matrix(-1, 0, 0, 1, 15991.94, 0)" xlink:href="#Безымянный_градиент_4"/><clipPath id="clip-path"><path id="_Compound_Clipping_Path_" data-name="&lt;Compound Clipping Path&gt;" class="cls-10" d="M389.62,120.64c-35.61-.6-64.81,35.42-99,17.76-27.23-14.05-31.67-53.2-64.29-66.55-37.76-15.46-80.88-3.24-108.61,23.28-22.66,21.66-11,51.75-32.12,77-11,13.06-35.35,11.66-46.54,29.57-22.42,35.87-1.77,77.5,23,102.81C91.1,334.13,72.51,338.25,87,380.8,113.45,458.66,205,425.28,246.85,385c12.74-12.26,38.93-37.18,61.2-15.56,17.62,17.1-2.81,36.41,25.06,54.71,71.7,47.1,164-71.87,99.46-133.67-16.36-15.66-31.42-11.56-23.67-28.46,15.11-33,69.62-27.9,60.7-80.15C461.31,133.27,422.73,121.19,389.62,120.64Z"/></clipPath><linearGradient id="Безымянный_градиент_325" x1="341.44" y1="183.93" x2="341.44" y2="292.77" gradientUnits="userSpaceOnUse"><stop offset="0" stop-color="#fff"/><stop offset="0.21" stop-color="#f7f7fb"/><stop offset="0.54" stop-color="#e0e2f1"/><stop offset="0.94" stop-color="#bbbfe1"/><stop offset="1" stop-color="#b5badf"/></linearGradient><filter id="luminosity-noclip-4" x="276.35" y="204.26" width="105.19" height="196.47" filterUnits="userSpaceOnUse" color-interpolation-filters="sRGB"><feFlood flood-color="#fff" result="bg"/><feBlend in="SourceGraphic" in2="bg"/></filter><mask id="mask-4" x="276.35" y="204.26" width="105.19" height="196.47" maskUnits="userSpaceOnUse"><g id="_Group_4" data-name="&lt;Group&gt;" class="cls-1"><g class="cls-2"><path id="_Path_" data-name="&lt;Path&gt;" class="cls-3" d="M326.93,224.38c1.49-1.54,2.9-3,4.11-4.2-2.12,11.82-3,26.54-3.27,38.39h0v.09c0,.11,0,.23,0,.34,0,.71,0,1.42-.05,2.11,0,.13,0,.27,0,.4,0,.81,0,1.59,0,2.36v.59h0c-.08,5.22-.07,10.54,0,15.89,0,.38,0,.64,0,.74,0,.68.19,106.7,1.56,118.19v.06l5.35,1.4v-.12c.4-19.42,14.5-83.25,17.44-102.37a.94.94,0,0,1,.95-.8.92.92,0,0,1,.88.63c6.85,19.71,14.32,83.13,16.44,102.1v.09l6.38-.46v-.08c2.59-32.92,4.15-68,4.81-91.65-13.81-45-45-85.49-60.52-103.82A222.44,222.44,0,0,1,297.17,233c-8.39,8.38-15.75,13.83-20.74,15.34l-.08,0,1.4,5.45.09,0c4.34-1.48,26.59-9.34,38.4-19A138.86,138.86,0,0,0,326.93,224.38Z"/></g></g></mask><linearGradient id="Безымянный_градиент_23" x1="276.35" y1="302.5" x2="381.54" y2="302.5" gradientUnits="userSpaceOnUse"><stop offset="0" stop-color="#3b67ae"/><stop offset="0.08" stop-color="#5171b0"/><stop offset="0.32" stop-color="#8a8ab6"/><stop offset="0.54" stop-color="#b79dbb"/><stop offset="0.73" stop-color="#d7abbe"/><stop offset="0.89" stop-color="#ebb4c0"/><stop offset="1" stop-color="#f2b7c1"/></linearGradient><linearGradient id="Безымянный_градиент_66" x1="327.61" y1="271.56" x2="381.3" y2="271.56" gradientUnits="userSpaceOnUse"><stop offset="0" stop-color="#ee7872"/><stop offset="1" stop-color="#f2b7c1"/></linearGradient><linearGradient id="Безымянный_градиент_46" x1="1269.12" y1="193.54" x2="1275.63" y2="193.54" gradientTransform="matrix(1.15, 0, 0, 1, -1102.45, -8.13)" gradientUnits="userSpaceOnUse"><stop offset="0" stop-color="#c7cac7"/><stop offset="0.35" stop-color="#cac7c1"/><stop offset="1" stop-color="#ccc6be"/></linearGradient><linearGradient id="Безымянный_градиент_46-2" x1="1263.07" y1="193.55" x2="1269.92" y2="193.55" xlink:href="#Безымянный_градиент_46"/><linearGradient id="Безымянный_градиент_325-2" x1="13869.74" y1="181.16" x2="13869.74" y2="293.18" gradientTransform="matrix(-1, 0, 0, 1, 14060.43, 0)" xlink:href="#Безымянный_градиент_325"/><filter id="luminosity-noclip-5" x="149.42" y="202.09" width="108.27" height="202.23" filterUnits="userSpaceOnUse" color-interpolation-filters="sRGB"><feFlood flood-color="#fff" result="bg"/><feBlend in="SourceGraphic" in2="bg"/></filter><mask id="mask-5" x="149.42" y="202.09" width="108.27" height="202.23" maskUnits="userSpaceOnUse"><g id="_Group_5" data-name="&lt;Group&gt;" class="cls-4"><g class="cls-5"><path id="_Path_2" data-name="&lt;Path&gt;" class="cls-6" d="M205.62,222.79c-1.53-1.59-3-3.09-4.22-4.32,2.18,12.17,3,27.31,3.36,39.52h0v.43c0,.74,0,1.46,0,2.17,0,.14,0,.28,0,.42,0,.83,0,1.64,0,2.43v.6h0c.07,5.37.07,10.85,0,16.36,0,.39,0,.65,0,.76,0,.7-.2,109.82-1.61,121.65v.07l-5.51,1.43v-.12c-.41-20-14.92-85.69-18-105.37a1,1,0,0,0-1-.82.94.94,0,0,0-.9.65c-7,20.29-14.74,85.57-16.92,105.09v.09l-6.57-.48v-.08c-2.67-33.89-4.28-70-5-94.33,14.22-46.29,46.28-88,62.29-106.85a229.76,229.76,0,0,0,24.55,29.59c8.63,8.63,16.21,14.23,21.34,15.79l.09,0-1.44,5.62-.1,0c-4.47-1.52-27.37-9.61-39.52-19.6A145.05,145.05,0,0,1,205.62,222.79Z"/></g></g></mask><linearGradient id="Безымянный_градиент_23-2" x1="13802.74" y1="303.2" x2="13911.01" y2="303.2" gradientTransform="matrix(-1, 0, 0, 1, 14060.43, 0)" xlink:href="#Безымянный_градиент_23"/><linearGradient id="Безымянный_градиент_66-2" x1="13855.5" y1="271.35" x2="13910.77" y2="271.35" gradientTransform="matrix(-1, 0, 0, 1, 14060.43, 0)" xlink:href="#Безымянный_градиент_66"/><linearGradient id="Безымянный_градиент_28" x1="13869.74" y1="181.16" x2="13869.74" y2="293.18" gradientTransform="matrix(-1, 0, 0, 1, 14060.43, 0)" gradientUnits="userSpaceOnUse"><stop offset="0" stop-color="#d4d9d6"/><stop offset="0.35" stop-color="#d7d6d0"/><stop offset="1" stop-color="#d9d5cd"/></linearGradient><filter id="luminosity-noclip-6" x="149.95" y="202.34" width="107.73" height="201.22" filterUnits="userSpaceOnUse" color-interpolation-filters="sRGB"><feFlood flood-color="#fff" result="bg"/><feBlend in="SourceGraphic" in2="bg"/></filter><mask id="mask-6" x="149.95" y="202.34" width="107.73" height="201.22" maskUnits="userSpaceOnUse"><g id="_Group_6" data-name="&lt;Group&gt;" class="cls-7"><g class="cls-8"><path id="_Path_3" data-name="&lt;Path&gt;" class="cls-9" d="M205.87,222.94c-1.52-1.58-3-3.08-4.2-4.3,2.17,12.11,3,27.18,3.34,39.32h0v.09c0,.12,0,.23,0,.35,0,.73,0,1.45.05,2.16V261c0,.82,0,1.63,0,2.42V264h0c.08,5.35.07,10.8,0,16.28,0,.4,0,.65,0,.76,0,.7-.2,109.27-1.6,121.05v.06L198,403.56v-.12c-.41-19.89-14.85-85.27-17.86-104.84a1,1,0,0,0-1-.83,1,1,0,0,0-.89.65c-7,20.19-14.67,85.14-16.84,104.57v.09l-6.54-.47v-.09c-2.66-33.71-4.26-69.65-4.93-93.86,14.14-46.06,46.05-87.56,62-106.32a226.65,226.65,0,0,0,24.43,29.44c8.58,8.59,16.12,14.17,21.23,15.71l.09,0-1.44,5.58-.09,0c-4.45-1.51-27.23-9.56-39.33-19.5A145.59,145.59,0,0,1,205.87,222.94Z"/></g></g></mask><linearGradient id="Безымянный_градиент_2" x1="15734.26" y1="302.95" x2="15841.99" y2="302.95" gradientTransform="matrix(-1, 0, 0, 1, 15991.94, 0)" gradientUnits="userSpaceOnUse"><stop offset="0" stop-color="#7d8fae"/><stop offset="0.08" stop-color="#8b98b3"/><stop offset="0.37" stop-color="#b7b4c5"/><stop offset="0.63" stop-color="#d7c8d2"/><stop offset="0.85" stop-color="#ebd5da"/><stop offset="1" stop-color="#f2d9dd"/></linearGradient></defs><title>Asset 2</title><g class="cls-11"><g id="Layer_2" data-name="Layer 2"><g id="Layer_2-2" data-name="Layer 2"><rect class="cls-12" width="500" height="500"/><g id="office"><g id="_Clip_Group_" data-name="&lt;Clip Group&gt;"><g class="cls-13"><g id="office-2" data-name="office"><g id="_Group_7" data-name="&lt;Group&gt;"><rect id="_Path_4" data-name="&lt;Path&gt;" class="cls-14" x="11.1" y="65.15" width="481.78" height="374.62"/><rect id="_Path_5" data-name="&lt;Path&gt;" class="cls-15" x="11.1" y="382.44" width="481.78" height="57.33"/></g><g id="_Group_8" data-name="&lt;Group&gt;"><g id="_Group_9" data-name="&lt;Group&gt;"><rect id="_Path_6" data-name="&lt;Path&gt;" class="cls-16" x="29.37" y="186.94" width="58.48" height="27.04"/><rect id="_Path_7" data-name="&lt;Path&gt;" class="cls-16" x="29.37" y="225.25" width="58.48" height="27.04"/><rect id="_Path_8" data-name="&lt;Path&gt;" class="cls-16" x="29.37" y="340.17" width="58.48" height="27.05"/><rect id="_Path_9" data-name="&lt;Path&gt;" class="cls-16" x="29.37" y="263.56" width="58.48" height="27.04"/><rect id="_Path_10" data-name="&lt;Path&gt;" class="cls-16" x="29.37" y="301.87" width="58.48" height="27.04"/></g><path id="_Compound_Path_" data-name="&lt;Compound Path&gt;" class="cls-17" d="M87.85,175.68H22.54v206H94.68v-206Zm0,191.54H29.37V340.17H87.85Zm0-38.31H29.37v-27H87.85Zm0-38.31H29.37v-27H87.85Zm0-38.31H29.37v-27H87.85Zm0-38.31H29.37v-27H87.85Z"/><rect id="_Rectangle_" data-name="&lt;Rectangle&gt;" class="cls-18" x="30.82" y="190.49" width="9.92" height="23.5"/><rect id="_Rectangle_2" data-name="&lt;Rectangle&gt;" class="cls-19" x="63.96" y="266.95" width="8.32" height="23.5"/><rect id="_Rectangle_3" data-name="&lt;Rectangle&gt;" class="cls-20" x="30.95" y="271.19" width="7.18" height="19.25"/><rect id="_Rectangle_4" data-name="&lt;Rectangle&gt;" class="cls-21" x="50.63" y="188.33" width="5.88" height="25.65"/><rect id="_Rectangle_5" data-name="&lt;Rectangle&gt;" class="cls-22" x="32.67" y="226.82" width="3.75" height="25.48"/><rect id="_Rectangle_6" data-name="&lt;Rectangle&gt;" class="cls-22" x="36.99" y="226.82" width="3.75" height="25.48"/><polygon id="_Path_11" data-name="&lt;Path&gt;" class="cls-23" points="47.33 250.83 43.64 251.78 40.37 226.71 44.07 225.77 47.33 250.83"/><polygon id="_Path_12" data-name="&lt;Path&gt;" class="cls-24" points="87.85 365.75 84.16 366.7 80.89 341.64 84.59 340.69 87.85 365.75"/><rect id="_Rectangle_7" data-name="&lt;Rectangle&gt;" class="cls-25" x="57.65" y="190.49" width="4.41" height="23.5"/><rect id="_Rectangle_8" data-name="&lt;Rectangle&gt;" class="cls-25" x="62.43" y="190.49" width="4.41" height="23.5"/><rect id="_Rectangle_9" data-name="&lt;Rectangle&gt;" class="cls-25" x="67.53" y="190.49" width="4.41" height="23.5"/><rect id="_Rectangle_10" data-name="&lt;Rectangle&gt;" class="cls-26" x="76.53" y="228.8" width="4.41" height="23.5"/><rect id="_Rectangle_11" data-name="&lt;Rectangle&gt;" class="cls-26" x="81.63" y="228.8" width="4.41" height="23.5"/><rect id="_Rectangle_12" data-name="&lt;Rectangle&gt;" class="cls-27" x="61.5" y="305.22" width="4.41" height="23.5"/><rect id="_Rectangle_13" data-name="&lt;Rectangle&gt;" class="cls-28" x="66.6" y="305.22" width="4.41" height="23.5"/><rect id="_Rectangle_14" data-name="&lt;Rectangle&gt;" class="cls-29" x="71.56" y="305.22" width="4.41" height="23.5"/><rect id="_Rectangle_15" data-name="&lt;Rectangle&gt;" class="cls-30" x="73.06" y="188.33" width="3.98" height="25.65"/><rect id="_Rectangle_16" data-name="&lt;Rectangle&gt;" class="cls-30" x="71.07" y="226.73" width="3.98" height="25.65"/><rect id="_Rectangle_17" data-name="&lt;Rectangle&gt;" class="cls-31" x="66.25" y="226.73" width="3.98" height="25.65"/><rect id="_Rectangle_18" data-name="&lt;Rectangle&gt;" class="cls-32" x="54.59" y="264.89" width="3.98" height="25.65"/><rect id="_Rectangle_19" data-name="&lt;Rectangle&gt;" class="cls-33" x="78.14" y="192.39" width="3.49" height="21.59"/><rect id="_Rectangle_20" data-name="&lt;Rectangle&gt;" class="cls-34" x="53.02" y="230.7" width="3.49" height="21.59"/><rect id="_Rectangle_21" data-name="&lt;Rectangle&gt;" class="cls-34" x="76.86" y="307.21" width="3.49" height="21.6"/><rect id="_Rectangle_22" data-name="&lt;Rectangle&gt;" class="cls-34" x="79.88" y="268.95" width="3.49" height="21.6"/><rect id="_Rectangle_23" data-name="&lt;Rectangle&gt;" class="cls-35" x="82.09" y="190.49" width="3.49" height="23.5"/><rect id="_Rectangle_24" data-name="&lt;Rectangle&gt;" class="cls-36" x="61.15" y="228.06" width="3.49" height="24.24"/><rect id="_Rectangle_25" data-name="&lt;Rectangle&gt;" class="cls-37" x="59.52" y="266.37" width="3.49" height="24.24"/><rect id="_Rectangle_26" data-name="&lt;Rectangle&gt;" class="cls-38" x="45.45" y="304.67" width="3.49" height="24.24"/><polygon id="_Path_13" data-name="&lt;Path&gt;" class="cls-38" points="45.47 213.47 42.13 212.06 47.09 188.85 50.43 190.25 45.47 213.47"/><rect id="_Rectangle_27" data-name="&lt;Rectangle&gt;" class="cls-39" x="48.35" y="228.8" width="3.49" height="23.5"/><rect id="_Rectangle_28" data-name="&lt;Rectangle&gt;" class="cls-40" x="57.08" y="228.8" width="3.49" height="23.5"/><rect id="_Rectangle_29" data-name="&lt;Rectangle&gt;" class="cls-41" x="31.8" y="204.36" width="7.99" height="7.02"/><rect id="_Rectangle_30" data-name="&lt;Rectangle&gt;" class="cls-41" x="31.87" y="280.82" width="5.57" height="6.61"/><rect id="_Rectangle_31" data-name="&lt;Rectangle&gt;" class="cls-42" x="38.86" y="271.19" width="7.18" height="19.25"/><rect id="_Rectangle_32" data-name="&lt;Rectangle&gt;" class="cls-41" x="39.78" y="280.82" width="5.57" height="6.61"/><rect id="_Rectangle_33" data-name="&lt;Rectangle&gt;" class="cls-43" x="47.04" y="271.19" width="7.18" height="19.25"/><rect id="_Rectangle_34" data-name="&lt;Rectangle&gt;" class="cls-41" x="47.95" y="280.82" width="5.57" height="6.61"/><rect id="_Rectangle_35" data-name="&lt;Rectangle&gt;" class="cls-44" x="31.87" y="342.33" width="5.57" height="24.89"/><rect id="_Rectangle_36" data-name="&lt;Rectangle&gt;" class="cls-45" x="38.14" y="342.33" width="5.57" height="24.89"/><rect id="_Rectangle_37" data-name="&lt;Rectangle&gt;" class="cls-46" x="44.41" y="342.33" width="5.57" height="24.89"/><rect id="_Rectangle_38" data-name="&lt;Rectangle&gt;" class="cls-44" x="50.68" y="343.46" width="4.49" height="23.76"/><rect id="_Rectangle_39" data-name="&lt;Rectangle&gt;" class="cls-47" x="69.9" y="343.46" width="4.49" height="23.76"/><rect id="_Rectangle_40" data-name="&lt;Rectangle&gt;" class="cls-48" x="55.87" y="345.34" width="6.04" height="21.88"/><rect id="_Rectangle_41" data-name="&lt;Rectangle&gt;" class="cls-49" x="75.58" y="345.34" width="6.04" height="21.88"/><polygon id="_Path_14" data-name="&lt;Path&gt;" class="cls-50" points="30.29 327.19 33.98 328.13 37.25 303.07 33.55 302.13 30.29 327.19"/><rect id="_Rectangle_42" data-name="&lt;Rectangle&gt;" class="cls-49" x="36.52" y="306.77" width="6.04" height="21.88" transform="translate(79.08 635.42) rotate(180)"/><rect id="_Rectangle_43" data-name="&lt;Rectangle&gt;" class="cls-48" x="62.67" y="345.34" width="6.04" height="21.88"/><rect id="_Rectangle_44" data-name="&lt;Rectangle&gt;" class="cls-51" x="73.48" y="267.56" width="4.42" height="23.04"/><rect id="_Rectangle_45" data-name="&lt;Rectangle&gt;" class="cls-52" x="81.62" y="305.87" width="4.42" height="23.04"/><rect id="_Rectangle_46" data-name="&lt;Rectangle&gt;" class="cls-53" x="50.73" y="305.87" width="3.86" height="23.04"/><rect id="_Rectangle_47" data-name="&lt;Rectangle&gt;" class="cls-54" x="56.06" y="307.1" width="4.56" height="21.81"/></g><g id="_Group_10" data-name="&lt;Group&gt;"><rect id="_Rectangle_48" data-name="&lt;Rectangle&gt;" class="cls-55" x="21.97" y="155.56" width="75.34" height="7.78" transform="translate(119.27 318.9) rotate(180)"/><rect id="_Rectangle_49" data-name="&lt;Rectangle&gt;" class="cls-56" x="26.51" y="132.08" width="13.35" height="23.48" transform="translate(66.37 287.64) rotate(180)"/><rect id="_Rectangle_50" data-name="&lt;Rectangle&gt;" class="cls-57" x="40.95" y="134.6" width="5.91" height="20.96" transform="translate(87.81 290.16) rotate(180)"/><rect id="_Rectangle_51" data-name="&lt;Rectangle&gt;" class="cls-58" x="47.6" y="132.08" width="4.95" height="23.48" transform="translate(100.16 287.64) rotate(180)"/><rect id="_Rectangle_52" data-name="&lt;Rectangle&gt;" class="cls-59" x="53.05" y="135.6" width="3.88" height="19.96" transform="translate(109.98 291.16) rotate(180)"/><rect id="_Rectangle_53" data-name="&lt;Rectangle&gt;" class="cls-60" x="57.7" y="135.6" width="3.88" height="19.96" transform="translate(119.27 291.16) rotate(180)"/><rect id="_Rectangle_54" data-name="&lt;Rectangle&gt;" class="cls-61" x="62.34" y="134.6" width="3.88" height="20.96" transform="translate(128.57 290.16) rotate(180)"/><polygon id="_Path_15" data-name="&lt;Path&gt;" class="cls-62" points="69.92 155.81 73.73 154.94 70.53 134.35 66.72 135.22 69.92 155.81"/><rect id="_Rectangle_55" data-name="&lt;Rectangle&gt;" class="cls-63" x="81.24" y="144.04" width="4.7" height="17.29" transform="translate(236.28 69.09) rotate(90)"/><rect id="_Rectangle_56" data-name="&lt;Rectangle&gt;" class="cls-64" x="28.21" y="148.71" width="9.74" height="5" transform="translate(66.15 302.42) rotate(180)"/></g><g id="_Group_11" data-name="&lt;Group&gt;"><rect id="_Rectangle_57" data-name="&lt;Rectangle&gt;" class="cls-65" x="402.07" y="81.25" width="75.23" height="133.93"/><rect id="_Rectangle_58" data-name="&lt;Rectangle&gt;" class="cls-66" x="419.22" y="164.89" width="40.94" height="11.37"/><rect id="_Rectangle_59" data-name="&lt;Rectangle&gt;" class="cls-66" x="414.7" y="182.06" width="56.2" height="4.6"/><rect id="_Rectangle_60" data-name="&lt;Rectangle&gt;" class="cls-66" x="407.61" y="189.28" width="63.29" height="5.1"/><rect id="_Rectangle_61" data-name="&lt;Rectangle&gt;" class="cls-66" x="407.61" y="196.99" width="63.29" height="5.1"/><rect id="_Rectangle_62" data-name="&lt;Rectangle&gt;" class="cls-66" x="407.61" y="204.69" width="43.35" height="5.1"/><rect id="_Rectangle_63" data-name="&lt;Rectangle&gt;" class="cls-67" x="409.84" y="90.82" width="62.18" height="68.27"/><rect id="_Rectangle_64" data-name="&lt;Rectangle&gt;" class="cls-68" x="420.83" y="95.49" width="6.02" height="7.3"/><rect id="_Rectangle_65" data-name="&lt;Rectangle&gt;" class="cls-68" x="429.46" y="95.49" width="6.02" height="7.3"/><rect id="_Rectangle_66" data-name="&lt;Rectangle&gt;" class="cls-68" x="438.1" y="95.49" width="6.02" height="7.3"/><rect id="_Rectangle_67" data-name="&lt;Rectangle&gt;" class="cls-68" x="446.73" y="95.49" width="6.02" height="7.3"/><rect id="_Rectangle_68" data-name="&lt;Rectangle&gt;" class="cls-68" x="455.37" y="95.49" width="6.02" height="7.3"/><rect id="_Rectangle_69" data-name="&lt;Rectangle&gt;" class="cls-69" x="464" y="95.49" width="6.02" height="7.3"/><rect id="_Rectangle_70" data-name="&lt;Rectangle&gt;" class="cls-68" x="412.19" y="105.73" width="6.02" height="7.3"/><rect id="_Rectangle_71" data-name="&lt;Rectangle&gt;" class="cls-68" x="420.83" y="105.73" width="6.02" height="7.3"/><rect id="_Rectangle_72" data-name="&lt;Rectangle&gt;" class="cls-68" x="429.46" y="105.73" width="6.02" height="7.3"/><rect id="_Rectangle_73" data-name="&lt;Rectangle&gt;" class="cls-68" x="438.1" y="105.73" width="6.02" height="7.3"/><rect id="_Rectangle_74" data-name="&lt;Rectangle&gt;" class="cls-69" x="446.73" y="105.73" width="6.02" height="7.3"/><rect id="_Rectangle_75" data-name="&lt;Rectangle&gt;" class="cls-68" x="455.37" y="105.73" width="6.02" height="7.3"/><rect id="_Rectangle_76" data-name="&lt;Rectangle&gt;" class="cls-69" x="464" y="105.73" width="6.02" height="7.3"/><rect id="_Rectangle_77" data-name="&lt;Rectangle&gt;" class="cls-68" x="412.19" y="115.98" width="6.02" height="7.3"/><rect id="_Rectangle_78" data-name="&lt;Rectangle&gt;" class="cls-68" x="420.83" y="115.98" width="6.02" height="7.3"/><rect id="_Rectangle_79" data-name="&lt;Rectangle&gt;" class="cls-68" x="429.46" y="115.98" width="6.02" height="7.3"/><rect id="_Rectangle_80" data-name="&lt;Rectangle&gt;" class="cls-68" x="438.1" y="115.98" width="6.02" height="7.3"/><rect id="_Rectangle_81" data-name="&lt;Rectangle&gt;" class="cls-68" x="446.73" y="115.98" width="6.02" height="7.3"/><rect id="_Rectangle_82" data-name="&lt;Rectangle&gt;" class="cls-68" x="455.37" y="115.98" width="6.02" height="7.3"/><rect id="_Rectangle_83" data-name="&lt;Rectangle&gt;" class="cls-69" x="464" y="115.98" width="6.02" height="7.3"/><rect id="_Rectangle_84" data-name="&lt;Rectangle&gt;" class="cls-68" x="412.19" y="126.22" width="6.02" height="7.3"/><rect id="_Rectangle_85" data-name="&lt;Rectangle&gt;" class="cls-68" x="420.83" y="126.22" width="6.02" height="7.3"/><rect id="_Rectangle_86" data-name="&lt;Rectangle&gt;" class="cls-68" x="429.46" y="126.22" width="6.02" height="7.3"/><rect id="_Rectangle_87" data-name="&lt;Rectangle&gt;" class="cls-68" x="438.1" y="126.22" width="6.02" height="7.3"/><rect id="_Rectangle_88" data-name="&lt;Rectangle&gt;" class="cls-68" x="446.73" y="126.22" width="6.02" height="7.3"/><rect id="_Rectangle_89" data-name="&lt;Rectangle&gt;" class="cls-68" x="455.37" y="126.22" width="6.02" height="7.3"/><rect id="_Rectangle_90" data-name="&lt;Rectangle&gt;" class="cls-69" x="464" y="126.22" width="6.02" height="7.3"/><rect id="_Rectangle_91" data-name="&lt;Rectangle&gt;" class="cls-68" x="412.19" y="136.47" width="6.02" height="7.3"/><rect id="_Rectangle_92" data-name="&lt;Rectangle&gt;" class="cls-68" x="420.83" y="136.47" width="6.02" height="7.3"/><rect id="_Rectangle_93" data-name="&lt;Rectangle&gt;" class="cls-68" x="429.46" y="136.47" width="6.02" height="7.3"/><rect id="_Rectangle_94" data-name="&lt;Rectangle&gt;" class="cls-68" x="438.1" y="136.47" width="6.02" height="7.3"/><rect id="_Rectangle_95" data-name="&lt;Rectangle&gt;" class="cls-68" x="446.73" y="136.47" width="6.02" height="7.3"/><rect id="_Rectangle_96" data-name="&lt;Rectangle&gt;" class="cls-68" x="455.37" y="136.47" width="6.02" height="7.3"/><rect id="_Rectangle_97" data-name="&lt;Rectangle&gt;" class="cls-69" x="464" y="136.47" width="6.02" height="7.3"/><rect id="_Rectangle_98" data-name="&lt;Rectangle&gt;" class="cls-68" x="446.73" y="146.72" width="6.02" height="7.3"/><rect id="_Rectangle_99" data-name="&lt;Rectangle&gt;" class="cls-68" x="455.37" y="146.72" width="6.02" height="7.3"/><rect id="_Rectangle_100" data-name="&lt;Rectangle&gt;" class="cls-69" x="464" y="146.72" width="6.02" height="7.3"/></g><g id="_Group_12" data-name="&lt;Group&gt;"><rect id="_Rectangle_101" data-name="&lt;Rectangle&gt;" class="cls-65" x="29.81" y="75.16" width="52.5" height="49.92"/><rect id="_Rectangle_102" data-name="&lt;Rectangle&gt;" class="cls-67" x="34.37" y="79.59" width="42.8" height="31.38"/><rect id="_Rectangle_103" data-name="&lt;Rectangle&gt;" class="cls-66" x="41.6" y="113.41" width="28.36" height="2.28"/><rect id="_Rectangle_104" data-name="&lt;Rectangle&gt;" class="cls-66" x="34.37" y="116.69" width="42.8" height="2.29"/><rect id="_Rectangle_105" data-name="&lt;Rectangle&gt;" class="cls-66" x="34.37" y="120.13" width="42.8" height="2.29"/><polygon id="_Path_16" data-name="&lt;Path&gt;" class="cls-68" points="37.57 108.3 37.57 81.58 36.52 81.58 36.52 108.3 36.52 109.56 37.57 109.56 74.42 109.56 74.42 108.3 37.57 108.3"/><g id="_Group_13" data-name="&lt;Group&gt;"><polygon id="_Path_17" data-name="&lt;Path&gt;" class="cls-70" points="38.8 107.17 38.36 107 42.21 91.88 46.17 100.48 48.52 93.85 51.29 101.38 55.28 84.86 56.69 91.63 57.38 88.23 61.69 101.83 65.57 90.47 67.28 97.61 73.27 84.7 73.67 84.98 67.15 99.03 65.49 92.14 61.67 103.33 57.48 90.07 56.69 93.92 55.25 86.97 51.38 102.99 48.53 95.23 46.23 101.73 42.33 93.28 38.8 107.17"/></g></g></g></g></g><g id="_Group_14" data-name="&lt;Group&gt;"><g id="_Group_15" data-name="&lt;Group&gt;"><path id="_Compound_Path_2" data-name="&lt;Compound Path&gt;" class="cls-71" d="M140.93,332.66h0a78.48,78.48,0,0,0-8,9.24,135.7,135.7,0,0,0,5-34.76h0L127.57,342.9,134.74,312h0A181.37,181.37,0,0,0,128,331.12l4.4-43.71-2.95,11.64q-2,7.67-3.14,15.54A120,120,0,0,0,122.11,288h0l.69,24.48q-1-6.72-2.59-13.31l-.6-2.56-.38,3.82c-.53,5.51-.81,11.06-.84,16.6l-4.1-44.77h0a280,280,0,0,0,1,49c-.45-1.11-.93-2.21-1.42-3.32l-9.68-21.48,6.61,30.39A109.12,109.12,0,0,0,105.07,314h0l4.17,17.57a80,80,0,0,0-6.19-8.34L94.42,313.1l19.94,40.08L105,343.44h0a23.05,23.05,0,0,0,9.81,12.21l.18.1.81,3.41h3.12l.4,0h.47l.45,0,.41,0h.1l.72,0v-.16l0,.16h.25l.22,0h.25l.68,0h0l.25,0h.31l.31,0h.09l.13,0h.23l.16,0h.13l.29,0h0l.25,0h.16l.33,0,.54-.06.44,0,.27,0h0l.5-.05Z"/><path id="_Path_18" data-name="&lt;Path&gt;" class="cls-67" d="M121.59,382.06h0c-8,0-14.4-7.81-14.4-17.45V354.34H136v10.27C136,374.25,129.54,382.06,121.59,382.06Z"/></g></g><g id="_Group_16" data-name="&lt;Group&gt;"><rect id="_Rectangle_106" data-name="&lt;Rectangle&gt;" class="cls-72" x="102.53" y="82.53" width="282.9" height="180.18"/><g id="_Group_17" data-name="&lt;Group&gt;"><g id="_Group_18" data-name="&lt;Group&gt;"><rect id="_Path_19" data-name="&lt;Path&gt;" class="cls-73" x="117.68" y="113.87" width="14.69" height="29.04"/><rect id="_Path_20" data-name="&lt;Path&gt;" class="cls-74" x="117.68" y="142.91" width="14.69" height="49.36"/></g><g id="_Group_19" data-name="&lt;Group&gt;"><rect id="_Path_21" data-name="&lt;Path&gt;" class="cls-73" x="137.26" y="113.87" width="14.69" height="43.53"/><rect id="_Path_22" data-name="&lt;Path&gt;" class="cls-75" x="137.26" y="157.4" width="14.69" height="34.87"/></g><g id="_Group_20" data-name="&lt;Group&gt;"><rect id="_Path_23" data-name="&lt;Path&gt;" class="cls-73" x="156.84" y="113.87" width="14.69" height="49.68"/><rect id="_Path_24" data-name="&lt;Path&gt;" class="cls-76" x="156.84" y="163.55" width="14.69" height="28.71"/></g><g id="_Group_21" data-name="&lt;Group&gt;"><rect id="_Path_25" data-name="&lt;Path&gt;" class="cls-73" x="176.42" y="113.87" width="14.69" height="36.78"/><rect id="_Path_26" data-name="&lt;Path&gt;" class="cls-77" x="176.42" y="150.64" width="14.69" height="41.62"/></g><g id="_Group_22" data-name="&lt;Group&gt;"><rect id="_Path_27" data-name="&lt;Path&gt;" class="cls-73" x="196" y="113.87" width="14.69" height="22.18"/><rect id="_Path_28" data-name="&lt;Path&gt;" class="cls-78" x="196" y="136.05" width="14.69" height="56.22"/></g><g id="_Group_23" data-name="&lt;Group&gt;"><rect id="_Path_29" data-name="&lt;Path&gt;" class="cls-73" x="215.58" y="113.87" width="14.69" height="12.92"/><rect id="_Path_30" data-name="&lt;Path&gt;" class="cls-79" x="215.58" y="126.79" width="14.69" height="65.47"/></g><polygon id="_Path_31" data-name="&lt;Path&gt;" class="cls-73" points="112.83 196.09 112.83 109.27 110.52 109.27 110.52 196.09 110.52 198.43 112.83 198.43 233.13 198.43 233.13 196.09 112.83 196.09"/></g><g id="_Group_24" data-name="&lt;Group&gt;"><rect id="_Rectangle_107" data-name="&lt;Rectangle&gt;" class="cls-66" x="109.8" y="222.72" width="88.99" height="3.16"/><rect id="_Rectangle_108" data-name="&lt;Rectangle&gt;" class="cls-66" x="109.8" y="227.59" width="88.99" height="3.16"/><rect id="_Rectangle_109" data-name="&lt;Rectangle&gt;" class="cls-66" x="109.8" y="232.46" width="88.99" height="3.16"/><rect id="_Rectangle_110" data-name="&lt;Rectangle&gt;" class="cls-66" x="109.8" y="237.33" width="41.5" height="3.16"/><rect id="_Rectangle_111" data-name="&lt;Rectangle&gt;" class="cls-66" x="130.55" y="217.7" width="68.24" height="3.16"/></g><g id="_Group_25" data-name="&lt;Group&gt;"><rect id="_Rectangle_112" data-name="&lt;Rectangle&gt;" class="cls-66" x="240.41" y="170.53" width="52.73" height="3.22"/><rect id="_Rectangle_113" data-name="&lt;Rectangle&gt;" class="cls-66" x="240.41" y="175.64" width="52.73" height="3.22"/><rect id="_Rectangle_114" data-name="&lt;Rectangle&gt;" class="cls-66" x="240.41" y="180.75" width="52.73" height="3.22"/><rect id="_Rectangle_115" data-name="&lt;Rectangle&gt;" class="cls-66" x="240.41" y="185.86" width="52.73" height="3.22"/><rect id="_Rectangle_116" data-name="&lt;Rectangle&gt;" class="cls-66" x="240.41" y="190.9" width="52.73" height="3.22"/><rect id="_Rectangle_117" data-name="&lt;Rectangle&gt;" class="cls-66" x="240.41" y="195.46" width="39.3" height="3.22"/><rect id="_Rectangle_118" data-name="&lt;Rectangle&gt;" class="cls-66" x="260.04" y="165.42" width="33.1" height="3.22"/><rect id="_Rectangle_119" data-name="&lt;Rectangle&gt;" class="cls-66" x="240.1" y="137.98" width="52.74" height="3.22"/><rect id="_Rectangle_120" data-name="&lt;Rectangle&gt;" class="cls-66" x="240.1" y="143.09" width="52.74" height="3.22"/><rect id="_Rectangle_121" data-name="&lt;Rectangle&gt;" class="cls-66" x="240.1" y="148.2" width="52.74" height="3.22"/><rect id="_Rectangle_122" data-name="&lt;Rectangle&gt;" class="cls-66" x="240.1" y="153.31" width="26.68" height="3.22"/><rect id="_Rectangle_123" data-name="&lt;Rectangle&gt;" class="cls-66" x="259.73" y="132.87" width="33.1" height="3.22"/></g><g id="_Group_26" data-name="&lt;Group&gt;"><g id="_Group_27" data-name="&lt;Group&gt;"><path id="_Path_32" data-name="&lt;Path&gt;" class="cls-80" d="M345.17,158.33A22.24,22.24,0,0,0,342.65,138l-17.73,12.57Z"/><path id="_Path_33" data-name="&lt;Path&gt;" class="cls-81" d="M342.65,138a21.53,21.53,0,0,0-17.73-9.36,20.88,20.88,0,0,0-3.18.24l3.18,21.69Z"/><path id="_Path_34" data-name="&lt;Path&gt;" class="cls-82" d="M321.74,128.92a21.95,21.95,0,0,0,3.18,43.61V150.61Z"/><path id="_Path_35" data-name="&lt;Path&gt;" class="cls-83" d="M345.17,158.33l-20.25-7.72L334,170.49A21.87,21.87,0,0,0,345.17,158.33Z"/><path id="_Path_36" data-name="&lt;Path&gt;" class="cls-84" d="M324.92,172.53a21.3,21.3,0,0,0,9.12-2l-9.12-19.88Z"/></g><path id="_Compound_Path_3" data-name="&lt;Compound Path&gt;" class="cls-82" d="M309,115.87a4.86,4.86,0,0,0-6.54-2.22,5,5,0,0,0-2.19,6.62,4.85,4.85,0,0,0,5.7,2.55l4.93,10,1.59-.8-4.92-10A5,5,0,0,0,309,115.87Zm-2.86,5.27a3.36,3.36,0,0,1-4.53-1.54,3.45,3.45,0,0,1,1.52-4.59,3.36,3.36,0,0,1,4.53,1.54A3.45,3.45,0,0,1,306.18,121.14Z"/><path id="_Compound_Path_4" data-name="&lt;Compound Path&gt;" class="cls-81" d="M355.17,116.33a4.74,4.74,0,0,0-4.63,4l-10.68.06,0,0,0,0h0l-6.62,8.15c.43.4.87.78,1.3,1.16l6.15-7.57,9.93-.06a4.74,4.74,0,1,0,4.62-5.7Zm.05,8.12a3.33,3.33,0,1,1,3.26-3.34A3.3,3.3,0,0,1,355.22,124.45Z"/><path id="_Compound_Path_5" data-name="&lt;Compound Path&gt;" class="cls-84" d="M328.84,181.83a2.51,2.51,0,1,0,2.44-3l-1.1-5.67-.9.18,1.1,5.67A2.55,2.55,0,0,0,328.84,181.83Zm2.13-2.22a1.76,1.76,0,1,1-1.37,2.07A1.75,1.75,0,0,1,331,179.61Z"/><path id="_Compound_Path_6" data-name="&lt;Compound Path&gt;" class="cls-83" d="M348.91,176.33a3.3,3.3,0,0,0,4.68-.45,3.39,3.39,0,0,0-.45-4.74,3.28,3.28,0,0,0-4.24,0l-5.81-4.87-.78.95,5.81,4.87A3.41,3.41,0,0,0,348.91,176.33Zm.34-4.08a2.28,2.28,0,0,1,3.24-.31,2.35,2.35,0,0,1,.31,3.28,2.28,2.28,0,0,1-3.24.31A2.35,2.35,0,0,1,349.25,172.25Z"/><path id="_Compound_Path_7" data-name="&lt;Compound Path&gt;" class="cls-83" d="M363.25,151.32a4.45,4.45,0,1,0-4.64-5l-9.95.66.1,1.62,9.95-.66A4.41,4.41,0,0,0,363.25,151.32Zm-3.32-4.24a3,3,0,1,1,3.24,2.88A3.07,3.07,0,0,1,359.93,147.08Z"/><rect id="_Rectangle_124" data-name="&lt;Rectangle&gt;" class="cls-82" x="311.42" y="109.24" width="18.39" height="13.76"/><rect id="_Rectangle_125" data-name="&lt;Rectangle&gt;" class="cls-84" x="327.33" y="185.22" width="12.97" height="9.51"/><rect id="_Rectangle_126" data-name="&lt;Rectangle&gt;" class="cls-83" x="357.43" y="177.15" width="16.69" height="11.92"/><rect id="_Rectangle_127" data-name="&lt;Rectangle&gt;" class="cls-80" x="360.92" y="155.05" width="16.95" height="11.23"/><rect id="_Rectangle_128" data-name="&lt;Rectangle&gt;" class="cls-81" x="362.28" y="116.73" width="17.95" height="12.53"/></g><rect id="_Rectangle_129" data-name="&lt;Rectangle&gt;" class="cls-66" x="208.82" y="88.67" width="79.68" height="12.92"/><g id="_Group_28" data-name="&lt;Group&gt;"><path id="_Path_37" data-name="&lt;Path&gt;" class="cls-85" d="M253.57,235c-23.68,0-42.88-4.54-42.88-10.13v9.33c0,5.6,19.2,10.13,42.88,10.13,3.72,0,7.32-.11,10.76-.32v-9.33C260.89,234.9,257.29,235,253.57,235Z"/><path id="_Path_38" data-name="&lt;Path&gt;" class="cls-85" d="M288.5,230.76h0v9.34c5-1.66,8-3.69,8-5.89v-9.33C296.46,227.07,293.51,229.1,288.5,230.76Z"/><path id="_Path_39" data-name="&lt;Path&gt;" class="cls-86" d="M253.57,214.75c-23.68,0-42.88,4.53-42.88,10.13S229.89,235,253.57,235c3.72,0,7.32-.11,10.76-.32l-10.76-9.81,34.93,5.88c5-1.66,8-3.69,8-5.88C296.46,219.28,277.26,214.75,253.57,214.75Z"/><g id="_Group_29" data-name="&lt;Group&gt;"><path id="_Path_40" data-name="&lt;Path&gt;" class="cls-87" d="M294.47,233.6c-5.77,1.91-14.28,3.32-24.17,3.92h0v9.34c9.89-.6,18.4-2,24.17-3.93V233.6Z"/><path id="_Path_41" data-name="&lt;Path&gt;" class="cls-88" d="M270.3,237.52h0c9.89-.6,18.4-2,24.17-3.92l-34.92-5.88Z"/></g><polygon id="_Path_42" data-name="&lt;Path&gt;" class="cls-89" points="259.55 227.72 259.55 230.33 264.33 234.69 264.33 241.37 270.3 246.86 270.3 237.52 259.55 227.72"/><polygon id="_Path_43" data-name="&lt;Path&gt;" class="cls-90" points="259.55 230.33 259.55 227.72 288.5 232.62 288.5 230.76 253.57 224.88 259.55 230.33"/></g><g id="_Group_30" data-name="&lt;Group&gt;"><g id="_Group_31" data-name="&lt;Group&gt;"><path id="_Path_44" data-name="&lt;Path&gt;" class="cls-66" d="M320.72,208.55v3.16a6.71,6.71,0,0,1,0,13.41,6.58,6.58,0,0,1-5.59-3.12l-2.51,1.89a9.69,9.69,0,0,0,8.1,4.39,9.87,9.87,0,0,0,0-19.73Z"/><path id="_Path_45" data-name="&lt;Path&gt;" class="cls-91" d="M314.1,218.42a6.67,6.67,0,0,1,6.62-6.71v-3.16a9.81,9.81,0,0,0-9.74,9.87,10,10,0,0,0,1.64,5.47l2.51-1.89A6.74,6.74,0,0,1,314.1,218.42Z"/></g><g id="_Group_32" data-name="&lt;Group&gt;"><path id="_Path_46" data-name="&lt;Path&gt;" class="cls-66" d="M353.93,218.42a9.81,9.81,0,0,0-9.74-9.87h0v3.16h0a6.66,6.66,0,0,1,6.62,6.71,6.74,6.74,0,0,1-2.87,5.53l2.23,2.26A9.91,9.91,0,0,0,353.93,218.42Z"/><path id="_Path_47" data-name="&lt;Path&gt;" class="cls-92" d="M344.19,225.12a6.71,6.71,0,0,1,0-13.41v-3.16a9.87,9.87,0,0,0,0,19.73,9.63,9.63,0,0,0,6-2.07L347.94,224A6.56,6.56,0,0,1,344.19,225.12Z"/></g><g id="_Group_33" data-name="&lt;Group&gt;"><path id="_Path_48" data-name="&lt;Path&gt;" class="cls-93" d="M375.63,212.75l-2.43,2a6.73,6.73,0,0,1,1.08,3.67,6.62,6.62,0,1,1-6.62-6.71v-3.16a9.87,9.87,0,1,0,9.74,9.87A9.93,9.93,0,0,0,375.63,212.75Z"/><path id="_Path_49" data-name="&lt;Path&gt;" class="cls-66" d="M372.81,210a9.66,9.66,0,0,0-5.15-1.49v3.16a6.48,6.48,0,0,1,2.85.65,6.68,6.68,0,0,1,2.69,2.39l2.43-2A9.84,9.84,0,0,0,372.81,210Z"/></g><rect id="_Rectangle_130" data-name="&lt;Rectangle&gt;" class="cls-66" x="312.93" y="233.45" width="15.58" height="22.41"/><rect id="_Rectangle_131" data-name="&lt;Rectangle&gt;" class="cls-66" x="336.4" y="233.45" width="15.58" height="22.41"/><rect id="_Rectangle_132" data-name="&lt;Rectangle&gt;" class="cls-66" x="359.87" y="233.45" width="15.58" height="22.41"/><rect id="_Rectangle_133" data-name="&lt;Rectangle&gt;" class="cls-91" x="314.57" y="235.05" width="12.78" height="1.61"/><g id="_Group_34" data-name="&lt;Group&gt;"><rect id="_Rectangle_134" data-name="&lt;Rectangle&gt;" class="cls-94" x="314.57" y="241.18" width="12.78" height="1.61"/><rect id="_Rectangle_135" data-name="&lt;Rectangle&gt;" class="cls-94" x="314.57" y="243.51" width="12.78" height="1.61"/><rect id="_Rectangle_136" data-name="&lt;Rectangle&gt;" class="cls-94" x="314.57" y="245.85" width="12.78" height="1.61"/><rect id="_Rectangle_137" data-name="&lt;Rectangle&gt;" class="cls-94" x="314.57" y="248.18" width="12.78" height="1.61"/><rect id="_Rectangle_138" data-name="&lt;Rectangle&gt;" class="cls-94" x="314.57" y="250.52" width="12.78" height="1.61"/><rect id="_Rectangle_139" data-name="&lt;Rectangle&gt;" class="cls-94" x="314.57" y="252.86" width="12.78" height="1.61"/></g><g id="_Group_35" data-name="&lt;Group&gt;"><rect id="_Rectangle_140" data-name="&lt;Rectangle&gt;" class="cls-94" x="337.8" y="241.18" width="12.77" height="1.61"/><rect id="_Rectangle_141" data-name="&lt;Rectangle&gt;" class="cls-94" x="337.8" y="243.51" width="12.77" height="1.61"/><rect id="_Rectangle_142" data-name="&lt;Rectangle&gt;" class="cls-94" x="337.8" y="245.85" width="12.77" height="1.61"/><rect id="_Rectangle_143" data-name="&lt;Rectangle&gt;" class="cls-94" x="337.8" y="248.18" width="12.77" height="1.61"/><rect id="_Rectangle_144" data-name="&lt;Rectangle&gt;" class="cls-94" x="337.8" y="250.52" width="12.77" height="1.61"/><rect id="_Rectangle_145" data-name="&lt;Rectangle&gt;" class="cls-94" x="337.8" y="252.86" width="12.77" height="1.61"/></g><g id="_Group_36" data-name="&lt;Group&gt;"><rect id="_Rectangle_146" data-name="&lt;Rectangle&gt;" class="cls-94" x="361.27" y="241.18" width="12.77" height="1.61"/><rect id="_Rectangle_147" data-name="&lt;Rectangle&gt;" class="cls-94" x="361.27" y="243.51" width="12.77" height="1.61"/><rect id="_Rectangle_148" data-name="&lt;Rectangle&gt;" class="cls-94" x="361.27" y="245.85" width="12.77" height="1.61"/><rect id="_Rectangle_149" data-name="&lt;Rectangle&gt;" class="cls-94" x="361.27" y="248.18" width="12.77" height="1.61"/><rect id="_Rectangle_150" data-name="&lt;Rectangle&gt;" class="cls-94" x="361.27" y="250.52" width="12.77" height="1.61"/><rect id="_Rectangle_151" data-name="&lt;Rectangle&gt;" class="cls-94" x="361.27" y="252.86" width="12.77" height="1.61"/></g><rect id="_Rectangle_152" data-name="&lt;Rectangle&gt;" class="cls-92" x="337.8" y="235.05" width="12.77" height="1.61"/><rect id="_Rectangle_153" data-name="&lt;Rectangle&gt;" class="cls-93" x="361.27" y="235.05" width="12.77" height="1.61"/></g></g></g><g id="man"><g id="_Group_37" data-name="&lt;Group&gt;"><g id="_Group_38" data-name="&lt;Group&gt;"><g id="_Group_39" data-name="&lt;Group&gt;"><path id="_Path_50" data-name="&lt;Path&gt;" class="cls-95" d="M381.9,284.79h0v-.1c-.24-8.69-.73-17.69-1.46-26.76v-.09l-52.68.73v.09c-.18,7-.21,14.34-.08,21.69,0,.38,0,.64,0,.74,0,.68.19,106.7,1.56,118.19v.06l5.35,1.4v-.12c.4-19.42,14.5-83.25,17.44-102.37a.94.94,0,0,1,.95-.8.92.92,0,0,1,.88.63c6.85,19.71,14.32,83.13,16.44,102.1v.09l6.38-.46v-.08C380.45,352.42,382.05,300.64,381.9,284.79Z"/><path id="_Compound_Path_8" data-name="&lt;Compound Path&gt;" class="cls-96" d="M334.83,401l-5.75-1.5,0-.2c-1.34-11.29-1.55-113.83-1.56-118.19v0c0-.1,0-.35,0-.74-.13-7.34-.1-14.64.08-21.69v-.29l53.07-.74,0,.28c.73,9.08,1.23,18.09,1.47,26.77V285h0c.13,16.07-1.48,67.73-5.18,114.72l0,.26-6.75.49,0-.28c-2.12-19-9.58-82.37-16.43-102.06a.71.71,0,0,0-.68-.49h0a.72.72,0,0,0-.74.62c-1,6.22-3.09,17.14-5.56,29.78-5.17,26.5-11.61,59.48-11.88,72.57Zm-5.37-1.83,5,1.29c.31-13.22,6.72-46.07,11.88-72.49,2.47-12.63,4.6-23.55,5.55-29.76a1.15,1.15,0,0,1,1.15-1,1.14,1.14,0,0,1,1.09.77c6.84,19.69,14.29,82.93,16.44,102l6-.44c3.71-47.18,5.31-99,5.16-114.82v-.23h0c-.24-8.6-.72-17.52-1.44-26.51l-52.29.73c-.17,7-.2,14.26-.08,21.56,0,.39,0,.65,0,.75v0C327.91,285.47,328.13,387.52,329.46,399.18Z"/></g><g id="_Group_40" data-name="&lt;Group&gt;"><path id="_Path_51" data-name="&lt;Path&gt;" class="cls-97" d="M406.28,254.14a112.85,112.85,0,0,0-3.9-24.25A60.83,60.83,0,0,0,392,208.68c-11.28-14.19-22.9-21-28.81-23.84a6.24,6.24,0,0,0-1.29-.65h0l0,0h0l-.05-.26-3.11.06a4.1,4.1,0,0,1-2.84,1.26,23.8,23.8,0,0,1-4.13-.18,3.07,3.07,0,0,1-1.62-.91l-2.73.05-.07.15a50.24,50.24,0,0,0-9.47,4.5c-4.7,2.77-11.28,7.48-15.93,14.21a224.17,224.17,0,0,1-24.69,30c-8.39,8.38-15.75,13.83-20.74,15.34l-.08,0,1.4,5.45.09,0c4.34-1.48,26.59-9.34,38.4-19a138.86,138.86,0,0,0,10.69-10.38c1.49-1.54,2.9-3,4.11-4.2-2.48,13.84-3.21,31.64-3.38,44.18v.1l53.13-.91h.1v-.1c-.95-13.63-2.42-27.33-4.5-41.88,16.1,25.08,22.58,70,22.28,71l0,.12,5.12,0,0-.08A156.58,156.58,0,0,0,406.28,254.14Z"/></g></g><g class="cls-98"><path id="_Path_52" data-name="&lt;Path&gt;" class="cls-99" d="M326.93,224.38c1.49-1.54,2.9-3,4.11-4.2-2.12,11.82-3,26.54-3.27,38.39h0v.09c0,.11,0,.23,0,.34,0,.71,0,1.42-.05,2.11,0,.13,0,.27,0,.4,0,.81,0,1.59,0,2.36v.59h0c-.08,5.22-.07,10.54,0,15.89,0,.38,0,.64,0,.74,0,.68.19,106.7,1.56,118.19v.06l5.35,1.4v-.12c.4-19.42,14.5-83.25,17.44-102.37a.94.94,0,0,1,.95-.8.92.92,0,0,1,.88.63c6.85,19.71,14.32,83.13,16.44,102.1v.09l6.38-.46v-.08c2.59-32.92,4.15-68,4.81-91.65-13.81-45-45-85.49-60.52-103.82A222.44,222.44,0,0,1,297.17,233c-8.39,8.38-15.75,13.83-20.74,15.34l-.08,0,1.4,5.45.09,0c4.34-1.48,26.59-9.34,38.4-19A138.86,138.86,0,0,0,326.93,224.38Z"/></g><g id="_Group_41" data-name="&lt;Group&gt;"><path id="_Path_53" data-name="&lt;Path&gt;" class="cls-100" d="M391.93,208.74c-12.23-15.39-24.53-21.8-28.78-23.82a6.08,6.08,0,0,0-1.28-.64l0,0-.06,0v0l0,0a113.27,113.27,0,0,0-3-13.37,14,14,0,0,0,.86-4.05c.39-6.32-3.33-11.69-8.32-12s-9.63,5.6-10,11.92c-.38,6.14.56,12.22,5.35,12.78a4.15,4.15,0,0,1,.69,4.83c-.21-.07-16.41,5.69-25.39,18.67-16.89,24.41-35.08,45.26-44.68,45.76-6.35.33-9.55.88-12.44.68a.66.66,0,0,0-.42,1.18l2.95.91c.68.14.94.54.61.79a8.87,8.87,0,0,1-6.59,1.95c-3.65-.59,1.29,3.79,3.86,3.95s10.13-3.84,10.2-3.85c1.94-.52,27.88-9.21,40.76-19.8,4.9-4,11-10.89,15-14.78-4.34,23.92-3.39,59.63-3.39,61.18,0,.37.33,97.32,1.41,116.05,1.64.88,3.29,1.74,5,2.47l.57.17.19.06c-.19-17.42,14.42-84.64,17-101.6a1,1,0,0,1,2-.19c6.84,19.7,14.38,83.82,16.36,101.43a36.93,36.93,0,0,1,6.31,0c3.84-48.83,5.3-99.89,5.16-114.78h0a561.23,561.23,0,0,0-5.61-63.52c7.73,11.88,13.28,28.44,16.94,42.64a32,32,0,0,1,13.23-4.55C406,241.79,402.53,222.08,391.93,208.74Z"/><path id="_Path_54" data-name="&lt;Path&gt;" class="cls-100" d="M405.27,282.74h0c0-.05,0-.1,0-.14h0a12.15,12.15,0,0,1-7.61,1.94,62.17,62.17,0,0,1,1.1,8.08,6.71,6.71,0,0,1-1,2.17c-1.25,2.48-2.12,5.75-1.39,7,.27.47,2.08-4.92,3.16-2.91,1.33,2.46-.85,5.87-.43,7.67s2.55-1.38,4.73-3.14-.35-9.73-.35-9.73A107.91,107.91,0,0,0,405.27,282.74Z"/></g><path id="_Path_55" data-name="&lt;Path&gt;" class="cls-101" d="M380.88,263.55c.15,2.26.3,4.51.42,6.74l-53.63,9.28c-.08-5.08-.08-10.13,0-15.1Z"/><path id="_Path_56" data-name="&lt;Path&gt;" class="cls-102" d="M376.37,221.57c7.42,11.56,12.8,27.32,16.41,41.06-5-48.39-20.43-49.33-24.27-43.92s11.66,38.5,11.66,38.5.11.37.31,1C379.53,246.3,378.18,234.26,376.37,221.57Z"/><path id="_Path_57" data-name="&lt;Path&gt;" class="cls-103" d="M380.88,263.55l-53.22.92c0,1.35,0,2.69,0,4l53.46-1.93C381,265.58,381,264.56,380.88,263.55Z"/></g><g id="_Group_42" data-name="&lt;Group&gt;"><path id="_Path_58" data-name="&lt;Path&gt;" class="cls-104" d="M329.42,399c.05.38-.31.45-1,.6l-10.29,2.11c-.28.2-2.82.7-4,3.08a4.88,4.88,0,0,0-.49,3.41c.3,1,1.59,2.12,2.68,1.64,4.44-1.94,17.45-6.07,17.45-6.07.92-.85,1.13-3.15,1.17-4.11Z"/><g id="_Group_43" data-name="&lt;Group&gt;"><g id="_Group_44" data-name="&lt;Group&gt;"><g id="_Group_45" data-name="&lt;Group&gt;"><path id="_Path_59" data-name="&lt;Path&gt;" class="cls-104" d="M370.81,402.94a1.07,1.07,0,0,0,.22.54s6.85,2.71,10,3.58c2.82.78,9.12,1.93,11.11,1.83,4.17-.21.47-4.17-1.83-5.42-3.34-1.83-8.7-2.14-12.3-3.13-.37-.1-1.44-.37-1.41-.75,0-.06,0-.13,0-.2l-6.12.5C370.65,401.42,370.76,402.47,370.81,402.94Z"/><path id="_Path_60" data-name="&lt;Path&gt;" class="cls-105" d="M359.7,167.65c1.29-.08,2.28.9,4.12.59,1.53-.27,2.9-1.87,2.36-3.33a2.12,2.12,0,0,0-2.74-1.16,6.15,6.15,0,1,0-4.76-11.32,3.25,3.25,0,0,0,.11-4.43,5.29,5.29,0,0,0-4.47-1.56,15.73,15.73,0,0,0-4.7,1.41c.72-1.42-.39-3.26-1.91-3.74a5.5,5.5,0,0,0-4.53.92,10.69,10.69,0,0,0-4.82,7.81c-1.77-.4-3.08,1.84-2.84,3.63,1.08,8.13,14.67,2.76,16.81,9.49a.14.14,0,0,0,.23.06c.6-.63,2.69-2.55,3.17-.17a9.92,9.92,0,0,1-.33,4.77.13.13,0,0,0,.22.14,19.19,19.19,0,0,1,2.8-2.69A2.82,2.82,0,0,1,359.7,167.65Z"/></g><path id="_Path_61" data-name="&lt;Path&gt;" class="cls-106" d="M382.13,285v-.34c-.24-8.68-.74-17.69-1.47-26.77l0-.28-53.07.74v.29c-.18,7-.21,14.35-.08,21.69,0,.39,0,.64,0,.74v0c0,4.36.22,106.9,1.56,118.19l0,.2,5.75,1.5v-.38c.27-13.09,6.71-46.07,11.88-72.57,2.47-12.64,4.6-23.56,5.56-29.78a.72.72,0,0,1,.74-.62.71.71,0,0,1,.68.49c6.85,19.69,14.31,83.09,16.43,102.06l0,.28,6.75-.49,0-.26c3.7-47,5.31-98.65,5.18-114.72Z"/></g><path id="_Path_62" data-name="&lt;Path&gt;" class="cls-102" d="M376.37,221.57c7.42,11.56,12.8,27.32,16.41,41.06-5-48.39-20.43-49.33-24.27-43.92s11.66,38.5,11.66,38.5.11.37.31,1C379.53,246.3,378.18,234.26,376.37,221.57Z"/><g id="_Group_46" data-name="&lt;Group&gt;"><path id="_Path_63" data-name="&lt;Path&gt;" class="cls-107" d="M406.28,254.14a112.85,112.85,0,0,0-3.9-24.25A60.83,60.83,0,0,0,392,208.68c-11.28-14.19-22.9-21-28.81-23.84a6.24,6.24,0,0,0-1.29-.65h0l0,0h0l-.05-.26-3.33.07a7.22,7.22,0,0,1-4.38,1.15,8.5,8.5,0,0,1-4.63-1l-2.09,0-.07.15a50.24,50.24,0,0,0-9.47,4.5c-4.7,2.77-11.28,7.48-15.93,14.21a224.17,224.17,0,0,1-24.69,30c-8.39,8.38-15.75,13.83-20.74,15.34l-.08,0,1.4,5.45.09,0c4.34-1.48,26.59-9.34,38.4-19a138.86,138.86,0,0,0,10.69-10.38c1.49-1.54,2.9-3,4.11-4.2-2.48,13.84-3.21,31.64-3.38,44.18v.1l53.13-.91h.1v-.1c-.95-13.63-2.42-27.33-4.5-41.88,16.1,25.08,22.58,70,22.28,71l0,.12,5.12,0,0-.08A156.58,156.58,0,0,0,406.28,254.14Z"/><path id="_Path_64" data-name="&lt;Path&gt;" class="cls-103" d="M380.88,263.55l-53.22.92c0,1.35,0,2.69,0,4l53.46-1.93C381,265.58,381,264.56,380.88,263.55Z"/></g></g></g><path id="_Path_65" data-name="&lt;Path&gt;" class="cls-108" d="M321.56,326.15l20.92-17c-.05-2.26.09-49.47.1-51.74,0-7.41.11-14.83.28-22.25.36-15,1.15-30,2.76-45a9.54,9.54,0,0,1,2.72-6l-1,0-.07.15a50.24,50.24,0,0,0-9.47,4.5c-4.7,2.77-11.28,7.48-15.93,14.21a224.17,224.17,0,0,1-24.69,30c-8.39,8.38-15.75,13.83-20.74,15.34l-.08,0,1.4,5.45.09,0c4.34-1.48,26.59-9.34,38.4-19a138.86,138.86,0,0,0,10.69-10.38c1.49-1.54,2.9-3,4.11-4.2-2.48,13.84-3.55,31.66-4.26,44.18C325.91,279.86,321.56,326.15,321.56,326.15Z"/><path id="_Path_66" data-name="&lt;Path&gt;" class="cls-109" d="M351.29,190s-8.39,35.2-6.33,49.06c0,0,2.65,5.93,5.57,11.27,0,0,5.15-6.42,6.93-11.61,0,0-2-7.86-1.7-48.53C355.76,190.22,353,190.93,351.29,190Z"/><path id="_Path_67" data-name="&lt;Path&gt;" class="cls-109" d="M354.29,185.26a8.55,8.55,0,0,1-4.14-1.06,10.76,10.76,0,0,0-2.71,3.45c7,7.24,11.29,1,11.29,1a5.21,5.21,0,0,0-1-4.13A8.53,8.53,0,0,1,354.29,185.26Z"/><path id="_Path_68" data-name="&lt;Path&gt;" class="cls-110" d="M352.37,185a7.93,7.93,0,0,1-1.45-.47L349,188.89s1.27,1.51,2.2,1.59c0,0-7.65,28.9-6.23,48.61l5.57,11.27S346,205,352.84,191C352.84,191,349.53,187.65,352.37,185Z"/><path id="_Path_69" data-name="&lt;Path&gt;" class="cls-108" d="M406.28,254.14a112.85,112.85,0,0,0-3.9-24.25A60.83,60.83,0,0,0,392,208.68c-11.28-14.19-22.9-21-28.81-23.84a6.24,6.24,0,0,0-1.29-.65h0l0,0h0l-.05-.26-2.6,0a7.32,7.32,0,0,1,2.84,6.18c-1.61,15-2.4,30-2.76,45-.18,7.42-.26,14.84-.28,22.25,0,2.17-1.71,59.16-1.66,61.33L390,303.92c-.95-13.63-11.54-67.8-13.62-82.35,16.1,25.08,22.58,70,22.28,71l0,.12,5.12,0,0-.08A156.58,156.58,0,0,0,406.28,254.14Z"/><g id="_Group_47" data-name="&lt;Group&gt;"><g id="_Group_48" data-name="&lt;Group&gt;"><rect id="_Path_70" data-name="&lt;Path&gt;" class="cls-111" x="368.38" y="312.92" width="63.92" height="46.83" rx="2.91" ry="2.91" transform="translate(-6.79 8.25) rotate(-1.17)"/></g><g id="_Group_49" data-name="&lt;Group&gt;"><rect id="_Path_71" data-name="&lt;Path&gt;" class="cls-104" x="368.19" y="312.92" width="63.92" height="27.75" rx="2.91" ry="2.91" transform="translate(-6.6 8.25) rotate(-1.17)"/></g><g id="_Group_50" data-name="&lt;Group&gt;"><path id="_Compound_Path_9" data-name="&lt;Compound Path&gt;" class="cls-104" d="M382.27,312.79l-.12-5.45a7.7,7.7,0,0,1,7.53-7.84l19.81-.4a7.68,7.68,0,0,1,7.84,7.52l.11,5.45a7.68,7.68,0,0,1-7.52,7.83l-19.82.41A7.68,7.68,0,0,1,382.27,312.79Zm7.48-9.82a4.23,4.23,0,0,0-4.13,4.3l.11,5.45a4.22,4.22,0,0,0,4.3,4.12l19.82-.4a4.22,4.22,0,0,0,4.12-4.3l-.11-5.45a4.23,4.23,0,0,0-4.3-4.13Z"/></g><g id="_Group_51" data-name="&lt;Group&gt;"><path id="_Path_72" data-name="&lt;Path&gt;" class="cls-111" d="M396.55,337.37l7.62-.16a2.26,2.26,0,0,0,2.21-2.3h0a2.26,2.26,0,0,0-2.3-2.21l-7.62.15a2.27,2.27,0,0,0-2.21,2.31h0A2.26,2.26,0,0,0,396.55,337.37Z"/></g></g><g id="_Group_52" data-name="&lt;Group&gt;"><polygon id="_Path_73" data-name="&lt;Path&gt;" class="cls-112" points="353.56 185.35 361.03 183.2 360.84 190.42 353.56 185.35"/><polygon id="_Path_74" data-name="&lt;Path&gt;" class="cls-113" points="346.63 183.13 346.86 190.49 354.48 185.15 346.63 183.13"/></g><path id="_Path_75" data-name="&lt;Path&gt;" class="cls-100" d="M402.09,294.14a8.49,8.49,0,0,1-3.65-.65,6.13,6.13,0,0,1-.73,1.31c-1.25,2.48-2.12,5.75-1.39,7,.27.47,2.08-4.92,3.16-2.91,1.33,2.46-.85,5.87-.43,7.67s2.55-1.38,4.73-3.14c2-1.59.11-8.19-.28-9.5Z"/></g><g id="man_2" data-name="man 2"><g id="_Group_53" data-name="&lt;Group&gt;"><g id="_Group_54" data-name="&lt;Group&gt;"><g id="_Group_55" data-name="&lt;Group&gt;"><path id="_Path_76" data-name="&lt;Path&gt;" class="cls-114" d="M124,253.42a115.65,115.65,0,0,1,4-24.95,62.76,62.76,0,0,1,10.68-21.84C150.27,192,162.22,185,168.3,182.1a5.63,5.63,0,0,1,1.34-.67h0l0,0h0l0-.27,3.21.06a4.21,4.21,0,0,0,2.92,1.29,25.16,25.16,0,0,0,4.25-.18,3.13,3.13,0,0,0,1.67-.94l2.81.05.07.16a51.47,51.47,0,0,1,9.75,4.63c4.84,2.85,11.61,7.7,16.4,14.62a230.06,230.06,0,0,0,25.41,30.83c8.63,8.63,16.21,14.23,21.34,15.79l.09,0-1.44,5.62-.1,0c-4.47-1.52-27.37-9.61-39.52-19.6a145.05,145.05,0,0,1-11-10.68c-1.53-1.59-3-3.09-4.22-4.32,2.55,14.24,3.3,32.57,3.48,45.47v.1l-54.68-.93h-.1V263c1-14,2.49-28.14,4.63-43.11-16.57,25.81-23.24,72-22.93,73.12l0,.12-5.27,0,0-.08A161.12,161.12,0,0,1,124,253.42Z"/></g></g><g class="cls-115"><path id="_Path_77" data-name="&lt;Path&gt;" class="cls-116" d="M205.62,222.79c-1.53-1.59-3-3.09-4.22-4.32,2.18,12.17,3,27.31,3.36,39.52h0v.43c0,.74,0,1.46,0,2.17,0,.14,0,.28,0,.42,0,.83,0,1.64,0,2.43v.6h0c.07,5.37.07,10.85,0,16.36,0,.39,0,.65,0,.76,0,.7-.2,109.82-1.61,121.65v.07l-5.51,1.43v-.12c-.41-20-14.92-85.69-18-105.37a1,1,0,0,0-1-.82.94.94,0,0,0-.9.65c-7,20.29-14.74,85.57-16.92,105.09v.09l-6.57-.48v-.08c-2.67-33.89-4.28-70-5-94.33,14.22-46.29,46.28-88,62.29-106.85a229.76,229.76,0,0,0,24.55,29.59c8.63,8.63,16.21,14.23,21.34,15.79l.09,0-1.44,5.62-.1,0c-4.47-1.52-27.37-9.61-39.52-19.6A145.05,145.05,0,0,1,205.62,222.79Z"/></g><g id="_Group_56" data-name="&lt;Group&gt;"><path id="_Path_78" data-name="&lt;Path&gt;" class="cls-117" d="M155,401.48h-.68C150.47,351.68,149,300,149.15,284.86h0a578,578,0,0,1,5.76-65.39c-7.95,12.23-13.66,29.28-17.43,43.89a33,33,0,0,0-13.62-4.68c.43-18,4-38.27,14.89-52,12.59-15.84,25.24-22.43,29.62-24.51a5.86,5.86,0,0,1,1.32-.66l0,0,.06,0v.05l0,0a116.88,116.88,0,0,1,3-13.76,14.8,14.8,0,0,1-.88-4.18c-.4-6.5,3.43-12,8.56-12.35s9.92,5.77,10.33,12.27c.39,6.33-.58,12.58-5.51,13.16a4.27,4.27,0,0,0-.71,5c.22-.07,16.89,5.86,26.13,19.22,17.39,25.13,36.11,46.58,46,47.1,6.53.34,9.82.91,12.8.69a.69.69,0,0,1,.43,1.22l-3,.94c-.7.15-1,.55-.62.81a9.12,9.12,0,0,0,6.78,2c3.75-.61-1.33,3.9-4,4.07s-10.43-4-10.5-4c-2-.53-28.7-9.48-42-20.38-5-4.14-11.35-11.2-15.44-15.21,4.48,24.62,3.5,61.38,3.49,63,0,.38-.32,96.38-1.38,118.25a31.36,31.36,0,0,0-4.36,1.23l-1.66.42c-.92-20.92-14.9-85.47-17.48-102.25a1.07,1.07,0,0,0-2.07-.19c-6.72,19.33-14.08,80.2-16.52,101.55A55.66,55.66,0,0,1,155,401.48Z"/><path id="_Path_79" data-name="&lt;Path&gt;" class="cls-117" d="M125,282.86c.19.15.15.11,0,0s0-.09,0-.14h0a12.5,12.5,0,0,0,7.83,2,66.37,66.37,0,0,0-1.14,8.32,7,7,0,0,0,1.07,2.23c1.29,2.56,2.18,5.92,1.43,7.23-.28.49-2.15-5.06-3.26-3-1.37,2.54.88,6,.45,7.89s-2.63-1.41-4.87-3.23.35-10,.35-10A112,112,0,0,1,125,282.86Z"/></g><path id="_Path_80" data-name="&lt;Path&gt;" class="cls-118" d="M150.1,263.11c-.16,2.32-.31,4.64-.44,6.94l55.2,9.55c.08-5.23.09-10.43,0-15.54Z"/><path id="_Path_81" data-name="&lt;Path&gt;" class="cls-102" d="M154.74,219.9c-7.64,11.89-13.17,28.12-16.89,42.26,5.15-49.81,21-50.77,25-45.2s-12,39.62-12,39.62-.11.38-.32,1C151.49,245.36,152.88,233,154.74,219.9Z"/><path id="_Path_82" data-name="&lt;Path&gt;" class="cls-103" d="M150.1,263.11l54.78.95c0,1.38,0,2.77,0,4.16l-55-2C150,265.19,150,264.15,150.1,263.11Z"/></g><g id="_Group_57" data-name="&lt;Group&gt;"><path id="_Path_83" data-name="&lt;Path&gt;" class="cls-106" d="M203.07,402.81c-.06.4.32.47,1.06.63l10.6,2.17c.29.2,2.9.72,4.08,3.16a5,5,0,0,1,.51,3.51c-.32,1.08-1.64,2.18-2.76,1.69-4.57-2-18-6.24-18-6.24-.94-.88-1.16-3.25-1.21-4.24Z"/><g id="_Group_58" data-name="&lt;Group&gt;"><g id="_Group_59" data-name="&lt;Group&gt;"><g id="_Group_60" data-name="&lt;Group&gt;"><path id="_Path_84" data-name="&lt;Path&gt;" class="cls-106" d="M160.57,406.84a1.11,1.11,0,0,1-.22.55s-7,2.8-10.28,3.69c-2.89.81-9.39,2-11.43,1.88-4.29-.21-.48-4.29,1.88-5.58,3.44-1.88,9-2.2,12.67-3.22.37-.1,1.47-.38,1.44-.76a1.49,1.49,0,0,0,0-.21l6.31.51C160.74,405.27,160.62,406.35,160.57,406.84Z"/><path id="_Path_85" data-name="&lt;Path&gt;" class="cls-104" d="M195.68,157.49c-.71-2.22-2-8.54-8.75-9.76-6.06-1.1-10.39-.31-15.19,3.55a11.22,11.22,0,0,0-3.4,6.42,8.17,8.17,0,0,0,.41,3.21,6.17,6.17,0,0,0,1.72,3.18c.8.59,1.84.21,2.74.75a18.79,18.79,0,0,1,2.89,2.76.14.14,0,0,0,.23-.14,10.09,10.09,0,0,1-.34-4.91c.49-2.45,2.64-.47,3.26.17a.14.14,0,0,0,.23-.06c1.08-3.37,5.13-4.59,8.12-5A28.32,28.32,0,0,1,195.68,157.49Z"/></g><path id="_Path_86" data-name="&lt;Path&gt;" class="cls-110" d="M205,258.07v-.3L150.34,257l0,.29c-.75,9.35-1.85,14-2.09,22.89,0,0,2.12,74.73,5.93,123.1l0,.26,7,.51,0-.3c2.19-19.51,9.87-84.77,16.91-105a.74.74,0,0,1,.71-.51.75.75,0,0,1,.76.65c1,6.4,3.18,17.64,5.72,30.65,5.32,27.27,11.95,61.22,12.22,74.69v.39l5.92-1.54,0-.21c1.38-11.62,1.61-117.16,1.61-121.64v0c0-.11,0-.36,0-.76C205.2,272.84,205.17,265.33,205,258.07Z"/></g><path id="_Path_87" data-name="&lt;Path&gt;" class="cls-110" d="M150.1,263.11c-.16,2.32-.31,4.64-.44,6.94l55.2,9.55c.08-5.23.09-10.43,0-15.54Z"/><path id="_Path_88" data-name="&lt;Path&gt;" class="cls-102" d="M154.74,219.9c-7.64,11.89-13.17,28.12-16.89,42.26,5.15-49.81,21-50.77,25-45.2s-12,39.62-12,39.62-.11.38-.32,1C151.49,245.36,152.88,233,154.74,219.9Z"/><g id="_Group_61" data-name="&lt;Group&gt;"><path id="_Path_89" data-name="&lt;Path&gt;" class="cls-119" d="M124,253.42a115.65,115.65,0,0,1,4-24.95,62.76,62.76,0,0,1,10.68-21.84C150.27,192,162.22,185,168.3,182.1a5.63,5.63,0,0,1,1.34-.67h0l0,0h0l0-.27,3.44.06a7.39,7.39,0,0,0,4.51,1.19,8.79,8.79,0,0,0,4.76-1l2.15,0,.07.16a51.47,51.47,0,0,1,9.75,4.63c4.84,2.85,11.61,7.7,16.4,14.62a230.06,230.06,0,0,0,25.41,30.83c8.63,8.63,16.21,14.23,21.34,15.79l.09,0-1.44,5.62-.1,0c-4.47-1.52-27.37-9.61-39.52-19.6a145.05,145.05,0,0,1-11-10.68c-1.53-1.59-3-3.09-4.22-4.32,2.55,14.24,3.3,32.57,3.48,45.47v.1l-54.68-.93h-.1V263c1-14,2.49-28.14,4.63-43.11-16.57,25.81-23.24,72-22.93,73.12l0,.12-5.27,0,0-.08A161.12,161.12,0,0,1,124,253.42Z"/><path id="_Path_90" data-name="&lt;Path&gt;" class="cls-103" d="M150.1,263.11l54.78.95c0,1.38,0,2.77,0,4.16l-55-2C150,265.19,150,264.15,150.1,263.11Z"/></g></g></g><path id="_Path_91" data-name="&lt;Path&gt;" class="cls-120" d="M180.55,187.44s8.65,36.22,6.52,50.49c0,0-2.73,6.11-5.73,11.6,0,0-5.3-6.6-7.13-11.95,0,0,2.09-8.09,1.75-50C176,187.63,178.82,188.36,180.55,187.44Z"/><path id="_Path_92" data-name="&lt;Path&gt;" class="cls-120" d="M177.47,182.53a8.65,8.65,0,0,0,4.26-1.1,11.08,11.08,0,0,1,2.79,3.56c-7.17,7.44-11.62,1-11.62,1a5.36,5.36,0,0,1,1-4.25A8.74,8.74,0,0,0,177.47,182.53Z"/><path id="_Path_93" data-name="&lt;Path&gt;" class="cls-121" d="M179.44,182.3a9.37,9.37,0,0,0,1.5-.48l2,4.44s-1.31,1.56-2.27,1.64c0,0,7.87,29.74,6.41,50l-5.73,11.6S186,202.82,179,188.46C179,188.46,182.37,185,179.44,182.3Z"/><path id="_Path_94" data-name="&lt;Path&gt;" class="cls-109" d="M208.14,288.64c-14.73,4.54-25.11-10.4-25.11-10.4.06-2.32-2.22-12.8-2.22-15.13,0-6.17-.16-23.31-.16-23.31s.66-4,.66-4.67c0-15.48,6.74-32.18,5.08-47.57a9.83,9.83,0,0,0-2.8-6.14l1,0,.07.16a51.47,51.47,0,0,1,9.75,4.63c4.84,2.85,11.61,7.7,16.4,14.62a230.06,230.06,0,0,0,25.41,30.83c8.63,8.63,16.21,14.23,21.34,15.79l.09,0-1.44,5.62-.1,0c-4.47-1.52-27.37-9.61-39.52-19.6a145.05,145.05,0,0,1-11-10.68c-1.53-1.59-3-3.09-4.22-4.32a362.2,362.2,0,0,1,5.15,41.63C207.21,271.35,207.91,280.72,208.14,288.64Z"/><path id="_Path_95" data-name="&lt;Path&gt;" class="cls-109" d="M181.31,237.17c-.37-15.47-10.12-34.22-11.78-49.61a6.43,6.43,0,0,1,0-1.52c0-.1-.07-.21-.09-.31a11.83,11.83,0,0,1-.5-2.91q0-.54-.06-1.08c-.18.09-.38.21-.62.36-6.08,2.88-18,9.92-29.65,24.53A62.76,62.76,0,0,0,128,228.47a115.65,115.65,0,0,0-4,24.95,161.12,161.12,0,0,0,2.59,39.68l0,.08,5.27,0,0-.12c-.31-1.09,6.36-47.31,22.93-73.12-4.07,11.16-15.2,36.48-10.26,69.6,19,5.49,35.43-11.06,35.43-11.06,1.41-7,1.94-20.29,1.93-22.53C181.82,248.28,181.5,244.8,181.31,237.17Z"/><path id="_Path_96" data-name="&lt;Path&gt;" class="cls-110" d="M191.43,183.9a8.45,8.45,0,0,0-2.34,3.54,6.52,6.52,0,0,0-.39,2.29,2.77,2.77,0,0,0,.51,1.39,42.17,42.17,0,0,0,7.49,9.39,1.14,1.14,0,0,1,.41.59,1.16,1.16,0,0,1-.38.86c-8,9.46-13.25,23-15.42,35.21a143.46,143.46,0,0,1,1.72-24.6c1.06-5.83,2.55-11.61,3-17.52.36-4.79-2-9.69-1-14.33A20.25,20.25,0,0,1,191.43,183.9Z"/><path id="_Path_97" data-name="&lt;Path&gt;" class="cls-110" d="M164,184.34a8.45,8.45,0,0,1,2.34,3.54,5.76,5.76,0,0,1,.39,2.29,18.42,18.42,0,0,1-5.29,11.56,1.08,1.08,0,0,0-.41.58,1.18,1.18,0,0,0,.38.87c8,9.46,17.73,21.77,19.9,34,.06-7.61-4.25-18-5.61-25.49-1.06-5.83-3.79-10.9-4.87-16.73-1.25-6.7-1.53-10.83-1.06-13.79A21.46,21.46,0,0,0,164,184.34Z"/><g id="_Group_62" data-name="&lt;Group&gt;"><polygon id="_Path_98" data-name="&lt;Path&gt;" class="cls-107" points="177.6 182.16 169.25 179.76 169.47 187.83 177.6 182.16"/><polygon id="_Path_99" data-name="&lt;Path&gt;" class="cls-107" points="185.19 179.93 184.94 188.14 176.41 182.18 185.19 179.93"/></g><path id="_Path_100" data-name="&lt;Path&gt;" class="cls-117" d="M128.26,294.59a8.71,8.71,0,0,0,3.77-.67,6.19,6.19,0,0,0,.75,1.35c1.29,2.56,2.18,5.92,1.43,7.23-.28.49-2.15-5.06-3.26-3-1.37,2.54.88,6,.45,7.89s-2.63-1.41-4.87-3.23c-2-1.63-.12-8.43.28-9.77Z"/><g class="cls-122"><path id="_Path_101" data-name="&lt;Path&gt;" class="cls-123" d="M205.87,222.94c-1.52-1.58-3.23-3.25-4.47-4.47a274,274,0,0,1,4.1,28.79c.69,9.12,2.11,25.53,2.64,41.38,0-.05-1.51.4-3.32.86-.06,26-.31,103.93-1.33,112.57v.06L198,403.56v-.12c-.41-19.89-14.85-85.27-17.86-104.84a1,1,0,0,0-1-.83,1,1,0,0,0-.89.65c-7,20.19-14.67,85.14-16.84,104.57v.09l-6.54-.47v-.09c-2.66-33.71-4.26-69.65-4.93-93.86,14.14-46.06,46.05-87.56,62-106.32a226.65,226.65,0,0,0,24.43,29.44c8.58,8.59,16.12,14.17,21.23,15.71l.09,0-1.44,5.58-.09,0c-4.45-1.51-27.23-9.56-39.33-19.5A145.59,145.59,0,0,1,205.87,222.94Z"/></g><path id="_Path_102" data-name="&lt;Path&gt;" class="cls-104" d="M190.3,171.75s-6.46,3.08-8.4.24c-2.82-4.11-1.8-6.66-2.33-6.66-1.23,0-5.51,5.81-1.72,9.34,4.76,4.42,10.87,9.59,12.46,4.14S190.3,171.75,190.3,171.75Z"/></g></g></g></g></svg>