<svg xmlns="http://www.w3.org/2000/svg" viewBox="0 0 1989.77 298.55"><defs><style>.cls-1{fill:#eb4132;}.cls-2{fill:#377dff;}</style></defs><title>Asset 2</title><g id="Layer_2" data-name="Layer 2"><g id="Layer_1-2" data-name="Layer 1"><path class="cls-1" d="M560.07,163.07a7.93,7.93,0,0,1-2.94,6.22,10.05,10.05,0,0,1-6.77,2.55,8.85,8.85,0,0,1-8.29-5.58l-9.56-21.35H476.44l-9.56,21.35a9.06,9.06,0,0,1-3.5,4.22,9.36,9.36,0,0,1-4.94,1.36,10.15,10.15,0,0,1-6.69-2.55,7.84,7.84,0,0,1-3-6.22,9.8,9.8,0,0,1,1-4.14l44-94.46A10.22,10.22,0,0,1,498,59.61a12.68,12.68,0,0,1,12.58,0A10.22,10.22,0,0,1,515,64.47l44.13,94.46A9.79,9.79,0,0,1,560.07,163.07ZM483.45,129h42.06l-21-47.31Z"/><path class="cls-1" d="M593.76,165.62a46.55,46.55,0,0,1-18.71-20.07q-6.54-13.05-6.53-30.58t6.53-30.51a46.69,46.69,0,0,1,18.71-20q12.19-7,28.44-7A61.59,61.59,0,0,1,642,60.56a51.53,51.53,0,0,1,16.41,9,9.2,9.2,0,0,1,2.87,3.34,10.39,10.39,0,0,1,.79,4.3,9.13,9.13,0,0,1-1.91,5.9,5.74,5.74,0,0,1-4.62,2.39A11.78,11.78,0,0,1,649,83.26a47.51,47.51,0,0,0-12.74-7.08,40.58,40.58,0,0,0-13.06-2q-16.57,0-25.09,10.36T589.54,115q0,20.22,8.53,30.58t25.09,10.36a37.52,37.52,0,0,0,12.66-2.07,60.85,60.85,0,0,0,13.14-7,22.64,22.64,0,0,1,3.19-1.6,9,9,0,0,1,3.34-.63,5.73,5.73,0,0,1,4.62,2.38,9.13,9.13,0,0,1,1.91,5.9,10.52,10.52,0,0,1-.79,4.22,9,9,0,0,1-2.87,3.43,51.31,51.31,0,0,1-16.41,9,61.59,61.59,0,0,1-19.75,3.1Q606,172.63,593.76,165.62Z"/><path class="cls-1" d="M707.66,169.21a10,10,0,0,1-2.78-7.41v-86h-29q-9.55,0-9.55-8.44t9.55-8.45h78.54q9.55,0,9.56,8.45t-9.56,8.44h-29v86a9.6,9.6,0,0,1-10.2,10.2A10.22,10.22,0,0,1,707.66,169.21Z"/><path class="cls-1" d="M778.87,169.29a10.29,10.29,0,0,1-2.79-7.49V68.29a9.58,9.58,0,0,1,10.2-10.19,10.23,10.23,0,0,1,7.56,2.78,10,10,0,0,1,2.79,7.41V161.8a10.29,10.29,0,0,1-2.79,7.49,10,10,0,0,1-7.56,2.86A9.87,9.87,0,0,1,778.87,169.29Z"/><path class="cls-1" d="M911,57.94a11.2,11.2,0,0,1,7.17,2.55,7.85,7.85,0,0,1,3.18,6.37,10.39,10.39,0,0,1-1,4l-44.13,94.94a10.43,10.43,0,0,1-4.38,4.7,12.7,12.7,0,0,1-12.59,0,10.43,10.43,0,0,1-4.38-4.7L811,70.84A10,10,0,0,1,810,67a7.92,7.92,0,0,1,3.27-6.53,11.69,11.69,0,0,1,7.4-2.55,9.77,9.77,0,0,1,5,1.35,9.05,9.05,0,0,1,3.59,4.06l36.64,81.41,36.63-81.41A8.7,8.7,0,0,1,911,57.94Z"/><path class="cls-1" d="M937.21,168.65a9.54,9.54,0,0,1-2.63-7.17V68.61a9.54,9.54,0,0,1,2.63-7.17,10,10,0,0,1,7.25-2.55H1002q4.62,0,7.17,2.07a7.18,7.18,0,0,1,2.55,5.9,7.57,7.57,0,0,1-2.55,6.13q-2.55,2.15-7.17,2.15H954.65v30.91h44.13q4.62,0,7.17,2.07a7.37,7.37,0,0,1,2.55,6,7.18,7.18,0,0,1-2.55,5.89q-2.55,2.07-7.17,2.07H954.65V155H1002q4.62,0,7.17,2.15a7.57,7.57,0,0,1,2.55,6.13,7.17,7.17,0,0,1-2.55,5.9q-2.55,2.07-7.17,2.07h-57.5A10,10,0,0,1,937.21,168.65Z"/><path class="cls-2" d="M1216,59.53a10,10,0,0,1,5.5-1.59,9.79,9.79,0,0,1,6.61,2.39,8,8,0,0,1,2.79,6.37,16.12,16.12,0,0,1-.8,4.14l-34.25,94.78a9.86,9.86,0,0,1-4.22,4.94,12.4,12.4,0,0,1-6.45,1.75,12.76,12.76,0,0,1-6.53-1.75,9,9,0,0,1-4.15-4.94l-26.44-75-26.92,75a9.86,9.86,0,0,1-4.22,4.94,12.78,12.78,0,0,1-12.91,0,9.07,9.07,0,0,1-4.06-4.94l-34.25-94.78a13.37,13.37,0,0,1-.79-4.14,7.79,7.79,0,0,1,2.94-6.37,11.2,11.2,0,0,1,12.67-.8,8.89,8.89,0,0,1,3.66,4.78l27.08,77.9,27.88-77.42a10,10,0,0,1,3.66-5,9.37,9.37,0,0,1,5.58-1.83,9.71,9.71,0,0,1,5.65,1.83,9.92,9.92,0,0,1,3.75,5.18l27.08,78.21,27.56-78.85A9,9,0,0,1,1216,59.53Z"/><path class="cls-2" d="M1267.11,165.62a46.8,46.8,0,0,1-18.55-20.07Q1242,132.5,1242,115t6.45-30.51a46.3,46.3,0,0,1,18.56-20q12.09-7,28.51-7t28.44,7a46.52,46.52,0,0,1,18.47,20q6.45,13,6.46,30.51t-6.54,30.58a46.86,46.86,0,0,1-18.55,20.07q-12,7-28.28,7Q1279.14,172.63,1267.11,165.62Zm52.57-20.07q8.68-10.67,8.69-30.58t-8.69-30.51q-8.68-10.59-24.13-10.59-15.61,0-24.29,10.59T1262.58,115q0,19.91,8.68,30.58t24.29,10.67Q1311,156.22,1319.68,145.55Z"/><path class="cls-2" d="M1461.38,163.87a7.45,7.45,0,0,1-3,6,10.61,10.61,0,0,1-6.93,2.39,10.33,10.33,0,0,1-8.76-4.78l-21.19-32.17a20.58,20.58,0,0,0-6.77-7.17,18.45,18.45,0,0,0-9.31-2.07h-15.62V161.8a10.42,10.42,0,0,1-2.7,7.57,9.78,9.78,0,0,1-7.33,2.78,10,10,0,0,1-7.41-2.78,10.22,10.22,0,0,1-2.79-7.57V68.61a9.54,9.54,0,0,1,2.63-7.17,10,10,0,0,1,7.25-2.55h39.83q19.11,0,29.07,8.53T1458.35,92q0,13.06-7.41,21.42T1430,124.21a20.06,20.06,0,0,1,8.12,4,35.05,35.05,0,0,1,6.85,8l14.5,22.15A10.09,10.09,0,0,1,1461.38,163.87ZM1433.5,106q5.41-4.38,5.42-13.47T1433.5,79q-5.41-4.22-17-4.22h-26.77v35.53h26.77Q1428.09,110.35,1433.5,106Z"/><path class="cls-2" d="M1570.66,162.6a8.86,8.86,0,0,1-2.79,6.45,9,9,0,0,1-6.61,2.79,10.2,10.2,0,0,1-7.33-3.35l-53-49.7v43a10.32,10.32,0,0,1-2.78,7.49,10.07,10.07,0,0,1-7.57,2.86,9.87,9.87,0,0,1-7.41-2.86,10.28,10.28,0,0,1-2.78-7.49V68.29a9.57,9.57,0,0,1,10.19-10.19,10.26,10.26,0,0,1,7.57,2.78,10,10,0,0,1,2.78,7.41v40.94l51.3-48.11a9,9,0,0,1,6.53-2.86,9.52,9.52,0,0,1,9.24,9.23,9,9,0,0,1-3.19,6.69l-42.85,39.19,45.56,42.38A9.24,9.24,0,0,1,1570.66,162.6Z"/><path class="cls-2" d="M1588.1,168.65a9.54,9.54,0,0,1-2.63-7.17V68.61a9.54,9.54,0,0,1,2.63-7.17,10,10,0,0,1,7.25-2.55h31.54q27.55,0,42.77,14.74T1684.87,115q0,26.76-15.21,41.49t-42.77,14.74h-31.54A10,10,0,0,1,1588.1,168.65ZM1664.32,115q0-39.34-38.71-39.35H1606v78.85h19.59Q1664.33,154.47,1664.32,115Z"/><path class="cls-2" d="M1708.21,168.65a9.54,9.54,0,0,1-2.63-7.17V68.61a9.54,9.54,0,0,1,2.63-7.17,10,10,0,0,1,7.25-2.55H1773q4.6,0,7.16,2.07a7.18,7.18,0,0,1,2.55,5.9,7.57,7.57,0,0,1-2.55,6.13q-2.55,2.15-7.16,2.15h-47.32v30.91h44.13q4.62,0,7.17,2.07a7.34,7.34,0,0,1,2.55,6,7.15,7.15,0,0,1-2.55,5.89q-2.55,2.07-7.17,2.07h-44.13V155H1773q4.6,0,7.16,2.15a7.57,7.57,0,0,1,2.55,6.13,7.17,7.17,0,0,1-2.55,5.9q-2.55,2.07-7.16,2.07h-57.51A10,10,0,0,1,1708.21,168.65Z"/><path class="cls-2" d="M1813.51,169.37q-10.92-3.27-17.76-8.84a9.68,9.68,0,0,1-1.68-13.47,5.9,5.9,0,0,1,4.7-2.46,12.9,12.9,0,0,1,6.53,2.23,47.71,47.71,0,0,0,14.34,7.16,57.76,57.76,0,0,0,16.57,2.23q11.63,0,17.84-4.06a13.29,13.29,0,0,0,6.21-11.87q0-6-5.81-9.31t-19.36-6.3a113.9,113.9,0,0,1-22.78-7q-8.76-4-13.22-10.19t-4.46-15.77A29.69,29.69,0,0,1,1800.2,74a36.72,36.72,0,0,1,15.54-12.19,55,55,0,0,1,22.38-4.38q22.77,0,37.12,12.11a12.11,12.11,0,0,1,2.94,3.42,9.91,9.91,0,0,1-1.11,10,5.93,5.93,0,0,1-4.7,2.47,8.73,8.73,0,0,1-2.95-.48,22.77,22.77,0,0,1-3.58-1.76,54.11,54.11,0,0,0-12.67-7.08,42.94,42.94,0,0,0-15.05-2.31q-10.83,0-17.13,4.38a14,14,0,0,0-6.29,12.18,11.17,11.17,0,0,0,5.58,10q5.57,3.51,19,6.53a128.14,128.14,0,0,1,23,7.09q8.85,3.9,13.54,10t4.7,15.13a28.92,28.92,0,0,1-5.49,17.44,35.8,35.8,0,0,1-15.46,11.79,58.15,58.15,0,0,1-22.86,4.22A80.64,80.64,0,0,1,1813.51,169.37Z"/><path class="cls-2" d="M1989.77,162.6a8.86,8.86,0,0,1-2.79,6.45,9,9,0,0,1-6.61,2.79,10.2,10.2,0,0,1-7.33-3.35l-53-49.7v43a10.29,10.29,0,0,1-2.79,7.49,10.07,10.07,0,0,1-7.57,2.86,9.87,9.87,0,0,1-7.41-2.86,10.28,10.28,0,0,1-2.78-7.49V68.29a9.57,9.57,0,0,1,10.19-10.19,10.26,10.26,0,0,1,7.57,2.78,10,10,0,0,1,2.79,7.41v40.94l51.29-48.11a9,9,0,0,1,6.53-2.86,9.52,9.52,0,0,1,9.24,9.23,9,9,0,0,1-3.19,6.69L1941,113.37l45.56,42.38A9.21,9.21,0,0,1,1989.77,162.6Z"/><path class="cls-2" d="M102.61,219.42q1.61,8.73,3.24,17.44c2.38,12.71,4.84,25.85,7.17,38.81a2.79,2.79,0,0,0,.18.65l.36.06c.31,0,.79,0,1.39,0h3.77c1.62,0,42.08-.94,62.82-.94,21.23,0,61.11-.05,70.75-.06h2.14a5,5,0,0,0,1.31-.12c.23-.07.21-.08.23-.1a.7.7,0,0,0,.13-.22,5.72,5.72,0,0,0,.3-1.15c1.44-8.3,3-16.68,4.58-24.79.73-3.9,1.48-7.79,2.2-11.66.89-4.82,1.77-9.64,2.66-14.61h0l.61-3.34ZM158.3,256.6a30.06,30.06,0,0,0,4.45,7.57l-4.95,3.38a27,27,0,0,1-2.64-3.49,30.12,30.12,0,0,1-2.45-4.64,32.79,32.79,0,0,1-1.8-5.55,27.63,27.63,0,0,1,0-12.36,32.79,32.79,0,0,1,1.8-5.55,30.59,30.59,0,0,1,2.45-4.64,28.51,28.51,0,0,1,2.64-3.49l4.95,3.38a30.23,30.23,0,0,0-4.45,7.57,25.91,25.91,0,0,0,0,17.82Zm38.49,5.06h-6.42L186,248l-.91-3.73h-.44l-.91,3.73-4.42,13.62h-6.42l-8.54-31.05h7.2l4.29,16.26.74,3.73H177l.91-3.73,3.77-12.1H188l3.81,12.1.87,3.64h.43l.65-3.64,4-16.26H205Zm21.6-7.79a34.69,34.69,0,0,1-1.8,5.55,31,31,0,0,1-2.45,4.64,27,27,0,0,1-2.65,3.49l-4.94-3.38A29.72,29.72,0,0,0,211,256.6a25.76,25.76,0,0,0,0-17.82,29.89,29.89,0,0,0-4.44-7.57l4.94-3.38a28.51,28.51,0,0,1,2.65,3.49,31.51,31.51,0,0,1,2.45,4.64,34.69,34.69,0,0,1,1.8,5.55,28,28,0,0,1,0,12.36ZM102.61,219.42q1.61,8.73,3.24,17.44c2.38,12.71,4.84,25.85,7.17,38.81a2.79,2.79,0,0,0,.18.65l.36.06c.31,0,.79,0,1.39,0h3.77c1.62,0,42.08-.94,62.82-.94,21.23,0,61.11-.05,70.75-.06h2.14a5,5,0,0,0,1.31-.12c.23-.07.21-.08.23-.1a.7.7,0,0,0,.13-.22,5.72,5.72,0,0,0,.3-1.15c1.44-8.3,3-16.68,4.58-24.79.73-3.9,1.48-7.79,2.2-11.66.89-4.82,1.77-9.64,2.66-14.61h0l.61-3.34ZM158.3,256.6a30.06,30.06,0,0,0,4.45,7.57l-4.95,3.38a27,27,0,0,1-2.64-3.49,30.12,30.12,0,0,1-2.45-4.64,32.79,32.79,0,0,1-1.8-5.55,27.63,27.63,0,0,1,0-12.36,32.79,32.79,0,0,1,1.8-5.55,30.59,30.59,0,0,1,2.45-4.64,28.51,28.51,0,0,1,2.64-3.49l4.95,3.38a30.23,30.23,0,0,0-4.45,7.57,25.91,25.91,0,0,0,0,17.82Zm38.49,5.06h-6.42L186,248l-.91-3.73h-.44l-.91,3.73-4.42,13.62h-6.42l-8.54-31.05h7.2l4.29,16.26.74,3.73H177l.91-3.73,3.77-12.1H188l3.81,12.1.87,3.64h.43l.65-3.64,4-16.26H205Zm21.6-7.79a34.69,34.69,0,0,1-1.8,5.55,31,31,0,0,1-2.45,4.64,27,27,0,0,1-2.65,3.49l-4.94-3.38A29.72,29.72,0,0,0,211,256.6a25.76,25.76,0,0,0,0-17.82,29.89,29.89,0,0,0-4.44-7.57l4.94-3.38a28.51,28.51,0,0,1,2.65,3.49,31.51,31.51,0,0,1,2.45,4.64,34.69,34.69,0,0,1,1.8,5.55,28,28,0,0,1,0,12.36ZM102.61,219.42q1.61,8.73,3.24,17.44c2.38,12.71,4.84,25.85,7.17,38.81a2.79,2.79,0,0,0,.18.65l.36.06c.31,0,.79,0,1.39,0h3.77c1.62,0,42.08-.94,62.82-.94,21.23,0,61.11-.05,70.75-.06h2.14a5,5,0,0,0,1.31-.12c.23-.07.21-.08.23-.1a.7.7,0,0,0,.13-.22,5.72,5.72,0,0,0,.3-1.15c1.44-8.3,3-16.68,4.58-24.79.73-3.9,1.48-7.79,2.2-11.66.89-4.82,1.77-9.64,2.66-14.61h0l.61-3.34ZM158.3,256.6a30.06,30.06,0,0,0,4.45,7.57l-4.95,3.38a27,27,0,0,1-2.64-3.49,30.12,30.12,0,0,1-2.45-4.64,32.79,32.79,0,0,1-1.8-5.55,27.63,27.63,0,0,1,0-12.36,32.79,32.79,0,0,1,1.8-5.55,30.59,30.59,0,0,1,2.45-4.64,28.51,28.51,0,0,1,2.64-3.49l4.95,3.38a30.23,30.23,0,0,0-4.45,7.57,25.91,25.91,0,0,0,0,17.82Zm38.49,5.06h-6.42L186,248l-.91-3.73h-.44l-.91,3.73-4.42,13.62h-6.42l-8.54-31.05h7.2l4.29,16.26.74,3.73H177l.91-3.73,3.77-12.1H188l3.81,12.1.87,3.64h.43l.65-3.64,4-16.26H205Zm21.6-7.79a34.69,34.69,0,0,1-1.8,5.55,31,31,0,0,1-2.45,4.64,27,27,0,0,1-2.65,3.49l-4.94-3.38A29.72,29.72,0,0,0,211,256.6a25.76,25.76,0,0,0,0-17.82,29.89,29.89,0,0,0-4.44-7.57l4.94-3.38a28.51,28.51,0,0,1,2.65,3.49,31.51,31.51,0,0,1,2.45,4.64,34.69,34.69,0,0,1,1.8,5.55,28,28,0,0,1,0,12.36ZM102.61,219.42q1.61,8.73,3.24,17.44c2.38,12.71,4.84,25.85,7.17,38.81a2.79,2.79,0,0,0,.18.65l.36.06c.31,0,.79,0,1.39,0h3.77c1.62,0,42.08-.94,62.82-.94,21.23,0,61.11-.05,70.75-.06h2.14a5,5,0,0,0,1.31-.12c.23-.07.21-.08.23-.1a.7.7,0,0,0,.13-.22,5.72,5.72,0,0,0,.3-1.15c1.44-8.3,3-16.68,4.58-24.79.73-3.9,1.48-7.79,2.2-11.66.89-4.82,1.77-9.64,2.66-14.61h0l.61-3.34ZM158.3,256.6a30.06,30.06,0,0,0,4.45,7.57l-4.95,3.38a27,27,0,0,1-2.64-3.49,30.12,30.12,0,0,1-2.45-4.64,32.79,32.79,0,0,1-1.8-5.55,27.63,27.63,0,0,1,0-12.36,32.79,32.79,0,0,1,1.8-5.55,30.59,30.59,0,0,1,2.45-4.64,28.51,28.51,0,0,1,2.64-3.49l4.95,3.38a30.23,30.23,0,0,0-4.45,7.57,25.91,25.91,0,0,0,0,17.82Zm38.49,5.06h-6.42L186,248l-.91-3.73h-.44l-.91,3.73-4.42,13.62h-6.42l-8.54-31.05h7.2l4.29,16.26.74,3.73H177l.91-3.73,3.77-12.1H188l3.81,12.1.87,3.64h.43l.65-3.64,4-16.26H205Zm21.6-7.79a34.69,34.69,0,0,1-1.8,5.55,31,31,0,0,1-2.45,4.64,27,27,0,0,1-2.65,3.49l-4.94-3.38A29.72,29.72,0,0,0,211,256.6a25.76,25.76,0,0,0,0-17.82,29.89,29.89,0,0,0-4.44-7.57l4.94-3.38a28.51,28.51,0,0,1,2.65,3.49,31.51,31.51,0,0,1,2.45,4.64,34.69,34.69,0,0,1,1.8,5.55,28,28,0,0,1,0,12.36ZM102.61,219.42q1.61,8.73,3.24,17.44c2.38,12.71,4.84,25.85,7.17,38.81a2.79,2.79,0,0,0,.18.65l.36.06c.31,0,.79,0,1.39,0h3.77c1.62,0,42.08-.94,62.82-.94,21.23,0,61.11-.05,70.75-.06h2.14a5,5,0,0,0,1.31-.12c.23-.07.21-.08.23-.1a.7.7,0,0,0,.13-.22,5.72,5.72,0,0,0,.3-1.15c1.44-8.3,3-16.68,4.58-24.79.73-3.9,1.48-7.79,2.2-11.66.89-4.82,1.77-9.64,2.66-14.61h0l.61-3.34ZM158.3,256.6a30.06,30.06,0,0,0,4.45,7.57l-4.95,3.38a27,27,0,0,1-2.64-3.49,30.12,30.12,0,0,1-2.45-4.64,32.79,32.79,0,0,1-1.8-5.55,27.63,27.63,0,0,1,0-12.36,32.79,32.79,0,0,1,1.8-5.55,30.59,30.59,0,0,1,2.45-4.64,28.51,28.51,0,0,1,2.64-3.49l4.95,3.38a30.23,30.23,0,0,0-4.45,7.57,25.91,25.91,0,0,0,0,17.82Zm38.49,5.06h-6.42L186,248l-.91-3.73h-.44l-.91,3.73-4.42,13.62h-6.42l-8.54-31.05h7.2l4.29,16.26.74,3.73H177l.91-3.73,3.77-12.1H188l3.81,12.1.87,3.64h.43l.65-3.64,4-16.26H205Zm21.6-7.79a34.69,34.69,0,0,1-1.8,5.55,31,31,0,0,1-2.45,4.64,27,27,0,0,1-2.65,3.49l-4.94-3.38A29.72,29.72,0,0,0,211,256.6a25.76,25.76,0,0,0,0-17.82,29.89,29.89,0,0,0-4.44-7.57l4.94-3.38a28.51,28.51,0,0,1,2.65,3.49,31.51,31.51,0,0,1,2.45,4.64,34.69,34.69,0,0,1,1.8,5.55,28,28,0,0,1,0,12.36ZM102.61,219.42q1.61,8.73,3.24,17.44c2.38,12.71,4.84,25.85,7.17,38.81a2.79,2.79,0,0,0,.18.65l.36.06c.31,0,.79,0,1.39,0h3.77c1.62,0,42.08-.94,62.82-.94,21.23,0,61.11-.05,70.75-.06h2.14a5,5,0,0,0,1.31-.12c.23-.07.21-.08.23-.1a.7.7,0,0,0,.13-.22,5.72,5.72,0,0,0,.3-1.15c1.44-8.3,3-16.68,4.58-24.79.73-3.9,1.48-7.79,2.2-11.66.89-4.82,1.77-9.64,2.66-14.61h0l.61-3.34ZM158.3,256.6a30.06,30.06,0,0,0,4.45,7.57l-4.95,3.38a27,27,0,0,1-2.64-3.49,30.12,30.12,0,0,1-2.45-4.64,32.79,32.79,0,0,1-1.8-5.55,27.63,27.63,0,0,1,0-12.36,32.79,32.79,0,0,1,1.8-5.55,30.59,30.59,0,0,1,2.45-4.64,28.51,28.51,0,0,1,2.64-3.49l4.95,3.38a30.23,30.23,0,0,0-4.45,7.57,25.91,25.91,0,0,0,0,17.82Zm38.49,5.06h-6.42L186,248l-.91-3.73h-.44l-.91,3.73-4.42,13.62h-6.42l-8.54-31.05h7.2l4.29,16.26.74,3.73H177l.91-3.73,3.77-12.1H188l3.81,12.1.87,3.64h.43l.65-3.64,4-16.26H205Zm21.6-7.79a34.69,34.69,0,0,1-1.8,5.55,31,31,0,0,1-2.45,4.64,27,27,0,0,1-2.65,3.49l-4.94-3.38A29.72,29.72,0,0,0,211,256.6a25.76,25.76,0,0,0,0-17.82,29.89,29.89,0,0,0-4.44-7.57l4.94-3.38a28.51,28.51,0,0,1,2.65,3.49,31.51,31.51,0,0,1,2.45,4.64,34.69,34.69,0,0,1,1.8,5.55,28,28,0,0,1,0,12.36Zm149-99.18-24.77-21.15-20.28-17.31L187.87,1.45a6.08,6.08,0,0,0-7.9,0L2.11,154.7A6.07,6.07,0,0,0,10,163.91l27.9-24V276.13a25.39,25.39,0,0,0,3.19,10.7c4.85,6.95,8.72,10,14.91,11.24.41.09.84.16,1.27.23l1.08.14c11.89.2,29,.08,40.89.08H221.14l32.47,0q26,0,51.93,0c1.4,0,3,0,4.69-.12.85-.05,1.72-.12,2.59-.22a21.91,21.91,0,0,0,6.87-1.7c9.2-5,10.93-11.62,11.86-22.47q-.12-66.15,0-132.3v-1.62l1.89,1.62,26.07,22.25a6.07,6.07,0,0,0,7.89-9.23Zm-88.05,63.08q-2.88,15.42-5.78,30.83-2.44,12.91-4.86,25.82c-.1.51-.54,2.89-.85,4.43-.11.53-.19.94-.26,1.24h0v0c0,.1-.12.45-.25.89a15.45,15.45,0,0,1-.6,1.58,9,9,0,0,1-2.82,3.65,6.22,6.22,0,0,1-3.68,1.18H107.32l-.13,0a4.5,4.5,0,0,1-1.78-.63,5.5,5.5,0,0,1-1.28-1.09,8.92,8.92,0,0,1-1.52-2.51,16,16,0,0,1-1-3.16v0l-2.75-14.33h0c-1.91-10.2-3.78-20.14-5.6-30.09-.86-4.66-1.65-9.4-2.42-14-.32-1.9-.63-3.8-1-5.69a18.33,18.33,0,0,1-.3-2.94,7.24,7.24,0,0,1,.24-1.95,4.86,4.86,0,0,1,2.37-3,6.23,6.23,0,0,1,1.62-.6,15.14,15.14,0,0,1,3.51-.31l7.56,0H124.4l.15-.22a58.4,58.4,0,0,1,48.7-26.07h22.56a58.41,58.41,0,0,1,48.7,26.07l.21.31c8.41,0,17,.08,26.35.19a29.08,29.08,0,0,1,3.21.16,8.57,8.57,0,0,1,2.84.77,4.77,4.77,0,0,1,2.53,3.1,7.19,7.19,0,0,1,.23,1.89A26.32,26.32,0,0,1,279.31,217.77ZM184.6,98.4a36.4,36.4,0,1,1-36.39,36.4A36.44,36.44,0,0,1,184.6,98.4ZM105.85,236.86c2.38,12.71,4.84,25.85,7.17,38.81a2.79,2.79,0,0,0,.18.65l.36.06c.31,0,.79,0,1.39,0h3.77c1.62,0,42.08-.94,62.82-.94,21.23,0,61.11-.05,70.75-.06h2.14a5,5,0,0,0,1.31-.12c.23-.07.21-.08.23-.1a.7.7,0,0,0,.13-.22,5.72,5.72,0,0,0,.3-1.15c1.44-8.3,3-16.68,4.58-24.79.73-3.9,1.48-7.79,2.2-11.66.89-4.82,1.77-9.64,2.66-14.61h0l.61-3.34H102.61Q104.22,228.15,105.85,236.86ZM211,238.78a29.89,29.89,0,0,0-4.44-7.57l4.94-3.38a28.51,28.51,0,0,1,2.65,3.49,31.51,31.51,0,0,1,2.45,4.64,34.69,34.69,0,0,1,1.8,5.55,28,28,0,0,1,0,12.36,34.69,34.69,0,0,1-1.8,5.55,31,31,0,0,1-2.45,4.64,27,27,0,0,1-2.65,3.49l-4.94-3.38A29.72,29.72,0,0,0,211,256.6a25.76,25.76,0,0,0,0-17.82Zm-39.48-8.17,4.29,16.26.74,3.73H177l.91-3.73,3.77-12.1H188l3.81,12.1.87,3.64h.43l.65-3.64,4-16.26H205l-8.2,31.05h-6.42L186,248l-.91-3.73h-.44l-.91,3.73-4.42,13.62h-6.42l-8.54-31.05Zm-20.6,10.9a32.79,32.79,0,0,1,1.8-5.55,30.59,30.59,0,0,1,2.45-4.64,28.51,28.51,0,0,1,2.64-3.49l4.95,3.38a30.23,30.23,0,0,0-4.45,7.57,25.91,25.91,0,0,0,0,17.82,30.06,30.06,0,0,0,4.45,7.57l-4.95,3.38a27,27,0,0,1-2.64-3.49,30.12,30.12,0,0,1-2.45-4.64,32.79,32.79,0,0,1-1.8-5.55,27.63,27.63,0,0,1,0-12.36Zm-48.3-22.09q1.61,8.73,3.24,17.44c2.38,12.71,4.84,25.85,7.17,38.81a2.79,2.79,0,0,0,.18.65l.36.06c.31,0,.79,0,1.39,0h3.77c1.62,0,42.08-.94,62.82-.94,21.23,0,61.11-.05,70.75-.06h2.14a5,5,0,0,0,1.31-.12c.23-.07.21-.08.23-.1a.7.7,0,0,0,.13-.22,5.72,5.72,0,0,0,.3-1.15c1.44-8.3,3-16.68,4.58-24.79.73-3.9,1.48-7.79,2.2-11.66.89-4.82,1.77-9.64,2.66-14.61h0l.61-3.34ZM158.3,256.6a30.06,30.06,0,0,0,4.45,7.57l-4.95,3.38a27,27,0,0,1-2.64-3.49,30.12,30.12,0,0,1-2.45-4.64,32.79,32.79,0,0,1-1.8-5.55,27.63,27.63,0,0,1,0-12.36,32.79,32.79,0,0,1,1.8-5.55,30.59,30.59,0,0,1,2.45-4.64,28.51,28.51,0,0,1,2.64-3.49l4.95,3.38a30.23,30.23,0,0,0-4.45,7.57,25.91,25.91,0,0,0,0,17.82Zm38.49,5.06h-6.42L186,248l-.91-3.73h-.44l-.91,3.73-4.42,13.62h-6.42l-8.54-31.05h7.2l4.29,16.26.74,3.73H177l.91-3.73,3.77-12.1H188l3.81,12.1.87,3.64h.43l.65-3.64,4-16.26H205Zm21.6-7.79a34.69,34.69,0,0,1-1.8,5.55,31,31,0,0,1-2.45,4.64,27,27,0,0,1-2.65,3.49l-4.94-3.38A29.72,29.72,0,0,0,211,256.6a25.76,25.76,0,0,0,0-17.82,29.89,29.89,0,0,0-4.44-7.57l4.94-3.38a28.51,28.51,0,0,1,2.65,3.49,31.51,31.51,0,0,1,2.45,4.64,34.69,34.69,0,0,1,1.8,5.55,28,28,0,0,1,0,12.36ZM102.61,219.42q1.61,8.73,3.24,17.44c2.38,12.71,4.84,25.85,7.17,38.81a2.79,2.79,0,0,0,.18.65l.36.06c.31,0,.79,0,1.39,0h3.77c1.62,0,42.08-.94,62.82-.94,21.23,0,61.11-.05,70.75-.06h2.14a5,5,0,0,0,1.31-.12c.23-.07.21-.08.23-.1a.7.7,0,0,0,.13-.22,5.72,5.72,0,0,0,.3-1.15c1.44-8.3,3-16.68,4.58-24.79.73-3.9,1.48-7.79,2.2-11.66.89-4.82,1.77-9.64,2.66-14.61h0l.61-3.34ZM158.3,256.6a30.06,30.06,0,0,0,4.45,7.57l-4.95,3.38a27,27,0,0,1-2.64-3.49,30.12,30.12,0,0,1-2.45-4.64,32.79,32.79,0,0,1-1.8-5.55,27.63,27.63,0,0,1,0-12.36,32.79,32.79,0,0,1,1.8-5.55,30.59,30.59,0,0,1,2.45-4.64,28.51,28.51,0,0,1,2.64-3.49l4.95,3.38a30.23,30.23,0,0,0-4.45,7.57,25.91,25.91,0,0,0,0,17.82Zm38.49,5.06h-6.42L186,248l-.91-3.73h-.44l-.91,3.73-4.42,13.62h-6.42l-8.54-31.05h7.2l4.29,16.26.74,3.73H177l.91-3.73,3.77-12.1H188l3.81,12.1.87,3.64h.43l.65-3.64,4-16.26H205Zm21.6-7.79a34.69,34.69,0,0,1-1.8,5.55,31,31,0,0,1-2.45,4.64,27,27,0,0,1-2.65,3.49l-4.94-3.38A29.72,29.72,0,0,0,211,256.6a25.76,25.76,0,0,0,0-17.82,29.89,29.89,0,0,0-4.44-7.57l4.94-3.38a28.51,28.51,0,0,1,2.65,3.49,31.51,31.51,0,0,1,2.45,4.64,34.69,34.69,0,0,1,1.8,5.55,28,28,0,0,1,0,12.36ZM102.61,219.42q1.61,8.73,3.24,17.44c2.38,12.71,4.84,25.85,7.17,38.81a2.79,2.79,0,0,0,.18.65l.36.06c.31,0,.79,0,1.39,0h3.77c1.62,0,42.08-.94,62.82-.94,21.23,0,61.11-.05,70.75-.06h2.14a5,5,0,0,0,1.31-.12c.23-.07.21-.08.23-.1a.7.7,0,0,0,.13-.22,5.72,5.72,0,0,0,.3-1.15c1.44-8.3,3-16.68,4.58-24.79.73-3.9,1.48-7.79,2.2-11.66.89-4.82,1.77-9.64,2.66-14.61h0l.61-3.34ZM158.3,256.6a30.06,30.06,0,0,0,4.45,7.57l-4.95,3.38a27,27,0,0,1-2.64-3.49,30.12,30.12,0,0,1-2.45-4.64,32.79,32.79,0,0,1-1.8-5.55,27.63,27.63,0,0,1,0-12.36,32.79,32.79,0,0,1,1.8-5.55,30.59,30.59,0,0,1,2.45-4.64,28.51,28.51,0,0,1,2.64-3.49l4.95,3.38a30.23,30.23,0,0,0-4.45,7.57,25.91,25.91,0,0,0,0,17.82Zm38.49,5.06h-6.42L186,248l-.91-3.73h-.44l-.91,3.73-4.42,13.62h-6.42l-8.54-31.05h7.2l4.29,16.26.74,3.73H177l.91-3.73,3.77-12.1H188l3.81,12.1.87,3.64h.43l.65-3.64,4-16.26H205Zm21.6-7.79a34.69,34.69,0,0,1-1.8,5.55,31,31,0,0,1-2.45,4.64,27,27,0,0,1-2.65,3.49l-4.94-3.38A29.72,29.72,0,0,0,211,256.6a25.76,25.76,0,0,0,0-17.82,29.89,29.89,0,0,0-4.44-7.57l4.94-3.38a28.51,28.51,0,0,1,2.65,3.49,31.51,31.51,0,0,1,2.45,4.64,34.69,34.69,0,0,1,1.8,5.55,28,28,0,0,1,0,12.36ZM102.61,219.42q1.61,8.73,3.24,17.44c2.38,12.71,4.84,25.85,7.17,38.81a2.79,2.79,0,0,0,.18.65l.36.06c.31,0,.79,0,1.39,0h3.77c1.62,0,42.08-.94,62.82-.94,21.23,0,61.11-.05,70.75-.06h2.14a5,5,0,0,0,1.31-.12c.23-.07.21-.08.23-.1a.7.7,0,0,0,.13-.22,5.72,5.72,0,0,0,.3-1.15c1.44-8.3,3-16.68,4.58-24.79.73-3.9,1.48-7.79,2.2-11.66.89-4.82,1.77-9.64,2.66-14.61h0l.61-3.34ZM158.3,256.6a30.06,30.06,0,0,0,4.45,7.57l-4.95,3.38a27,27,0,0,1-2.64-3.49,30.12,30.12,0,0,1-2.45-4.64,32.79,32.79,0,0,1-1.8-5.55,27.63,27.63,0,0,1,0-12.36,32.79,32.79,0,0,1,1.8-5.55,30.59,30.59,0,0,1,2.45-4.64,28.51,28.51,0,0,1,2.64-3.49l4.95,3.38a30.23,30.23,0,0,0-4.45,7.57,25.91,25.91,0,0,0,0,17.82Zm38.49,5.06h-6.42L186,248l-.91-3.73h-.44l-.91,3.73-4.42,13.62h-6.42l-8.54-31.05h7.2l4.29,16.26.74,3.73H177l.91-3.73,3.77-12.1H188l3.81,12.1.87,3.64h.43l.65-3.64,4-16.26H205Zm21.6-7.79a34.69,34.69,0,0,1-1.8,5.55,31,31,0,0,1-2.45,4.64,27,27,0,0,1-2.65,3.49l-4.94-3.38A29.72,29.72,0,0,0,211,256.6a25.76,25.76,0,0,0,0-17.82,29.89,29.89,0,0,0-4.44-7.57l4.94-3.38a28.51,28.51,0,0,1,2.65,3.49,31.51,31.51,0,0,1,2.45,4.64,34.69,34.69,0,0,1,1.8,5.55,28,28,0,0,1,0,12.36Z"/><path d="M447.25,235.83h7.28l10.22,41.58,11.83-41.58h6.79l11.69,41.58,10.29-41.58h7.21l-12.95,51.59h-7.42l-12.25-41.58-12.32,41.58H460.2Z"/><path d="M596.42,285.88q-4.27-2-6.48-7.56t-2.2-16.52q0-10.92,2.24-16.63t6.51-7.73c2.85-1.35,6.69-2,11.55-2s8.84.68,11.69,2,5,3.93,6.47,7.73,2.21,9.35,2.21,16.63-.74,12.79-2.21,16.52-3.63,6.25-6.47,7.56-6.75,2-11.69,2S599.26,287.19,596.42,285.88Zm19.6-5.81q2.81-1.47,4.06-5.67t1.26-12.6q0-8.75-1.26-13t-4-5.67q-2.76-1.4-8-1.4a17.38,17.38,0,0,0-7.81,1.43q-2.76,1.44-4.13,5.71t-1.36,13q0,8.47,1.22,12.63t4,5.64c1.85,1,4.54,1.47,8.09,1.47A17.52,17.52,0,0,0,616,280.07Z"/><path d="M707.3,235.83H728q6.3,0,10,3.32t3.75,12.29q0,7.21-2.63,10.29a13.18,13.18,0,0,1-6.68,4.2l10.29,21.49h-7.14l-9.52-20.51-9.59-.14c-.52,0-1.21-.07-2.1-.07v20.72H707.3Zm19.53,25.41a7.81,7.81,0,0,0,5.84-2.1q2.07-2.1,2.07-7.7,0-5.38-2.1-7.35a8.17,8.17,0,0,0-5.81-2H714.37v19.11Z"/><path d="M820.28,235.83h7.07v22.75h8.4l13-22.75h7.49l-15,25.83,15.26,25.76H849l-13.3-22.54h-8.33v22.54h-7.07Z"/><path d="M1022.23,246.61c0-3.78,1-6.52,3.08-8.23a11.24,11.24,0,0,1,7.42-2.55q12.74,0,22,.77v5.74h-20a5.33,5.33,0,0,0-4,1.43,5.51,5.51,0,0,0-1.4,4v12l22.26.42v5.46l-22.26.42v21.35h-7.07Z"/><path d="M1132.27,235.83h20.65q6.3,0,10,3.32t3.75,12.29q0,7.21-2.63,10.29a13.22,13.22,0,0,1-6.68,4.2l10.29,21.49h-7.14L1151,266.91l-9.59-.14c-.52,0-1.22-.07-2.1-.07v20.72h-7.07Zm19.53,25.41a7.81,7.81,0,0,0,5.84-2.1q2.07-2.1,2.07-7.7,0-5.38-2.1-7.35a8.17,8.17,0,0,0-5.81-2h-12.46v19.11Z"/><path d="M1252.67,285.88q-4.28-2-6.48-7.56T1244,261.8q0-10.92,2.24-16.63t6.51-7.73q4.26-2,11.55-2t11.69,2q4.26,2,6.47,7.73t2.21,16.63q0,10.92-2.21,16.52t-6.47,7.56q-4.27,2-11.69,2T1252.67,285.88Zm19.6-5.81c1.86-1,3.22-2.87,4.06-5.67s1.26-7,1.26-12.6q0-8.75-1.26-13c-.84-2.85-2.19-4.74-4-5.67s-4.51-1.4-8-1.4a17.35,17.35,0,0,0-7.81,1.43q-2.76,1.44-4.13,5.71t-1.36,13q0,8.47,1.22,12.63t4,5.64c1.85,1,4.54,1.47,8.09,1.47A17.52,17.52,0,0,0,1272.27,280.07Z"/><path d="M1406,287.42l-4.69-39.9L1390,287.42h-6.51L1372,247.73l-4.48,39.69h-6.79l5.88-51.59h7l13.16,43,13-43h7.07l6,51.59Z"/><path d="M1580.34,235.83h7.07V259h23.87V235.83h7v51.59h-7V265.3h-23.87v22.12h-7.07Z"/><path d="M1705.92,285.88q-4.28-2-6.48-7.56t-2.21-16.52q0-10.92,2.24-16.63t6.51-7.73q4.27-2,11.56-2t11.68,2q4.27,2,6.48,7.73t2.2,16.63q0,10.92-2.2,16.52t-6.48,7.56q-4.26,2-11.68,2T1705.92,285.88Zm19.59-5.81c1.87-1,3.22-2.87,4.07-5.67s1.26-7,1.26-12.6q0-8.75-1.26-13t-4-5.67q-2.76-1.4-8-1.4a17.35,17.35,0,0,0-7.81,1.43q-2.76,1.44-4.13,5.71t-1.37,13q0,8.47,1.23,12.63t4,5.64q2.76,1.47,8.09,1.47A17.44,17.44,0,0,0,1725.51,280.07Z"/><path d="M1859.29,287.42l-4.7-39.9-11.33,39.9h-6.51l-11.48-39.69-4.48,39.69H1814l5.88-51.59h7l13.16,43,13-43h7.06l6,51.59Z"/><path d="M1946.72,285.6q-3.23-2.1-3.22-8.33V246.61c0-3.78,1-6.52,3.08-8.23a11.24,11.24,0,0,1,7.42-2.55q8.32,0,18.83.56l3.14.14v5.81h-19.88c-3.68,0-5.53,1.84-5.53,5.53v10.71l22.27.42v5.46l-22.27.49v10.57c0,2.19.52,3.67,1.54,4.44a6.74,6.74,0,0,0,4.13,1.16H1976v5.81q-12,.76-21.42.77A14,14,0,0,1,1946.72,285.6Z"/></g></g></svg>