<svg xmlns="http://www.w3.org/2000/svg" viewBox="0 0 500 500"><defs><style>.cls-1{isolation:isolate;}.cls-14,.cls-2,.cls-5{fill:#fff;}.cls-3{fill:#a1acb7;}.cls-4{fill:#407bff;}.cls-5{opacity:0.9;}.cls-6{fill:#f0f0f0;}.cls-19,.cls-7{fill:#fafafa;}.cls-8{fill:#e0e0e0;}.cls-9{fill:#e6e6e6;}.cls-10{fill:#ebebeb;}.cls-11{fill:#f5f5f5;}.cls-12,.cls-13,.cls-16{fill:#263238;}.cls-13{opacity:0.4;}.cls-14{opacity:0.1;}.cls-15,.cls-21{opacity:0.3;}.cls-15{mix-blend-mode:multiply;}.cls-16{opacity:0.8;}.cls-17{fill:#ffc3bd;}.cls-18{fill:#ed847e;}.cls-19,.cls-20{opacity:0.2;}</style></defs><title>Asset 1</title><g class="cls-1"><g id="Layer_2" data-name="Layer 2"><g id="Background_Complete" data-name="Background Complete"><rect class="cls-2" width="500" height="500"/><rect class="cls-3" y="382.4" width="500" height="0.25"/><rect class="cls-3" x="52.46" y="391.92" width="77.91" height="0.25"/><rect class="cls-3" x="412" y="399.53" width="37.9" height="0.25"/><rect class="cls-3" x="131.37" y="401.21" width="19.19" height="0.25"/><rect class="cls-3" x="202.17" y="389.21" width="43.19" height="0.25"/><rect class="cls-3" x="254.26" y="389.21" width="6.33" height="0.25"/><rect class="cls-3" x="327.67" y="395.31" width="43.22" height="0.25"/><path class="cls-3" d="M237,337.8H43.91a5.71,5.71,0,0,1-5.7-5.71V60.66A5.71,5.71,0,0,1,43.91,55H237a5.71,5.71,0,0,1,5.71,5.71V332.09A5.71,5.71,0,0,1,237,337.8ZM43.91,55.2a5.46,5.46,0,0,0-5.45,5.46V332.09a5.46,5.46,0,0,0,5.45,5.46H237a5.47,5.47,0,0,0,5.46-5.46V60.66A5.47,5.47,0,0,0,237,55.2Z"/><path class="cls-3" d="M453.31,337.8H260.21a5.72,5.72,0,0,1-5.71-5.71V60.66A5.72,5.72,0,0,1,260.21,55h193.1A5.71,5.71,0,0,1,459,60.66V332.09A5.71,5.71,0,0,1,453.31,337.8ZM260.21,55.2a5.47,5.47,0,0,0-5.46,5.46V332.09a5.47,5.47,0,0,0,5.46,5.46h193.1a5.47,5.47,0,0,0,5.46-5.46V60.66a5.47,5.47,0,0,0-5.46-5.46Z"/><path class="cls-4" d="M79.6,156.07c49-114,324.8-95.52,245.36,52.12-30.4,56.5-100.6,90.4-164.48,81.51C89.33,279.8,48.65,228.06,79.6,156.07Z"/><path class="cls-5" d="M79.6,156.07c49-114,324.8-95.52,245.36,52.12-30.4,56.5-100.6,90.4-164.48,81.51C89.33,279.8,48.65,228.06,79.6,156.07Z"/><path class="cls-6" d="M132.87,359.54H83.73a4.41,4.41,0,0,1-4.36-3.78l-12.3-84.07a4.41,4.41,0,0,1,4.37-5.05h49.13a4.4,4.4,0,0,1,4.36,3.77l12.3,84.08A4.41,4.41,0,0,1,132.87,359.54Z"/><path class="cls-7" d="M89.58,359.54H66.41a4.4,4.4,0,0,1-4.36-3.78l-12.3-84.07a4.41,4.41,0,0,1,4.36-5.05H77.28a4.42,4.42,0,0,1,4.37,3.77l12.29,84.08A4.41,4.41,0,0,1,89.58,359.54Z"/><path class="cls-8" d="M382.82,245.33H144c-6.07,0-11.4,4.55-11.92,10.16l-6,64.91c-.52,5.61,4,10.16,10,10.16h238.8c6.07,0,11.4-4.55,11.92-10.16l6-64.91C393.38,249.88,388.89,245.33,382.82,245.33Z"/><path class="cls-9" d="M366.61,245.33H127.81c-6.07,0-11.4,4.55-11.92,10.16l-6,64.91c-.52,5.61,4,10.16,10,10.16h238.8c6.07,0,11.41-4.55,11.92-10.16l6-64.91C377.17,249.88,372.68,245.33,366.61,245.33Z"/><rect class="cls-10" x="131.08" y="288.62" width="37.5" height="104.33" rx="7.19" ry="7.19" transform="translate(490.62 190.96) rotate(90)"/><rect class="cls-8" x="268.04" y="281.72" width="37.5" height="118.14" rx="6.58" ry="6.58" transform="translate(627.58 54) rotate(90)"/><rect class="cls-10" x="242.31" y="281.72" width="37.5" height="118.14" rx="6.58" ry="6.58" transform="translate(601.85 79.72) rotate(90)"/><path class="cls-6" d="M382.17,359.54H345.62a3.84,3.84,0,0,1-3.73-5.05l23-84.08a5.19,5.19,0,0,1,4.85-3.77h36.55a3.84,3.84,0,0,1,3.72,5.05l-23,84.07A5.17,5.17,0,0,1,382.17,359.54Z"/><path class="cls-7" d="M351.46,359.54H328.29a3.84,3.84,0,0,1-3.72-5.05l23-84.08a5.18,5.18,0,0,1,4.85-3.77H375.6a3.84,3.84,0,0,1,3.73,5.05l-23,84.07A5.19,5.19,0,0,1,351.46,359.54Z"/><polygon class="cls-8" points="332.08 382.4 328.56 382.4 320.13 359.54 328.85 359.54 332.08 382.4"/><polygon class="cls-8" points="376.7 382.4 373.18 382.4 364.75 359.54 373.46 359.54 376.7 382.4"/><polygon class="cls-8" points="123.07 382.4 126.59 382.4 135.01 359.54 126.3 359.54 123.07 382.4"/><polygon class="cls-8" points="78.45 382.4 81.97 382.4 90.39 359.54 81.69 359.54 78.45 382.4"/><rect class="cls-8" x="116.67" y="97.67" width="266.66" height="95.11"/><rect class="cls-6" x="114.22" y="97.67" width="266.66" height="95.11"/><rect class="cls-7" x="208" y="19.89" width="79.11" height="250.66" transform="translate(392.78 -102.33) rotate(90)"/><circle class="cls-6" cx="247.56" cy="145.22" r="23.72"/><polygon class="cls-2" points="162.91 184.78 179.53 105.67 216.19 105.67 199.58 184.78 162.91 184.78"/><polygon class="cls-2" points="215.05 184.78 231.67 105.67 250 105.67 233.39 184.78 215.05 184.78"/><polygon class="cls-2" points="326.99 184.78 343.61 105.67 361.94 105.67 345.33 184.78 326.99 184.78"/><path class="cls-6" d="M442.28,251.76c-6.22,27,9,54.82,2.77,81.78l-6.16-.26-6.16-.25C443.06,306.23,432,278.55,442.28,251.76Z"/><path class="cls-6" d="M426.33,263.45c5.1,25.78-11.26,51.56-6.16,77.34H432.5C423.29,315,435.54,289.23,426.33,263.45Z"/><path class="cls-9" d="M437.72,242c-8.16,27.49,7,57.16-1.16,84.65l-6.7-.63-6.7-.62C435.79,298.34,425.09,269.09,437.72,242Z"/><path class="cls-9" d="M449.73,281.61c2.63,14.86-12,26.55-9.41,41.42l5,.91,5,.91C444.32,309.38,455.67,297.08,449.73,281.61Z"/><ellipse class="cls-8" cx="435.02" cy="352.22" rx="33.65" ry="37.68"/><ellipse id="_Path_" data-name="&lt;Path&gt;" class="cls-11" cx="250" cy="416.24" rx="193.89" ry="11.32"/><path class="cls-12" d="M383.8,274.59H167.7a4,4,0,0,1-4-4.23L171,137.87a4.54,4.54,0,0,1,4.47-4.23h216.1a4,4,0,0,1,4,4.23l-7.28,132.49A4.52,4.52,0,0,1,383.8,274.59Z"/><path class="cls-12" d="M292.89,156.17H272a11.88,11.88,0,0,1-12-12.65l.21-3.86a13.14,13.14,0,0,1,12.94-12.25h20.88a11.89,11.89,0,0,1,12,12.65l-.21,3.86A13.16,13.16,0,0,1,292.89,156.17Z"/><polygon class="cls-12" points="311.91 412.06 305.22 412.06 286.79 130.36 293.49 130.36 311.91 412.06"/><polygon class="cls-12" points="261.67 412.06 268.37 412.06 286.79 130.36 280.1 130.36 261.67 412.06"/><path class="cls-4" d="M382.65,274.59H166.55a4,4,0,0,1-4-4.23l7.27-132.49a4.54,4.54,0,0,1,4.47-4.23h216.1a4,4,0,0,1,4,4.23l-7.28,132.49A4.52,4.52,0,0,1,382.65,274.59Z"/><path class="cls-13" d="M170,270.53a3.17,3.17,0,0,1-3.2-3.38l6.93-126.07a3.61,3.61,0,0,1,3.56-3.38H387a3.17,3.17,0,0,1,3.2,3.38l-6.93,126.07a3.61,3.61,0,0,1-3.57,3.38Z"/><path class="cls-14" d="M381,203.71H317.85a2.69,2.69,0,0,1-2.72-2.87l3.15-57.39a.39.39,0,0,0-.38-.41.44.44,0,0,0-.43.41l-3.15,57.39a3.08,3.08,0,0,1-3,2.87H245.7a2.69,2.69,0,0,1-2.72-2.87l3.15-57.39a.39.39,0,0,0-.38-.41.44.44,0,0,0-.43.41l-3.15,57.39a3.08,3.08,0,0,1-3,2.87H176a.43.43,0,0,0-.43.41.38.38,0,0,0,.38.4h63.12a2.7,2.7,0,0,1,2.72,2.88l-3.15,57.38a.37.37,0,0,0,.38.41.44.44,0,0,0,.43-.41l3.15-57.38a3.07,3.07,0,0,1,3-2.88h65.59A2.7,2.7,0,0,1,314,207.4l-3.15,57.38a.37.37,0,0,0,.38.41.44.44,0,0,0,.43-.41l3.15-57.38a3.07,3.07,0,0,1,3-2.88h63.12a.44.44,0,0,0,.43-.4A.38.38,0,0,0,381,203.71Z"/><polygon class="cls-13" points="278.05 153.44 252.7 153.44 251.28 179.23 276.6 179.91 278.05 153.44"/><path class="cls-2" d="M275.31,178.8l-25.45-1.24a223.51,223.51,0,0,0,2.65-26.31l25.59,1.24A223.66,223.66,0,0,1,275.31,178.8Z"/><polygon class="cls-13" points="308.62 170.67 283.23 172.61 283.79 198.31 309.19 197.05 308.62 170.67"/><path class="cls-4" d="M307.81,196.05l-25.58.71a220.77,220.77,0,0,0,.64-26.32l25.72-.73A221.17,221.17,0,0,1,307.81,196.05Z"/><polygon class="cls-13" points="234.48 217.56 187.68 215.78 183.47 257.41 230.17 260.29 234.48 217.56"/><path class="cls-2" d="M227.84,258.41,181,254.6a319.83,319.83,0,0,0,6.5-42.4L234.62,216A317.45,317.45,0,0,1,227.84,258.41Z"/><g class="cls-15"><path class="cls-12" d="M186.31,159.27h0a2.49,2.49,0,0,1-2.5-2.64h0A2.84,2.84,0,0,1,186.6,154h0a2.48,2.48,0,0,1,2.49,2.64h0A2.83,2.83,0,0,1,186.31,159.27Z"/><path class="cls-16" d="M227.66,159.27H195.19a2.48,2.48,0,0,1-2.49-2.64h0a2.82,2.82,0,0,1,2.78-2.64H228a2.49,2.49,0,0,1,2.5,2.64h0A2.84,2.84,0,0,1,227.66,159.27Z"/><path class="cls-12" d="M185.68,170.78h0a2.48,2.48,0,0,1-2.5-2.64h0A2.83,2.83,0,0,1,186,165.5h0a2.48,2.48,0,0,1,2.49,2.64h0A2.83,2.83,0,0,1,185.68,170.78Z"/><path class="cls-16" d="M232.78,170.78H194.56a2.49,2.49,0,0,1-2.5-2.64h0a2.84,2.84,0,0,1,2.79-2.64h38.22a2.49,2.49,0,0,1,2.5,2.64h0A2.84,2.84,0,0,1,232.78,170.78Z"/><path class="cls-12" d="M185,182.28h0a2.47,2.47,0,0,1-2.49-2.63h0a2.82,2.82,0,0,1,2.78-2.64h0a2.48,2.48,0,0,1,2.5,2.64h0A2.83,2.83,0,0,1,185,182.28Z"/><path class="cls-16" d="M212.53,182.28H193.92a2.47,2.47,0,0,1-2.49-2.63h0a2.82,2.82,0,0,1,2.78-2.64h18.61a2.47,2.47,0,0,1,2.49,2.64h0A2.82,2.82,0,0,1,212.53,182.28Z"/><path class="cls-16" d="M229.76,193.79H211.15a2.48,2.48,0,0,1-2.49-2.64h0a2.83,2.83,0,0,1,2.78-2.64h18.61a2.48,2.48,0,0,1,2.49,2.64h0A2.83,2.83,0,0,1,229.76,193.79Z"/><path class="cls-12" d="M184.41,193.79h0a2.48,2.48,0,0,1-2.49-2.64h0a2.83,2.83,0,0,1,2.78-2.64h0a2.48,2.48,0,0,1,2.49,2.64h0A2.83,2.83,0,0,1,184.41,193.79Z"/><path class="cls-16" d="M201.88,193.79h-8.59a2.48,2.48,0,0,1-2.49-2.64h0a2.83,2.83,0,0,1,2.78-2.64h8.59a2.48,2.48,0,0,1,2.5,2.64h0A2.83,2.83,0,0,1,201.88,193.79Z"/></g><polygon class="cls-4" points="265.14 228.03 252.55 228.03 250.82 259.54 263.41 259.54 265.14 228.03"/><polygon class="cls-4" points="284.25 234.53 271.65 234.53 270.28 259.54 282.87 259.54 284.25 234.53"/><polygon class="cls-4" points="304.62 217.75 292.03 217.75 289.74 259.54 302.33 259.54 304.62 217.75"/><path class="cls-2" d="M255.36,245.81c-1.25,0-2.51,0-3.78-.1a21.41,21.41,0,0,1-7.62-1.54.82.82,0,0,1-.41-1.08.81.81,0,0,1,1.08-.4,20,20,0,0,0,7,1.4c15.11.78,28.34-3.16,41.66-12.38a46.62,46.62,0,0,0,10.83-10.5.81.81,0,1,1,1.33.92A47,47,0,0,1,294.24,233C281.74,241.71,269.29,245.81,255.36,245.81Z"/><path class="cls-2" d="M307.36,227.43a.81.81,0,0,1-.75-1.12,14.31,14.31,0,0,0,.7-8.75,54.51,54.51,0,0,1-10.06,5.34.81.81,0,1,1-.61-1.5,53.09,53.09,0,0,0,10.67-5.81.82.82,0,0,1,1.23.41,15.79,15.79,0,0,1-.43,10.93A.81.81,0,0,1,307.36,227.43Z"/><path class="cls-4" d="M373.67,196.37H326.83a2.81,2.81,0,0,1-2.83-3l2.18-39.6a3.15,3.15,0,0,1,3.1-2.94h46.85a2.81,2.81,0,0,1,2.82,3l-2.18,39.6A3.15,3.15,0,0,1,373.67,196.37Zm-44.39-44.72a2.32,2.32,0,0,0-2.29,2.18l-2.18,39.6a2,2,0,0,0,2,2.13h46.84a2.32,2.32,0,0,0,2.29-2.18l2.18-39.6a2,2,0,0,0-2-2.13Z"/><path class="cls-4" d="M378.1,162.2h-52a.41.41,0,0,1,0-.81h52a.41.41,0,1,1,0,.81Z"/><path class="cls-4" d="M336.54,196.37h0a.41.41,0,0,1-.38-.43L338,161.77a.4.4,0,0,1,.43-.38.41.41,0,0,1,.38.43L336.94,196A.41.41,0,0,1,336.54,196.37Z"/><path class="cls-4" d="M372.15,166.26H343.94a.41.41,0,0,1,0-.81h28.21a.41.41,0,1,1,0,.81Z"/><path class="cls-4" d="M367.9,171.24H343.67a.41.41,0,1,1,0-.81H367.9a.41.41,0,1,1,0,.81Z"/><path class="cls-4" d="M357.49,176.38h-14.1a.41.41,0,1,1,0-.81h14.1a.41.41,0,1,1,0,.81Z"/><path class="cls-4" d="M360.05,186.42H342.84a.41.41,0,1,1,0-.81h17.21a.41.41,0,1,1,0,.81Z"/><path class="cls-4" d="M356.66,191.56H342.55a.41.41,0,0,1,0-.81h14.11a.41.41,0,0,1,0,.81Z"/><path class="cls-4" d="M364.91,191.56H360.4a.41.41,0,1,1,0-.81h4.51a.41.41,0,1,1,0,.81Z"/><path class="cls-4" d="M369.53,181.37H343.11a.41.41,0,0,1,0-.82h26.42a.41.41,0,0,1,0,.82Z"/><path class="cls-2" d="M344.9,254c-6.12,0-11.13-1.81-14.24-5.17-3.33-3.59-4.71-9.24-3.79-15.5a20.53,20.53,0,0,1,3.72-9.55,20.74,20.74,0,0,1,8.23-6.18,28.66,28.66,0,0,1,24.23.33c3.29,1.65,5.35,3.74,6.13,6.21a.81.81,0,0,1-1.55.49c-.64-2-2.43-3.8-5.31-5.25a27,27,0,0,0-22.84-.29,17.12,17.12,0,0,0-11,14.48c-.85,5.77.38,10.93,3.37,14.15,4.15,4.49,11,4.81,14.76,4.61,6.94-.39,12.9-2.81,16.8-6.82,4.56-4.7,5.84-11.72,3-16.34a5.12,5.12,0,0,0-3.51-2.6.81.81,0,0,1,.16-1.61,6.5,6.5,0,0,1,4.73,3.35c3.24,5.24,1.87,13.11-3.19,18.33-4.19,4.31-10.53,6.9-17.88,7.31C346.09,254,345.49,254,344.9,254Z"/><path class="cls-17" d="M137.32,169.33l-2.89,5-2.82,5.13c-1.86,3.43-3.64,6.89-5.26,10.36-.81,1.75-1.58,3.48-2.28,5.22l-.13.32,0,.07a.8.8,0,0,0-.09.14,2.64,2.64,0,0,0-.14.29,2.09,2.09,0,0,0,.12,1.12,11.13,11.13,0,0,0,2.41,3.65,43,43,0,0,0,3.91,3.7l-2.35,5a24.5,24.5,0,0,1-3.23-1.14,26.6,26.6,0,0,1-3-1.56,17.44,17.44,0,0,1-5.64-5.23,11.66,11.66,0,0,1-1.76-4.56,10.32,10.32,0,0,1,0-2.72,8.21,8.21,0,0,1,.23-1.33l.16-.65.12-.4c.65-2,1.31-4.07,2.09-6,1.52-3.92,3.24-7.72,5.1-11.41.94-1.84,1.9-3.67,2.92-5.47s2-3.56,3.2-5.38Z"/><path class="cls-17" d="M127.6,203.8l5.25-1.37.3,8.48s-4.11.61-6.62-1.9Z"/><polygon class="cls-17" points="140.3 201 139.11 208.45 133.15 210.91 132.85 202.43 140.3 201"/><path class="cls-12" d="M162,129.36c.12.58.52,1,.9.91s.6-.61.48-1.19-.52-1-.9-.91S161.92,128.78,162,129.36Z"/><path class="cls-18" d="M162.5,130.36a21.21,21.21,0,0,0,3.78,4.4,3.38,3.38,0,0,1-2.66,1.08Z"/><path class="cls-12" d="M159.25,126.57a.34.34,0,0,1-.23-.1.34.34,0,0,1,0-.49,3.46,3.46,0,0,1,3-1.15.34.34,0,0,1,.28.4.35.35,0,0,1-.4.29h0a2.76,2.76,0,0,0-2.33.93A.34.34,0,0,1,159.25,126.57Z"/><path class="cls-17" d="M145.49,137.52c1.06,5.38,2.11,15.23-1.65,18.81,0,0,1.47,5.45,11.45,5.45,11,0,5.25-5.45,5.25-5.45-6-1.43-5.84-5.87-4.79-10.05Z"/><path class="cls-12" d="M141.67,157.33c-.8-1.49-1.69-3.2.14-3.74,2-.59,14.94-1.68,18.74-.57-1.17,2.07.8,4.62.8,4.62Z"/><path class="cls-4" d="M109.14,407.88a2.38,2.38,0,0,0,1.83-.1.71.71,0,0,0,.17-.81.81.81,0,0,0-.45-.51c-1-.47-3.27.46-3.37.5a.16.16,0,0,0-.11.15.18.18,0,0,0,.1.16A9.17,9.17,0,0,0,109.14,407.88Zm1.19-1.17a1.05,1.05,0,0,1,.21.06.48.48,0,0,1,.26.3c.1.32,0,.41-.06.45-.39.33-1.86,0-2.89-.39A5.67,5.67,0,0,1,110.33,406.71Z"/><path class="cls-4" d="M107.35,407.29h.08c.83-.24,2.61-1.5,2.63-2.33a.56.56,0,0,0-.44-.57.94.94,0,0,0-.77.06c-1,.51-1.61,2.54-1.63,2.63a.18.18,0,0,0,0,.17Zm2.08-2.6.07,0c.22.08.22.18.22.23,0,.49-1.19,1.48-2,1.88a4.27,4.27,0,0,1,1.34-2.07A.62.62,0,0,1,109.43,404.69Z"/><path class="cls-4" d="M163.38,409.11c.94,0,1.85-.13,2.16-.55a.67.67,0,0,0,0-.76.87.87,0,0,0-.55-.41c-1.22-.33-3.79,1.13-3.9,1.2a.16.16,0,0,0-.08.18.17.17,0,0,0,.13.14A13.43,13.43,0,0,0,163.38,409.11Zm1.16-1.42a1.22,1.22,0,0,1,.34,0,.51.51,0,0,1,.34.24c.12.22.08.33,0,.39-.34.47-2.2.48-3.56.29A7.82,7.82,0,0,1,164.54,407.69Z"/><path class="cls-4" d="M161.16,408.91h.07c.89-.4,2.64-2,2.51-2.82,0-.2-.17-.44-.65-.49a1.33,1.33,0,0,0-1,.3c-.93.77-1.13,2.75-1.14,2.83a.21.21,0,0,0,.08.16A.17.17,0,0,0,161.16,408.91Zm1.79-3h.1c.32,0,.34.15.34.19.08.5-1.11,1.75-2,2.29a4,4,0,0,1,1-2.26A.92.92,0,0,1,163,405.93Z"/><polygon class="cls-17" points="153.08 408.74 160.43 408.74 161.16 391.72 153.81 391.72 153.08 408.74"/><polygon class="cls-17" points="99.16 405.34 106.34 406.89 113.55 391.05 106.37 389.49 99.16 405.34"/><path class="cls-12" d="M107,406.17,99,404.42a.64.64,0,0,0-.71.36l-2.8,6.08a1.07,1.07,0,0,0,.77,1.5c2.83.56,4.23.69,7.78,1.46,2.18.47,7.11,1.67,10.12,2.33s4-2.25,2.88-2.78c-5.27-2.41-7.47-4.53-8.9-6.51A1.8,1.8,0,0,0,107,406.17Z"/><path class="cls-12" d="M160.38,407.89h-8a.62.62,0,0,0-.62.5l-1.45,6.53a1.06,1.06,0,0,0,1.05,1.3c2.9,0,7.08-.21,10.72-.21,4.25,0,7.92.23,12.91.23,3,0,3.86-3.05,2.59-3.33-5.74-1.25-10.44-1.39-15.4-4.45A3.44,3.44,0,0,0,160.38,407.89Z"/><path class="cls-4" d="M130.68,158c-6.88,1.58-12.56,19.16-12.56,19.16L132,187.69a30.24,30.24,0,0,0,7.33-13.58C141.65,164.9,137.72,156.38,130.68,158Z"/><path class="cls-19" d="M130.68,158c-6.88,1.58-12.56,19.16-12.56,19.16L132,187.69a30.24,30.24,0,0,0,7.33-13.58C141.65,164.9,137.72,156.38,130.68,158Z"/><path class="cls-20" d="M136.58,170.92c-3.74,3.7-5,10.44-5.25,16.3l.61.47a30.2,30.2,0,0,0,7.34-13.58c.14-.55.26-1.1.36-1.64Z"/><path class="cls-4" d="M171.84,158.37s7.82,8.83.43,63.5H133c-.27-6,3.52-35.46-2.3-63.88a102.86,102.86,0,0,1,13.16-1.66,145.27,145.27,0,0,1,16.7,0A73.5,73.5,0,0,1,171.84,158.37Z"/><path class="cls-19" d="M171.84,158.37s7.82,8.83.43,63.5H133c-.27-6,3.52-35.46-2.3-63.88a102.86,102.86,0,0,1,13.16-1.66,145.27,145.27,0,0,1,16.7,0A73.5,73.5,0,0,1,171.84,158.37Z"/><path class="cls-20" d="M175.27,175.08l-.15-.13-8.93,2.14c-.51,6,5.7,13.26,8.9,16.56A171.45,171.45,0,0,0,175.27,175.08Z"/><polygon class="cls-20" points="161.16 391.73 160.78 400.5 153.43 400.5 153.81 391.73 161.16 391.73"/><polygon class="cls-20" points="106.36 389.49 113.55 391.05 109.83 399.22 102.64 397.66 106.36 389.49"/><path class="cls-17" d="M142.42,132.06c1.88,7.05,2.63,11.26,7,14.19,6.53,4.41,14.67-.65,14.93-8.11.23-6.72-2.9-17.11-10.46-18.53A9.94,9.94,0,0,0,142.42,132.06Z"/><path class="cls-12" d="M145.65,143.55c3,1.71,13.91-4,11.67-12.7,0,0,4.16-5,3.69-10.52s-4.26-7.62-8.29-6.43c-3.55,1-3.45,3-3.45,3s-16.79,2-13.2,8.81C129.23,133.14,141.91,141.41,145.65,143.55Z"/><path class="cls-12" d="M136.54,126.25s-2-3.46-4.92-1.52C133,124.75,135.24,125,136.54,126.25Z"/><path class="cls-12" d="M160.47,124s3.66-8.26-2-10.92A14.12,14.12,0,0,1,160.47,124Z"/><path class="cls-17" d="M154.4,132.36a8.21,8.21,0,0,0,3,4.38c1.91,1.42,3.34,0,3.21-2.14-.13-1.95-1.27-5-3.38-5.61S153.85,130.24,154.4,132.36Z"/><path class="cls-12" d="M158.34,221.87S150,278,145.42,299c-5,23-31.89,99.24-31.89,99.24l-13.15-2.85s18.8-62.1,23-94.3c3.23-24.73,9.6-79.26,9.6-79.26Z"/><path class="cls-4" d="M116.68,393.89c.06,0-2.45,4.76-2.45,4.76l-14.79-3.21,1.24-4.44Z"/><path class="cls-21" d="M153.07,241.87c-9.64,1.89-8.62,37.84-7.46,56.33,2.78-13.07,6.85-38.22,9.63-56.07A3.29,3.29,0,0,0,153.07,241.87Z"/><path class="cls-12" d="M172.27,221.87s1,54.93.22,77.33c-.83,23.3-9,99.6-9,99.6H151.07s-.45-74.94-1-97.82c-.6-25-3.61-79.11-3.61-79.11Z"/><polygon class="cls-13" points="241.36 183.15 216.01 183.15 214.59 208.93 239.91 209.61 241.36 183.15"/><path class="cls-4" d="M228,199.74l-25.39-3.14a219,219,0,0,0,4.57-25.93l25.54,3.14A219.22,219.22,0,0,1,228,199.74Z"/><path class="cls-4" d="M165.91,393.84c.06,0-.7,5.17-.7,5.17H150.07l-.41-4.61Z"/><path class="cls-17" d="M175.46,165.07c1.13,1.76,2.42,3.74,3.71,5.56s2.62,3.68,4,5.45a74.64,74.64,0,0,0,8.76,9.77,30.73,30.73,0,0,0,2.36,2l.6.45a2.32,2.32,0,0,0-.35-.12c-.26,0-.39,0-.32,0a3.26,3.26,0,0,0,1.65-.38,18.66,18.66,0,0,0,2.53-1.31A87.82,87.82,0,0,0,209,178.33l4.29,3.46a50.67,50.67,0,0,1-9.62,11.73,22.74,22.74,0,0,1-3.43,2.53,13.47,13.47,0,0,1-5.05,1.88,8.92,8.92,0,0,1-3.82-.33,8.67,8.67,0,0,1-1.95-.89l-.86-.55c-1.15-.74-2.24-1.53-3.27-2.34A72.37,72.37,0,0,1,174.47,183c-1.57-1.94-3.09-3.9-4.5-5.94s-2.76-4-4.08-6.32Z"/><path class="cls-4" d="M161,169.48c-2.35,9.85,15.47,19.5,15.47,19.5l11.58-13.56a95.87,95.87,0,0,0-11.83-14.28C168.16,153.37,162.82,162,161,169.48Z"/><path class="cls-19" d="M161,169.48c-2.35,9.85,15.47,19.5,15.47,19.5l11.58-13.56a95.87,95.87,0,0,0-11.83-14.28C168.16,153.37,162.82,162,161,169.48Z"/><path class="cls-17" d="M207.78,180.38l2.74-8.78,7.19,3.59s-1.05,6.4-6.29,7.51Z"/><polygon class="cls-17" points="213.4 169.17 219.88 170.96 217.71 175.19 210.51 171.6 213.4 169.17"/></g></g></g></svg>