<?xml version="1.0" encoding="utf-8"?>
<!-- Generator: Adobe Illustrator 22.0.1, SVG Export Plug-In . SVG Version: 6.00 Build 0)  -->
<svg version="1.1" id="Layer_1" xmlns="http://www.w3.org/2000/svg" xmlns:xlink="http://www.w3.org/1999/xlink" x="0px" y="0px"
	 viewBox="0 0 1989.8 298.5" style="enable-background:new 0 0 1989.8 298.5;" xml:space="preserve">
<style type="text/css">
	.st0{fill:#EB4132;}
	.st1{fill:#377DFF;}
	.st2{fill:#FFFFFF;}
</style>
<title>Asset 2</title>
<path class="st0" d="M560.1,163.1c0,2.4-1.1,4.7-2.9,6.2c-1.9,1.7-4.3,2.6-6.8,2.6c-3.6,0-6.9-2.2-8.3-5.6l-9.6-21.4h-56.1
	l-9.6,21.4c-0.7,1.7-1.9,3.2-3.5,4.2c-1.5,0.9-3.2,1.4-4.9,1.4c-2.5,0-4.8-0.9-6.7-2.6c-1.9-1.5-3-3.8-3-6.2c0-1.4,0.4-2.8,1-4.1
	l44-94.5c0.9-2,2.3-3.7,4.3-4.9c3.9-2.2,8.7-2.2,12.6,0c2,1.1,3.5,2.8,4.4,4.9l44.1,94.5C559.7,160.2,560.1,161.6,560.1,163.1z
	 M483.5,129h42.1l-21-47.3L483.5,129z"/>
<path class="st0" d="M593.8,165.6c-8.1-4.7-14.6-11.7-18.7-20.1c-4.4-8.7-6.5-18.9-6.5-30.6c0-11.7,2.2-21.9,6.5-30.5
	c4.1-8.4,10.6-15.4,18.7-20c8.1-4.7,17.6-7,28.4-7c6.7-0.1,13.4,1,19.8,3.1c6,2,11.5,5,16.4,9c1.2,0.9,2.2,2,2.9,3.3
	c0.6,1.4,0.8,2.8,0.8,4.3c0.1,2.1-0.6,4.2-1.9,5.9c-1.1,1.5-2.8,2.4-4.6,2.4c-2.4-0.1-4.6-0.8-6.5-2.2c-3.9-3-8.2-5.4-12.7-7.1
	c-4.2-1.4-8.6-2.1-13.1-2c-11,0-19.4,3.5-25.1,10.4c-5.7,6.9-8.5,17.1-8.6,30.5c0,13.5,2.8,23.7,8.5,30.6
	c5.7,6.9,14.1,10.4,25.1,10.4c4.3,0,8.6-0.7,12.7-2.1c4.7-1.8,9.1-4.1,13.1-7c1-0.6,2.1-1.2,3.2-1.6c1.1-0.4,2.2-0.6,3.3-0.6
	c1.8,0,3.5,0.9,4.6,2.4c1.3,1.7,2,3.8,1.9,5.9c0,1.4-0.2,2.9-0.8,4.2c-0.7,1.4-1.6,2.5-2.9,3.4c-4.9,4-10.4,7-16.4,9
	c-6.4,2.1-13,3.1-19.8,3.1C611.4,172.6,601.9,170.3,593.8,165.6z"/>
<path class="st0" d="M707.7,169.2c-1.9-2-2.9-4.7-2.8-7.4v-86h-29c-6.4,0-9.5-2.8-9.5-8.4s3.2-8.4,9.5-8.5h78.5
	c6.4,0,9.6,2.8,9.6,8.5c0,5.6-3.2,8.4-9.6,8.4h-29v86c0.3,5.3-3.7,9.9-9,10.2c-0.4,0-0.8,0-1.2,0
	C712.4,172.1,709.7,171.1,707.7,169.2z"/>
<path class="st0" d="M778.9,169.3c-1.9-2-2.9-4.7-2.8-7.5V68.3c-0.3-5.3,3.6-9.8,8.9-10.2c0.4,0,0.8,0,1.3,0
	c2.8-0.1,5.5,0.9,7.6,2.8c1.9,2,2.9,4.7,2.8,7.4v93.5c0.1,2.8-0.9,5.5-2.8,7.5c-2,2-4.7,3-7.6,2.9
	C783.5,172.3,780.8,171.2,778.9,169.3z"/>
<path class="st0" d="M911,57.9c2.6,0,5.2,0.9,7.2,2.5c2,1.5,3.2,3.9,3.2,6.4c-0.1,1.4-0.4,2.7-1,4l-44.1,94.9
	c-0.9,2-2.5,3.6-4.4,4.7c-3.9,2.2-8.7,2.2-12.6,0c-1.9-1.1-3.5-2.7-4.4-4.7l-43.9-95c-0.6-1.2-0.9-2.5-1-3.8c0-2.6,1.2-5,3.3-6.5
	c2.1-1.7,4.7-2.6,7.4-2.5c1.8,0,3.5,0.5,5,1.3c1.6,1,2.8,2.4,3.6,4.1l36.6,81.4l36.6-81.4C903.9,59.9,907.3,57.8,911,57.9z"/>
<path class="st0" d="M937.2,168.6c-1.8-1.9-2.8-4.5-2.6-7.2V68.6c-0.2-2.7,0.8-5.3,2.6-7.2c2-1.8,4.6-2.7,7.3-2.5h57.5
	c3.1,0,5.5,0.7,7.2,2.1c1.7,1.5,2.7,3.6,2.5,5.9c0.1,2.3-0.8,4.6-2.5,6.1c-1.7,1.4-4.1,2.2-7.2,2.2h-47.3V106h44.1
	c3.1,0,5.5,0.7,7.2,2.1c1.7,1.5,2.7,3.7,2.5,6c0.1,2.3-0.8,4.4-2.5,5.9c-1.7,1.4-4.1,2.1-7.2,2.1h-44.1V155h47.3
	c3.1,0,5.5,0.7,7.2,2.1c1.7,1.5,2.7,3.8,2.5,6.1c0.1,2.3-0.8,4.4-2.5,5.9c-1.7,1.4-4.1,2.1-7.2,2.1h-57.5
	C941.8,171.4,939.2,170.5,937.2,168.6z"/>
<path class="st1" d="M1216,59.5c1.6-1.1,3.6-1.6,5.5-1.6c2.4,0,4.8,0.8,6.6,2.4c1.9,1.6,2.9,3.9,2.8,6.4c-0.1,1.4-0.4,2.8-0.8,4.1
	l-34.3,94.8c-0.8,2.1-2.3,3.8-4.2,4.9c-1.9,1.2-4.2,1.8-6.4,1.8c-2.3,0-4.6-0.6-6.5-1.8c-1.9-1.1-3.4-2.8-4.2-4.9l-26.4-75l-26.9,75
	c-0.8,2.1-2.3,3.8-4.2,4.9c-4,2.3-8.9,2.3-12.9,0c-1.9-1.1-3.4-2.9-4.1-4.9l-34.3-94.8c-0.5-1.3-0.7-2.7-0.8-4.1
	c-0.1-2.5,1-4.8,2.9-6.4c3.6-2.9,8.7-3.2,12.7-0.8c1.7,1.1,3,2.8,3.7,4.8l27.1,77.9l27.9-77.4c0.7-2,1.9-3.8,3.7-5
	c1.6-1.2,3.6-1.8,5.6-1.8c2,0,4,0.6,5.7,1.8c1.8,1.3,3.1,3.1,3.8,5.2l27.1,78.2l27.6-78.9C1213,62.4,1214.3,60.7,1216,59.5z"/>
<path class="st1" d="M1267.1,165.6c-8-4.7-14.5-11.7-18.6-20.1c-4.4-8.7-6.6-18.9-6.6-30.5s2.2-21.8,6.4-30.5
	c4-8.4,10.5-15.3,18.6-20c8.1-4.7,17.6-7,28.5-7c10.9,0,20.4,2.3,28.4,7c8,4.7,14.4,11.6,18.5,20c4.3,8.7,6.5,18.8,6.5,30.5
	s-2.2,21.9-6.5,30.6c-4.1,8.4-10.5,15.4-18.6,20.1c-8,4.7-17.4,7-28.3,7C1284.6,172.6,1275.1,170.3,1267.1,165.6z M1319.7,145.5
	c5.8-7.1,8.7-17.3,8.7-30.6c0-13.3-2.9-23.4-8.7-30.5c-5.8-7.1-13.8-10.6-24.1-10.6c-10.4,0-18.5,3.5-24.3,10.6
	c-5.8,7.1-8.7,17.2-8.7,30.5c0,13.3,2.9,23.5,8.7,30.6c5.8,7.1,13.9,10.7,24.3,10.7C1305.8,156.2,1313.9,152.7,1319.7,145.5
	L1319.7,145.5z"/>
<path class="st1" d="M1461.4,163.9c0,2.4-1.1,4.6-3,6c-2,1.6-4.4,2.4-6.9,2.4c-3.5,0-6.9-1.8-8.8-4.8l-21.2-32.2
	c-1.6-2.9-4-5.4-6.8-7.2c-2.9-1.5-6.1-2.2-9.3-2.1h-15.6v35.7c0.1,2.8-0.8,5.5-2.7,7.6c-1.9,1.9-4.6,2.9-7.3,2.8
	c-2.7,0.1-5.4-0.9-7.4-2.8c-1.9-2-2.9-4.8-2.8-7.6V68.6c-0.2-2.7,0.8-5.3,2.6-7.2c2-1.8,4.6-2.7,7.3-2.5h39.8
	c12.7,0,22.4,2.8,29.1,8.5c6.6,5.7,10,13.9,10,24.6c0,8.7-2.5,15.8-7.4,21.4c-4.9,5.6-11.9,9.2-20.9,10.8c3,0.7,5.8,2.1,8.1,4
	c2.7,2.3,5,5,6.8,8l14.5,22.1C1460.6,160,1461.3,161.9,1461.4,163.9z M1433.5,106c3.6-2.9,5.4-7.4,5.4-13.5c0-6.1-1.8-10.6-5.4-13.5
	c-3.6-2.8-9.3-4.2-17-4.2h-26.8v35.5h26.8C1424.2,110.3,1429.9,108.9,1433.5,106z"/>
<path class="st1" d="M1570.7,162.6c0,2.4-1,4.8-2.8,6.4c-1.7,1.8-4.1,2.8-6.6,2.8c-2.8-0.1-5.5-1.3-7.3-3.4l-53-49.7v43
	c0.1,2.8-0.9,5.5-2.8,7.5c-2,2-4.8,3-7.6,2.9c-2.8,0.1-5.4-0.9-7.4-2.9c-1.9-2-2.9-4.7-2.8-7.5V68.3c-0.4-5.3,3.6-9.8,8.9-10.2
	c0.4,0,0.9,0,1.3,0c2.8-0.1,5.5,0.9,7.6,2.8c1.9,2,2.9,4.7,2.8,7.4v40.9l51.3-48.1c1.7-1.8,4.1-2.8,6.5-2.9c5,0.1,9.1,4.2,9.2,9.2
	c-0.1,2.6-1.2,5-3.2,6.7l-42.8,39.2l45.6,42.4C1569.5,157.5,1570.6,160,1570.7,162.6z"/>
<path class="st1" d="M1588.1,168.6c-1.8-1.9-2.8-4.5-2.6-7.2V68.6c-0.2-2.7,0.8-5.3,2.6-7.2c2-1.8,4.6-2.7,7.3-2.5h31.5
	c18.4,0,32.6,4.9,42.8,14.7c10.1,9.8,15.2,23.6,15.2,41.4c0,17.8-5.1,31.7-15.2,41.5c-10.1,9.8-24.4,14.7-42.8,14.7h-31.5
	C1592.7,171.4,1590.1,170.4,1588.1,168.6z M1664.3,115c0-26.2-12.9-39.3-38.7-39.3H1606v78.9h19.6
	C1651.4,154.5,1664.3,141.3,1664.3,115z"/>
<path class="st1" d="M1708.2,168.6c-1.8-1.9-2.8-4.5-2.6-7.2V68.6c-0.2-2.7,0.8-5.3,2.6-7.2c2-1.8,4.6-2.7,7.3-2.5h57.5
	c3.1,0,5.5,0.7,7.2,2.1c1.7,1.5,2.7,3.6,2.6,5.9c0.1,2.3-0.8,4.6-2.6,6.1c-1.7,1.4-4.1,2.2-7.2,2.2h-47.3V106h44.1
	c3.1,0,5.5,0.7,7.2,2.1c1.7,1.5,2.7,3.7,2.6,6c0.1,2.3-0.8,4.4-2.6,5.9c-1.7,1.4-4.1,2.1-7.2,2.1h-44.1V155h47.3
	c3.1,0,5.5,0.7,7.2,2.1c1.7,1.5,2.7,3.8,2.6,6.1c0.1,2.3-0.8,4.4-2.6,5.9c-1.7,1.4-4.1,2.1-7.2,2.1h-57.5
	C1712.8,171.4,1710.2,170.5,1708.2,168.6z"/>
<path class="st1" d="M1813.5,169.4c-7.3-2.2-13.2-5.1-17.8-8.8c-4.1-3.3-4.9-9.3-1.7-13.5c1.1-1.5,2.8-2.4,4.7-2.5
	c2.3,0.1,4.6,0.9,6.5,2.2c4.3,3.2,9.2,5.6,14.3,7.2c5.4,1.5,11,2.3,16.6,2.2c7.8,0,13.7-1.4,17.8-4.1c4.1-2.5,6.4-7.1,6.2-11.9
	c0-4-1.9-7.1-5.8-9.3s-10.3-4.3-19.4-6.3c-7.8-1.5-15.5-3.9-22.8-7c-5.8-2.7-10.2-6.1-13.2-10.2c-3-4.1-4.5-9.4-4.5-15.8
	c-0.1-6.4,1.9-12.6,5.6-17.7c4-5.4,9.3-9.6,15.5-12.2c7.1-3,14.7-4.5,22.4-4.4c15.2,0,27.6,4,37.1,12.1c1.2,0.9,2.2,2.1,2.9,3.4
	c1.5,3.3,1.1,7.1-1.1,10c-1.1,1.5-2.8,2.4-4.7,2.5c-1,0-2-0.2-2.9-0.5c-1.2-0.5-2.4-1.1-3.6-1.8c-3.9-2.9-8.1-5.3-12.7-7.1
	c-4.8-1.7-9.9-2.4-15.1-2.3c-7.2,0-12.9,1.5-17.1,4.4c-4.1,2.7-6.5,7.3-6.3,12.2c-0.1,4.1,2,7.9,5.6,10c3.7,2.3,10,4.5,19,6.5
	c7.9,1.6,15.6,4,23,7.1c5.9,2.6,10.4,5.9,13.5,10c3.1,4.1,4.7,9.1,4.7,15.1c0.1,6.3-1.8,12.4-5.5,17.4c-4,5.3-9.3,9.4-15.5,11.8
	c-7.3,2.9-15,4.4-22.9,4.2C1828.9,172.6,1821,171.6,1813.5,169.4z"/>
<path class="st1" d="M1989.8,162.6c0,2.4-1,4.8-2.8,6.4c-1.7,1.8-4.1,2.8-6.6,2.8c-2.8-0.1-5.5-1.3-7.3-3.4l-53-49.7v43
	c0.1,2.8-0.9,5.5-2.8,7.5c-2,2-4.8,3-7.6,2.9c-2.8,0.1-5.4-0.9-7.4-2.9c-1.9-2-2.9-4.7-2.8-7.5V68.3c-0.4-5.3,3.6-9.8,8.9-10.2
	c0.4,0,0.9,0,1.3,0c2.8-0.1,5.5,0.9,7.6,2.8c1.9,2,2.9,4.7,2.8,7.4v40.9l51.3-48.1c1.7-1.8,4.1-2.8,6.5-2.9c5,0.1,9.1,4.2,9.2,9.2
	c-0.1,2.6-1.2,5-3.2,6.7l-42.9,39.2l45.6,42.4C1988.6,157.5,1989.7,160,1989.8,162.6z"/>
<path class="st1" d="M102.6,219.4c1.1,5.8,2.2,11.6,3.2,17.4c2.4,12.7,4.8,25.8,7.2,38.8c0,0.2,0.1,0.4,0.2,0.6l0.4,0.1
	c0.3,0,0.8,0,1.4,0h3.8c1.6,0,42.1-0.9,62.8-0.9c21.2,0,61.1,0,70.8-0.1h2.1c0.4,0,0.9,0,1.3-0.1c0.2-0.1,0.2-0.1,0.2-0.1
	c0.1-0.1,0.1-0.1,0.1-0.2c0.1-0.4,0.2-0.8,0.3-1.1c1.4-8.3,3-16.7,4.6-24.8c0.7-3.9,1.5-7.8,2.2-11.7c0.9-4.8,1.8-9.6,2.7-14.6l0,0
	l0.6-3.3L102.6,219.4z M158.3,256.6c1.1,2.7,2.6,5.3,4.4,7.6l-4.9,3.4c-1-1.1-1.9-2.3-2.6-3.5c-1-1.5-1.8-3-2.4-4.6
	c-0.8-1.8-1.4-3.7-1.8-5.6c-0.9-4.1-0.9-8.3,0-12.4c0.4-1.9,1-3.8,1.8-5.6c0.7-1.6,1.5-3.2,2.4-4.6c0.8-1.2,1.7-2.4,2.6-3.5l4.9,3.4
	c-1.8,2.3-3.3,4.8-4.4,7.6C156.2,244.5,156.2,250.8,158.3,256.6z M196.8,261.7h-6.4L186,248l-0.9-3.7h-0.4l-0.9,3.7l-4.4,13.6h-6.4
	l-8.5-31.1h7.2l4.3,16.3l0.7,3.7h0.4l0.9-3.7l3.8-12.1h6.3l3.8,12.1l0.9,3.6h0.4l0.6-3.6l4-16.3h7.2L196.8,261.7z M218.4,253.9
	c-0.4,1.9-1,3.8-1.8,5.6c-0.7,1.6-1.5,3.2-2.4,4.6c-0.8,1.2-1.7,2.4-2.6,3.5l-4.9-3.4c1.8-2.3,3.3-4.8,4.4-7.6
	c2.1-5.8,2.1-12.1,0-17.8c-1.1-2.7-2.6-5.3-4.4-7.6l4.9-3.4c1,1.1,1.9,2.3,2.6,3.5c0.9,1.5,1.8,3,2.4,4.6c0.8,1.8,1.4,3.7,1.8,5.6
	C219.3,245.6,219.3,249.8,218.4,253.9L218.4,253.9z M102.6,219.4c1.1,5.8,2.2,11.6,3.2,17.4c2.4,12.7,4.8,25.8,7.2,38.8
	c0,0.2,0.1,0.4,0.2,0.6l0.4,0.1c0.3,0,0.8,0,1.4,0h3.8c1.6,0,42.1-0.9,62.8-0.9c21.2,0,61.1,0,70.8-0.1h2.1c0.4,0,0.9,0,1.3-0.1
	c0.2-0.1,0.2-0.1,0.2-0.1c0.1-0.1,0.1-0.1,0.1-0.2c0.1-0.4,0.2-0.8,0.3-1.1c1.4-8.3,3-16.7,4.6-24.8c0.7-3.9,1.5-7.8,2.2-11.7
	c0.9-4.8,1.8-9.6,2.7-14.6l0,0l0.6-3.3L102.6,219.4z M158.3,256.6c1.1,2.7,2.6,5.3,4.4,7.6l-4.9,3.4c-1-1.1-1.9-2.3-2.6-3.5
	c-1-1.5-1.8-3-2.4-4.6c-0.8-1.8-1.4-3.7-1.8-5.6c-0.9-4.1-0.9-8.3,0-12.4c0.4-1.9,1-3.8,1.8-5.6c0.7-1.6,1.5-3.2,2.4-4.6
	c0.8-1.2,1.7-2.4,2.6-3.5l4.9,3.4c-1.8,2.3-3.3,4.8-4.4,7.6C156.2,244.5,156.2,250.8,158.3,256.6z M196.8,261.7h-6.4L186,248
	l-0.9-3.7h-0.4l-0.9,3.7l-4.4,13.6h-6.4l-8.5-31.1h7.2l4.3,16.3l0.7,3.7h0.4l0.9-3.7l3.8-12.1h6.3l3.8,12.1l0.9,3.6h0.4l0.6-3.6
	l4-16.3h7.2L196.8,261.7z M218.4,253.9c-0.4,1.9-1,3.8-1.8,5.6c-0.7,1.6-1.5,3.2-2.4,4.6c-0.8,1.2-1.7,2.4-2.6,3.5l-4.9-3.4
	c1.8-2.3,3.3-4.8,4.4-7.6c2.1-5.8,2.1-12.1,0-17.8c-1.1-2.7-2.6-5.3-4.4-7.6l4.9-3.4c1,1.1,1.9,2.3,2.6,3.5c0.9,1.5,1.8,3,2.4,4.6
	c0.8,1.8,1.4,3.7,1.8,5.6C219.3,245.6,219.3,249.8,218.4,253.9L218.4,253.9z M102.6,219.4c1.1,5.8,2.2,11.6,3.2,17.4
	c2.4,12.7,4.8,25.8,7.2,38.8c0,0.2,0.1,0.4,0.2,0.6l0.4,0.1c0.3,0,0.8,0,1.4,0h3.8c1.6,0,42.1-0.9,62.8-0.9c21.2,0,61.1,0,70.8-0.1
	h2.1c0.4,0,0.9,0,1.3-0.1c0.2-0.1,0.2-0.1,0.2-0.1c0.1-0.1,0.1-0.1,0.1-0.2c0.1-0.4,0.2-0.8,0.3-1.1c1.4-8.3,3-16.7,4.6-24.8
	c0.7-3.9,1.5-7.8,2.2-11.7c0.9-4.8,1.8-9.6,2.7-14.6l0,0l0.6-3.3L102.6,219.4z M158.3,256.6c1.1,2.7,2.6,5.3,4.4,7.6l-4.9,3.4
	c-1-1.1-1.9-2.3-2.6-3.5c-1-1.5-1.8-3-2.4-4.6c-0.8-1.8-1.4-3.7-1.8-5.6c-0.9-4.1-0.9-8.3,0-12.4c0.4-1.9,1-3.8,1.8-5.6
	c0.7-1.6,1.5-3.2,2.4-4.6c0.8-1.2,1.7-2.4,2.6-3.5l4.9,3.4c-1.8,2.3-3.3,4.8-4.4,7.6C156.2,244.5,156.2,250.8,158.3,256.6z
	 M196.8,261.7h-6.4L186,248l-0.9-3.7h-0.4l-0.9,3.7l-4.4,13.6h-6.4l-8.5-31.1h7.2l4.3,16.3l0.7,3.7h0.4l0.9-3.7l3.8-12.1h6.3
	l3.8,12.1l0.9,3.6h0.4l0.6-3.6l4-16.3h7.2L196.8,261.7z M218.4,253.9c-0.4,1.9-1,3.8-1.8,5.6c-0.7,1.6-1.5,3.2-2.4,4.6
	c-0.8,1.2-1.7,2.4-2.6,3.5l-4.9-3.4c1.8-2.3,3.3-4.8,4.4-7.6c2.1-5.8,2.1-12.1,0-17.8c-1.1-2.7-2.6-5.3-4.4-7.6l4.9-3.4
	c1,1.1,1.9,2.3,2.6,3.5c0.9,1.5,1.8,3,2.4,4.6c0.8,1.8,1.4,3.7,1.8,5.6C219.3,245.6,219.3,249.8,218.4,253.9L218.4,253.9z
	 M102.6,219.4c1.1,5.8,2.2,11.6,3.2,17.4c2.4,12.7,4.8,25.8,7.2,38.8c0,0.2,0.1,0.4,0.2,0.6l0.4,0.1c0.3,0,0.8,0,1.4,0h3.8
	c1.6,0,42.1-0.9,62.8-0.9c21.2,0,61.1,0,70.8-0.1h2.1c0.4,0,0.9,0,1.3-0.1c0.2-0.1,0.2-0.1,0.2-0.1c0.1-0.1,0.1-0.1,0.1-0.2
	c0.1-0.4,0.2-0.8,0.3-1.1c1.4-8.3,3-16.7,4.6-24.8c0.7-3.9,1.5-7.8,2.2-11.7c0.9-4.8,1.8-9.6,2.7-14.6l0,0l0.6-3.3L102.6,219.4z
	 M158.3,256.6c1.1,2.7,2.6,5.3,4.4,7.6l-4.9,3.4c-1-1.1-1.9-2.3-2.6-3.5c-1-1.5-1.8-3-2.4-4.6c-0.8-1.8-1.4-3.7-1.8-5.6
	c-0.9-4.1-0.9-8.3,0-12.4c0.4-1.9,1-3.8,1.8-5.6c0.7-1.6,1.5-3.2,2.4-4.6c0.8-1.2,1.7-2.4,2.6-3.5l4.9,3.4c-1.8,2.3-3.3,4.8-4.4,7.6
	C156.2,244.5,156.2,250.8,158.3,256.6z M196.8,261.7h-6.4L186,248l-0.9-3.7h-0.4l-0.9,3.7l-4.4,13.6h-6.4l-8.5-31.1h7.2l4.3,16.3
	l0.7,3.7h0.4l0.9-3.7l3.8-12.1h6.3l3.8,12.1l0.9,3.6h0.4l0.6-3.6l4-16.3h7.2L196.8,261.7z M218.4,253.9c-0.4,1.9-1,3.8-1.8,5.6
	c-0.7,1.6-1.5,3.2-2.4,4.6c-0.8,1.2-1.7,2.4-2.6,3.5l-4.9-3.4c1.8-2.3,3.3-4.8,4.4-7.6c2.1-5.8,2.1-12.1,0-17.8
	c-1.1-2.7-2.6-5.3-4.4-7.6l4.9-3.4c1,1.1,1.9,2.3,2.6,3.5c0.9,1.5,1.8,3,2.4,4.6c0.8,1.8,1.4,3.7,1.8,5.6
	C219.3,245.6,219.3,249.8,218.4,253.9L218.4,253.9z M102.6,219.4c1.1,5.8,2.2,11.6,3.2,17.4c2.4,12.7,4.8,25.8,7.2,38.8
	c0,0.2,0.1,0.4,0.2,0.6l0.4,0.1c0.3,0,0.8,0,1.4,0h3.8c1.6,0,42.1-0.9,62.8-0.9c21.2,0,61.1,0,70.8-0.1h2.1c0.4,0,0.9,0,1.3-0.1
	c0.2-0.1,0.2-0.1,0.2-0.1c0.1-0.1,0.1-0.1,0.1-0.2c0.1-0.4,0.2-0.8,0.3-1.1c1.4-8.3,3-16.7,4.6-24.8c0.7-3.9,1.5-7.8,2.2-11.7
	c0.9-4.8,1.8-9.6,2.7-14.6l0,0l0.6-3.3L102.6,219.4z M158.3,256.6c1.1,2.7,2.6,5.3,4.4,7.6l-4.9,3.4c-1-1.1-1.9-2.3-2.6-3.5
	c-1-1.5-1.8-3-2.4-4.6c-0.8-1.8-1.4-3.7-1.8-5.6c-0.9-4.1-0.9-8.3,0-12.4c0.4-1.9,1-3.8,1.8-5.6c0.7-1.6,1.5-3.2,2.4-4.6
	c0.8-1.2,1.7-2.4,2.6-3.5l4.9,3.4c-1.8,2.3-3.3,4.8-4.4,7.6C156.2,244.5,156.2,250.8,158.3,256.6z M196.8,261.7h-6.4L186,248
	l-0.9-3.7h-0.4l-0.9,3.7l-4.4,13.6h-6.4l-8.5-31.1h7.2l4.3,16.3l0.7,3.7h0.4l0.9-3.7l3.8-12.1h6.3l3.8,12.1l0.9,3.6h0.4l0.6-3.6
	l4-16.3h7.2L196.8,261.7z M218.4,253.9c-0.4,1.9-1,3.8-1.8,5.6c-0.7,1.6-1.5,3.2-2.4,4.6c-0.8,1.2-1.7,2.4-2.6,3.5l-4.9-3.4
	c1.8-2.3,3.3-4.8,4.4-7.6c2.1-5.8,2.1-12.1,0-17.8c-1.1-2.7-2.6-5.3-4.4-7.6l4.9-3.4c1,1.1,1.9,2.3,2.6,3.5c0.9,1.5,1.8,3,2.4,4.6
	c0.8,1.8,1.4,3.7,1.8,5.6C219.3,245.6,219.3,249.8,218.4,253.9L218.4,253.9z M102.6,219.4c1.1,5.8,2.2,11.6,3.2,17.4
	c2.4,12.7,4.8,25.8,7.2,38.8c0,0.2,0.1,0.4,0.2,0.6l0.4,0.1c0.3,0,0.8,0,1.4,0h3.8c1.6,0,42.1-0.9,62.8-0.9c21.2,0,61.1,0,70.8-0.1
	h2.1c0.4,0,0.9,0,1.3-0.1c0.2-0.1,0.2-0.1,0.2-0.1c0.1-0.1,0.1-0.1,0.1-0.2c0.1-0.4,0.2-0.8,0.3-1.1c1.4-8.3,3-16.7,4.6-24.8
	c0.7-3.9,1.5-7.8,2.2-11.7c0.9-4.8,1.8-9.6,2.7-14.6l0,0l0.6-3.3L102.6,219.4z M158.3,256.6c1.1,2.7,2.6,5.3,4.4,7.6l-4.9,3.4
	c-1-1.1-1.9-2.3-2.6-3.5c-1-1.5-1.8-3-2.4-4.6c-0.8-1.8-1.4-3.7-1.8-5.6c-0.9-4.1-0.9-8.3,0-12.4c0.4-1.9,1-3.8,1.8-5.6
	c0.7-1.6,1.5-3.2,2.4-4.6c0.8-1.2,1.7-2.4,2.6-3.5l4.9,3.4c-1.8,2.3-3.3,4.8-4.4,7.6C156.2,244.5,156.2,250.8,158.3,256.6z
	 M196.8,261.7h-6.4L186,248l-0.9-3.7h-0.4l-0.9,3.7l-4.4,13.6h-6.4l-8.5-31.1h7.2l4.3,16.3l0.7,3.7h0.4l0.9-3.7l3.8-12.1h6.3
	l3.8,12.1l0.9,3.6h0.4l0.6-3.6l4-16.3h7.2L196.8,261.7z M218.4,253.9c-0.4,1.9-1,3.8-1.8,5.6c-0.7,1.6-1.5,3.2-2.4,4.6
	c-0.8,1.2-1.7,2.4-2.6,3.5l-4.9-3.4c1.8-2.3,3.3-4.8,4.4-7.6c2.1-5.8,2.1-12.1,0-17.8c-1.1-2.7-2.6-5.3-4.4-7.6l4.9-3.4
	c1,1.1,1.9,2.3,2.6,3.5c0.9,1.5,1.8,3,2.4,4.6c0.8,1.8,1.4,3.7,1.8,5.6C219.3,245.6,219.3,249.8,218.4,253.9L218.4,253.9z
	 M367.4,154.7l-24.8-21.1l-20.3-17.3L187.9,1.4c-2.3-1.9-5.6-1.9-7.9,0L2.1,154.7c-2.4,2.3-2.6,6.1-0.3,8.6c2.1,2.3,5.7,2.6,8.2,0.6
	l27.9-24v136.2c0.3,3.8,1.3,7.4,3.2,10.7c4.8,7,8.7,10,14.9,11.2c0.4,0.1,0.8,0.2,1.3,0.2l1.1,0.1c11.9,0.2,29,0.1,40.9,0.1h121.9
	h32.5c17.3,0,34.6,0,51.9,0c1.4,0,3,0,4.7-0.1c0.9,0,1.7-0.1,2.6-0.2c2.4-0.2,4.7-0.8,6.9-1.7c9.2-5,10.9-11.6,11.9-22.5
	c-0.1-44.1-0.1-88.2,0-132.3v-1.6l1.9,1.6l26.1,22.3c2.5,2.2,6.4,1.9,8.6-0.7C370.2,160.7,369.9,156.9,367.4,154.7L367.4,154.7z
	 M279.3,217.8c-1.9,10.3-3.8,20.6-5.8,30.8c-1.6,8.6-3.2,17.2-4.9,25.8c-0.1,0.5-0.5,2.9-0.9,4.4c-0.1,0.5-0.2,0.9-0.3,1.2l0,0l0,0
	c0,0.1-0.1,0.5-0.3,0.9c-0.2,0.5-0.4,1.1-0.6,1.6c-0.6,1.4-1.6,2.7-2.8,3.6c-1.1,0.8-2.4,1.2-3.7,1.2H107.3h-0.1
	c-0.6-0.1-1.2-0.3-1.8-0.6c-0.5-0.3-0.9-0.7-1.3-1.1c-0.6-0.7-1.2-1.6-1.5-2.5c-0.4-1-0.8-2.1-1-3.2l0,0l-2.8-14.3l0,0
	c-1.9-10.2-3.8-20.1-5.6-30.1c-0.9-4.7-1.7-9.4-2.4-14c-0.3-1.9-0.6-3.8-1-5.7c-0.2-1-0.3-2-0.3-2.9c0-0.7,0.1-1.3,0.2-1.9
	c0.3-1.3,1.2-2.4,2.4-3c0.5-0.3,1.1-0.5,1.6-0.6c1.2-0.2,2.3-0.3,3.5-0.3h7.6h19.6l0.2-0.2c10.8-16.3,29.1-26.1,48.7-26.1h22.6
	c19.6,0,37.9,9.8,48.7,26.1l0.2,0.3c8.4,0,17,0.1,26.4,0.2c1.1,0,2.1,0,3.2,0.2c1,0.1,1.9,0.4,2.8,0.8c1.3,0.6,2.2,1.7,2.5,3.1
	c0.2,0.6,0.2,1.3,0.2,1.9C279.8,214.8,279.6,216.3,279.3,217.8L279.3,217.8z M184.6,98.4c20.1,0,36.4,16.3,36.4,36.4
	s-16.3,36.4-36.4,36.4s-36.4-16.3-36.4-36.4c0,0,0,0,0,0C148.2,114.7,164.5,98.4,184.6,98.4z M105.8,236.9
	c2.4,12.7,4.8,25.8,7.2,38.8c0,0.2,0.1,0.4,0.2,0.6l0.4,0.1c0.3,0,0.8,0,1.4,0h3.8c1.6,0,42.1-0.9,62.8-0.9c21.2,0,61.1,0,70.8-0.1
	h2.1c0.4,0,0.9,0,1.3-0.1c0.2-0.1,0.2-0.1,0.2-0.1c0.1-0.1,0.1-0.1,0.1-0.2c0.1-0.4,0.2-0.8,0.3-1.1c1.4-8.3,3-16.7,4.6-24.8
	c0.7-3.9,1.5-7.8,2.2-11.7c0.9-4.8,1.8-9.6,2.7-14.6l0,0l0.6-3.3H102.6C103.7,225.2,104.8,231.1,105.8,236.9z M211,238.8
	c-1.1-2.7-2.6-5.3-4.4-7.6l4.9-3.4c1,1.1,1.9,2.3,2.6,3.5c0.9,1.5,1.8,3,2.4,4.6c0.8,1.8,1.4,3.7,1.8,5.6c0.9,4.1,0.9,8.3,0,12.4
	c-0.4,1.9-1,3.8-1.8,5.5c-0.7,1.6-1.5,3.2-2.4,4.6c-0.8,1.2-1.7,2.4-2.6,3.5l-4.9-3.4c1.8-2.3,3.3-4.8,4.4-7.6
	C213.1,250.8,213.1,244.5,211,238.8z M171.5,230.6l4.3,16.3l0.7,3.7h0.4l0.9-3.7l3.8-12.1h6.3l3.8,12.1l0.9,3.6h0.4l0.6-3.6l4-16.3
	h7.2l-8.2,31.1h-6.4L186,248l-0.9-3.7h-0.4l-0.9,3.7l-4.4,13.6h-6.4l-8.5-31.1L171.5,230.6z M150.9,241.5c0.4-1.9,1-3.8,1.8-5.6
	c0.7-1.6,1.5-3.2,2.4-4.6c0.8-1.2,1.7-2.4,2.6-3.5l4.9,3.4c-1.8,2.3-3.3,4.8-4.4,7.6c-2.1,5.8-2.1,12.1,0,17.8
	c1.1,2.7,2.6,5.3,4.4,7.6l-4.9,3.4c-1-1.1-1.9-2.3-2.6-3.5c-1-1.5-1.8-3-2.4-4.6c-0.8-1.8-1.4-3.7-1.8-5.6
	C150,249.8,150,245.6,150.9,241.5L150.9,241.5z M102.6,219.4c1.1,5.8,2.2,11.6,3.2,17.4c2.4,12.7,4.8,25.8,7.2,38.8
	c0,0.2,0.1,0.4,0.2,0.6l0.4,0.1c0.3,0,0.8,0,1.4,0h3.8c1.6,0,42.1-0.9,62.8-0.9c21.2,0,61.1,0,70.8-0.1h2.1c0.4,0,0.9,0,1.3-0.1
	c0.2-0.1,0.2-0.1,0.2-0.1c0.1-0.1,0.1-0.1,0.1-0.2c0.1-0.4,0.2-0.8,0.3-1.1c1.4-8.3,3-16.7,4.6-24.8c0.7-3.9,1.5-7.8,2.2-11.7
	c0.9-4.8,1.8-9.6,2.7-14.6l0,0l0.6-3.3L102.6,219.4z M158.3,256.6c1.1,2.7,2.6,5.3,4.4,7.6l-4.9,3.4c-1-1.1-1.9-2.3-2.6-3.5
	c-1-1.5-1.8-3-2.4-4.6c-0.8-1.8-1.4-3.7-1.8-5.6c-0.9-4.1-0.9-8.3,0-12.4c0.4-1.9,1-3.8,1.8-5.6c0.7-1.6,1.5-3.2,2.4-4.6
	c0.8-1.2,1.7-2.4,2.6-3.5l4.9,3.4c-1.8,2.3-3.3,4.8-4.4,7.6C156.2,244.5,156.2,250.8,158.3,256.6z M196.8,261.7h-6.4L186,248
	l-0.9-3.7h-0.4l-0.9,3.7l-4.4,13.6h-6.4l-8.5-31.1h7.2l4.3,16.3l0.7,3.7h0.4l0.9-3.7l3.8-12.1h6.3l3.8,12.1l0.9,3.6h0.4l0.6-3.6
	l4-16.3h7.2L196.8,261.7z M218.4,253.9c-0.4,1.9-1,3.8-1.8,5.6c-0.7,1.6-1.5,3.2-2.4,4.6c-0.8,1.2-1.7,2.4-2.6,3.5l-4.9-3.4
	c1.8-2.3,3.3-4.8,4.4-7.6c2.1-5.8,2.1-12.1,0-17.8c-1.1-2.7-2.6-5.3-4.4-7.6l4.9-3.4c1,1.1,1.9,2.3,2.6,3.5c0.9,1.5,1.8,3,2.4,4.6
	c0.8,1.8,1.4,3.7,1.8,5.6C219.3,245.6,219.3,249.8,218.4,253.9L218.4,253.9z M102.6,219.4c1.1,5.8,2.2,11.6,3.2,17.4
	c2.4,12.7,4.8,25.8,7.2,38.8c0,0.2,0.1,0.4,0.2,0.6l0.4,0.1c0.3,0,0.8,0,1.4,0h3.8c1.6,0,42.1-0.9,62.8-0.9c21.2,0,61.1,0,70.8-0.1
	h2.1c0.4,0,0.9,0,1.3-0.1c0.2-0.1,0.2-0.1,0.2-0.1c0.1-0.1,0.1-0.1,0.1-0.2c0.1-0.4,0.2-0.8,0.3-1.1c1.4-8.3,3-16.7,4.6-24.8
	c0.7-3.9,1.5-7.8,2.2-11.7c0.9-4.8,1.8-9.6,2.7-14.6l0,0l0.6-3.3L102.6,219.4z M158.3,256.6c1.1,2.7,2.6,5.3,4.4,7.6l-4.9,3.4
	c-1-1.1-1.9-2.3-2.6-3.5c-1-1.5-1.8-3-2.4-4.6c-0.8-1.8-1.4-3.7-1.8-5.6c-0.9-4.1-0.9-8.3,0-12.4c0.4-1.9,1-3.8,1.8-5.6
	c0.7-1.6,1.5-3.2,2.4-4.6c0.8-1.2,1.7-2.4,2.6-3.5l4.9,3.4c-1.8,2.3-3.3,4.8-4.4,7.6C156.2,244.5,156.2,250.8,158.3,256.6z
	 M196.8,261.7h-6.4L186,248l-0.9-3.7h-0.4l-0.9,3.7l-4.4,13.6h-6.4l-8.5-31.1h7.2l4.3,16.3l0.7,3.7h0.4l0.9-3.7l3.8-12.1h6.3
	l3.8,12.1l0.9,3.6h0.4l0.6-3.6l4-16.3h7.2L196.8,261.7z M218.4,253.9c-0.4,1.9-1,3.8-1.8,5.6c-0.7,1.6-1.5,3.2-2.4,4.6
	c-0.8,1.2-1.7,2.4-2.6,3.5l-4.9-3.4c1.8-2.3,3.3-4.8,4.4-7.6c2.1-5.8,2.1-12.1,0-17.8c-1.1-2.7-2.6-5.3-4.4-7.6l4.9-3.4
	c1,1.1,1.9,2.3,2.6,3.5c0.9,1.5,1.8,3,2.4,4.6c0.8,1.8,1.4,3.7,1.8,5.6C219.3,245.6,219.3,249.8,218.4,253.9L218.4,253.9z
	 M102.6,219.4c1.1,5.8,2.2,11.6,3.2,17.4c2.4,12.7,4.8,25.8,7.2,38.8c0,0.2,0.1,0.4,0.2,0.6l0.4,0.1c0.3,0,0.8,0,1.4,0h3.8
	c1.6,0,42.1-0.9,62.8-0.9c21.2,0,61.1,0,70.8-0.1h2.1c0.4,0,0.9,0,1.3-0.1c0.2-0.1,0.2-0.1,0.2-0.1c0.1-0.1,0.1-0.1,0.1-0.2
	c0.1-0.4,0.2-0.8,0.3-1.1c1.4-8.3,3-16.7,4.6-24.8c0.7-3.9,1.5-7.8,2.2-11.7c0.9-4.8,1.8-9.6,2.7-14.6l0,0l0.6-3.3L102.6,219.4z
	 M158.3,256.6c1.1,2.7,2.6,5.3,4.4,7.6l-4.9,3.4c-1-1.1-1.9-2.3-2.6-3.5c-1-1.5-1.8-3-2.4-4.6c-0.8-1.8-1.4-3.7-1.8-5.6
	c-0.9-4.1-0.9-8.3,0-12.4c0.4-1.9,1-3.8,1.8-5.6c0.7-1.6,1.5-3.2,2.4-4.6c0.8-1.2,1.7-2.4,2.6-3.5l4.9,3.4c-1.8,2.3-3.3,4.8-4.4,7.6
	C156.2,244.5,156.2,250.8,158.3,256.6z M196.8,261.7h-6.4L186,248l-0.9-3.7h-0.4l-0.9,3.7l-4.4,13.6h-6.4l-8.5-31.1h7.2l4.3,16.3
	l0.7,3.7h0.4l0.9-3.7l3.8-12.1h6.3l3.8,12.1l0.9,3.6h0.4l0.6-3.6l4-16.3h7.2L196.8,261.7z M218.4,253.9c-0.4,1.9-1,3.8-1.8,5.6
	c-0.7,1.6-1.5,3.2-2.4,4.6c-0.8,1.2-1.7,2.4-2.6,3.5l-4.9-3.4c1.8-2.3,3.3-4.8,4.4-7.6c2.1-5.8,2.1-12.1,0-17.8
	c-1.1-2.7-2.6-5.3-4.4-7.6l4.9-3.4c1,1.1,1.9,2.3,2.6,3.5c0.9,1.5,1.8,3,2.4,4.6c0.8,1.8,1.4,3.7,1.8,5.6
	C219.3,245.6,219.3,249.8,218.4,253.9L218.4,253.9z M102.6,219.4c1.1,5.8,2.2,11.6,3.2,17.4c2.4,12.7,4.8,25.8,7.2,38.8
	c0,0.2,0.1,0.4,0.2,0.6l0.4,0.1c0.3,0,0.8,0,1.4,0h3.8c1.6,0,42.1-0.9,62.8-0.9c21.2,0,61.1,0,70.8-0.1h2.1c0.4,0,0.9,0,1.3-0.1
	c0.2-0.1,0.2-0.1,0.2-0.1c0.1-0.1,0.1-0.1,0.1-0.2c0.1-0.4,0.2-0.8,0.3-1.1c1.4-8.3,3-16.7,4.6-24.8c0.7-3.9,1.5-7.8,2.2-11.7
	c0.9-4.8,1.8-9.6,2.7-14.6l0,0l0.6-3.3L102.6,219.4z M158.3,256.6c1.1,2.7,2.6,5.3,4.4,7.6l-4.9,3.4c-1-1.1-1.9-2.3-2.6-3.5
	c-1-1.5-1.8-3-2.4-4.6c-0.8-1.8-1.4-3.7-1.8-5.6c-0.9-4.1-0.9-8.3,0-12.4c0.4-1.9,1-3.8,1.8-5.6c0.7-1.6,1.5-3.2,2.4-4.6
	c0.8-1.2,1.7-2.4,2.6-3.5l4.9,3.4c-1.8,2.3-3.3,4.8-4.4,7.6C156.2,244.5,156.2,250.8,158.3,256.6z M196.8,261.7h-6.4L186,248
	l-0.9-3.7h-0.4l-0.9,3.7l-4.4,13.6h-6.4l-8.5-31.1h7.2l4.3,16.3l0.7,3.7h0.4l0.9-3.7l3.8-12.1h6.3l3.8,12.1l0.9,3.6h0.4l0.6-3.6
	l4-16.3h7.2L196.8,261.7z M218.4,253.9c-0.4,1.9-1,3.8-1.8,5.6c-0.7,1.6-1.5,3.2-2.4,4.6c-0.8,1.2-1.7,2.4-2.6,3.5l-4.9-3.4
	c1.8-2.3,3.3-4.8,4.4-7.6c2.1-5.8,2.1-12.1,0-17.8c-1.1-2.7-2.6-5.3-4.4-7.6l4.9-3.4c1,1.1,1.9,2.3,2.6,3.5c0.9,1.5,1.8,3,2.4,4.6
	c0.8,1.8,1.4,3.7,1.8,5.6C219.3,245.6,219.3,249.8,218.4,253.9L218.4,253.9z"/>
<path class="st2" d="M447.3,235.8h7.3l10.2,41.6l11.8-41.6h6.8l11.7,41.6l10.3-41.6h7.2l-13,51.6h-7.4l-12.3-41.6l-12.3,41.6h-7.4
	L447.3,235.8z"/>
<path class="st2" d="M596.4,285.9c-2.8-1.3-5-3.9-6.5-7.6c-1.5-3.7-2.2-9.2-2.2-16.5c0-7.3,0.7-12.8,2.2-16.6s3.7-6.4,6.5-7.7
	c2.8-1.4,6.7-2,11.5-2s8.8,0.7,11.7,2s5,3.9,6.5,7.7s2.2,9.4,2.2,16.6s-0.7,12.8-2.2,16.5s-3.6,6.3-6.5,7.6s-6.8,2-11.7,2
	S599.3,287.2,596.4,285.9z M616,280.1c1.9-1,3.2-2.9,4.1-5.7c0.8-2.8,1.3-7,1.3-12.6c0-5.8-0.4-10.2-1.3-13s-2.2-4.7-4-5.7
	c-1.8-0.9-4.5-1.4-8-1.4c-2.7-0.1-5.4,0.4-7.8,1.4c-1.8,1-3.2,2.9-4.1,5.7s-1.4,7.2-1.4,13c0,5.6,0.4,9.9,1.2,12.6
	c0.8,2.8,2.1,4.7,4,5.6c1.8,1,4.5,1.5,8.1,1.5C610.8,281.7,613.5,281.2,616,280.1L616,280.1z"/>
<path class="st2" d="M707.3,235.8H728c4.2,0,7.5,1.1,10,3.3c2.5,2.2,3.7,6.3,3.8,12.3c0,4.8-0.9,8.2-2.6,10.3
	c-1.7,2-4.1,3.5-6.7,4.2l10.3,21.5h-7.1l-9.5-20.5l-9.6-0.1c-0.5,0-1.2-0.1-2.1-0.1v20.7h-7.1V235.8z M726.8,261.2
	c2.2,0.1,4.3-0.6,5.8-2.1c1.4-1.4,2.1-4,2.1-7.7c0-3.6-0.7-6-2.1-7.4c-1.6-1.4-3.7-2.1-5.8-2h-12.5v19.1L726.8,261.2z"/>
<path class="st2" d="M820.3,235.8h7.1v22.8h8.4l13-22.8h7.5l-15,25.8l15.3,25.8H849l-13.3-22.5h-8.3v22.5h-7.1L820.3,235.8z"/>
<path class="st2" d="M1022.2,246.6c0-3.8,1-6.5,3.1-8.2c2.1-1.7,4.7-2.6,7.4-2.6c8.5,0,15.8,0.3,22,0.8v5.7h-20
	c-1.5-0.1-2.9,0.4-4,1.4c-1,1.1-1.5,2.5-1.4,4v12l22.3,0.4v5.5l-22.3,0.4v21.4h-7.1L1022.2,246.6z"/>
<path class="st2" d="M1132.3,235.8h20.7c4.2,0,7.5,1.1,10,3.3c2.5,2.2,3.7,6.3,3.8,12.3c0,4.8-0.9,8.2-2.6,10.3
	c-1.7,2-4.1,3.5-6.7,4.2l10.3,21.5h-7.1l-9.5-20.5l-9.6-0.1c-0.5,0-1.2-0.1-2.1-0.1v20.7h-7.1L1132.3,235.8z M1151.8,261.2
	c2.2,0.1,4.3-0.6,5.8-2.1c1.4-1.4,2.1-4,2.1-7.7c0-3.6-0.7-6-2.1-7.4c-1.6-1.4-3.7-2.1-5.8-2h-12.5v19.1L1151.8,261.2z"/>
<path class="st2" d="M1252.7,285.9c-2.9-1.3-5-3.9-6.5-7.6c-1.5-3.7-2.2-9.2-2.2-16.5c0-7.3,0.7-12.8,2.2-16.6s3.7-6.4,6.5-7.7
	c2.8-1.3,6.7-2,11.6-2s8.8,0.7,11.7,2c2.8,1.3,5,3.9,6.5,7.7s2.2,9.4,2.2,16.6c0,7.3-0.7,12.8-2.2,16.5c-1.5,3.7-3.6,6.3-6.5,7.6
	c-2.8,1.3-6.7,2-11.7,2S1255.5,287.2,1252.7,285.9z M1272.3,280.1c1.9-1,3.2-2.9,4.1-5.7s1.3-7,1.3-12.6c0-5.8-0.4-10.2-1.3-13
	c-0.8-2.9-2.2-4.7-4-5.7s-4.5-1.4-8-1.4c-2.7-0.1-5.4,0.4-7.8,1.4c-1.8,1-3.2,2.9-4.1,5.7s-1.4,7.2-1.4,13c0,5.6,0.4,9.9,1.2,12.6
	s2.1,4.7,4,5.6c1.8,1,4.5,1.5,8.1,1.5C1267.1,281.7,1269.8,281.2,1272.3,280.1z"/>
<path class="st2" d="M1406,287.4l-4.7-39.9l-11.3,39.9h-6.5l-11.5-39.7l-4.5,39.7h-6.8l5.9-51.6h7l13.2,43l13-43h7.1l6,51.6
	L1406,287.4z"/>
<path class="st2" d="M1580.3,235.8h7.1V259h23.9v-23.2h7v51.6h-7v-22.1h-23.9v22.1h-7.1V235.8z"/>
<path class="st2" d="M1705.9,285.9c-2.9-1.3-5-3.9-6.5-7.6c-1.5-3.7-2.2-9.2-2.2-16.5c0-7.3,0.7-12.8,2.2-16.6
	c1.5-3.8,3.7-6.4,6.5-7.7c2.8-1.3,6.7-2,11.6-2c4.9,0,8.8,0.7,11.7,2c2.8,1.3,5,3.9,6.5,7.7s2.2,9.4,2.2,16.6
	c0,7.3-0.7,12.8-2.2,16.5s-3.6,6.3-6.5,7.6c-2.8,1.3-6.7,2-11.7,2C1712.6,287.9,1708.7,287.2,1705.9,285.9z M1725.5,280.1
	c1.9-1,3.2-2.9,4.1-5.7s1.3-7,1.3-12.6c0-5.8-0.4-10.2-1.3-13c-0.8-2.8-2.2-4.7-4-5.7c-1.8-0.9-4.5-1.4-8-1.4
	c-2.7-0.1-5.4,0.4-7.8,1.4c-1.8,1-3.2,2.9-4.1,5.7s-1.4,7.2-1.4,13c0,5.6,0.4,9.9,1.2,12.6c0.8,2.8,2.2,4.7,4,5.6
	c1.8,1,4.5,1.5,8.1,1.5C1720.3,281.7,1723,281.2,1725.5,280.1z"/>
<path class="st2" d="M1859.3,287.4l-4.7-39.9l-11.3,39.9h-6.5l-11.5-39.7l-4.5,39.7h-6.8l5.9-51.6h7l13.2,43l13-43h7.1l6,51.6
	H1859.3z"/>
<path class="st2" d="M1946.7,285.6c-2.2-1.4-3.2-4.2-3.2-8.3v-30.7c0-3.8,1-6.5,3.1-8.2c2.1-1.7,4.7-2.6,7.4-2.6
	c5.5,0,11.8,0.2,18.8,0.6l3.1,0.1v5.8h-19.9c-3.7,0-5.5,1.8-5.5,5.5v10.7l22.3,0.4v5.5l-22.3,0.5v10.6c0,2.2,0.5,3.7,1.5,4.4
	c1.2,0.8,2.7,1.2,4.1,1.2h19.8v5.8c-8,0.5-15.1,0.8-21.4,0.8C1951.8,287.8,1949.1,287.1,1946.7,285.6z"/>
</svg>
