<svg height="512" viewBox="0 0 64 64" width="512" xmlns="http://www.w3.org/2000/svg"><g id="Search-2" data-name="Search"><path d="m61 56v-48h-7.29a13.99 13.99 0 0 1 -8.71 22.86v8.14a2.006 2.006 0 0 1 2 2v15z" fill="#9bc9ff"/><path d="m39 26a4 4 0 0 0 4-4 4 4 0 0 0 8 0 3.881 3.881 0 0 0 -.26-1.41 3.981 3.981 0 0 0 0-7.18 3.881 3.881 0 0 0 .26-1.41 4 4 0 0 0 -7.87-1 3.657 3.657 0 0 0 -.13 1 3.657 3.657 0 0 0 -.13-1 4 4 0 0 0 -7.87 1 3.881 3.881 0 0 0 .26 1.41 3.981 3.981 0 0 0 0 7.18 3.881 3.881 0 0 0 -.26 1.41 4 4 0 0 0 4 4z" fill="#9bc9ff"/><path d="m39 41a2.006 2.006 0 0 1 2-2v-8.14a13.99 13.99 0 0 1 -8.71-22.86h-29.29v48h36z" fill="#9bc9ff"/><g fill="#57a4ff"><path d="m34.094 21.053a4.985 4.985 0 0 0 8.906 3.916 4.984 4.984 0 0 0 8.905-3.919 4.966 4.966 0 0 0 0-8.1 4.991 4.991 0 0 0 -8.905-3.931 4.987 4.987 0 0 0 -8.9 3.931 4.966 4.966 0 0 0 0 8.1zm10-9.806a3 3 0 0 1 5.906.753c0 .037-.008.071-.01.107a5.057 5.057 0 0 0 -3.489.567l1 1.732a2.935 2.935 0 0 1 2.811-.094 2.982 2.982 0 0 1 -.024 5.387 2.959 2.959 0 0 1 -2.787-.105l-1 1.732a4.915 4.915 0 0 0 3.49.57c0 .035.009.068.009.1a3 3 0 0 1 -6 0v-9.996a2.7 2.7 0 0 1 .1-.753zm-8.38 3.053a2.959 2.959 0 0 1 2.787.105l1-1.732a5.112 5.112 0 0 0 -3.489-.566c0-.036-.01-.071-.01-.108a3 3 0 0 1 5.907-.729 2.634 2.634 0 0 1 .091.73v10a3 3 0 0 1 -6 0c0-.036.008-.069.009-.105a4.922 4.922 0 0 0 .991.105 5.013 5.013 0 0 0 2.5-.674l-1-1.732a2.933 2.933 0 0 1 -2.811.094 2.982 2.982 0 0 1 .024-5.387z"/><path d="m61 7h-6.851a14.93 14.93 0 0 0 -22.3 0h-28.849a1 1 0 0 0 -1 1v48a1 1 0 0 0 1 1h35v2a3 3 0 0 0 3 3h4a3 3 0 0 0 3-3v-2h13a1 1 0 0 0 1-1v-48a1 1 0 0 0 -1-1zm-18-3a13 13 0 1 1 -13 13 13.015 13.015 0 0 1 13-13zm1 34h-2v-6.051c.332.022.662.051 1 .051s.668-.029 1-.051zm-40 17v-46h26.333a14.97 14.97 0 0 0 9.667 22.7v6.486a3 3 0 0 0 -2 2.814v14zm42 4a1 1 0 0 1 -1 1h-4a1 1 0 0 1 -1-1v-18a1 1 0 0 1 1-1h4a1 1 0 0 1 1 1zm14-4h-12v-14a3 3 0 0 0 -2-2.816v-6.484a14.97 14.97 0 0 0 9.667-22.7h4.333z"/><path d="m8 13h16v2h-16z"/><path d="m8 19h16v2h-16z"/><path d="m8 25h18v2h-18z"/><path d="m8 31h22v2h-22z"/><path d="m8 37h26v2h-26z"/><path d="m8 43h26v2h-26z"/><path d="m8 49h26v2h-26z"/><path d="m52 37h4v2h-4z"/><path d="m52 43h4v2h-4z"/><path d="m52 49h4v2h-4z"/></g></g></svg>