<?xml version="1.0" encoding="iso-8859-1"?>
<!-- Generator: Adobe Illustrator 19.0.0, SVG Export Plug-In . SVG Version: 6.00 Build 0)  -->
<svg version="1.1" id="Capa_1" xmlns="http://www.w3.org/2000/svg" xmlns:xlink="http://www.w3.org/1999/xlink" x="0px" y="0px"
	 viewBox="0 0 512 512" style="enable-background:new 0 0 512 512;" xml:space="preserve">
<g>
	<path style="fill:#D4E1F4;" d="M426.667,8.533c0,23.565-25.954,42.667-47.08,42.667c-22.314-1.284-39.404-20.345-38.253-42.667
		h-307.2v494.933h307.2c-1.151-22.321,15.939-41.383,38.253-42.667c21.126,0,47.08,19.102,47.08,42.667h51.2V8.533H426.667z"/>
	<rect x="8.533" y="8.533" style="fill:#FFFFFF;" width="25.6" height="494.933"/>
	<rect x="477.867" y="8.533" style="fill:#A4C2F7;" width="25.6" height="494.933"/>
	<path style="fill:#E3E7F2;" d="M375.752,93.867H136.248c-23.407,0-42.382,18.975-42.382,42.382v47.218
		c0,7.069,5.731,12.8,12.8,12.8l0,0c7.069,0,12.8,5.731,12.8,12.8v93.867c0,7.069-5.731,12.8-12.8,12.8l0,0
		c-7.069,0-12.8,5.731-12.8,12.8v47.218c0,23.407,18.975,42.382,42.382,42.382h239.503c23.407,0,42.382-18.975,42.382-42.382
		V136.248C418.133,112.841,399.159,93.867,375.752,93.867z"/>
	<path style="fill:#D4E1F4;" d="M147.738,119.467h216.525c15.614,0,28.271,12.657,28.271,28.271v216.525
		c0,15.614-12.657,28.271-28.271,28.271H147.738c-15.614,0-28.271-12.657-28.271-28.271V147.738
		C119.467,132.124,132.124,119.467,147.738,119.467z"/>
	<path style="fill:#A4C2F7;" d="M324.267,221.867c13.269,30.204-17.769,69.777-65.232,90.628s-71.781,13.269-85.05-16.935
		c-13.269-30.204,14.451-71.592,61.914-92.443S310.998,191.663,324.267,221.867z"/>
	<path style="fill:#7FACFA;" d="M346.549,220.112c-9.474-21.567-37.311-31.523-69.722-27.906
		c21.136,2.621,37.886,12.152,44.807,27.906c13.269,30.204-14.452,71.592-61.915,92.444c-12.785,5.664-26.353,9.363-40.244,10.971
		c22.308,2.174,44.793-1.612,65.158-10.971C332.097,291.704,359.818,250.317,346.549,220.112z"/>
	<g>
		<circle style="fill:#428DFF;" cx="34.133" cy="435.2" r="8.533"/>
		<circle style="fill:#428DFF;" cx="34.133" cy="477.867" r="8.533"/>
		<circle style="fill:#428DFF;" cx="477.867" cy="34.133" r="8.533"/>
		<circle style="fill:#428DFF;" cx="477.867" cy="477.867" r="8.533"/>
		<circle style="fill:#428DFF;" cx="51.2" cy="418.133" r="8.533"/>
		<circle style="fill:#428DFF;" cx="460.8" cy="298.667" r="8.533"/>
		<circle style="fill:#428DFF;" cx="477.867" cy="315.733" r="8.533"/>
		<circle style="fill:#428DFF;" cx="460.8" cy="384" r="8.533"/>
		<circle style="fill:#428DFF;" cx="477.867" cy="401.067" r="8.533"/>
		<circle style="fill:#428DFF;" cx="460.8" cy="213.333" r="8.533"/>
		<circle style="fill:#428DFF;" cx="477.867" cy="230.4" r="8.533"/>
		<circle style="fill:#428DFF;" cx="34.133" cy="392.533" r="8.533"/>
		<circle style="fill:#428DFF;" cx="51.2" cy="375.467" r="8.533"/>
		<circle style="fill:#428DFF;" cx="34.133" cy="349.867" r="8.533"/>
		<circle style="fill:#428DFF;" cx="51.2" cy="332.8" r="8.533"/>
		<circle style="fill:#428DFF;" cx="34.133" cy="307.2" r="8.533"/>
		<circle style="fill:#428DFF;" cx="51.2" cy="290.133" r="8.533"/>
		<circle style="fill:#428DFF;" cx="34.133" cy="264.533" r="8.533"/>
		<circle style="fill:#428DFF;" cx="51.2" cy="247.467" r="8.533"/>
		<circle style="fill:#428DFF;" cx="34.133" cy="221.867" r="8.533"/>
		<circle style="fill:#428DFF;" cx="51.2" cy="204.8" r="8.533"/>
		<circle style="fill:#428DFF;" cx="34.133" cy="93.867" r="8.533"/>
		<circle style="fill:#428DFF;" cx="145.067" cy="34.133" r="8.533"/>
		<circle style="fill:#428DFF;" cx="110.933" cy="34.133" r="8.533"/>
		<circle style="fill:#428DFF;" cx="34.133" cy="119.467" r="8.533"/>
		<path style="fill:#428DFF;" d="M0,97.4V0h97.4L0,97.4z M17.067,17.067V56.2L56.2,17.067H17.067z"/>
		<path style="fill:#428DFF;" d="M375.75,426.667h-239.5c-28.107-0.032-50.885-22.81-50.917-50.917v-47.217
			c0.012-11.777,9.556-21.321,21.333-21.333c2.355-0.003,4.264-1.912,4.267-4.267v-93.867c-0.003-2.355-1.912-4.264-4.267-4.267
			c-11.777-0.012-21.321-9.556-21.333-21.333V136.25c0.032-28.107,22.81-50.885,50.917-50.917h239.5
			c28.107,0.032,50.885,22.81,50.917,50.917v239.5C426.635,403.857,403.857,426.635,375.75,426.667L375.75,426.667z M136.25,102.4
			c-18.687,0.02-33.83,15.163-33.85,33.85v47.217c0.003,2.355,1.912,4.264,4.267,4.267c11.777,0.012,21.321,9.556,21.333,21.333
			v93.867c-0.012,11.777-9.556,21.321-21.333,21.333c-2.355,0.003-4.264,1.911-4.267,4.267v47.217
			c0.02,18.687,15.163,33.83,33.85,33.85h239.5c18.687-0.02,33.83-15.163,33.85-33.85v-239.5c-0.02-18.687-15.163-33.83-33.85-33.85
			H136.25z"/>
		<circle style="fill:#428DFF;" cx="315.733" cy="477.867" r="8.533"/>
		<circle style="fill:#428DFF;" cx="298.667" cy="460.8" r="8.533"/>
		<circle style="fill:#428DFF;" cx="273.067" cy="477.867" r="8.533"/>
		<circle style="fill:#428DFF;" cx="256" cy="460.8" r="8.533"/>
		<circle style="fill:#428DFF;" cx="230.4" cy="477.867" r="8.533"/>
		<circle style="fill:#428DFF;" cx="213.333" cy="460.8" r="8.533"/>
		<circle style="fill:#428DFF;" cx="187.733" cy="477.867" r="8.533"/>
		<circle style="fill:#428DFF;" cx="170.667" cy="460.8" r="8.533"/>
		<circle style="fill:#428DFF;" cx="145.067" cy="477.867" r="8.533"/>
		<circle style="fill:#428DFF;" cx="128" cy="460.8" r="8.533"/>
		<circle style="fill:#428DFF;" cx="102.4" cy="477.867" r="8.533"/>
		<circle style="fill:#428DFF;" cx="85.333" cy="460.8" r="8.533"/>
		<path style="fill:#428DFF;" d="M364.267,401.067H147.733c-20.315-0.023-36.777-16.485-36.8-36.8V147.733
			c0.023-20.315,16.485-36.777,36.8-36.8h216.533c20.315,0.023,36.777,16.485,36.8,36.8v216.533
			C401.044,384.581,384.581,401.044,364.267,401.067L364.267,401.067z M147.733,128c-10.893,0.012-19.721,8.84-19.733,19.733
			v216.533c0.012,10.893,8.84,19.721,19.733,19.733h216.533c10.893-0.012,19.721-8.84,19.733-19.733V147.733
			c-0.012-10.893-8.84-19.721-19.733-19.733H147.733z"/>
		<path style="fill:#428DFF;" d="M230.692,332.95c-30.104,0-54.821-11.883-64.521-33.958
			c-15.396-35.05,13.725-80.592,66.296-103.692c22.65-10.466,47.778-14.377,72.538-11.292c23.754,3.658,41.042,15.242,48.671,32.608
			l0,0c7.633,17.375,4.471,37.942-8.904,57.908c-14.48,20.319-34.359,36.179-57.388,45.783
			C269.554,328.367,250.256,332.67,230.692,332.95L230.692,332.95z M288.767,199.858c-17.062,0.267-33.888,4.037-49.434,11.075
			c-42.35,18.6-68.7,55.783-57.538,81.192c11.163,25.408,56.375,31.15,98.721,12.55c20.061-8.287,37.406-22.018,50.075-39.642
			c10.012-14.95,12.663-29.708,7.458-41.55l0,0c-5.2-11.842-17.858-19.875-35.646-22.608
			C297.89,200.19,293.332,199.85,288.767,199.858L288.767,199.858z"/>
		<path style="fill:#428DFF;" d="M290.133,264.533H230.4c-4.713,0-8.533-3.821-8.533-8.533c0-4.713,3.82-8.533,8.533-8.533h59.733
			c4.713,0,8.533,3.821,8.533,8.533C298.667,260.713,294.846,264.533,290.133,264.533z"/>
		<path style="fill:#428DFF;" d="M512,512h-93.867v-8.533c0-18.851-15.282-34.133-34.133-34.133
			c-18.851,0-34.133,15.282-34.133,34.133V512H0V0h221.867c4.713,0,8.533,3.821,8.533,8.533s-3.821,8.533-8.533,8.533h-204.8
			v477.867h316.446c4.166-24.635,25.503-42.667,50.487-42.667c24.985,0,46.322,18.032,50.487,42.667h60.446V17.067h-60.446
			C430.322,41.702,408.985,59.733,384,59.733c-24.985,0-46.322-18.032-50.487-42.667h-43.379c-4.713,0-8.533-3.821-8.533-8.533
			S285.421,0,290.133,0h59.733v8.533c0,18.851,15.282,34.133,34.133,34.133c18.851,0,34.133-15.282,34.133-34.133V0H512V512z"/>
		<circle style="fill:#428DFF;" cx="256" cy="8.533" r="8.533"/>
	</g>
</g>
<g>
</g>
<g>
</g>
<g>
</g>
<g>
</g>
<g>
</g>
<g>
</g>
<g>
</g>
<g>
</g>
<g>
</g>
<g>
</g>
<g>
</g>
<g>
</g>
<g>
</g>
<g>
</g>
<g>
</g>
</svg>
