<svg height="512" viewBox="0 0 64 64" width="512" xmlns="http://www.w3.org/2000/svg"><path d="m48 13.17-15.83 15.83h-21.17v32h42v-32h-15.17l10.17-10.17 13.09-13.09-2.83-2.83zm-23.68 26.51 4.24-7.07 2.83 2.83z" fill="#9bc9ff"/><path d="m22 7v-4l-6 6h6z" fill="#9bc9ff"/><g fill="#57a4ff"><path d="m6 55h2v2h-2z"/><path d="m6 49h2v4h-2z"/><path d="m56 43h2v4h-2z"/><path d="m57 28h-8v-8.758l12.8-12.8a1 1 0 0 0 0-1.414l-2.829-2.828a1 1 0 0 0 -1.414 0l-8.557 8.558v-7.758a1 1 0 0 0 -1-1h-26v.009a.987.987 0 0 0 -.707.284l-6 6a1 1 0 0 0 -.284.707h-.009v19h-8a5.006 5.006 0 0 0 -5 5v24a5.006 5.006 0 0 0 5 5h50a5.006 5.006 0 0 0 5-5v-24a5.006 5.006 0 0 0 -5-5zm-28.237 6.219 1.018 1.018-2.543 1.525zm-.905-2.32a1 1 0 0 0 -.15.193l-4.243 7.071a1 1 0 0 0 1.372 1.372l7.071-4.243a1 1 0 0 0 .193-.15l6.142-6.142h13.757v30h-40v-30h17.757zm19.142-3.899h-6.757l6.757-6.758zm11.264-23.678 1.414 1.414-28.284 28.285-1.415-1.415zm-37.264 1.092v2.586h-2.586zm-4 4.586h5a1 1 0 0 0 1-1v-5h24v8.758l-15.243 15.242h-14.757zm-13 47v-24a3 3 0 0 1 3-3h3v30h-3a3 3 0 0 1 -3-3zm56 0a3 3 0 0 1 -3 3h-3v-30h3a3 3 0 0 1 3 3z"/><path d="m23 44h12v2h-12z"/><path d="m37 44h4v2h-4z"/><path d="m19 12h24v2h-24z"/><path d="m25 6h20v2h-20z"/><path d="m19 17h18v2h-18z"/><path d="m19 22h14v2h-14z"/></g></svg>