<?xml version="1.0" encoding="iso-8859-1"?>
<!-- Generator: Adobe Illustrator 19.0.0, SVG Export Plug-In . SVG Version: 6.00 Build 0)  -->
<svg version="1.1" id="Capa_1" xmlns="http://www.w3.org/2000/svg" xmlns:xlink="http://www.w3.org/1999/xlink" x="0px" y="0px"
	 viewBox="0 0 512 512" style="enable-background:new 0 0 512 512;" xml:space="preserve">
<g>
	<rect x="238.933" y="409.6" style="fill:#E3E7F2;" width="17.067" height="59.733"/>
	<g>
		<rect x="256" y="409.6" style="fill:#A4C2F7;" width="17.067" height="59.733"/>
		<rect x="273.067" y="375.467" style="fill:#A4C2F7;" width="17.067" height="34.133"/>
	</g>
	<path style="fill:#E3E7F2;" d="M186.402,469.333h113.596c8.69,0,15.735,7.045,15.735,15.736v2.662
		c0,8.69-7.045,15.736-15.735,15.736H186.402c-8.69,0-15.735-7.045-15.735-15.736v-2.662
		C170.667,476.378,177.712,469.333,186.402,469.333z"/>
	<path style="fill:#A4C2F7;" d="M324.267,469.333h-24.268c4.173,0,8.175,1.657,11.126,4.608c2.951,2.951,4.609,6.953,4.609,11.126
		v2.664c0,8.69-7.045,15.735-15.735,15.736h24.268c9.426,0,17.067-7.641,17.067-17.067S333.692,469.333,324.267,469.333z"/>
	<g>
		<path style="fill:#E3E7F2;" d="M247.467,384c-8.876-0.062-17.624-2.116-25.6-6.01v19.829c0,6.506,3.956,11.781,8.836,11.781
			h33.528c4.88,0,8.836-5.275,8.836-11.781V377.99C265.091,381.884,256.342,383.938,247.467,384L247.467,384z"/>
		<path style="fill:#E3E7F2;" d="M256,8.533L256,8.533c42.415,0,76.8,34.385,76.8,76.8V307.2c0,42.415-34.385,76.8-76.8,76.8l0,0
			c-42.415,0-76.8-34.385-76.8-76.8V85.333C179.2,42.918,213.585,8.533,256,8.533z"/>
	</g>
	<path style="fill:#FFFFFF;" d="M179.2,307.598V85.731c0.123-39.339,29.855-72.272,68.977-76.402
		c-53.264,4.213-94.394,48.572-94.577,102.002v170.667c0.183,53.43,41.313,97.789,94.577,102.002
		C209.055,379.87,179.323,346.937,179.2,307.598z"/>
	<g>
		<path style="fill:#A4C2F7;" d="M263.823,8.931c39.122,4.13,68.854,37.063,68.977,76.402V307.2
			c-0.123,39.339-29.855,72.272-68.977,76.402c53.264-4.214,94.393-48.573,94.577-102.002V110.933
			C358.217,57.504,317.087,13.144,263.823,8.931L263.823,8.931z"/>
		<circle style="fill:#A4C2F7;" cx="256" cy="196.267" r="34.133"/>
	</g>
	<ellipse style="fill:#D4E1F4;" cx="243.2" cy="196.267" rx="21.333" ry="34.133"/>
	<g>
		<path style="fill:#428DFF;" d="M281.6,477.867h-51.2v-76.8h51.2V477.867z M247.467,460.8h17.067v-42.667h-17.067V460.8z"/>
		<path style="fill:#428DFF;" d="M324.267,512h-59.733c-4.713,0-8.533-3.82-8.533-8.533c0-4.713,3.821-8.533,8.533-8.533h59.733
			c4.713,0,8.533-3.82,8.533-8.533s-3.82-8.533-8.533-8.533H187.733c-4.713,0-8.533,3.82-8.533,8.533s3.82,8.533,8.533,8.533h25.6
			c4.713,0,8.533,3.821,8.533,8.533c0,4.713-3.821,8.533-8.533,8.533h-25.6c-14.138,0-25.6-11.461-25.6-25.6s11.462-25.6,25.6-25.6
			h136.533c14.138,0,25.6,11.462,25.6,25.6S338.405,512,324.267,512z"/>
		<circle style="fill:#428DFF;" cx="238.933" cy="503.467" r="8.533"/>
		<path style="fill:#428DFF;" d="M256,238.933c-23.564,0-42.667-19.103-42.667-42.667S232.436,153.6,256,153.6
			c23.564,0,42.667,19.103,42.667,42.667C298.639,219.819,279.553,238.906,256,238.933L256,238.933z M256,170.667
			c-14.138,0-25.6,11.462-25.6,25.6s11.462,25.6,25.6,25.6c14.139,0,25.6-11.462,25.6-25.6
			C281.585,182.135,270.132,170.682,256,170.667L256,170.667z"/>
		<path style="fill:#428DFF;" d="M187.733,76.8c-2.263,0.001-4.434-0.898-6.035-2.499s-2.499-3.771-2.499-6.035V34.775
			c0-4.713,3.82-8.533,8.533-8.533s8.533,3.821,8.533,8.533v33.492c0.001,2.263-0.898,4.434-2.499,6.035
			S189.997,76.801,187.733,76.8L187.733,76.8z"/>
		<path style="fill:#428DFF;" d="M221.867,68.267c-2.263,0.001-4.434-0.898-6.035-2.499c-1.6-1.6-2.499-3.771-2.499-6.035V14.192
			c0-4.713,3.82-8.533,8.533-8.533c4.713,0,8.533,3.821,8.533,8.533v45.542c0.001,2.263-0.898,4.434-2.499,6.035
			C226.301,67.368,224.13,68.267,221.867,68.267z"/>
		<path style="fill:#428DFF;" d="M256,59.733c-2.263,0.001-4.434-0.898-6.035-2.499c-1.6-1.6-2.499-3.771-2.499-6.035V8.542
			c0-4.713,3.821-8.533,8.533-8.533c4.713,0,8.533,3.821,8.533,8.533V51.2c0.001,2.263-0.898,4.434-2.499,6.035
			C260.434,58.835,258.263,59.734,256,59.733z"/>
		<path style="fill:#428DFF;" d="M290.133,68.267c-2.263,0.001-4.434-0.898-6.035-2.499c-1.6-1.6-2.499-3.771-2.499-6.035V14.417
			c0-4.713,3.821-8.533,8.533-8.533c4.713,0,8.533,3.821,8.533,8.533v45.317c0.001,2.263-0.898,4.434-2.499,6.035
			C294.568,67.368,292.397,68.267,290.133,68.267z"/>
		<path style="fill:#428DFF;" d="M324.267,76.8c-2.263,0.001-4.434-0.898-6.035-2.499s-2.499-3.771-2.499-6.035V34.775
			c0-4.713,3.821-8.533,8.533-8.533s8.533,3.821,8.533,8.533v33.492c0.001,2.263-0.898,4.434-2.499,6.035
			C328.701,75.902,326.53,76.801,324.267,76.8L324.267,76.8z"/>
		<path style="fill:#428DFF;" d="M256,392.533c-61.238-0.069-110.864-49.695-110.933-110.933V110.933
			C145.067,49.667,194.733,0,256,0s110.933,49.667,110.933,110.933V281.6C366.864,342.838,317.238,392.464,256,392.533z M256,17.067
			c-51.817,0.059-93.808,42.05-93.867,93.867V281.6c0,51.841,42.026,93.867,93.867,93.867s93.867-42.026,93.867-93.867V110.933
			C349.808,59.116,307.817,17.125,256,17.067z"/>
		<path style="fill:#428DFF;" d="M278.354,418.133H233.65c-11.215-0.013-20.304-9.102-20.317-20.317v-31.925l11.4,4.058
			c20.203,7.311,42.328,7.314,62.533,0.009l11.4-4.067v31.925C298.654,409.03,289.568,418.118,278.354,418.133L278.354,418.133z
			 M230.4,389.442v8.375c0.002,1.794,1.456,3.248,3.25,3.25h44.704c1.793-0.003,3.246-1.457,3.246-3.25v-8.375
			C264.782,393.558,247.218,393.558,230.4,389.442L230.4,389.442z"/>
		<path style="fill:#428DFF;" d="M324.267,366.3c-2.263,0.001-4.434-0.898-6.035-2.499s-2.499-3.771-2.499-6.035v-42.025
			c0-4.713,3.821-8.533,8.533-8.533s8.533,3.82,8.533,8.533v42.025c0.001,2.263-0.898,4.434-2.499,6.035
			S326.53,366.301,324.267,366.3L324.267,366.3z"/>
		<path style="fill:#428DFF;" d="M290.133,386.875c-2.263,0.001-4.434-0.898-6.035-2.499c-1.6-1.6-2.499-3.771-2.499-6.035v-45.533
			c0-4.713,3.821-8.533,8.533-8.533c4.713,0,8.533,3.821,8.533,8.533v45.533c0.001,2.263-0.898,4.434-2.499,6.035
			C294.568,385.977,292.397,386.876,290.133,386.875L290.133,386.875z"/>
		<path style="fill:#428DFF;" d="M256,392.533c-2.263,0.001-4.434-0.898-6.035-2.499c-1.6-1.6-2.499-3.771-2.499-6.035v-42.658
			c0-4.713,3.821-8.533,8.533-8.533c4.713,0,8.533,3.821,8.533,8.533V384c0.001,2.263-0.898,4.434-2.499,6.035
			C260.434,391.635,258.263,392.534,256,392.533L256,392.533z"/>
		<path style="fill:#428DFF;" d="M221.867,386.65c-2.263,0.001-4.434-0.898-6.035-2.499c-1.6-1.6-2.499-3.771-2.499-6.035v-45.308
			c0-4.713,3.82-8.533,8.533-8.533c4.713,0,8.533,3.821,8.533,8.533v45.308c0.001,2.263-0.898,4.434-2.499,6.035
			S224.13,386.651,221.867,386.65L221.867,386.65z"/>
		<path style="fill:#428DFF;" d="M187.733,366.3c-2.263,0.001-4.434-0.898-6.035-2.499c-1.6-1.6-2.499-3.771-2.499-6.035v-42.025
			c0-4.713,3.82-8.533,8.533-8.533s8.533,3.82,8.533,8.533v42.025c0.001,2.263-0.898,4.434-2.499,6.035
			C192.167,365.402,189.997,366.301,187.733,366.3L187.733,366.3z"/>
		<path style="fill:#428DFF;" d="M358.4,153.6h-25.6c-4.713,0-8.533-3.821-8.533-8.533c0-4.713,3.82-8.533,8.533-8.533h25.6
			c4.713,0,8.533,3.821,8.533,8.533C366.933,149.779,363.113,153.6,358.4,153.6z"/>
		<path style="fill:#428DFF;" d="M358.4,187.733h-25.6c-4.713,0-8.533-3.82-8.533-8.533s3.82-8.533,8.533-8.533h25.6
			c4.713,0,8.533,3.821,8.533,8.533S363.113,187.733,358.4,187.733z"/>
		<path style="fill:#428DFF;" d="M358.4,221.867h-25.6c-4.713,0-8.533-3.821-8.533-8.533s3.82-8.533,8.533-8.533h25.6
			c4.713,0,8.533,3.82,8.533,8.533S363.113,221.867,358.4,221.867z"/>
		<path style="fill:#428DFF;" d="M358.4,256h-25.6c-4.713,0-8.533-3.82-8.533-8.533c0-4.713,3.82-8.533,8.533-8.533h25.6
			c4.713,0,8.533,3.821,8.533,8.533C366.933,252.18,363.113,256,358.4,256z"/>
		<path style="fill:#428DFF;" d="M179.2,256h-25.6c-4.713,0-8.533-3.82-8.533-8.533c0-4.713,3.82-8.533,8.533-8.533h25.6
			c4.713,0,8.533,3.821,8.533,8.533C187.733,252.18,183.913,256,179.2,256z"/>
		<path style="fill:#428DFF;" d="M179.2,221.867h-25.6c-4.713,0-8.533-3.821-8.533-8.533s3.82-8.533,8.533-8.533h25.6
			c4.713,0,8.533,3.82,8.533,8.533S183.913,221.867,179.2,221.867z"/>
		<path style="fill:#428DFF;" d="M179.2,187.733h-25.6c-4.713,0-8.533-3.82-8.533-8.533s3.82-8.533,8.533-8.533h25.6
			c4.713,0,8.533,3.821,8.533,8.533S183.913,187.733,179.2,187.733z"/>
		<path style="fill:#428DFF;" d="M179.2,153.6h-25.6c-4.713,0-8.533-3.821-8.533-8.533c0-4.713,3.82-8.533,8.533-8.533h25.6
			c4.713,0,8.533,3.821,8.533,8.533C187.733,149.779,183.913,153.6,179.2,153.6z"/>
	</g>
</g>
<g>
</g>
<g>
</g>
<g>
</g>
<g>
</g>
<g>
</g>
<g>
</g>
<g>
</g>
<g>
</g>
<g>
</g>
<g>
</g>
<g>
</g>
<g>
</g>
<g>
</g>
<g>
</g>
<g>
</g>
</svg>
