<?xml version="1.0" encoding="iso-8859-1"?>
<!-- Generator: Adobe Illustrator 19.0.0, SVG Export Plug-In . SVG Version: 6.00 Build 0)  -->
<svg version="1.1" id="Capa_1" xmlns="http://www.w3.org/2000/svg" xmlns:xlink="http://www.w3.org/1999/xlink" x="0px" y="0px"
	 viewBox="0 0 512 512" style="enable-background:new 0 0 512 512;" xml:space="preserve">
<g>
	<path style="fill:#FFFFFF;" d="M129.755,128c-3.359-3.059-5.281-7.387-5.301-11.93c-0.019-4.543,1.867-8.887,5.2-11.974
		c35.183-31.876,80.511-69.963,128.101-69.963c-47.589,0-114.971,17.992-150.155,49.869c-3.333,3.087-5.219,7.43-5.199,11.973
		s1.942,8.87,5.3,11.929L129.755,128z"/>
	<path style="fill:#E3E7F2;" d="M384,128c-6.156,5.589-15.533,5.645-21.755,0.131C339.829,108.716,285.989,102.4,256,102.4
		s-79.42,10.544-101.836,29.958c-6.304,5.46-20.024,1.285-26.164-4.358l0,0c-3.359-3.059-5.281-7.386-5.3-11.93
		c-0.019-4.543,1.867-8.886,5.2-11.974C163.083,72.22,208.411,34.133,256,34.133s92.917,36.391,128.101,68.267
		C391.073,109.525,391.028,120.93,384,128L384,128z"/>
	<g>
		<path style="fill:#A4C2F7;" d="M406.054,107.904c3.359-3.059,5.281-7.386,5.3-11.929c0.019-4.543-1.867-8.886-5.2-11.973
			C370.971,52.125,303.589,34.133,256,34.133c47.589,0,92.917,36.39,128.101,68.267c6.972,7.125,6.927,18.53-0.101,25.6
			L406.054,107.904z"/>
		<path style="fill:#A4C2F7;" d="M409.167,102.4c-0.816,1.51-1.867,2.881-3.113,4.06l-11.405,10.483
			c26.114,33.33,40.383,74.409,40.552,116.75v12.329h25.6V232.25C460.547,184.011,442.109,137.641,409.167,102.4z"/>
	</g>
	<path style="fill:#FFFFFF;" d="M102.833,102.4c0.816,1.51,1.867,2.881,3.113,4.06l11.405,10.483
		c-26.114,33.33-40.383,74.409-40.552,116.75v12.329H51.2V232.25C51.453,184.011,69.891,137.641,102.833,102.4L102.833,102.4z"/>
	<rect x="418.133" y="247.467" style="fill:#E3E7F2;" width="17.067" height="59.733"/>
	<rect x="435.2" y="247.467" style="fill:#A4C2F7;" width="17.067" height="59.733"/>
	<g>
		<path style="fill:#E3E7F2;" d="M380.955,132.227c-3.397,2.705-7.606,4.187-11.948,4.208
			c28.245,24.553,44.874,59.845,45.826,97.258v13.773h28.9v-13.773c-0.475-42.057-15.934-82.566-43.598-114.247L380.955,132.227z"/>
		<rect x="76.8" y="247.467" style="fill:#E3E7F2;" width="17.067" height="59.733"/>
	</g>
	<rect x="59.733" y="247.467" style="fill:#FFFFFF;" width="17.067" height="59.733"/>
	<g>
		<path style="fill:#E3E7F2;" d="M131.046,132.247c3.397,2.705,7.606,4.187,11.948,4.208
			c-28.245,24.553-44.874,59.845-45.826,97.258v13.773h-28.9v-13.773c0.475-42.057,15.934-82.566,43.598-114.247L131.046,132.247z"
			/>
		<path style="fill:#E3E7F2;" d="M55.323,307.2h40.365c8.57,0,16.789,3.404,22.848,9.464S128,330.943,128,339.513v108.606
			c0,16.429-13.319,29.748-29.748,29.748h-44.58c-0.656,0-1.284-0.26-1.748-0.724s-0.724-1.092-0.724-1.748V311.323
			c0-1.093,0.434-2.142,1.208-2.915C53.181,307.634,54.229,307.2,55.323,307.2z"/>
		<path style="fill:#E3E7F2;" d="M51.2,307.2L51.2,307.2v170.667l0,0c-14.138,0-25.6-11.462-25.6-25.6V332.8
			C25.6,318.662,37.062,307.2,51.2,307.2L51.2,307.2z"/>
	</g>
	<path style="fill:#FFFFFF;" d="M25.6,452.267V332.8c0-14.138,11.462-25.6,25.6-25.6c-23.564,0-42.667,19.103-42.667,42.667V435.2
		c0,11.316,4.495,22.168,12.497,30.17c8.002,8.002,18.854,12.497,30.17,12.497C37.062,477.867,25.6,466.405,25.6,452.267
		L25.6,452.267z"/>
	<path style="fill:#E3E7F2;" d="M460.8,307.2L460.8,307.2c14.138,0,25.6,11.462,25.6,25.6v119.467c0,14.138-11.462,25.6-25.6,25.6
		l0,0V307.2z"/>
	<path style="fill:#A4C2F7;" d="M460.8,307.2c14.138,0,25.6,11.462,25.6,25.6v119.467c0,14.138-11.462,25.6-25.6,25.6
		c23.564,0,42.667-19.103,42.667-42.667v-85.333C503.467,326.303,484.364,307.2,460.8,307.2L460.8,307.2z"/>
	<path style="fill:#E3E7F2;" d="M416.313,307.2h41.665c0.749,0,1.467,0.297,1.996,0.827c0.529,0.529,0.827,1.247,0.827,1.996
		v165.372c0,0.656-0.26,1.284-0.724,1.748c-0.464,0.464-1.092,0.724-1.748,0.724h-44.58c-7.89,0-15.456-3.134-21.035-8.713
		c-5.579-5.579-8.713-13.145-8.713-21.035V339.513c0-8.57,3.404-16.789,9.464-22.848S407.743,307.2,416.313,307.2z"/>
	<g>
		<path style="fill:#428DFF;" d="M102.4,315.733H51.2v-76.8h51.2V315.733z M68.267,298.667h17.067V256H68.267V298.667z"/>
		<path style="fill:#428DFF;" d="M460.8,315.733h-51.2v-76.8h51.2V315.733z M426.667,298.667h17.067V256h-17.067V298.667z"/>
		<path style="fill:#428DFF;" d="M98.25,486.4H53.671c-6.075-0.01-10.997-4.933-11.004-11.008V311.325
			c0.007-6.988,5.67-12.651,12.658-12.658h40.363c22.549,0.027,40.821,18.301,40.846,40.85v108.6
			C136.509,469.25,119.383,486.375,98.25,486.4L98.25,486.4z M59.733,469.333H98.25c11.712-0.013,21.204-9.504,21.217-21.217v-108.6
			c-0.013-13.128-10.651-23.768-23.779-23.783H59.733V469.333z"/>
		<path style="fill:#428DFF;" d="M59.733,486.4H51.2C22.936,486.369,0.031,463.464,0,435.2v-85.333
			c0.031-28.264,22.936-51.169,51.2-51.2h8.533V486.4z M42.667,316.817c-15.06,3.908-25.581,17.491-25.6,33.05V435.2
			c0.019,15.558,10.54,29.142,25.6,33.05V316.817z"/>
		<path style="fill:#428DFF;" d="M460.8,486.4h-8.533V298.667h8.533c28.264,0.031,51.169,22.936,51.2,51.2V435.2
			C511.969,463.464,489.064,486.369,460.8,486.4L460.8,486.4z M469.333,316.817V468.25c15.06-3.908,25.582-17.492,25.6-33.05
			v-85.333C494.915,334.308,484.393,320.725,469.333,316.817L469.333,316.817z"/>
		<path style="fill:#428DFF;" d="M458.329,486.4H413.75c-21.133-0.025-38.259-17.15-38.283-38.283v-108.6
			c0.025-22.549,18.297-40.823,40.846-40.85h41.663c6.27,0.006,11.352,5.088,11.358,11.358v165.367
			C469.326,481.467,464.404,486.39,458.329,486.4L458.329,486.4z M416.313,315.733c-13.128,0.015-23.767,10.655-23.779,23.783v108.6
			c0.013,11.712,9.504,21.204,21.217,21.217h38.517v-153.6H416.313z"/>
		<path style="fill:#428DFF;" d="M128,349.867h-25.6c-4.713,0-8.533-3.821-8.533-8.533s3.821-8.533,8.533-8.533H128
			c4.713,0,8.533,3.82,8.533,8.533S132.713,349.867,128,349.867z"/>
		<path style="fill:#428DFF;" d="M128,384h-25.6c-4.713,0-8.533-3.821-8.533-8.533c0-4.713,3.821-8.533,8.533-8.533H128
			c4.713,0,8.533,3.821,8.533,8.533C136.533,380.18,132.713,384,128,384z"/>
		<path style="fill:#428DFF;" d="M128,418.133h-25.6c-4.713,0-8.533-3.821-8.533-8.533c0-4.713,3.821-8.533,8.533-8.533H128
			c4.713,0,8.533,3.821,8.533,8.533C136.533,414.313,132.713,418.133,128,418.133z"/>
		<path style="fill:#428DFF;" d="M128,452.267h-25.6c-4.713,0-8.533-3.821-8.533-8.533c0-4.713,3.821-8.533,8.533-8.533H128
			c4.713,0,8.533,3.821,8.533,8.533C136.533,448.446,132.713,452.267,128,452.267z"/>
		<path style="fill:#428DFF;" d="M409.6,349.867H384c-4.713,0-8.533-3.821-8.533-8.533s3.821-8.533,8.533-8.533h25.6
			c4.713,0,8.533,3.82,8.533,8.533S414.313,349.867,409.6,349.867z"/>
		<path style="fill:#428DFF;" d="M409.6,384H384c-4.713,0-8.533-3.821-8.533-8.533c0-4.713,3.821-8.533,8.533-8.533h25.6
			c4.713,0,8.533,3.821,8.533,8.533C418.133,380.18,414.313,384,409.6,384z"/>
		<path style="fill:#428DFF;" d="M409.6,418.133H384c-4.713,0-8.533-3.821-8.533-8.533c0-4.713,3.821-8.533,8.533-8.533h25.6
			c4.713,0,8.533,3.821,8.533,8.533C418.133,414.313,414.313,418.133,409.6,418.133z"/>
		<path style="fill:#428DFF;" d="M409.6,452.267H384c-4.713,0-8.533-3.821-8.533-8.533c0-4.713,3.821-8.533,8.533-8.533h25.6
			c4.713,0,8.533,3.821,8.533,8.533C418.133,448.446,414.313,452.267,409.6,452.267z"/>
		<path style="fill:#428DFF;" d="M368.725,144.975c-6.055-0.003-11.906-2.193-16.475-6.167C333,122.133,286.942,110.933,256,110.933
			s-77,11.2-96.25,27.875c-9.51,8.337-23.763,8.208-33.121-0.3l-26.458-24.317c-5.156-4.754-8.08-11.454-8.058-18.467
			c0.021-6.872,2.925-13.421,8.004-18.05c9.85-8.678,20.763-16.071,32.475-22c2.704-1.418,5.96-1.282,8.537,0.355
			c2.577,1.638,4.083,4.528,3.948,7.578s-1.89,5.796-4.602,7.2c-10.42,5.259-20.132,11.817-28.904,19.517
			c-1.537,1.4-2.407,3.388-2.392,5.467c-0.008,2.216,0.916,4.332,2.546,5.833l26.458,24.317c2.954,2.67,7.455,2.656,10.392-0.033
			c25.517-22.1,78.179-32.042,107.425-32.042c29.246,0,81.908,9.941,107.425,32.042c2.934,2.693,7.436,2.707,10.387,0.033
			l26.467-24.317c1.627-1.502,2.549-3.619,2.542-5.833c0.016-2.08-0.856-4.068-2.396-5.467
			C366.258,59.366,300.513,42.667,256,42.667c-20.868,0.292-41.627,3.07-61.837,8.275c-4.561,1.127-9.175-1.645-10.322-6.201
			c-1.147-4.556,1.604-9.182,6.155-10.349c21.574-5.544,43.731-8.496,66.004-8.792c48.9,0,118.146,17.892,155.883,52.075
			c5.08,4.629,7.984,11.177,8.004,18.05c0.021,7.012-2.901,13.712-8.054,18.467l-26.467,24.317
			C380.831,142.681,374.888,144.99,368.725,144.975z"/>
		<circle style="fill:#428DFF;" cx="164.318" cy="49.894" r="8.533"/>
	</g>
	<path id="SVGCleanerId_0" style="fill:#428DFF;" d="M110.933,256H42.667v-22.308c-0.322-51.142,18.381-100.578,52.475-138.7
		l10.012-11.075l4.463,14.25c0.381,1.313,1.105,2.5,2.096,3.442l26.47,24.333c0.896,0.808,1.978,1.38,3.15,1.667l13.396,3.583
		l-9.233,10.342c-22.31,25.515-34.592,58.265-34.563,92.158V256z M59.733,238.933h34.133v-5.242
		c-0.158-34.574,11.208-68.215,32.304-95.608l-25.412-23.358C73.951,148.56,59.48,190.524,59.733,233.692V238.933z"/>
	<path style="fill:#428DFF;" d="M469.333,256h-68.267v-22.308c-0.515-34.219-14.191-66.925-38.188-91.325L349.2,128.25l19.658-0.35
		c1.838-0.018,3.604-0.715,4.958-1.958l26.462-24.325c0.586-0.57,1.075-1.232,1.45-1.958l5.746-10.217l7.954,8.608
		c34.45,36.786,53.707,85.243,53.904,135.642V256z M418.133,238.933h34.133v-5.242c-0.154-42.869-15.439-84.307-43.158-117.008
		l-23.742,21.825c-0.567,0.517-1.155,1.008-1.766,1.475c21.934,26.341,34.129,59.433,34.533,93.708V238.933z"/>
	<g>
		<path id="SVGCleanerId_0_1_" style="fill:#428DFF;" d="M110.933,256H42.667v-22.308c-0.322-51.142,18.381-100.578,52.475-138.7
			l10.012-11.075l4.463,14.25c0.381,1.313,1.105,2.5,2.096,3.442l26.47,24.333c0.896,0.808,1.978,1.38,3.15,1.667l13.396,3.583
			l-9.233,10.342c-22.31,25.515-34.592,58.265-34.563,92.158V256z M59.733,238.933h34.133v-5.242
			c-0.158-34.574,11.208-68.215,32.304-95.608l-25.412-23.358C73.951,148.56,59.48,190.524,59.733,233.692V238.933z"/>
	</g>
</g>
<g>
</g>
<g>
</g>
<g>
</g>
<g>
</g>
<g>
</g>
<g>
</g>
<g>
</g>
<g>
</g>
<g>
</g>
<g>
</g>
<g>
</g>
<g>
</g>
<g>
</g>
<g>
</g>
<g>
</g>
</svg>
