<svg height="512" viewBox="0 0 64 64" width="512" xmlns="http://www.w3.org/2000/svg"><g id="Ebook-2" data-name="Ebook"><path d="m57 53 2 8 2-8v-50h-4z" fill="#9bc9ff"/><path d="m21 46v7h30v-42h-30v11a.757.757 0 0 0 -.01-.15 3.987 3.987 0 0 0 -3.99-3.85h-10v24h28v-22h4v26z" fill="#9bc9ff"/><g fill="#57a4ff"><path d="m61 2h-4a1 1 0 0 0 -1 1v50a1 1 0 0 0 .03.243l2 8a1 1 0 0 0 1.94 0l2-8a1 1 0 0 0 .03-.243v-50a1 1 0 0 0 -1-1zm-1 2v48h-2v-48zm-1 52.877-.719-2.877h1.438z"/><path d="m49 2h-26a3 3 0 0 0 -3 3v13.026a4.948 4.948 0 0 0 -3-1.026h-10a1 1 0 0 0 -1 1v1h-3a1 1 0 0 0 -1 1v26a1 1 0 0 0 1 1h17v12a3 3 0 0 0 3 3h26a3 3 0 0 0 3-3v-54a3 3 0 0 0 -3-3zm-26 2h26a1 1 0 0 1 1 1v5h-28v-5a1 1 0 0 1 1-1zm-1 18a3 3 0 0 1 3-3h9v22h-12zm-14-3h9a3 3 0 0 1 3 3v19h-12zm-4 2h2v21a1 1 0 0 0 1 1h28a1 1 0 0 0 1-1v-21h2v24h-34zm35 26a1 1 0 0 0 1-1v-26a1 1 0 0 0 -1-1h-3v-1a1 1 0 0 0 -1-1h-10a4.948 4.948 0 0 0 -3 1.026v-6.026h28v40h-28v-5zm10 13h-26a1 1 0 0 1 -1-1v-5h28v5a1 1 0 0 1 -1 1z"/><path d="m46 6h2v2h-2z"/><path d="m38 6h6v2h-6z"/><path d="m10 21h8v2h-8z"/><path d="m10 25h8v2h-8z"/><path d="m10 29h8v2h-8z"/><path d="m10 33h8v2h-8z"/><path d="m10 37h8v2h-8z"/><path d="m24 21h2v2h-2z"/><path d="m28 21h4v2h-4z"/><path d="m24 25h2v2h-2z"/><path d="m28 25h4v2h-4z"/><path d="m24 29h2v2h-2z"/><path d="m28 29h4v2h-4z"/><path d="m24 33h2v2h-2z"/><path d="m28 33h4v2h-4z"/><path d="m24 37h2v2h-2z"/><path d="m28 37h4v2h-4z"/></g></g></svg>