<?xml version="1.0" encoding="iso-8859-1"?>
<!-- Generator: Adobe Illustrator 19.0.0, SVG Export Plug-In . SVG Version: 6.00 Build 0)  -->
<svg version="1.1" id="Capa_1" xmlns="http://www.w3.org/2000/svg" xmlns:xlink="http://www.w3.org/1999/xlink" x="0px" y="0px"
	 viewBox="0 0 512 512" style="enable-background:new 0 0 512 512;" xml:space="preserve">
<g>
	<path style="fill:#E3E7F2;" d="M443.449,17.067h-45.913c0.921,17.857-12.751,33.106-30.602,34.133
		c-16.901,0-42.078-15.282-42.078-34.133H68.551c-20.077,1.155-35.453,18.305-34.418,38.389V102.4h8.533v34.133h-8.533V473.61
		c-1.036,20.084,14.341,37.234,34.418,38.39h256.304c0-18.852,25.177-34.133,42.078-34.133
		c17.852,1.027,31.524,16.276,30.602,34.133h45.913c20.077-1.155,35.453-18.306,34.418-38.39V55.455
		C478.902,35.372,463.526,18.222,443.449,17.067z"/>
	<path style="fill:#FFFFFF;" d="M34.133,55.455c-1.035-20.083,14.341-37.234,34.418-38.389H46.922
		c-21.201,0-38.389,17.187-38.389,38.389V102.4h25.6V55.455z"/>
	<path style="fill:#E3E7F2;" d="M355.457,477.867c-17.851,1.027-31.523,16.276-30.602,34.133h7.945
		c0.015-16.498,11.842-30.617,28.082-33.523C359.099,478.094,357.281,477.89,355.457,477.867L355.457,477.867z"/>
	<path style="fill:#FFFFFF;" d="M34.133,473.61V136.533h-25.6V473.61c0,10.181,4.044,19.946,11.244,27.145
		C26.976,507.955,36.741,512,46.922,512h21.629C48.474,510.845,33.098,493.694,34.133,473.61z"/>
	<path style="fill:#A4C2F7;" d="M465.078,17.067h-21.629c20.077,1.155,35.453,18.305,34.418,38.389V473.61
		c1.036,20.084-14.341,37.234-34.418,38.39h21.629c10.181,0,19.946-4.045,27.145-11.244c7.199-7.199,11.244-16.964,11.244-27.145
		V55.455C503.466,34.254,486.279,17.067,465.078,17.067z"/>
	<g>
		<rect x="187.733" y="110.933" style="fill:#D4E1F4;" width="136.533" height="34.133"/>
		<rect x="187.733" y="384" style="fill:#D4E1F4;" width="136.533" height="34.133"/>
		<rect x="375.467" y="196.267" style="fill:#D4E1F4;" width="34.133" height="136.533"/>
		<rect x="102.4" y="196.267" style="fill:#D4E1F4;" width="34.133" height="136.533"/>
	</g>
	<path style="fill:#A4C2F7;" d="M349.867,172.134v184.798c0,14.949-12.119,27.068-27.068,27.068H163.601
		c-14.949,0-27.068-12.119-27.068-27.068V172.134c0-14.949,12.119-27.068,27.068-27.068h159.198
		C337.748,145.067,349.867,157.185,349.867,172.134z"/>
	<path style="fill:#7FACFA;" d="M346.817,145.067h-24.022c14.951,0,27.071,12.12,27.072,27.071v184.791
		c0,14.951-12.121,27.072-27.072,27.072h24.022c15.823,0,28.65-12.827,28.65-28.65V173.717
		C375.467,157.894,362.64,145.067,346.817,145.067z"/>
	<g>
		<circle style="fill:#428DFF;" cx="42.667" cy="51.2" r="8.533"/>
		<circle style="fill:#428DFF;" cx="469.333" cy="51.2" r="8.533"/>
		<circle style="fill:#428DFF;" cx="42.667" cy="477.867" r="8.533"/>
		<circle style="fill:#428DFF;" cx="93.867" cy="486.4" r="8.533"/>
		<circle style="fill:#428DFF;" cx="128" cy="486.4" r="8.533"/>
		<circle style="fill:#428DFF;" cx="162.133" cy="486.4" r="8.533"/>
		<circle style="fill:#428DFF;" cx="196.267" cy="486.4" r="8.533"/>
		<circle style="fill:#428DFF;" cx="324.267" cy="341.333" r="8.533"/>
		<circle style="fill:#428DFF;" cx="290.133" cy="341.333" r="8.533"/>
		<circle style="fill:#428DFF;" cx="307.2" cy="315.733" r="8.533"/>
		<circle style="fill:#428DFF;" cx="256" cy="341.333" r="8.533"/>
		<circle style="fill:#428DFF;" cx="221.867" cy="341.333" r="8.533"/>
		<circle style="fill:#428DFF;" cx="273.067" cy="315.733" r="8.533"/>
		<circle style="fill:#428DFF;" cx="238.933" cy="315.733" r="8.533"/>
		<circle style="fill:#428DFF;" cx="187.733" cy="341.333" r="8.533"/>
		<circle style="fill:#428DFF;" cx="204.8" cy="315.733" r="8.533"/>
		<circle style="fill:#428DFF;" cx="324.267" cy="290.133" r="8.533"/>
		<circle style="fill:#428DFF;" cx="290.133" cy="290.133" r="8.533"/>
		<circle style="fill:#428DFF;" cx="307.2" cy="264.533" r="8.533"/>
		<circle style="fill:#428DFF;" cx="256" cy="290.133" r="8.533"/>
		<circle style="fill:#428DFF;" cx="221.867" cy="290.133" r="8.533"/>
		<circle style="fill:#428DFF;" cx="273.067" cy="264.533" r="8.533"/>
		<circle style="fill:#428DFF;" cx="238.933" cy="264.533" r="8.533"/>
		<circle style="fill:#428DFF;" cx="187.733" cy="290.133" r="8.533"/>
		<circle style="fill:#428DFF;" cx="204.8" cy="264.533" r="8.533"/>
		<circle style="fill:#428DFF;" cx="324.267" cy="238.933" r="8.533"/>
		<circle style="fill:#428DFF;" cx="290.133" cy="238.933" r="8.533"/>
		<circle style="fill:#428DFF;" cx="307.2" cy="213.333" r="8.533"/>
		<circle style="fill:#428DFF;" cx="256" cy="238.933" r="8.533"/>
		<circle style="fill:#428DFF;" cx="221.867" cy="238.933" r="8.533"/>
		<circle style="fill:#428DFF;" cx="273.067" cy="213.333" r="8.533"/>
		<circle style="fill:#428DFF;" cx="238.933" cy="213.333" r="8.533"/>
		<circle style="fill:#428DFF;" cx="187.733" cy="238.933" r="8.533"/>
		<circle style="fill:#428DFF;" cx="204.8" cy="213.333" r="8.533"/>
		<circle style="fill:#428DFF;" cx="324.267" cy="187.733" r="8.533"/>
		<circle style="fill:#428DFF;" cx="290.133" cy="187.733" r="8.533"/>
		<circle style="fill:#428DFF;" cx="256" cy="187.733" r="8.533"/>
		<circle style="fill:#428DFF;" cx="221.867" cy="187.733" r="8.533"/>
		<circle style="fill:#428DFF;" cx="187.733" cy="187.733" r="8.533"/>
		<circle style="fill:#428DFF;" cx="469.333" cy="477.867" r="8.533"/>
		<path style="fill:#428DFF;" d="M346.817,392.533H165.183c-20.526-0.024-37.159-16.657-37.183-37.183V173.717
			c0.024-20.526,16.657-37.159,37.183-37.183h181.633c20.526,0.024,37.16,16.657,37.183,37.183V355.35
			C383.976,375.876,367.343,392.51,346.817,392.533L346.817,392.533z M165.183,153.6c-11.105,0.013-20.104,9.012-20.117,20.117
			V355.35c0.013,11.105,9.012,20.104,20.117,20.117h181.633c11.105-0.013,20.104-9.012,20.117-20.117V173.717
			c-0.013-11.105-9.012-20.104-20.117-20.117H165.183z"/>
		<path style="fill:#428DFF;" d="M332.8,153.6H179.2v-51.2h153.6V153.6z M196.267,136.533h119.467v-17.067H196.267V136.533z"/>
		<path style="fill:#428DFF;" d="M332.8,426.667H179.2v-51.2h153.6V426.667z M196.267,409.6h119.467v-17.067H196.267V409.6z"/>
		<path style="fill:#428DFF;" d="M418.133,341.333h-51.2v-153.6h51.2V341.333z M384,324.267h17.067V204.8H384V324.267z"/>
		<path style="fill:#428DFF;" d="M145.067,341.333h-51.2v-153.6h51.2V341.333z M110.933,324.267H128V204.8h-17.067V324.267z"/>
		<path style="fill:#428DFF;" d="M102.4,221.867H76.8c-4.713,0-8.533-3.821-8.533-8.533s3.821-8.533,8.533-8.533h25.6
			c4.713,0,8.533,3.82,8.533,8.533S107.113,221.867,102.4,221.867z"/>
		<path style="fill:#428DFF;" d="M102.4,324.267H76.8c-4.713,0-8.533-3.821-8.533-8.533c0-4.713,3.821-8.533,8.533-8.533h25.6
			c4.713,0,8.533,3.821,8.533,8.533C110.933,320.446,107.113,324.267,102.4,324.267z"/>
		<path style="fill:#428DFF;" d="M102.4,290.133H76.8c-4.713,0-8.533-3.821-8.533-8.533s3.821-8.533,8.533-8.533h25.6
			c4.713,0,8.533,3.82,8.533,8.533S107.113,290.133,102.4,290.133z"/>
		<path style="fill:#428DFF;" d="M102.4,256H76.8c-4.713,0-8.533-3.82-8.533-8.533c0-4.713,3.821-8.533,8.533-8.533h25.6
			c4.713,0,8.533,3.821,8.533,8.533C110.933,252.18,107.113,256,102.4,256z"/>
		<path style="fill:#428DFF;" d="M435.2,221.867h-25.6c-4.713,0-8.533-3.821-8.533-8.533s3.821-8.533,8.533-8.533h25.6
			c4.713,0,8.533,3.82,8.533,8.533S439.913,221.867,435.2,221.867z"/>
		<path style="fill:#428DFF;" d="M435.2,324.267h-25.6c-4.713,0-8.533-3.821-8.533-8.533c0-4.713,3.821-8.533,8.533-8.533h25.6
			c4.713,0,8.533,3.821,8.533,8.533C443.733,320.446,439.913,324.267,435.2,324.267z"/>
		<path style="fill:#428DFF;" d="M435.2,290.133h-25.6c-4.713,0-8.533-3.821-8.533-8.533s3.821-8.533,8.533-8.533h25.6
			c4.713,0,8.533,3.82,8.533,8.533S439.913,290.133,435.2,290.133z"/>
		<path style="fill:#428DFF;" d="M435.2,256h-25.6c-4.713,0-8.533-3.82-8.533-8.533c0-4.713,3.821-8.533,8.533-8.533h25.6
			c4.713,0,8.533,3.821,8.533,8.533C443.733,252.18,439.913,256,435.2,256z"/>
		<path style="fill:#428DFF;" d="M307.2,119.467c-2.263,0.001-4.434-0.898-6.035-2.499c-1.6-1.6-2.499-3.771-2.499-6.035v-25.6
			c0-4.713,3.82-8.533,8.533-8.533s8.533,3.821,8.533,8.533v25.6c0.001,2.263-0.898,4.434-2.499,6.035
			C311.634,118.568,309.463,119.467,307.2,119.467L307.2,119.467z"/>
		<path style="fill:#428DFF;" d="M204.8,119.467c-2.263,0.001-4.434-0.898-6.035-2.499c-1.6-1.6-2.499-3.771-2.499-6.035v-25.6
			c0-4.713,3.821-8.533,8.533-8.533c4.713,0,8.533,3.821,8.533,8.533v25.6c0.001,2.263-0.898,4.434-2.499,6.035
			C209.234,118.568,207.063,119.467,204.8,119.467L204.8,119.467z"/>
		<path style="fill:#428DFF;" d="M238.933,119.467c-2.263,0.001-4.434-0.898-6.035-2.499c-1.6-1.6-2.499-3.771-2.499-6.035v-25.6
			c0-4.713,3.821-8.533,8.533-8.533c4.713,0,8.533,3.821,8.533,8.533v25.6c0.001,2.263-0.898,4.434-2.499,6.035
			C243.368,118.568,241.197,119.467,238.933,119.467L238.933,119.467z"/>
		<path style="fill:#428DFF;" d="M273.067,119.467c-2.263,0.001-4.434-0.898-6.035-2.499c-1.6-1.6-2.499-3.771-2.499-6.035v-25.6
			c0-4.713,3.82-8.533,8.533-8.533s8.533,3.821,8.533,8.533v25.6c0.001,2.263-0.898,4.434-2.499,6.035
			C277.501,118.568,275.33,119.467,273.067,119.467L273.067,119.467z"/>
		<path style="fill:#428DFF;" d="M307.2,452.267c-2.263,0.001-4.434-0.898-6.035-2.499c-1.6-1.6-2.499-3.771-2.499-6.035v-25.6
			c0-4.713,3.82-8.533,8.533-8.533s8.533,3.82,8.533,8.533v25.6c0.001,2.263-0.898,4.434-2.499,6.035
			C311.634,451.368,309.463,452.267,307.2,452.267L307.2,452.267z"/>
		<path style="fill:#428DFF;" d="M204.8,452.267c-2.263,0.001-4.434-0.898-6.035-2.499c-1.6-1.6-2.499-3.771-2.499-6.035v-25.6
			c0-4.713,3.821-8.533,8.533-8.533c4.713,0,8.533,3.82,8.533,8.533v25.6c0.001,2.263-0.898,4.434-2.499,6.035
			C209.234,451.368,207.063,452.267,204.8,452.267L204.8,452.267z"/>
		<path style="fill:#428DFF;" d="M238.933,452.267c-2.263,0.001-4.434-0.898-6.035-2.499c-1.6-1.6-2.499-3.771-2.499-6.035v-25.6
			c0-4.713,3.821-8.533,8.533-8.533c4.713,0,8.533,3.82,8.533,8.533v25.6c0.001,2.263-0.898,4.434-2.499,6.035
			C243.368,451.368,241.197,452.267,238.933,452.267L238.933,452.267z"/>
		<path style="fill:#428DFF;" d="M273.067,452.267c-2.263,0.001-4.434-0.898-6.035-2.499c-1.6-1.6-2.499-3.771-2.499-6.035v-25.6
			c0-4.713,3.82-8.533,8.533-8.533s8.533,3.82,8.533,8.533v25.6c0.001,2.263-0.898,4.434-2.499,6.035
			C277.501,451.368,275.33,452.267,273.067,452.267L273.067,452.267z"/>
		<path style="fill:#428DFF;" d="M503.467,170.667h-25.6c-4.713,0-8.533-3.821-8.533-8.533c0-4.713,3.821-8.533,8.533-8.533h25.6
			c4.713,0,8.533,3.821,8.533,8.533C512,166.846,508.18,170.667,503.467,170.667z"/>
		<path style="fill:#428DFF;" d="M503.467,196.267h-25.6c-4.713,0-8.533-3.821-8.533-8.533c0-4.713,3.821-8.533,8.533-8.533h25.6
			c4.713,0,8.533,3.821,8.533,8.533C512,192.446,508.18,196.267,503.467,196.267z"/>
		<path style="fill:#428DFF;" d="M503.467,221.867h-25.6c-4.713,0-8.533-3.821-8.533-8.533s3.821-8.533,8.533-8.533h25.6
			c4.713,0,8.533,3.82,8.533,8.533S508.18,221.867,503.467,221.867z"/>
		<path style="fill:#428DFF;" d="M503.467,247.467h-25.6c-4.713,0-8.533-3.821-8.533-8.533c0-4.713,3.821-8.533,8.533-8.533h25.6
			c4.713,0,8.533,3.821,8.533,8.533C512,243.646,508.18,247.467,503.467,247.467z"/>
		<path style="fill:#428DFF;" d="M503.467,273.067h-25.6c-4.713,0-8.533-3.82-8.533-8.533s3.821-8.533,8.533-8.533h25.6
			c4.713,0,8.533,3.821,8.533,8.533S508.18,273.067,503.467,273.067z"/>
		<path style="fill:#428DFF;" d="M503.467,298.667h-25.6c-4.713,0-8.533-3.821-8.533-8.533c0-4.713,3.821-8.533,8.533-8.533h25.6
			c4.713,0,8.533,3.821,8.533,8.533C512,294.846,508.18,298.667,503.467,298.667z"/>
		<path style="fill:#428DFF;" d="M503.467,324.267h-25.6c-4.713,0-8.533-3.821-8.533-8.533c0-4.713,3.821-8.533,8.533-8.533h25.6
			c4.713,0,8.533,3.821,8.533,8.533C512,320.446,508.18,324.267,503.467,324.267z"/>
		<path style="fill:#428DFF;" d="M503.467,349.867h-25.6c-4.713,0-8.533-3.821-8.533-8.533s3.821-8.533,8.533-8.533h25.6
			c4.713,0,8.533,3.82,8.533,8.533S508.18,349.867,503.467,349.867z"/>
		<path style="fill:#428DFF;" d="M503.467,375.467h-25.6c-4.713,0-8.533-3.82-8.533-8.533s3.821-8.533,8.533-8.533h25.6
			c4.713,0,8.533,3.82,8.533,8.533S508.18,375.467,503.467,375.467z"/>
		<circle style="fill:#428DFF;" cx="34.133" cy="324.267" r="8.533"/>
		<circle style="fill:#428DFF;" cx="34.133" cy="358.4" r="8.533"/>
		<circle style="fill:#428DFF;" cx="34.133" cy="392.533" r="8.533"/>
		<circle style="fill:#428DFF;" cx="34.133" cy="426.667" r="8.533"/>
		<path style="fill:#428DFF;" d="M465.079,512h-72.546v-8.533c0-14.138-11.462-25.6-25.6-25.6s-25.6,11.462-25.6,25.6V512H46.921
			C21.018,511.969,0.029,490.978,0,465.075V290.133c0-4.713,3.821-8.533,8.533-8.533s8.533,3.821,8.533,8.533v174.942
			c0.016,16.482,13.372,29.84,29.854,29.858h278.204c4.057-19.866,21.533-34.133,41.808-34.133
			c20.276,0,37.751,14.268,41.808,34.133h56.337c16.482-0.018,29.838-13.376,29.855-29.858V46.925
			c-0.016-16.482-13.372-29.84-29.854-29.858h-56.337C404.685,36.932,387.209,51.2,366.934,51.2s-37.751-14.268-41.808-34.133
			H46.921c-16.482,0.019-29.838,13.376-29.854,29.858v38.409H51.2v51.2H17.067v85.333c0,4.713-3.821,8.533-8.533,8.533
			S0,226.579,0,221.867v-102.4h34.133V102.4H0V46.925C0.029,21.022,21.018,0.031,46.921,0h294.412v8.533
			c0,14.138,11.462,25.6,25.6,25.6s25.6-11.462,25.6-25.6V0h72.546C490.982,0.031,511.971,21.022,512,46.925v418.15
			C511.971,490.978,490.982,511.969,465.079,512z"/>
		<circle style="fill:#428DFF;" cx="8.533" cy="256" r="8.533"/>
	</g>
</g>
<g>
</g>
<g>
</g>
<g>
</g>
<g>
</g>
<g>
</g>
<g>
</g>
<g>
</g>
<g>
</g>
<g>
</g>
<g>
</g>
<g>
</g>
<g>
</g>
<g>
</g>
<g>
</g>
<g>
</g>
</svg>
