<svg height="512" viewBox="0 0 64 64" width="512" xmlns="http://www.w3.org/2000/svg"><path d="m44.32 2.69-9.66 2.59a2 2 0 0 0 -1.41 2.45l13.98 52.16a2 2 0 0 0 2.45 1.42l9.66-2.59a2 2 0 0 0 1.41-2.45l-13.98-52.16a2 2 0 0 0 -2.45-1.42zm8.94 41.09 2.59 9.66-5.79 1.55-2.59-9.66zm-12-21.63-3.11-11.59 5.79-1.55 3.11 11.59z" fill="#9bc9ff"/><path d="m5 61h10a2.006 2.006 0 0 0 2-2 2.006 2.006 0 0 0 2 2h10a2.006 2.006 0 0 0 2-2v-54a2.006 2.006 0 0 0 -2-2h-10a2.006 2.006 0 0 0 -2 2 2.006 2.006 0 0 0 -2-2h-10a2.006 2.006 0 0 0 -2 2v54a2.006 2.006 0 0 0 2 2zm8-6h-6v-10h6zm14 0h-6v-10h6zm-6-46h6v12h-6zm-14 0h6v12h-6z" fill="#9bc9ff"/><g fill="#57a4ff"><path d="m29 2h-10a2.981 2.981 0 0 0 -2 .78 2.981 2.981 0 0 0 -2-.78h-10a3 3 0 0 0 -3 3v54a3 3 0 0 0 3 3h10a2.981 2.981 0 0 0 2-.78 2.981 2.981 0 0 0 2 .78h10a3 3 0 0 0 3-3v-54a3 3 0 0 0 -3-3zm-14 58h-10a1 1 0 0 1 -1-1v-54a1 1 0 0 1 1-1h10a1 1 0 0 1 1 1v54a1 1 0 0 1 -1 1zm15-1a1 1 0 0 1 -1 1h-10a1 1 0 0 1 -1-1v-54a1 1 0 0 1 1-1h10a1 1 0 0 1 1 1z"/><path d="m13 8h-6a1 1 0 0 0 -1 1v12a1 1 0 0 0 1 1h6a1 1 0 0 0 1-1v-12a1 1 0 0 0 -1-1zm-1 12h-4v-10h4z"/><path d="m27 8h-6a1 1 0 0 0 -1 1v12a1 1 0 0 0 1 1h6a1 1 0 0 0 1-1v-12a1 1 0 0 0 -1-1zm-1 12h-4v-10h4z"/><path d="m6 26h8v2h-8z"/><path d="m6 32h8v2h-8z"/><path d="m6 38h8v2h-8z"/><path d="m20 26h8v2h-8z"/><path d="m20 32h8v2h-8z"/><path d="m20 38h8v2h-8z"/><path d="m13 44h-6a1 1 0 0 0 -1 1v10a1 1 0 0 0 1 1h6a1 1 0 0 0 1-1v-10a1 1 0 0 0 -1-1zm-1 10h-4v-8h4z"/><path d="m27 44h-6a1 1 0 0 0 -1 1v10a1 1 0 0 0 1 1h6a1 1 0 0 0 1-1v-10a1 1 0 0 0 -1-1zm-1 10h-4v-8h4z"/><path d="m61.716 56.009-13.977-52.16a3.006 3.006 0 0 0 -3.674-2.121l-9.659 2.588a3.006 3.006 0 0 0 -2.122 3.675l13.977 52.16a3 3 0 0 0 3.674 2.121l9.659-2.588a3.006 3.006 0 0 0 2.122-3.675zm-2.64 1.743-9.659 2.588a1 1 0 0 1 -1.225-.707l-13.976-52.159a1 1 0 0 1 .708-1.226l9.659-2.588a1 1 0 0 1 1.225.707l13.976 52.159a1 1 0 0 1 -.708 1.226z"/><path d="m48.017 20.339-3.106-11.59a1 1 0 0 0 -1.224-.707l-5.8 1.552a1.007 1.007 0 0 0 -.608.466 1 1 0 0 0 -.1.759l3.11 11.591a1 1 0 0 0 1.225.707l5.8-1.553a1 1 0 0 0 .703-1.225zm-6.055.588-2.588-9.66 3.864-1.035 2.588 9.659z"/><path d="m41.706 26.171h8v2h-8z" transform="matrix(.966 -.259 .259 .966 -5.474 12.754)"/><path d="m43.259 31.966h7.999v2h-7.999z" transform="matrix(.966 -.259 .259 .966 -6.922 13.355)"/><path d="m44.812 37.762h8v2h-8z" transform="matrix(.966 -.259 .259 .966 -8.37 13.956)"/><path d="m54.229 43.522a1 1 0 0 0 -1.229-.707l-5.8 1.553a1 1 0 0 0 -.707 1.224l2.588 9.659a1 1 0 0 0 .965.742.962.962 0 0 0 .259-.035l5.8-1.552a1.007 1.007 0 0 0 .608-.466 1 1 0 0 0 .1-.759zm-3.467 10.246-2.071-7.727 3.865-1.036 2.07 7.728z"/></g></svg>