<svg height="512" viewBox="0 0 64 64" width="512" xmlns="http://www.w3.org/2000/svg"><path d="m54 48a2 2 0 0 1 -4 0v-2h-7v11a4 4 0 0 0 4 4h10a4 4 0 0 0 4-4v-11h-7z" fill="#9bc9ff"/><path d="m55 7v22h3 3v-22h-3z" fill="#9bc9ff"/><path d="m30 23a1 1 0 0 0 -1-1h-20a1 1 0 0 0 -1 1v13h22z" fill="#9bc9ff"/><path d="m4.41 44.11a1.981 1.981 0 0 0 1.66.89h25.86a1.981 1.981 0 0 0 1.66-.89l1.34-2a2 2 0 0 0 -1.67-3.11h-11.26v3h-6v-3h-11.26a2 2 0 0 0 -1.67 3.11z" fill="#9bc9ff"/><g fill="#57a4ff"><path d="m29 21h-20a2 2 0 0 0 -2 2v13a1 1 0 0 0 1 1h22a1 1 0 0 0 1-1v-13a2 2 0 0 0 -2-2zm0 14h-20v-12h20z"/><path d="m57 38h-4v-3a5.006 5.006 0 0 0 -5-5v-19h-.009a.991.991 0 0 0 -.284-.707l-8-8a.99.99 0 0 0 -.707-.283v-.01h-30a1 1 0 0 0 -1 1v15.1a5.009 5.009 0 0 0 -4 4.9v15.1a3 3 0 0 0 -1.759 4.568l1.333 2a3 3 0 0 0 2.496 1.332h1.93v15a1 1 0 0 0 1 1h48a5.006 5.006 0 0 0 5-5v-14a5.006 5.006 0 0 0 -5-5zm3 5v2h-5v-1a3 3 0 0 0 -6 0v1h-5v-2a3 3 0 0 1 3-3h10a3 3 0 0 1 3 3zm-7 1v4a1 1 0 0 1 -2 0v-4a1 1 0 0 1 2 0zm-13-38.586 4.586 4.586h-4.586zm-2-1.414v7a1 1 0 0 0 1 1h7v18h-3a5.006 5.006 0 0 0 -5 5v16a1 1 0 0 1 -1 1h-2a1 1 0 0 1 -1-1v-5.842a3.014 3.014 0 0 0 .426-.494l1.333-2a3 3 0 0 0 -1.759-4.564v-15.1a5.006 5.006 0 0 0 -5-5h-19v-14zm-32 19a3 3 0 0 1 3-3h20a3 3 0 0 1 3 3v15h-26zm11 17h4v1h-4zm-11.762 3.555-1.333-2a1 1 0 0 1 .832-1.555h10.263v2a1 1 0 0 0 1 1h6a1 1 0 0 0 1-1v-2h10.263a1 1 0 0 1 .832 1.555l-1.333 2a1 1 0 0 1 -.832.445h-25.86a1 1 0 0 1 -.832-.445zm4.762 2.445h21.93c.024 0 .046-.008.07-.009v5.009a3 3 0 0 0 3 3h2a3 3 0 0 0 3-3v-16a3 3 0 0 1 3-3h5a3 3 0 0 1 3 3v3h-4a5.006 5.006 0 0 0 -5 5v14a4.948 4.948 0 0 0 1.026 3h-33.026zm47 14h-10a3 3 0 0 1 -3-3v-10h5v1a3 3 0 0 0 6 0v-1h5v10a3 3 0 0 1 -3 3z"/><path d="m59 2h-2a3 3 0 0 0 -3 3v24c0 .013.007.024.007.037a.993.993 0 0 0 .062.307c.009.022.014.044.023.066s.007.025.013.037l3 6a1 1 0 0 0 1.79 0l3-6c.006-.012.007-.025.013-.037s.014-.044.023-.066a.993.993 0 0 0 .062-.308c0-.012.007-.023.007-.036v-24a3 3 0 0 0 -3-3zm-3 6h1v20h-1zm3 0h1v20h-1zm-3-3a1 1 0 0 1 1-1h2a1 1 0 0 1 1 1v1h-4zm2 27.764-1.382-2.764h2.764z"/><path d="m12 6h8v2h-8z"/><path d="m28 6h8v2h-8z"/><path d="m22 6h4v2h-4z"/><path d="m12 10h8v2h-8z"/><path d="m28 10h8v2h-8z"/><path d="m36 18h8v2h-8z"/><path d="m36 22h8v2h-8z"/><path d="m36 26h8v2h-8z"/><path d="m22 10h4v2h-4z"/><path d="m12 14h8v2h-8z"/><path d="m28 14h16v2h-16z"/><path d="m22 14h4v2h-4z"/><path d="m12 48h18v2h-18z"/><path d="m12 52h18v2h-18z"/><path d="m12 56h18v2h-18z"/></g></svg>