<?xml version="1.0"?>
<svg xmlns="http://www.w3.org/2000/svg" viewBox="0 0 64 64" width="512" height="512"><g id="Certificate-6" data-name="Certificate"><path d="M12,49v4H52V49A12,12,0,0,0,40,37l-8,8-8-8A12,12,0,0,0,12,49Z" style="fill:#9bc9ff"/><path d="M44,18.95a14.909,14.909,0,0,0,2-.98V9.75L32,15,18,9.75v8.22a14.909,14.909,0,0,0,2,.98A32.456,32.456,0,0,0,32,21,32.456,32.456,0,0,0,44,18.95Z" style="fill:#9bc9ff"/><rect x="8" y="56" width="48" height="2" style="fill:#57a4ff"/><path d="M61,52H53V49A13.015,13.015,0,0,0,40,36H38.9A12.989,12.989,0,0,0,45,25V19.6a15.643,15.643,0,0,0,1.51-.767A1,1,0,0,0,47,17.97V10.443L48.182,10H49v7.184a2.986,2.986,0,0,0-.215,5.553l-1.755,7.02A1,1,0,0,0,48,31h4a1,1,0,0,0,.97-1.243l-1.755-7.02A2.986,2.986,0,0,0,51,17.184V9a1,1,0,0,0-1-1H48.182L32.351,2.063a1.009,1.009,0,0,0-.7,0l-16,6a1,1,0,0,0,0,1.874L17,10.443V17.97a1,1,0,0,0,.49.861A15.423,15.423,0,0,0,19,19.6V25a12.989,12.989,0,0,0,6.1,11H24A13.015,13.015,0,0,0,11,49v3H7A5,5,0,0,0,7,62H61a1,1,0,0,0,1-1V53A1,1,0,0,0,61,52ZM50,19a1,1,0,1,1-1,1A1,1,0,0,1,50,19Zm-.719,10L50,26.123,50.719,29ZM32,4.068,42.485,8H32v2H42.485L32,13.932,18.848,9Zm-.351,11.869a1.009,1.009,0,0,0,.7,0L45,11.193v6.192a15.064,15.064,0,0,1-1.382.641A31.421,31.421,0,0,1,32,20a31.413,31.413,0,0,1-11.624-1.977A14.776,14.776,0,0,1,19,17.385V11.193ZM21,25V20.387A35.362,35.362,0,0,0,32,22a35.37,35.37,0,0,0,11-1.612V25a11,11,0,0,1-22,0ZM37.586,38,32,43.586,26.414,38ZM13,49A11.005,11.005,0,0,1,23.606,38.02L29.586,44H17v2H47V44H34.414l5.98-5.98A11.005,11.005,0,0,1,51,49v3H13ZM60,60H7a3,3,0,0,1,0-6H60Z" style="fill:#57a4ff"/></g></svg>
