<svg height="512" viewBox="0 0 64 64" width="512" xmlns="http://www.w3.org/2000/svg"><path d="m57 13h-11v4.97c-3.07 1.83-8.19 3.03-14 3.03s-10.93-1.2-14-3.03v-4.97h-11a4 4 0 0 0 -4 4v24h58v-24a4 4 0 0 0 -4-4zm-32 24h-16v-12h16zm27-8h-4l2-7a2.006 2.006 0 0 1 -2-2 2.01 2.01 0 0 1 2-2 2 2 0 0 1 0 4z" fill="#9bc9ff"/><path d="m28 49-2 8h12l-2-8z" fill="#9bc9ff"/><g fill="#57a4ff"><path d="m57 12h-6v-3a1 1 0 0 0 -1-1h-1.818l-15.831-5.937a1.009 1.009 0 0 0 -.7 0l-16 6a1 1 0 0 0 0 1.874l1.349.506v1.557h-10a5.006 5.006 0 0 0 -5 5v28a5.006 5.006 0 0 0 5 5h19.719l-1.5 6h-1.219a3 3 0 0 0 0 6h16a3 3 0 0 0 0-6h-1.219l-1.5-6h19.719a5.006 5.006 0 0 0 5-5v-28a5.006 5.006 0 0 0 -5-5zm-10-1.557 1.182-.443h.818v2h-2zm-15-6.375 10.485 3.932h-10.485v2h10.485l-10.485 3.932-13-4.875v-.057h-.152zm-.351 11.869a1.009 1.009 0 0 0 .7 0l12.651-4.744v6.194c-3.071 1.642-7.87 2.613-13 2.613s-9.929-.971-13-2.613v-6.194zm-24.649-1.937h10v3.97a1 1 0 0 0 .488.859c3.331 1.985 8.757 3.171 14.512 3.171s11.181-1.186 14.512-3.171a1 1 0 0 0 .488-.859v-3.97h2v3.184a2.985 2.985 0 0 0 -.246 5.537l-1.715 6a1 1 0 0 0 .961 1.279h4a1 1 0 0 0 .961-1.275l-1.715-6a2.985 2.985 0 0 0 -.246-5.541v-3.184h6a3 3 0 0 1 3 3v23h-56v-23a3 3 0 0 1 3-3zm43 5a1 1 0 1 1 -1 1 1 1 0 0 1 1-1zm0 6.64.674 2.36h-1.348zm-9 33.36a1 1 0 0 1 -1 1h-16a1 1 0 0 1 0-2h16a1 1 0 0 1 1 1zm-4.281-3h-9.438l1.5-6h6.438zm20.281-8h-50a3 3 0 0 1 -3-3v-3h56v3a3 3 0 0 1 -3 3z"/><path d="m54 44h2v2h-2z"/><path d="m9 38h16a1 1 0 0 0 1-1v-12a1 1 0 0 0 -1-1h-16a1 1 0 0 0 -1 1v12a1 1 0 0 0 1 1zm1-12h14v10h-14z"/><path d="m30 24h2v2h-2z"/><path d="m34 24h8v2h-8z"/><path d="m30 28h12v2h-12z"/><path d="m30 32h12v2h-12z"/><path d="m30 36h6v2h-6z"/></g></svg>