<svg height="512" viewBox="0 0 64 64" width="512" xmlns="http://www.w3.org/2000/svg"><g id="Reading-2" data-name="Reading"><path d="m40 57h-2-11-3v4h16z" fill="#9bc9ff"/><path d="m19 26.54c0-2.14 3.14-1.97 4 0l1.51 3.8a5.783 5.783 0 0 1 .49 2.32v3.48a3.939 3.939 0 0 0 .51 1.92s1.8 2.97 2.82 5.12l.67-.18h29v-40h-22a4 4 0 0 0 -4 4 4 4 0 0 0 -4-4h-22v40h13zm19.78-10.04a8.989 8.989 0 1 1 -2.78 6.5 8.949 8.949 0 0 1 2.78-6.5z" fill="#9bc9ff"/><g fill="#57a4ff"><path d="m45 33a10.145 10.145 0 0 0 1.914-.182 10.018 10.018 0 1 0 -1.914.182zm1.429-15.131a7.86 7.86 0 0 1 -2.858 0c.476-1.89 1.129-2.869 1.429-2.869s.953.979 1.429 2.869zm1.331-2.369a7.864 7.864 0 0 1 1.889 1 7.869 7.869 0 0 1 -1.3.762 12.105 12.105 0 0 0 -.589-1.762zm5.171 8.5a7.908 7.908 0 0 1 -1.787 4.114 9.883 9.883 0 0 0 -2.4-1.392 25.659 25.659 0 0 0 .237-2.722zm-3.367 5.561a7.994 7.994 0 0 1 -.935.57c-.032.016-.065.029-.1.044a7.848 7.848 0 0 1 -.766.315 12.171 12.171 0 0 0 .575-1.744 7.879 7.879 0 0 1 1.314.749zm-8.194.569a7.789 7.789 0 0 1 -.931-.567l-.095-.068a7.92 7.92 0 0 1 1.314-.749 12.171 12.171 0 0 0 .575 1.744 8.018 8.018 0 0 1 -.762-.313c-.033-.017-.071-.03-.101-.047zm2.2-1.992a7.447 7.447 0 0 1 2.854 0c-.473 1.885-1.119 2.862-1.424 2.862s-.951-.977-1.427-2.862zm3.23-1.972a9.82 9.82 0 0 0 -3.6 0c-.088-.659-.153-1.377-.183-2.166h3.962c-.028.789-.093 1.507-.179 2.166zm-3.781-4.166c.03-.789.095-1.507.183-2.166a9.82 9.82 0 0 0 3.6 0c.088.659.153 1.377.183 2.166zm-1.363-4.738a7.869 7.869 0 0 1 -1.3-.762 7.845 7.845 0 0 1 1.889-1 12.105 12.105 0 0 0 -.589 1.762zm-.4 2.016a25.659 25.659 0 0 0 -.237 2.722h-3.95a7.908 7.908 0 0 1 1.787-4.114 9.883 9.883 0 0 0 2.403 1.392zm-.237 4.722a25.659 25.659 0 0 0 .24 2.722 9.858 9.858 0 0 0 -2.4 1.392 7.894 7.894 0 0 1 -1.79-4.114zm11.912-2h-3.95a25.659 25.659 0 0 0 -.24-2.722 9.858 9.858 0 0 0 2.4-1.392 7.894 7.894 0 0 1 1.79 4.114z"/><path d="m39 8h12v2h-12z"/><path d="m37 36h16v2h-16z"/><path d="m11 8h16v2h-16z"/><path d="m11 14h16v2h-16z"/><path d="m11 20h16v2h-16z"/><path d="m61 6h-2v-3a1 1 0 0 0 -1-1h-22a4.982 4.982 0 0 0 -4 2.031 4.982 4.982 0 0 0 -4-2.031h-22a1 1 0 0 0 -1 1v3h-2a1 1 0 0 0 -1 1v40a1 1 0 0 0 1 1h15v1.139a4.87 4.87 0 0 0 2.007 3.949l3.96 2.919a1 1 0 0 0 -.967.993v4a1 1 0 0 0 1 1h16a1 1 0 0 0 1-1v-4a.991.991 0 0 0 -.28-.688l3.172-2.226a4.906 4.906 0 0 0 2.108-4.024v-2.062h15a1 1 0 0 0 1-1v-40a1 1 0 0 0 -1-1zm-25-2h21v38h-24v-35a3 3 0 0 1 3-3zm-32 42v-38h1v35a1 1 0 0 0 1 1h12v2zm14-19.463v15.463h-11v-38h21a3 3 0 0 1 3 3v35h-2v.27c-.833-1.711-1.983-3.657-2.621-4.707a2.88 2.88 0 0 1 -.379-1.424v-3.478a6.7 6.7 0 0 0 -.557-2.693l-1.527-3.832a3.632 3.632 0 0 0 -3.93-2.072 2.408 2.408 0 0 0 -1.986 2.473zm21 33.463h-14v-2h14zm5-9.938a2.908 2.908 0 0 1 -1.254 2.385l-5.061 3.553h-10.357l-6.134-4.521a2.894 2.894 0 0 1 -1.194-2.34v-22.6c0-.315.107-.454.4-.515a1.6 1.6 0 0 1 1.675.885l1.525 3.829a4.774 4.774 0 0 1 .4 1.923v3.478a4.92 4.92 0 0 0 .655 2.439c1.575 2.591 3.295 5.833 3.345 6.522v1.9a1 1 0 0 0 1 1h15zm16-4.062h-30v-.9a3.649 3.649 0 0 0 -.251-1.1h28.251a1 1 0 0 0 1-1v-35h1z"/></g></g></svg>