<svg xmlns="http://www.w3.org/2000/svg" xmlns:xlink="http://www.w3.org/1999/xlink" viewBox="0 0 138.19 84.49"><defs><style>.cls-1{fill:url(#linear-gradient);}.cls-2{fill:url(#linear-gradient-2);}.cls-3{fill:url(#linear-gradient-3);}.cls-4{fill:url(#linear-gradient-4);}.cls-5{fill:url(#linear-gradient-5);}.cls-6{fill:url(#linear-gradient-6);}.cls-7{fill:url(#linear-gradient-7);}.cls-8{fill:url(#linear-gradient-8);}.cls-9{fill:url(#linear-gradient-9);}.cls-10{fill:url(#linear-gradient-10);}.cls-11{fill:url(#linear-gradient-11);}.cls-12{fill:url(#linear-gradient-12);}.cls-13{fill:url(#linear-gradient-13);}.cls-14{fill:url(#linear-gradient-14);}.cls-15{fill:url(#linear-gradient-15);}.cls-16{fill:url(#linear-gradient-16);}.cls-17{fill:url(#linear-gradient-17);}.cls-18{fill:url(#linear-gradient-18);}.cls-19{fill:url(#linear-gradient-19);}.cls-20{fill:url(#linear-gradient-20);}.cls-21{fill:url(#linear-gradient-21);}.cls-22{fill:url(#linear-gradient-22);}.cls-23{fill:url(#linear-gradient-23);}.cls-24{fill:url(#linear-gradient-24);}.cls-25{fill:url(#linear-gradient-25);}.cls-26{fill:url(#linear-gradient-26);}.cls-27{fill:url(#linear-gradient-27);}.cls-28{fill:url(#linear-gradient-28);}.cls-29{fill:url(#linear-gradient-29);}.cls-30{fill:url(#linear-gradient-30);}.cls-31{fill:url(#linear-gradient-31);}.cls-32{fill:url(#linear-gradient-32);}.cls-33{fill:url(#linear-gradient-33);}.cls-34{fill:url(#linear-gradient-34);}.cls-35{fill:url(#linear-gradient-35);}.cls-36{fill:url(#linear-gradient-36);}.cls-37{fill:url(#linear-gradient-37);}.cls-38{fill:url(#linear-gradient-38);}.cls-39{fill:url(#linear-gradient-39);}.cls-40{fill:url(#linear-gradient-40);}.cls-41{fill:url(#linear-gradient-41);}.cls-42{fill:url(#linear-gradient-42);}.cls-43{fill:url(#linear-gradient-43);}.cls-44{fill:url(#linear-gradient-44);}.cls-45{fill:url(#linear-gradient-45);}</style><linearGradient id="linear-gradient" x1="22.71" y1="44.54" x2="64.98" y2="44.54" gradientUnits="userSpaceOnUse"><stop offset="0" stop-color="#b27f2a"/><stop offset="0.06" stop-color="#b7862e"/><stop offset="0.14" stop-color="#c49939"/><stop offset="0.24" stop-color="#dab84c"/><stop offset="0.33" stop-color="#f4dd62"/><stop offset="0.52" stop-color="#f4e38b"/><stop offset="0.66" stop-color="#f4dd62"/><stop offset="1" stop-color="#b27f2a"/></linearGradient><linearGradient id="linear-gradient-2" x1="23.28" y1="42.3" x2="32.69" y2="42.3" xlink:href="#linear-gradient"/><linearGradient id="linear-gradient-3" x1="37.22" y1="41.33" x2="44.27" y2="41.33" xlink:href="#linear-gradient"/><linearGradient id="linear-gradient-4" x1="0" y1="44.64" x2="33.59" y2="44.64" xlink:href="#linear-gradient"/><linearGradient id="linear-gradient-5" x1="16.36" y1="49.28" x2="22.32" y2="49.28" xlink:href="#linear-gradient"/><linearGradient id="linear-gradient-6" x1="-567.76" y1="44.54" x2="-525.49" y2="44.54" gradientTransform="matrix(-1, 0, 0, 1, -452.28, 0)" xlink:href="#linear-gradient"/><linearGradient id="linear-gradient-7" x1="-567.19" y1="42.3" x2="-557.79" y2="42.3" gradientTransform="matrix(-1, 0, 0, 1, -452.28, 0)" xlink:href="#linear-gradient"/><linearGradient id="linear-gradient-8" x1="-553.25" y1="41.33" x2="-546.21" y2="41.33" gradientTransform="matrix(-1, 0, 0, 1, -452.28, 0)" xlink:href="#linear-gradient"/><linearGradient id="linear-gradient-9" x1="-590.47" y1="44.64" x2="-556.88" y2="44.64" gradientTransform="matrix(-1, 0, 0, 1, -452.28, 0)" xlink:href="#linear-gradient"/><linearGradient id="linear-gradient-10" x1="-574.11" y1="49.28" x2="-568.15" y2="49.28" gradientTransform="matrix(-1, 0, 0, 1, -452.28, 0)" xlink:href="#linear-gradient"/><linearGradient id="linear-gradient-11" x1="41.21" y1="27.74" x2="96.69" y2="27.74" xlink:href="#linear-gradient"/><linearGradient id="linear-gradient-12" x1="49.24" y1="27.74" x2="88.67" y2="27.74" xlink:href="#linear-gradient"/><linearGradient id="linear-gradient-13" x1="83.97" y1="18.28" x2="53.94" y2="37.2" xlink:href="#linear-gradient"/><linearGradient id="linear-gradient-14" x1="87.58" y1="16" x2="50.33" y2="39.48" xlink:href="#linear-gradient"/><linearGradient id="linear-gradient-15" x1="61.62" y1="27.99" x2="79.47" y2="27.99" xlink:href="#linear-gradient"/><linearGradient id="linear-gradient-16" x1="15.8" y1="60.67" x2="124.75" y2="60.67" xlink:href="#linear-gradient"/><linearGradient id="linear-gradient-17" x1="124.01" y1="60.67" x2="128.66" y2="60.67" xlink:href="#linear-gradient"/><linearGradient id="linear-gradient-18" x1="11.97" y1="60.67" x2="16.62" y2="60.67" xlink:href="#linear-gradient"/><linearGradient id="linear-gradient-19" x1="20.93" y1="78.8" x2="92.44" y2="102.71" xlink:href="#linear-gradient"/><linearGradient id="linear-gradient-20" x1="21.21" y1="77.93" x2="92.76" y2="101.85" xlink:href="#linear-gradient"/><linearGradient id="linear-gradient-21" x1="21.77" y1="76.31" x2="93.25" y2="100.21" xlink:href="#linear-gradient"/><linearGradient id="linear-gradient-22" x1="22.08" y1="75.36" x2="93.59" y2="99.27" xlink:href="#linear-gradient"/><linearGradient id="linear-gradient-23" x1="22.48" y1="74.17" x2="93.98" y2="98.07" xlink:href="#linear-gradient"/><linearGradient id="linear-gradient-24" x1="22.86" y1="73.04" x2="94.36" y2="96.94" xlink:href="#linear-gradient"/><linearGradient id="linear-gradient-25" x1="23.3" y1="71.7" x2="94.82" y2="95.61" xlink:href="#linear-gradient"/><linearGradient id="linear-gradient-26" x1="23.97" y1="69.69" x2="95.48" y2="93.6" xlink:href="#linear-gradient"/><linearGradient id="linear-gradient-27" x1="24.36" y1="68.51" x2="95.88" y2="92.42" xlink:href="#linear-gradient"/><linearGradient id="linear-gradient-28" x1="24.73" y1="67.42" x2="96.24" y2="91.33" xlink:href="#linear-gradient"/><linearGradient id="linear-gradient-29" x1="25.3" y1="65.8" x2="96.77" y2="89.7" xlink:href="#linear-gradient"/><linearGradient id="linear-gradient-30" x1="25.69" y1="64.63" x2="97.17" y2="88.53" xlink:href="#linear-gradient"/><linearGradient id="linear-gradient-31" x1="26.35" y1="62.53" x2="97.88" y2="86.44" xlink:href="#linear-gradient"/><linearGradient id="linear-gradient-32" x1="26.78" y1="61.19" x2="98.32" y2="85.11" xlink:href="#linear-gradient"/><linearGradient id="linear-gradient-33" x1="27.2" y1="60.05" x2="98.71" y2="83.96" xlink:href="#linear-gradient"/><linearGradient id="linear-gradient-34" x1="27.67" y1="58.73" x2="99.15" y2="82.63" xlink:href="#linear-gradient"/><linearGradient id="linear-gradient-35" x1="18.12" y1="71.75" x2="28.72" y2="71.75" xlink:href="#linear-gradient"/><linearGradient id="linear-gradient-36" x1="29.18" y1="71.89" x2="38.56" y2="71.89" xlink:href="#linear-gradient"/><linearGradient id="linear-gradient-37" x1="38.86" y1="71.83" x2="47.93" y2="71.83" xlink:href="#linear-gradient"/><linearGradient id="linear-gradient-38" x1="49.06" y1="71.86" x2="50.84" y2="71.86" xlink:href="#linear-gradient"/><linearGradient id="linear-gradient-39" x1="51.66" y1="71.98" x2="62.27" y2="71.98" xlink:href="#linear-gradient"/><linearGradient id="linear-gradient-40" x1="63.03" y1="71.83" x2="68.65" y2="71.83" xlink:href="#linear-gradient"/><linearGradient id="linear-gradient-41" x1="75.04" y1="71.86" x2="83.96" y2="71.86" xlink:href="#linear-gradient"/><linearGradient id="linear-gradient-42" x1="85.63" y1="71.89" x2="96.67" y2="71.89" xlink:href="#linear-gradient"/><linearGradient id="linear-gradient-43" x1="96.97" y1="71.83" x2="106.05" y2="71.83" xlink:href="#linear-gradient"/><linearGradient id="linear-gradient-44" x1="107.11" y1="71.83" x2="112.73" y2="71.83" xlink:href="#linear-gradient"/><linearGradient id="linear-gradient-45" x1="114.56" y1="71.89" x2="120.18" y2="71.89" xlink:href="#linear-gradient"/></defs><title>Asset 1</title><g id="Layer_2" data-name="Layer 2"><g id="Layer_1-2" data-name="Layer 1"><path class="cls-1" d="M51.18,47.35a53.84,53.84,0,0,1-4.93-5.66c-3.25-4.23-7.42-6.52-11.73-6.43a13,13,0,0,0-10.29,5.81,8.44,8.44,0,0,0,2.05,11.74,5.49,5.49,0,0,0,7.64-1.34A3.64,3.64,0,0,0,33,46.42a2.47,2.47,0,0,0-3.44.6.5.5,0,1,0,.81.57,1.48,1.48,0,0,1,2.06-.36,2.65,2.65,0,0,1,.64,3.68A4.5,4.5,0,0,1,26.86,52,7.45,7.45,0,0,1,25,41.64a12,12,0,0,1,9.5-5.39c4-.09,7.87,2.06,10.92,6a52,52,0,0,0,5.71,6.43Z"/><path class="cls-2" d="M30.17,45.57a2.46,2.46,0,0,1-.79-.13,1.73,1.73,0,0,1-1.09-2.19,1.27,1.27,0,0,1,1.61-.8.5.5,0,0,1-.32.94.28.28,0,0,0-.36.18.74.74,0,0,0,.47.94,1.47,1.47,0,0,0,1.86-.92,2.63,2.63,0,0,0-1.65-3.33,4.48,4.48,0,0,0-5.66,2.81.49.49,0,1,1-.94-.31,5.47,5.47,0,0,1,6.91-3.44A3.62,3.62,0,0,1,32.5,43.9a2.46,2.46,0,0,1-2.33,1.68Z"/><path class="cls-3" d="M39.58,44.42a2,2,0,0,1-1.31-.48,2.94,2.94,0,0,1-.35-4.14,4.39,4.39,0,0,1,6.17-.53.49.49,0,1,1-.64.76,3.4,3.4,0,0,0-4.78.41,2,2,0,0,0,.23,2.75,1,1,0,0,0,1.47-.13.47.47,0,0,0-.06-.66.11.11,0,0,0-.16,0,.5.5,0,0,1-.76-.64A1.1,1.1,0,0,1,41,41.64a1.46,1.46,0,0,1,.18,2.06A2,2,0,0,1,39.58,44.42Z"/><path class="cls-4" d="M7.85,53.9A8,8,0,0,1,.61,49.67a5.6,5.6,0,0,1,2.45-7.53,4.12,4.12,0,0,1,5.54,1.81,3.07,3.07,0,0,1-1.34,4.13,2.33,2.33,0,0,1-3.12-1A.5.5,0,1,1,5,46.61a1.33,1.33,0,0,0,1.79.58,2.08,2.08,0,0,0,.91-2.8A3.13,3.13,0,0,0,3.51,43a4.61,4.61,0,0,0-2,6.2c1.93,3.8,6.28,4.08,8.56,3.36s3.94-2.72,6.59-6l.74-.92c4.46-5.51,8.83-9.37,15.64-10.27a.5.5,0,0,1,.13,1c-6.51.86-10.56,4.43-15,9.91l-.74.92c-2.67,3.32-4.43,5.51-7.06,6.33A8.41,8.41,0,0,1,7.85,53.9Z"/><path class="cls-5" d="M19.93,54a3.14,3.14,0,0,1-.71-.08A3.46,3.46,0,0,1,17,52.11c-1.65-3.2.54-6.69,1.17-7.39a.5.5,0,0,1,.73.67c-.45.49-2.42,3.56-1,6.27A2.43,2.43,0,0,0,19.45,53a1.79,1.79,0,0,0,1.45-.23,1,1,0,0,0,.22-1.46.47.47,0,0,0-.31-.19.46.46,0,0,0-.35.09.11.11,0,0,0,0,.07.11.11,0,0,0,0,.08.5.5,0,1,1-.8.59,1.1,1.1,0,0,1,.23-1.54,1.46,1.46,0,0,1,2,.31,2,2,0,0,1-.43,2.84A2.62,2.62,0,0,1,19.93,54Z"/><path class="cls-6" d="M87,47.35a53.71,53.71,0,0,0,4.93-5.66c3.25-4.23,7.42-6.52,11.73-6.43A13,13,0,0,1,114,41.07a8.44,8.44,0,0,1-2.05,11.74,5.49,5.49,0,0,1-7.64-1.34,3.64,3.64,0,0,1,.88-5.06,2.47,2.47,0,0,1,3.44.6.5.5,0,0,1-.81.57,1.48,1.48,0,0,0-2.06-.36,2.65,2.65,0,0,0-.64,3.68,4.5,4.5,0,0,0,6.26,1.1,7.45,7.45,0,0,0,1.81-10.36,12,12,0,0,0-9.5-5.39c-4-.09-7.87,2.06-10.92,6A52,52,0,0,1,87,48.72Z"/><path class="cls-7" d="M108,45.57a2.46,2.46,0,0,0,.78-.13,1.73,1.73,0,0,0,1.09-2.19,1.27,1.27,0,0,0-1.61-.8.5.5,0,0,0,.32.94.28.28,0,0,1,.22,0,.28.28,0,0,1,.14.16.74.74,0,0,1-.47.94,1.47,1.47,0,0,1-1.86-.92,2.63,2.63,0,0,1,1.66-3.33A4.48,4.48,0,0,1,114,43.07a.49.49,0,1,0,.94-.31A5.47,5.47,0,0,0,108,39.31a3.62,3.62,0,0,0-2.28,4.58A2.46,2.46,0,0,0,108,45.57Z"/><path class="cls-8" d="M98.62,44.42a2,2,0,0,0,1.31-.48,2.94,2.94,0,0,0,.35-4.14,4.39,4.39,0,0,0-6.17-.53.49.49,0,1,0,.64.76,3.4,3.4,0,0,1,4.78.41,2,2,0,0,1-.23,2.75,1,1,0,0,1-1.47-.13.47.47,0,0,1,.06-.66.11.11,0,0,1,.08,0,.11.11,0,0,1,.08,0,.5.5,0,0,0,.76-.64,1.1,1.1,0,0,0-1.56-.13,1.46,1.46,0,0,0-.18,2.06A2,2,0,0,0,98.62,44.42Z"/><path class="cls-9" d="M130.35,53.9a8,8,0,0,0,7.24-4.23,5.6,5.6,0,0,0-2.45-7.53,4.12,4.12,0,0,0-5.54,1.81,3.07,3.07,0,0,0,1.34,4.13,2.33,2.33,0,0,0,3.12-1,.5.5,0,1,0-.88-.45,1.33,1.33,0,0,1-1.79.58,2.08,2.08,0,0,1-.91-2.8A3.13,3.13,0,0,1,134.68,43a4.61,4.61,0,0,1,2,6.2c-1.93,3.8-6.28,4.08-8.56,3.36s-3.94-2.72-6.59-6l-.74-.92c-4.46-5.51-8.83-9.37-15.64-10.27a.5.5,0,0,0-.13,1c6.51.86,10.56,4.43,15,9.91l.74.92c2.67,3.32,4.44,5.51,7.06,6.33A8.41,8.41,0,0,0,130.35,53.9Z"/><path class="cls-10" d="M118.26,54a3.14,3.14,0,0,0,.71-.08,3.46,3.46,0,0,0,2.26-1.81c1.65-3.2-.54-6.69-1.17-7.39a.5.5,0,0,0-.73.67c.45.49,2.42,3.56,1,6.27a2.43,2.43,0,0,1-1.61,1.3,1.79,1.79,0,0,1-1.45-.23,1,1,0,0,1-.22-1.46.47.47,0,0,1,.31-.19.46.46,0,0,1,.35.09.11.11,0,0,1,0,.07.11.11,0,0,1,0,.08.5.5,0,1,0,.8.59,1.1,1.1,0,0,0-.23-1.54,1.46,1.46,0,0,0-2,.31,2,2,0,0,0,.43,2.84A2.62,2.62,0,0,0,118.26,54Z"/><path class="cls-11" d="M69,55.48A27.74,27.74,0,1,1,96.69,27.74,27.77,27.77,0,0,1,69,55.48ZM69,1.3A26.44,26.44,0,1,0,95.39,27.74,26.47,26.47,0,0,0,69,1.3Z"/><path class="cls-12" d="M70.5,47.39a.38.38,0,0,1,0-.75c.6,0,1.2-.12,1.8-.23a.37.37,0,1,1,.13.74c-.62.11-1.24.19-1.87.24Zm-4.88-.23h-.06c-.62-.11-1.24-.25-1.84-.41a.37.37,0,0,1,.2-.72c.58.16,1.17.29,1.77.39a.38.38,0,0,1-.06.74ZM77,45.71a.37.37,0,0,1-.16-.72c.54-.25,1.08-.53,1.61-.83a.38.38,0,1,1,.38.65c-.54.31-1.11.6-1.67.86A.37.37,0,0,1,77,45.71ZM59.3,44.88a.37.37,0,0,1-.19-.05c-.54-.31-1.07-.65-1.58-1A.38.38,0,0,1,58,43.2c.49.35,1,.68,1.52,1a.37.37,0,0,1-.19.7Zm23.22-3a.38.38,0,0,1-.26-.64c.43-.42.84-.87,1.23-1.33a.37.37,0,0,1,.57.48c-.4.48-.83.95-1.28,1.38A.37.37,0,0,1,82.52,41.9ZM54.16,40.57a.37.37,0,0,1-.29-.13c-.4-.48-.79-1-1.14-1.5a.38.38,0,0,1,.62-.43c.34.5.71,1,1.1,1.44a.37.37,0,0,1-.29.62Zm32.26-4.14a.38.38,0,0,1-.34-.54c.26-.54.49-1.1.7-1.67a.38.38,0,0,1,.71.26c-.21.59-.46,1.17-.73,1.74A.38.38,0,0,1,86.42,36.43ZM50.79,34.76a.38.38,0,0,1-.35-.25c-.22-.59-.4-1.19-.56-1.8a.37.37,0,0,1,.73-.19c.15.58.33,1.16.54,1.73a.37.37,0,0,1-.22.48ZM88.21,30h0a.38.38,0,0,1-.34-.41c.06-.6.08-1.21.08-1.81a.41.41,0,0,1,.38-.41.34.34,0,0,1,.38.34v.08c0,.63,0,1.26-.09,1.88A.38.38,0,0,1,88.21,30ZM49.61,28.13a.36.36,0,0,1-.37-.35v0c0-.61,0-1.23.08-1.84a.38.38,0,0,1,.75.07c-.05.59-.08,1.18-.08,1.77A.39.39,0,0,1,49.61,28.13Zm38-4.94a.38.38,0,0,1-.36-.28c-.15-.58-.34-1.16-.54-1.73a.38.38,0,1,1,.7-.26c.22.59.41,1.19.56,1.8a.38.38,0,0,1-.27.46Zm-36.9-1.65-.13,0a.37.37,0,0,1-.23-.48c.21-.59.46-1.17.72-1.74a.38.38,0,0,1,.68.32c-.26.54-.49,1.11-.7,1.67A.37.37,0,0,1,50.76,21.54ZM84.85,17.1a.38.38,0,0,1-.31-.16c-.34-.49-.71-1-1.1-1.44A.38.38,0,0,1,84,15c.4.48.79,1,1.15,1.49a.38.38,0,0,1-.31.59ZM54.11,15.72a.38.38,0,0,1-.29-.62c.4-.48.83-.95,1.27-1.38a.37.37,0,0,1,.53.53c-.43.42-.84.87-1.23,1.33A.37.37,0,0,1,54.11,15.72Zm26-3.39a.37.37,0,0,1-.22-.07c-.49-.35-1-.68-1.52-1a.37.37,0,1,1,.37-.65c.54.31,1.08.65,1.59,1a.37.37,0,0,1-.22.68Zm-20.88-.94a.38.38,0,0,1-.19-.7c.54-.31,1.1-.61,1.67-.87a.38.38,0,0,1,.31.68c-.55.25-1.09.53-1.61.83A.37.37,0,0,1,59.24,11.39ZM74.05,9.46H74c-.58-.16-1.18-.29-1.77-.39a.38.38,0,0,1,.13-.74c.61.11,1.23.24,1.84.41a.37.37,0,0,1-.1.74Zm-8.52-.38a.38.38,0,0,1-.07-.74c.61-.11,1.24-.19,1.87-.24a.37.37,0,1,1,.06.75c-.6,0-1.21.13-1.79.23Z"/><path class="cls-13" d="M69,45.49A17.75,17.75,0,1,1,86.7,27.74,17.77,17.77,0,0,1,69,45.49ZM69,11A16.75,16.75,0,1,0,85.7,27.74,16.77,16.77,0,0,0,69,11Z"/><path class="cls-14" d="M69,49.76a22,22,0,1,1,22-22A22,22,0,0,1,69,49.76Zm0-43a21,21,0,1,0,21,21A21,21,0,0,0,69,6.72Z"/><path class="cls-15" d="M61.62,16.75h2v12l10.75-12H77.7v.93a8.23,8.23,0,0,0-2.65.33,6,6,0,0,0-2.11,1.59l-5.13,5.66,11.65,14h-3L66.16,27.09,63.58,30v9.24h-2Z"/><path class="cls-16" d="M124.43,61H16.12a.32.32,0,1,1,0-.64h108.3a.32.32,0,1,1,0,.64Z"/><path class="cls-17" d="M124,60.67s2.56,1.74,2.09,3.61a1.66,1.66,0,0,0,.31-2.22c-.79-1,.62,1.11,2.24-1.39-1.62-2.5-2.89-.3-2.24-1.39a1.65,1.65,0,0,0-.31-2.22C126.25,59.26,124,60.67,124,60.67Z"/><path class="cls-18" d="M16.62,60.67s-2.56-1.74-2.09-3.61a1.66,1.66,0,0,0-.31,2.22c.79,1-.62-1.11-2.24,1.39,1.62,2.5,2.89.3,2.24,1.39a1.65,1.65,0,0,0,.31,2.22C14.37,62.07,16.62,60.67,16.62,60.67Z"/><path class="cls-19" d="M34.28,81.64v.3h-.89v2.53H33V81.94h-.89v-.3Z"/><path class="cls-20" d="M36.13,84.47h-.38L37,81.64h.41l1.21,2.83h-.41l-.37-.89h-.94l.1-.3h.71L37.14,82Z"/><path class="cls-21" d="M42.71,84.36a2,2,0,0,1-.74.13q-1.54,0-1.54-1.47t1.48-1.39a2.54,2.54,0,0,1,.79.12v.32a2.1,2.1,0,0,0-.75-.14q-1.16,0-1.16,1.1a1,1,0,0,0,1.14,1.18,1.92,1.92,0,0,0,.4,0v-1h.37Z"/><path class="cls-22" d="M45.3,81.64v2.53h1.48v.3H44.93V81.64Z"/><path class="cls-23" d="M49.26,81.64v2.83h-.37V81.64Z"/><path class="cls-24" d="M51.61,84.47V81.64H52l1.73,2.28V81.64h.35v2.83h-.37L52,82.18v2.3Z"/><path class="cls-25" d="M58.19,81.64v.3H56.71v.95h1.41v.3H56.71v1h1.51v.3H56.34V81.64Z"/><path class="cls-26" d="M63,84.37V84a2.82,2.82,0,0,0,1,.16q.73,0,.73-.53t-.54-.45h-.36q-.89,0-.89-.77T64,81.62a3.38,3.38,0,0,1,.92.12v.34a2.61,2.61,0,0,0-.92-.16c-.51,0-.77.17-.77.51s.17.45.52.45h.36q.9,0,.9.77t-1.1.83A3.71,3.71,0,0,1,63,84.37Z"/><path class="cls-27" d="M67.18,84.47V81.64h1.15q.87,0,.87.76c0,.55-.39.89-1.18,1l-.07-.31q.87-.13.87-.68c0-.31-.17-.47-.51-.47h-.75v2.53Z"/><path class="cls-28" d="M71.09,84.47h-.38l1.2-2.83h.41l1.21,2.83h-.41l-.36-.89h-.94l.1-.3h.71L72.1,82Z"/><path class="cls-29" d="M77.67,84.37a2.54,2.54,0,0,1-.79.12A1.31,1.31,0,0,1,75.4,83q0-1.4,1.48-1.39a2.54,2.54,0,0,1,.79.12v.32a2.11,2.11,0,0,0-.75-.14q-1.16,0-1.16,1.1a1,1,0,0,0,1.16,1.18,2.12,2.12,0,0,0,.75-.14Z"/><path class="cls-30" d="M81.74,81.64v.3H80.26v.95h1.41v.3H80.26v1h1.51v.3H79.89V81.64Z"/><path class="cls-31" d="M86.56,84.47V81.64h.37v1.25h1.67V81.64H89v2.83h-.37V83.19H86.92v1.29Z"/><path class="cls-32" d="M93.1,81.64v.3H91.62v.95H93v.3H91.62v1h1.51v.3H91.25V81.64Z"/><path class="cls-33" d="M95.31,84.47V81.64h1.21c.54,0,.81.23.81.68s-.26.64-.79.82l1,1.33H97l-.9-1.27V83q.81-.13.81-.62t-.45-.39h-.81v2.53Z"/><path class="cls-34" d="M101.36,81.64v.3H99.87v.95h1.41v.3H99.87v1h1.51v.3H99.51V81.64Z"/><path class="cls-35" d="M26.69,77.18v0a.41.41,0,0,0,0-.11s0-.09,0-.13a2.31,2.31,0,0,0-.06-.51,4.14,4.14,0,0,0-.24-.69l-.9-2H20.8l-.85,2-.24.6a1.81,1.81,0,0,0-.13.66.71.71,0,0,0,0,.16.3.3,0,0,0,0,.08v0H18.12v0a2.69,2.69,0,0,0,.33-.5q.2-.36.44-.9l4.25-9.43h.59l4,9.07q.14.32.29.62t.29.54l.24.4.14.21v0ZM21.88,73h3.33l-2.09-4.71-2,4.74Z"/><path class="cls-36" d="M38.24,68.17l-.07,0a4.4,4.4,0,0,0-1.39-.85,5.16,5.16,0,0,0-3.5,0,3.76,3.76,0,0,0-1.34.85,3.84,3.84,0,0,0-.87,1.37,5.09,5.09,0,0,0-.31,1.84,7.3,7.3,0,0,0,.3,2.12,4.91,4.91,0,0,0,.88,1.7,4.09,4.09,0,0,0,1.47,1.13,4.78,4.78,0,0,0,2.05.41,4.1,4.1,0,0,0,.85-.09,4,4,0,0,0,.81-.26,4.14,4.14,0,0,0,.73-.42,3.82,3.82,0,0,0,.63-.57l.08.05L38,77a6.39,6.39,0,0,1-1.23.33,7.94,7.94,0,0,1-1.35.12,7.58,7.58,0,0,1-2.51-.4,5.77,5.77,0,0,1-2-1.12,5.08,5.08,0,0,1-1.28-1.75,5.49,5.49,0,0,1-.46-2.27,5.36,5.36,0,0,1,.18-1.39,5.49,5.49,0,0,1,.53-1.3,5.33,5.33,0,0,1,.86-1.13,5.5,5.5,0,0,1,1.17-.89,5.94,5.94,0,0,1,1.45-.59,6.55,6.55,0,0,1,1.71-.21,7.84,7.84,0,0,1,2.66.44Z"/><path class="cls-37" d="M42.72,67.19a14.23,14.23,0,0,0-1.58.08q-.71.08-1.22.17t-1.06.24l.22-1.2h8.65l.22,1.2q-.47-.13-1.07-.24t-1.22-.17a14.23,14.23,0,0,0-1.58-.08v7.09q0,.63,0,1.1c0,.31,0,.59,0,.81s0,.42.07.57a3.87,3.87,0,0,0,.09.39v0H42.51v0a3.44,3.44,0,0,0,.08-.39c0-.15,0-.34.07-.57s0-.5,0-.81,0-.68,0-1.1Z"/><path class="cls-38" d="M49.06,77.15a3.44,3.44,0,0,0,.08-.39c0-.15,0-.34.07-.57s0-.5,0-.81,0-.68,0-1.1V69.45c0-.42,0-.79,0-1.1s0-.59,0-.82,0-.42-.07-.57a3.44,3.44,0,0,0-.08-.39v0h1.77v0c0,.1-.06.23-.09.39s0,.35-.07.57,0,.5,0,.82,0,.68,0,1.1v4.83q0,.63,0,1.1c0,.31,0,.59,0,.81s0,.42.07.57.06.28.09.39v0H49.06Z"/><path class="cls-39" d="M53.69,66.54v0a.38.38,0,0,0,0,.11,1.26,1.26,0,0,0,0,.13,2.34,2.34,0,0,0,.06.51A4.2,4.2,0,0,0,54,68l3.29,7.41,3.18-7.35.24-.6a1.83,1.83,0,0,0,.13-.66.68.68,0,0,0,0-.15l0-.09v0h1.52v0a2.37,2.37,0,0,0-.34.5q-.2.36-.44.9l-4.25,9.44h-.59l-4-9.08c-.09-.21-.19-.42-.29-.62L52,67.18l-.24-.4-.14-.21v0Z"/><path class="cls-40" d="M64.87,66.53l1.68,0,1.31,0a6.09,6.09,0,0,0,.73-.06l-.36,1a5.56,5.56,0,0,0-.57-.12L67,67.2q-.4,0-.93,0h-.43l-.48,0-.54,0v4.05q.76,0,1.38,0l1-.07.89-.1-.23,1.08-1-.13-1-.09q-.54,0-1,0v4.65a16,16,0,0,0,1.61-.07q.73-.07,1.28-.17A11.81,11.81,0,0,0,68.65,76l-.22,1.2H63v0a3.74,3.74,0,0,0,.08-.39c0-.15.05-.34.07-.57s0-.5,0-.81,0-.68,0-1.1V69.45c0-.42,0-.79,0-1.1s0-.59,0-.82,0-.42-.07-.57a3.74,3.74,0,0,0-.08-.39v0Z"/><path class="cls-41" d="M82.4,72.09H77.45l-.85,0v2.2q0,.63,0,1.1c0,.31,0,.59,0,.81s0,.42.07.57.06.28.09.39v0H75v0a3.74,3.74,0,0,0,.08-.39c0-.15.05-.34.07-.57s0-.5,0-.81,0-.68,0-1.1V69.45c0-.42,0-.79,0-1.1s0-.59,0-.82,0-.42-.07-.57a3.74,3.74,0,0,0-.08-.39v0h1.78v0c0,.1-.06.23-.09.39s0,.35-.07.57,0,.5,0,.82,0,.68,0,1.1v1.9l.88,0h2.11l1.07,0,1,0,.78,0V69.45c0-.42,0-.79,0-1.1s0-.59,0-.82a5.75,5.75,0,0,0-.07-.57,3.74,3.74,0,0,0-.08-.39v0H84v0c0,.1-.06.23-.09.39s-.05.35-.07.57,0,.5,0,.82,0,.68,0,1.1v4.83c0,.42,0,.79,0,1.1s0,.59,0,.81,0,.42.07.57.06.28.09.39v0H82.18v0a3.74,3.74,0,0,0,.08-.39,5.71,5.71,0,0,0,.07-.57c0-.23,0-.5,0-.81s0-.68,0-1.1Z"/><path class="cls-42" d="M90.94,66.36a6.3,6.3,0,0,1,2.29.4A5.4,5.4,0,0,1,95,67.9a5.17,5.17,0,0,1,1.19,1.76,5.78,5.78,0,0,1,.43,2.26,5.93,5.93,0,0,1-.16,1.39A5.69,5.69,0,0,1,96,74.6a5.47,5.47,0,0,1-.78,1.12,4.9,4.9,0,0,1-1.05.89,5.17,5.17,0,0,1-1.3.59,5.41,5.41,0,0,1-1.54.21,6.42,6.42,0,0,1-2.29-.4,5.32,5.32,0,0,1-1.81-1.12,5.12,5.12,0,0,1-1.19-1.75,5.78,5.78,0,0,1-.43-2.27,5.93,5.93,0,0,1,.16-1.39,5.78,5.78,0,0,1,.48-1.3A5.47,5.47,0,0,1,87,68.06a5,5,0,0,1,1-.89,5,5,0,0,1,1.31-.59A5.38,5.38,0,0,1,90.94,66.36Zm.42,10.38a3.73,3.73,0,0,0,1.51-.3A3.28,3.28,0,0,0,94,75.59a4,4,0,0,0,.77-1.38,5.73,5.73,0,0,0,.27-1.84,8.14,8.14,0,0,0-.26-2.12A5.16,5.16,0,0,0,94,68.55a3.69,3.69,0,0,0-1.3-1.12,3.84,3.84,0,0,0-1.81-.4,3.78,3.78,0,0,0-1.51.29,3.3,3.3,0,0,0-1.18.85,3.93,3.93,0,0,0-.77,1.37,5.7,5.7,0,0,0-.27,1.84,8.24,8.24,0,0,0,.26,2.12,5.09,5.09,0,0,0,.78,1.7,3.71,3.71,0,0,0,1.3,1.13A3.81,3.81,0,0,0,91.36,76.74Z"/><path class="cls-43" d="M100.83,67.19a14.21,14.21,0,0,0-1.58.08q-.7.08-1.22.17T97,67.68l.22-1.2h8.65l.22,1.2q-.48-.13-1.07-.24t-1.22-.17a14.21,14.21,0,0,0-1.58-.08v7.09q0,.63,0,1.1c0,.31,0,.59,0,.81s0,.42.07.57.06.28.09.39v0h-1.77v0a3.32,3.32,0,0,0,.08-.39c0-.15,0-.34.07-.57s0-.5,0-.81,0-.68,0-1.1Z"/><path class="cls-44" d="M109,66.53l1.68,0,1.31,0a6,6,0,0,0,.73-.06l-.36,1a5.56,5.56,0,0,0-.57-.12l-.69-.09q-.41,0-.93,0h-.43l-.48,0-.54,0v4.05q.76,0,1.38,0l1-.07.89-.1-.23,1.08-1-.13-1-.09c-.36,0-.71,0-1,0v4.65a16,16,0,0,0,1.61-.07q.73-.07,1.28-.17a11.75,11.75,0,0,0,1.17-.24l-.22,1.2h-5.41v0c0-.1.06-.23.09-.39s0-.34.07-.57,0-.5,0-.81,0-.68,0-1.1V69.45c0-.42,0-.79,0-1.1s0-.59,0-.82,0-.42-.07-.57-.06-.28-.09-.39v0Z"/><path class="cls-45" d="M116.12,76.53a16,16,0,0,0,1.61-.07q.73-.07,1.28-.17a11.75,11.75,0,0,0,1.17-.24l-.22,1.2h-5.41v0c0-.1.06-.23.09-.39s0-.34.07-.57,0-.5,0-.81,0-.68,0-1.1V69.45c0-.42,0-.79,0-1.1s0-.59,0-.82,0-.42-.07-.57-.06-.28-.09-.39v0h1.78v0c0,.1-.06.23-.09.39s0,.35-.07.57,0,.5,0,.82,0,.68,0,1.1Z"/></g></g></svg>