<?xml version="1.0" encoding="utf-8"?>
<!-- Generator: Adobe Illustrator 22.0.1, SVG Export Plug-In . SVG Version: 6.00 Build 0)  -->
<svg version="1.1" id="Layer_1" xmlns="http://www.w3.org/2000/svg" xmlns:xlink="http://www.w3.org/1999/xlink" x="0px" y="0px"
	 viewBox="0 0 498.4 202.3" style="enable-background:new 0 0 498.4 202.3;" xml:space="preserve">
<style type="text/css">
	.st0{fill:#DCA86E;}
	.st1{fill:url(#SVGID_1_);}
	.st2{fill:#2167BE;}
	.st3{fill:url(#SVGID_2_);}
	.st4{fill:#277FD9;}
	.st5{fill:#FEC4AD;}
	.st6{fill:url(#SVGID_3_);}
	.st7{fill:#FF5E69;}
	.st8{fill:url(#SVGID_4_);}
	.st9{fill:#F8D2A1;}
	.st10{fill:none;stroke:#A6AEBA;stroke-width:0.5;stroke-miterlimit:10;}
	.st11{fill:#50CC85;}
	.st12{fill:#77E6A6;}
	.st13{fill:#D2DCEB;}
	.st14{fill:#F3BA7A;}
	.st15{fill:#A6AEBA;}
	.st16{fill:#B6BFCC;}
	.st17{fill:#FFFFFF;}
</style>
<g id="OBJECTS">
	<g>
		<g>
			<polygon class="st0" points="422.5,131.3 455.4,202.3 459.1,202.3 430.7,126.7 			"/>
			<polygon class="st0" points="388.6,132.8 355.7,202.3 352,202.3 380.4,131.3 			"/>
			
				<linearGradient id="SVGID_1_" gradientUnits="userSpaceOnUse" x1="603.4633" y1="683.8602" x2="632.351" y2="683.8602" gradientTransform="matrix(0.8061 0.5918 -0.5918 0.8061 194.3804 -730.7013)">
				<stop  offset="0" style="stop-color:#343A44"/>
				<stop  offset="0.3009" style="stop-color:#232D3E"/>
				<stop  offset="0.6391" style="stop-color:#182439"/>
				<stop  offset="1" style="stop-color:#142138"/>
			</linearGradient>
			<path class="st1" d="M305.1,187.1l-16.7,14.6l-19.7-13.9c0,0,6.7-2.2,18.2,0.8l11.8-9.9L305.1,187.1z"/>
			<path class="st2" d="M401.7,106.5c0,0-36.9,18.9-50,24.6c-13,5.7-57.4,50.1-57.4,50.1s5.7,11.6,8.5,9.5
				c25.1-17.9,48.1-33.9,63-39.5c29.4-11.1,37.6-13.5,45.1-22.2C410.9,129,406.5,118.5,401.7,106.5z"/>
			<g>
				
					<linearGradient id="SVGID_2_" gradientUnits="userSpaceOnUse" x1="315.3434" y1="811.1796" x2="344.2434" y2="811.1796" gradientTransform="matrix(1 0 0 1 0 -621.7795)">
					<stop  offset="0" style="stop-color:#343A44"/>
					<stop  offset="0.3009" style="stop-color:#232D3E"/>
					<stop  offset="0.6391" style="stop-color:#182439"/>
					<stop  offset="1" style="stop-color:#142138"/>
				</linearGradient>
				<path class="st3" d="M344.2,179.7l-4.8,21.7l-24.1,0.5c0,0,4.1-5.8,15.1-10.1l3.6-14.9L344.2,179.7z"/>
				<path class="st4" d="M402.6,101.7c0,0-34.3,3.7-46.9,10.4c-12.5,6.7-22.5,68.6-22.5,68.6s9.7,5.3,10.9,2
					c9.7-26.4,20.5-47.2,20.5-47.2c12.3-2.3,40.9,11.7,61.6-8.7C426.3,126.9,408.4,113.3,402.6,101.7z"/>
			</g>
			<g>
				<path class="st5" d="M461.8,60c0,0-2.5,4.1-4,9.2l-14.1-1.3c0,0,7.3-11,6.7-17.7L461.8,60z"/>
				<g>
					<path class="st5" d="M458.8,37.1c-0.8-0.2-3.8-1-4.4-0.8c-0.8,0.3,0.1,1.5-0.5,2.1c-1,1.1-2.9,1.1-4.1,1.8
						c-1.5,0.8-2.7,1.9-3.3,3.1c-1.1,2,3,6.5,3.7,9.9c1.4,7.1,10.3,8.1,17.6,6c2.6-0.8,5-3.1,6.4-5.4c1.7-2.7,0.7-7.1-0.7-9.8
						c-0.8-1.6-2.5-3-3.9-4c-1.3-0.9-1.7-4.7-3.2-4.9C466.2,35.2,460.6,37.6,458.8,37.1z"/>
				</g>
				
					<linearGradient id="SVGID_3_" gradientUnits="userSpaceOnUse" x1="-127.5392" y1="422.2405" x2="-96.2211" y2="422.2405" gradientTransform="matrix(-0.6574 -0.7535 -0.7535 0.6574 712.7945 -315.5441)">
					<stop  offset="0" style="stop-color:#343A44"/>
					<stop  offset="0.3009" style="stop-color:#232D3E"/>
					<stop  offset="0.6391" style="stop-color:#182439"/>
					<stop  offset="1" style="stop-color:#142138"/>
				</linearGradient>
				<path class="st6" d="M479.1,56.1c0,0-0.2-1.2,1.8-3.1c6.8-6.4-0.5-18.9-7.9-21c-3.8-1.1-6.2,0.1-7.5-3.7c0.1,0.3-1.5,1-1.7,1.1
					c-0.9,0.7-1.3,1.3-1.3,2.5c-0.1,5.5,4.8,10.5,8.4,14c1.7,1.5-2.4,0.5-4.1,0.8c-1.1,0.2-3.9,3.1-4.5,3.6c1.5,1.9,2.9,0.2,5,1.1
					c1.9,0.9,0.7,3.3-1.1,3.6c-2.8,0.4-3.9-1.4-3.9-1.4c-1.3,0.7-1.5,4.8-2.5,5.9c1.4,0.8,9.5,2.2,11.4,2.2
					C475.3,61.6,477.8,59.4,479.1,56.1z"/>
			</g>
			<path class="st7" d="M461.4,62.2c3,33-35.1,64.7-35.1,64.7s-24.8,0.9-23.6-25.2c0,0,1.9-4.7,17.3-18.7
				c10.3-9.3,17.5-23.2,24.7-22.9C464.4,60.9,461.4,62.2,461.4,62.2z"/>
			
				<linearGradient id="SVGID_4_" gradientUnits="userSpaceOnUse" x1="369.1" y1="721.0577" x2="464.9" y2="721.0577" gradientTransform="matrix(1 0 0 1 0 -621.7795)">
				<stop  offset="0" style="stop-color:#343A44"/>
				<stop  offset="0.3009" style="stop-color:#232D3E"/>
				<stop  offset="0.6391" style="stop-color:#182439"/>
				<stop  offset="1" style="stop-color:#142138"/>
			</linearGradient>
			<path class="st8" d="M369.1,128.7c0,0,22.9,8.5,53.4-3c30.5-11.6,38.9-65.6,38.9-65.6l3.5,1.8c0,0-3.4,59.7-43.6,72.6
				c-30.7,9.9-52.2-1.9-52.2-1.9L369.1,128.7L369.1,128.7z"/>
			<g>
				<path class="st9" d="M457.7,95.2c0,0,3.7,12.7,3.9,19c0.2,6.3-2.5,27.8-2.5,27.8l5.8,0.7c0,0,5.2-25.6,5.3-33.9
					c0.1-8.3-4.7-21.9-4.7-21.9L457.7,95.2z"/>
				<path class="st7" d="M457.3,95.7c4.2,18.5,2.5,43.2,2.5,43.2l6.3,0.4c6.9-14.5,6.3-46.6,2.6-60.1c-2.2-7.9-3.4-15.9-8.8-17.2
					c-3.4-0.8-10.3,1.7-11.2,5C446.8,74.3,455.2,86.6,457.3,95.7z"/>
				<path class="st9" d="M456.4,145.1c-1.4,2.7-2,4.6-1.2,5.3c0.6,0.5,1.5-2.1,2.6-3c0.3,1.1,0.4,3.1-0.3,4.8
					c-0.8,1.9-0.7,3.5,0.7,3.7c1.5,0.1,3.8,0,4.3-1.2s1.7-6.2,2.4-7.9c0.6-1.7-0.2-3.6,0-4.6s-4.3-2.6-4.3-2.6
					c-0.2,0.4-1.6,2.3-1.6,2.3s-1.2,1.4-1.6,1.7C457.1,143.8,456.4,145.1,456.4,145.1z"/>
			</g>
		</g>
		<line class="st10" x1="0" y1="202" x2="498.4" y2="202"/>
		<g>
			<g>
				<g>
					<path class="st11" d="M181.2,48.9c0,0,1.5-3.8,4.3-7.1c2.8-3.4,7-8.9,7-8.9s-2,4-4.8,8.5C184.9,45.8,181.2,48.9,181.2,48.9z"/>
					<path class="st11" d="M184.1,42.4c0,0,3.1-2.4,4.9-7.6c1.9-5.1,3.5-9.1,3.5-9.1s-4,5.7-5.7,9.7S184.1,42.4,184.1,42.4z"/>
					<path class="st11" d="M181.4,48.2c0,0,1.6-5.9,1.9-10.6c0.3-4.7,0.3-7.6,0.3-7.6s-2,8.5-2.7,12.1
						C180.3,45.7,181.4,48.2,181.4,48.2z"/>
					<path class="st11" d="M180,52.1c0,0,0.5-6.1-1.2-11.5s-1.8-8.9-1.8-8.9s-0.8,5.7,0.2,10.6C178.2,47.2,180,52.1,180,52.1z"/>
					<path class="st11" d="M180.5,50.8c0,0,4.3-3.7,6.5-4.5c2.2-0.9,5.2-3.4,5.2-3.4s-3.7,4.8-5.8,5.7
						C184.3,49.5,180.5,50.8,180.5,50.8z"/>
					<path class="st11" d="M179,55.9c0,0,0.4-3.3-1.5-8s-2.4-7-2.4-7s-0.1,6.4,1.2,8.8C177.6,52,179,55.9,179,55.9z"/>
					<path class="st11" d="M179.4,53.5c0,0,2.5-1.7,4.9-2s3-0.7,3-0.7s-1.2,2.2-4.1,2.6C180.2,53.8,179.4,53.5,179.4,53.5z"/>
					<path class="st11" d="M177.8,59c0.5-2.1,1.2-5.3,1.9-7.4c1.6-4.7,5.3-10.9,5.3-10.9c-2.3,5-3.9,7.9-5.1,12.2
						c-0.5,1.7-1.2,4.1-1.7,5.7C178.2,59.1,177.9,59.5,177.8,59z"/>
				</g>
				<g>
					<path class="st12" d="M178.9,50.6c0,0-0.2-4.3-1.9-8.7c-1.6-4.3-3.9-11.4-3.9-11.4s0.7,4.7,1.9,10.2
						C176.2,46.2,178.9,50.6,178.9,50.6z"/>
					<path class="st12" d="M178.3,43c0,0-2.3-3.5-2.4-9.3c-0.1-5.8-0.4-10.3-0.4-10.3s2,7.2,2.4,11.7C178.2,39.7,178.3,43,178.3,43z
						"/>
					<path class="st12" d="M179,49.8c0,0,0.4-6.5,1.7-11.3s2.4-7.8,2.4-7.8s-0.9,9.3-1.5,13.1C180.9,47.7,179,49.8,179,49.8z"/>
					<path class="st12" d="M179,54.2c0,0,1.6-6.3,5.2-11.1c3.6-4.9,4.9-8.3,4.9-8.3s-1.1,6-3.8,10.6C182.5,49.9,179,54.2,179,54.2z"
						/>
					<path class="st12" d="M179,52.7c0,0-3.1-5.2-4.9-6.8c-1.9-1.6-4.1-5.2-4.1-5.2s2.1,6.1,3.9,7.8C175.6,50.1,179,52.7,179,52.7z"
						/>
					<path class="st12" d="M178.7,58.4c0,0,0.7-3.5,4.3-7.5s4.8-6.2,4.8-6.2s-2.1,6.4-4.2,8.4C181.5,55,178.7,58.4,178.7,58.4z"/>
					<path class="st12" d="M179.1,55.8c0,0-1.9-2.5-4.2-3.7s-2.8-1.7-2.8-1.7s0.4,2.6,3.3,4C178.2,55.8,179.1,55.8,179.1,55.8z"/>
					<path class="st11" d="M178.8,62c0.2-2.3,0.6-5.7,0.6-8.2c0.1-5.3-1.6-12.7-1.6-12.7c0.5,5.9,1.2,9.3,0.9,14.1
						c-0.1,1.9-0.2,4.6-0.3,6.3C178.4,61.9,178.6,62.3,178.8,62z"/>
				</g>
				<g>
					<path class="st11" d="M175.6,51.5c0,0-1.5-3.8-4.3-7.1c-2.8-3.4-7-8.9-7-8.9s2,4,4.8,8.5C171.9,48.4,175.6,51.5,175.6,51.5z"/>
					<path class="st11" d="M172.8,45c0,0-3.1-2.4-4.9-7.6c-1.9-5.1-3.5-9.1-3.5-9.1s4,5.7,5.7,9.7C171.7,42,172.8,45,172.8,45z"/>
					<path class="st11" d="M175.4,50.8c0,0-1.6-5.9-1.9-10.6c-0.3-4.7-0.3-7.6-0.3-7.6s2,8.5,2.7,12.1
						C176.5,48.3,175.4,50.8,175.4,50.8z"/>
					<path class="st11" d="M176.8,54.7c0,0-0.5-6.1,1.2-11.5s1.8-8.9,1.8-8.9s0.8,5.7-0.2,10.6C178.7,49.8,176.8,54.7,176.8,54.7z"
						/>
					<path class="st11" d="M176.3,53.3c0,0-4.3-3.7-6.5-4.5c-2.2-0.9-5.2-3.4-5.2-3.4s3.7,4.8,5.8,5.7
						C172.5,52.1,176.3,53.3,176.3,53.3z"/>
					<path class="st11" d="M177.8,58.5c0,0-0.4-3.3,1.5-8s2.4-7,2.4-7s0.1,6.4-1.2,8.8C179.3,54.6,177.8,58.5,177.8,58.5z"/>
					<path class="st11" d="M177.4,56.1c0,0-2.5-1.7-4.9-2s-3-0.7-3-0.7s1.2,2.2,4.1,2.6C176.6,56.4,177.4,56.1,177.4,56.1z"/>
					<path class="st11" d="M179,61.6c-0.5-2.1-1.2-5.3-1.9-7.4c-1.6-4.7-5.3-10.9-5.3-10.9c2.3,5,3.9,7.9,5.1,12.2
						c0.5,1.7,1.2,4.1,1.7,5.7C178.6,61.7,178.9,62,179,61.6z"/>
				</g>
				<polygon class="st13" points="184.5,76.2 172.8,76.2 169.2,55.6 188.5,55.6 				"/>
			</g>
			<g>
				<g>
					<polygon class="st0" points="317.8,81.8 337,202.1 340.7,202.1 325.5,81.8 					"/>
					<polygon class="st0" points="185.1,81.9 160.1,202.3 155.1,202.3 174.7,81.9 					"/>
				</g>
				<rect x="145.7" y="74.8" class="st0" width="207" height="9.3"/>
				<rect x="135.8" y="74.8" class="st14" width="226.9" height="6.2"/>
			</g>
			<g>
				<g>
					<polygon class="st15" points="299.2,71.5 291.1,71.5 283.1,20.2 289.2,20.2 					"/>
					<polygon class="st13" points="296.9,71.5 265.5,71.5 257.4,20.2 288.8,20.2 					"/>
					<rect x="265" y="70.4" class="st13" width="34.2" height="3.8"/>
					<rect x="299.2" y="70.4" class="st15" width="43.1" height="3.8"/>
					<path class="st15" d="M279.6,48.3c0.9,3.9,0.3,8.2-1.4,9.5c-1.7,1.3-3.8-0.8-4.7-4.8c-0.9-3.9-0.3-8.2,1.4-9.5
						C276.6,42.3,278.7,44.4,279.6,48.3z"/>
				</g>
			</g>
			<g>
				<path class="st15" d="M230.7,74h-4.5c-1.8,0-3.4-1.3-3.7-3.2l-1.8-11.5h15.5l-1.8,11.5C234.1,72.7,232.6,74,230.7,74z"/>
				<g>
					<path class="st15" d="M234.9,71.6c-0.2,0-0.3,0-0.5,0h-0.2l-0.2-0.1c-0.1-0.1-2.7-2.1-2.7-5c0-3,2-5.4,4.4-5.4
						c1.5,0,2.8,0.6,3.6,1.5c0.6,0.7,1.2,2,0.8,4l0,0C239.5,69.8,237.6,71.6,234.9,71.6z M234.7,70.2c2.8,0.1,3.7-2.1,4-3.9l0,0
						c0.2-1.2,0-2.2-0.5-2.9s-1.5-1-2.5-1c-1.7,0-3,1.8-3,4C232.7,68.2,234.2,69.7,234.7,70.2z"/>
				</g>
			</g>
			<polygon class="st13" points="219.3,75 238.8,75 241.9,71.6 216.2,71.6 			"/>
		</g>
		<g>
			<rect x="22.4" class="st16" width="93.4" height="202"/>
			<rect x="33.2" y="8.9" class="st13" width="71.9" height="21.2"/>
			<path class="st17" d="M77.7,22H60.5c-0.4,0-0.8-0.4-0.8-0.8v-3.5c0-0.4,0.4-0.8,0.8-0.8h17.2c0.4,0,0.8,0.4,0.8,0.8v3.5
				C78.5,21.7,78.2,22,77.7,22z"/>
			<rect x="33.2" y="35.8" class="st13" width="71.9" height="21.2"/>
			<path class="st17" d="M77.7,49H60.5c-0.4,0-0.8-0.4-0.8-0.8v-3.5c0-0.4,0.4-0.8,0.8-0.8h17.2c0.4,0,0.8,0.4,0.8,0.8v3.5
				C78.5,48.6,78.2,49,77.7,49z"/>
			<rect x="33.2" y="62.8" class="st13" width="71.9" height="21.2"/>
			<path class="st17" d="M77.7,75.9H60.5c-0.4,0-0.8-0.4-0.8-0.8v-3.5c0-0.4,0.4-0.8,0.8-0.8h17.2c0.4,0,0.8,0.4,0.8,0.8v3.5
				C78.5,75.6,78.2,75.9,77.7,75.9z"/>
			<rect x="33.2" y="90" class="st13" width="71.9" height="103.8"/>
			<path class="st17" d="M77.7,103.2H60.5c-0.4,0-0.8-0.4-0.8-0.8v-3.5c0-0.4,0.4-0.8,0.8-0.8h17.2c0.4,0,0.8,0.4,0.8,0.8v3.5
				C78.5,102.9,78.2,103.2,77.7,103.2z"/>
		</g>
	</g>
</g>
<g id="DESIGNED_BY_FREEPIK">
</g>
</svg>
